<svg xmlns="http://www.w3.org/2000/svg" width="23" height="17" fill="none" viewBox="0 0 23 17"><mask id="b" width="21" height="15" x="1" y="1" maskUnits="userSpaceOnUse"><path fill="url(#a)" d="M20.5 1h-18A1.5 1.5 0 0 0 1 2.5v12A1.5 1.5 0 0 0 2.5 16h18a1.5 1.5 0 0 0 1.5-1.5v-12A1.5 1.5 0 0 0 20.5 1"/></mask><g mask="url(#b)"><path fill="url(#c)" d="M22 1H1v15h21z"/><path fill="url(#d)" d="M22 1H1v15h21z"/><path fill="#FDD216" fill-rule="evenodd" d="M3.422 8.773c-.233-.15-.228-.398 0-.546l7.657-4.954a.85.85 0 0 1 .843 0l7.657 4.954c.232.15.228.398 0 .546l-7.657 4.954a.85.85 0 0 1-.843 0z" clip-rule="evenodd"/><path fill="url(#e)" d="M11.5 12a3.5 3.5 0 1 0 0-7 3.5 3.5 0 0 0 0 7"/><mask id="f" width="7" height="7" x="8" y="5" maskUnits="userSpaceOnUse"><path fill="#fff" d="M11.5 12a3.5 3.5 0 1 0 0-7 3.5 3.5 0 0 0 0 7"/></mask><g mask="url(#f)"><path fill="#fff" d="M7.9 7.974c.265-.215 1.463-.04 3.534.512 1.475.394 3.173 1.262 3.562 1.742l.314.388.778-.629-.315-.388c-.55-.68-2.421-1.636-4.081-2.079-2.586-.69-3.758-.86-4.422-.323l-.388.314.63.777z"/></g></g><defs><linearGradient id="a" x1="1051" x2="1051" y1="1" y2="1501" gradientUnits="userSpaceOnUse"><stop stop-color="#fff"/><stop offset="1" stop-color="#F0F0F0"/></linearGradient><linearGradient id="c" x1="1051" x2="1051" y1="1" y2="1501" gradientUnits="userSpaceOnUse"><stop stop-color="#fff"/><stop offset="1" stop-color="#F0F0F0"/></linearGradient><linearGradient id="d" x1="1051" x2="1051" y1="1" y2="1501" gradientUnits="userSpaceOnUse"><stop stop-color="#05AB41"/><stop offset="1" stop-color="#019C39"/></linearGradient><linearGradient id="e" x1="358" x2="358" y1="5" y2="705" gradientUnits="userSpaceOnUse"><stop stop-color="#053087"/><stop offset="1" stop-color="#012877"/></linearGradient></defs></svg>