<svg width="171" height="91" viewBox="0 0 171 91" fill="none" xmlns="http://www.w3.org/2000/svg">
<path d="M65.1824 87.965L0.230117 85.9985L7.54687 55.9437C8.67392 51.3295 11.1895 47.477 15.1004 44.4011C19.0112 41.3252 23.8686 39.5997 29.6724 39.2247L65.1095 36.9857C68.848 36.7024 71.6797 36.1786 73.6046 35.4071C75.5295 34.6356 76.7517 33.1599 77.2862 30.9657L78.3466 26.6212C79.2648 22.8673 76.3774 20.8853 69.6914 20.6829L50.452 20.1004C45.8559 19.9612 42.3752 20.6636 39.9881 22.2069C37.6083 23.7503 35.8802 26.7161 34.8114 31.0971L34.4689 32.5039L13.5124 31.8695C13.7137 30.7741 13.9136 29.73 14.1187 28.7522C14.3238 27.7745 14.5358 26.8116 14.7691 25.8713C16.0299 20.7031 17.5927 16.4326 19.472 13.0602C21.3441 9.68755 23.6917 7.03427 26.507 5.11479C29.3227 3.18798 32.7042 1.89513 36.6374 1.22114C40.5778 0.554703 45.2151 0.298563 50.5493 0.460056L80.4277 1.36463C85.9884 1.53299 90.4403 2.32866 93.7837 3.74433C93.5674 3.88465 93.3439 4.01741 93.1349 4.15794C89.8563 6.40119 87.1078 9.49027 84.9652 13.3467C82.9388 16.9864 81.2338 21.6051 79.9056 27.065C79.6642 28.0343 79.436 29.0481 79.2223 30.0697C79.0089 31.0766 78.8009 32.1498 78.5984 33.2819L77.8425 37.474L94.7875 37.987C89.6727 38.7942 85.2279 40.6643 81.5342 43.5706C77.4511 46.7808 74.6383 50.7858 73.1504 55.4846L34.6758 58.0428C32.2574 58.2045 30.361 58.9989 28.9944 60.4115C27.6277 61.8315 26.6056 63.9448 25.9204 66.7659L25.8039 67.2323L69.8873 68.567L65.1687 87.9352L65.1824 87.965ZM154.094 90.6568L158.813 71.2886L94.4965 69.3414L94.613 68.8749C95.2982 66.0538 96.3276 63.9408 97.687 62.5206C99.0538 61.1007 100.943 60.3134 103.368 60.1518L143.712 57.4666C149.581 57.0936 154.443 55.2287 158.289 51.8718C162.135 48.5222 164.711 44.1428 166.03 38.7414L169.462 24.6507C171.199 17.5289 170.429 12.2845 167.174 8.9109C163.904 5.55149 157.889 3.73182 149.113 3.46614L119.235 2.56156C113.893 2.39984 109.256 2.65598 105.323 3.32264C101.383 3.98908 98.0082 5.28948 95.1925 7.2163C92.3769 9.14311 90.0296 11.7891 88.1575 15.1617C86.2782 18.5341 84.7154 22.8046 83.4546 27.9728C83.2213 28.9131 83.0093 29.876 82.8042 30.8537C82.5991 31.8315 82.3992 32.8756 82.1979 33.971L103.162 34.6057L103.504 33.1988C104.573 28.8178 106.294 25.8518 108.681 24.3086C111.061 22.7651 114.549 22.063 119.145 22.2021L138.384 22.7846C145.07 22.987 147.95 24.9688 147.039 28.723L145.979 33.0675C145.445 35.2616 144.215 36.7371 142.297 37.5088C140.373 38.2803 137.541 38.8041 133.802 39.0875L98.3652 41.3264C92.5614 41.7014 87.6967 43.4267 83.7932 46.5028C79.8823 49.5788 77.3596 53.4237 76.2397 58.0454L68.9229 88.1002L154.101 90.679L154.094 90.6568Z" fill="#DB1D42"/>
</svg>
