<?xml version="1.0" encoding="UTF-8"?>
<svg id="Layer_2" data-name="Layer 2" xmlns="http://www.w3.org/2000/svg" viewBox="0 0 1011.97 42.54">
  <defs>
    <style>
      .cls-1 {
        fill: #fff;
      }
    </style>
  </defs>
  <g id="Website">
    <g>
      <g>
        <rect class="cls-1" x="830.86" y="16.51" width="2.8" height="9.46"/>
        <polygon class="cls-1" points="835.9 25.97 843.22 25.97 843.22 24.08 838.73 24.08 838.73 22.15 842.67 22.15 842.67 20.32 838.73 20.32 838.73 18.37 843.22 18.37 843.22 16.51 835.9 16.51 835.9 25.97"/>
        <polygon class="cls-1" points="850.94 22.14 848.44 16.51 844.75 16.51 844.75 25.97 847.03 25.97 847.03 20.32 849.51 25.97 851.38 25.97 854.05 20.17 854.05 25.97 856.88 25.97 856.88 16.51 853.53 16.51 850.94 22.14"/>
        <polygon class="cls-1" points="874.84 22.3 871.28 16.5 868.18 16.5 868.18 25.97 870.17 25.97 870.17 20.13 873.76 25.97 876.84 25.97 876.84 16.5 874.84 16.5 874.84 22.3"/>
        <polygon class="cls-1" points="859.15 25.97 866.43 25.97 866.43 24.08 861.93 24.08 861.93 22.15 865.85 22.15 865.85 20.32 861.93 20.32 861.93 18.37 866.43 18.37 866.43 16.51 859.15 16.51 859.15 25.97"/>
        <path class="cls-1" d="M827.78,20.85c-.82-.39-2.04-.99-2.91-1.42-.8-.35-.81-2.24,3.82-.82v-1.81c-.98-.32-3.63-.96-5.63.13-2,1.11-1.51,3.89,0,4.78.69.39,1.6.69,2.74,1.19,1.01.38,1.55,2.53-3.94,1.08v1.85c1.12.44,5.29.85,6.49-.48,1.53-1.7.86-3.91-.58-4.48"/>
        <path class="cls-1" d="M884.44,20.85c-.82-.39-2.06-.99-2.91-1.42-.83-.35-.85-2.24,3.78-.82v-1.81c-.97-.32-3.59-.96-5.6.13-1.98,1.11-1.5,3.89,0,4.78.66.39,1.55.68,2.72,1.19,1,.38,1.57,2.53-3.94,1.08v1.85c1.15.44,5.27.85,6.51-.48,1.52-1.7.84-3.91-.56-4.48"/>
      </g>
      <g>
        <polygon class="cls-1" points="138.13 18.37 134.11 27.22 136.3 27.03 139.17 19.43 139.72 19.38 139.55 23.47 138.58 23.55 137.03 25.12 139.5 24.9 139.44 26.75 141.66 26.55 141.33 18.08 138.13 18.37"/>
        <polygon class="cls-1" points="145.31 19.38 143.29 19.55 141.81 26.54 145.63 26.2 145.96 24.68 144.15 24.84 145.31 19.38"/>
        <polygon class="cls-1" points="148.37 24.47 149.53 19.01 147.51 19.18 146.03 26.17 149.85 25.83 150.18 24.31 148.37 24.47"/>
        <polygon class="cls-1" points="116.26 26.32 115.81 21.97 113.04 22.21 111.55 29.21 113.02 29.08 114.23 23.51 114.85 28.91 116.25 28.79 119.23 23.08 118.02 28.63 119.93 28.46 121.4 21.48 118.69 21.71 116.26 26.32"/>
        <path class="cls-1" d="M125.51,21.07l-.39.03c-1.62.14-2.72.8-3,2.17l-.65,3.14c-.3,1.41.61,1.9,2.22,1.76.21-.02.49-.04.81-.09,1.15-.17,2.29-.7,2.59-2.13l.65-3.14c.3-1.4-.61-1.89-2.22-1.75ZM125.71,23.05l-.66,3.14c-.11.52-.26.85-.95.91h-.07c-.66.06-.68-.22-.57-.74l.66-3.14c.12-.52.26-.84.95-.9h.07c.66-.06.68.21.57.73Z"/>
        <path class="cls-1" d="M134.22,22.62l.08-.37c.29-1.38-.47-1.86-2.07-1.73l-2.97.26-1.5,6.99,2.04-.18c.41-1.94.82-3.88,1.23-5.83l.56-.05c.78-.07.8.2.7.71l-.1.45c-.08.35-.2.54-.54.65l-.89.9v.04s.66,2.97.66,2.97l2.43-.21-1.3-2.76c.82-.11,1.4-.64,1.66-1.86Z"/>
        <path class="cls-1" d="M111.6,24.61l.08-.37c.29-1.39-.47-1.86-2.06-1.73l-2.97.26-1.5,6.99,2.03-.18c.41-1.94.82-3.88,1.23-5.83l.56-.05c.78-.07.8.2.7.71l-.1.45c-.08.35-.2.54-.54.65l-.89.9v.04s.66,2.97.66,2.97l2.43-.21-1.3-2.76c.82-.11,1.4-.64,1.66-1.86Z"/>
        <path class="cls-1" d="M107.61,13.37s0-.11-.03-.11c-.04,0-.09.05-.1.19-.02.14-.07.52.45.89,0,0,.11.08.14.03.03-.05.12-.18.13-.22,0-.04.02-.08-.03-.12-.14-.1-.5-.35-.56-.65Z"/>
        <path class="cls-1" d="M103.93,19.42c-.13.14.19.79.19.79.02-.33.58-.78.78-.94,1.04-.85,2.53-.79,2.53-.79,0,0-2.2-.49-3.51.93Z"/>
        <path class="cls-1" d="M108.32,14.66s-.05.14-.07.17c-.01.07-.03.17-.05.24.07-.04.13-.08.14-.12.02-.06.02-.15.05-.19.03-.04,1.64-1.18,3.04-.51,0,0,.09.05.13.02.03-.03.02-.11,0-.17-.03-.1-.1-.26-.12-.33-.02-.07-.15-.09-.15-.09-.03,0-.14-.09-.53-.14-.11-.24-.26-.54-.43-.8-.06-.03-.23-.03-.29,0,.13.23.26.56.29.8-.61.03-1.49.25-2.01,1.13Z"/>
        <path class="cls-1" d="M110.9,14.93c.06-.02.15-.06.2-.07.15-.01.26-.03.37,0,0,0,.08.03.1-.03.02-.07.04-.1.03-.13,0-.03-.03-.04-.03-.04-.13-.07-1.26-.67-2.67.15,0,0,.05,1.15.05,1.34,0,0-.13.02-.39-.41,0,0-.04-.08-.05-.23v-.17s0-.08-.06-.08c-.04,0-.11-.02-.15-.02-.04,0-.06.03-.08.06,0,0-.06.34-.07.53,0,0,.02.16.08.24.05.06.18.24.25.3.03.02.02.08.02.08,0,0-.16.63-.19.96-.03.33,0,1.67.05,2.06,0,0,.04.25.27.09,0,0,.55-.38.69-.43.15-.05.97-.23,1.2-.34.23-.11.74-.35.82-.59,0,0,.1-.18-.02-.21-.09.04-.23.07-.41.09-.09.01-.2,0-.3-.01-.15.03-.31.07-.5.13,0,0-.41.17-.72.53,0,0-.08.09-.17,0-.09-.09-.37-.29-.43-.59-.07-.31-.04-.83.05-1.24,0,0,.02-.25.07-.27.05-.03.13.21.14.24,0,0,.21.31.39.45,0,0,.23.17.41.27.12.06.25.14.28.14.03,0,.16.05.18.05.05.02.13.02.19-.04.06-.07.26-.18.35-.21.08-.03.15-.04.21-.02.07.02.19.02.2-.03,0-.04-.04-.14-.1-.2-.06-.05-.12-.03-.15-.02-.03,0-.06.06-.17.04-.11-.03-.25-.05-.3-.04-.04,0-.21.04-.24.05-.03,0-.08,0-.1-.05-.02-.04-.02-.06.04-.1.06-.04.14-.19.18-.21.04-.02.11-.02.23,0,.12.01.2.01.23,0,.03,0,.06-.03.09-.01.03.02.2,0,.23-.02.02,0,.05-.04.08-.07-.03-.03-.05-.07-.05-.12-.07.04-.17.07-.33.05-.24-.04-.31,0-.41-.02-.16-.02-.35-.24-.55-.12,0,0-.22.23-.33.36-.07.05-.13-.03-.12-.07.03-.18.06-.32.12-.43.05-.09.16-.24.31-.27.18-.04.21-.11.21-.17,0,0-.01-.03.06-.06.03-.02.06.01.07.04,0,0,.02.12.11.11.06,0,.03-.11.12-.12,0,0,.11-.02.41.04,0,0,.13.04.18-.05.04-.07-.05-.26-.09-.39-.04-.13-.1-.47-.14-.6,0,0,0-.06.05-.08ZM110.64,14.93s-.36.5-.42.64c0,0-.04.06-.06.05-.04,0-.08-.03-.06-.08.01-.05.02-.18.02-.18,0,0-.01-.08-.11-.06-.47.12-.45-.18-.45-.18,0,0,0-.09-.1-.08-.11.02-.17.05-.22.09,0,0-.06.05-.08.02-.02-.04,0-.11.02-.15.04-.08.13-.14.23-.22.08-.07.23-.08.32-.08,0,0,.23-.03.38-.03.03,0,.18,0,.22.01.04.01.3.09.33.19,0,.03-.02.06-.02.06Z"/>
        <path class="cls-1" d="M111.73,21.39c-.07.06-.02.12.04.17.06.07.17.11.22.08.05-.03.35-.17.35-.17.34.04.64-.01.92-.04.04,0,.08,0,.11-.01-.13-.32-.24-.65-.33-.99-.12-.46-.2-.92-.24-1.35-.13-.1-.24-.17-.24-.17-.16-.08-.27-.02-.35.03,0,0-.82.43-.85.45-.08.05-.13.18-.14.32,0,.05,0,.25.12.19.05-.02.63-.36.63-.36l.02.23s-.63.36-.65.38c-.09.06-.08.09-.08.16,0,.06.01.13.02.2.02.14.11.13.16.1.05-.02.6-.35.6-.35l.03.22s-.6.36-.62.37c-.05.04-.07.07-.05.15.02.05.03.12.07.17.04.07.09.08.13.05.03-.02.54-.35.54-.35l.04.21s-.43.3-.45.31Z"/>
        <path class="cls-1" d="M121.22,19.42c-.41-1.56-1.22-2.97-2.29-3.98-.59-.56-1.21-.96-1.85-1.19h0s0,0,0,0c-.42-.16-.85-.24-1.27-.24l-.2-.84.09.85c-.09,0-.18,0-.27.02-1.56.18-2.69,1.52-2.97,3.46-.17-.07-.34-.14-.47-.2.1-.4.23-.98.24-1.2,0-.18,0-.32,0-.44.06-.02.12-.04.17-.06h.03c.77-.38.84-1.18.77-1.56-.07-.36-.21-.63-.41-.81-.09-.08-.33-.29-.6-.16-.14.06-.21.18-.22.34-.38-.62-.97-1.02-1.72-1.14h-.02s-.02,0-.02,0c-.06,0-.14,0-.24.01-.04,0-.08.01-.13.02h0c-.45.09-1.05.39-1.45.94-.07-.1-.12-.25-.04-.46.07-.15.08-.28.04-.39-.04-.1-.11-.18-.2-.22-.17-.08-.39-.04-.58.11-.03.02-.76.62-.73,1.46.02.5.29.95.82,1.35,0,.01,0,.03,0,.04,0,.04-.02.09-.03.14l-.35,1.78c-.23.18-.66.49-.98.62-.6,0-1.12.09-1.56.25-.74.26-1.56.91-1.6.94l-.16.12.03.41c-.15.11-.3.27-.47.5-.37.52-.52,1.24-.58,1.7l-.52.05-4.01,8.85,2.19-.19,2.87-7.59.55-.05-.17,4.09-.97.08-1.55,1.56,2.47-.22-.06,1.85,2.23-.2-.33-8.47-2.3.2c.06-.42.19-1.02.5-1.44.4-.55.56-.48.56-.48l-.04-.48s.8-.64,1.49-.88c.51-.18,1.08-.22,1.51-.23.51-.19,1.24-.78,1.24-.78l.38-1.92c.01-.06.02-.11.03-.14,0,0,0,0,0,0,0-.06.03-.18.04-.28-1.69-1.13-.34-2.28-.26-2.34.08-.06.15-.08.18-.07.03.01-.02.13-.02.13-.3.81.46,1.13.51,1.14.35-.76,1.07-1.04,1.4-1.1,0,0,.18-.03.28-.03,1.47.24,1.72,1.59,1.76,1.73,0,0,.04.07.1.06.06-.02.33-.02.37-.4.03-.3-.11-.59-.08-.61.04-.02.09,0,.2.1.06.06.22.21.29.6,0,0,.15.8-.57,1.14,0,0-.36.13-.41.16-.01,0-.02.01-.03.02.02.12.03.35.02.66,0,.27-.3,1.43-.3,1.43,0,0,.71.3,1.24.52.09-1.56.74-2.81,1.78-3.36l.38.33c-.51.22-.92.62-1.21,1.14l-.19.05.18-.02c-.61,1.12-.71,2.79-.15,4.55.09.29.2.56.32.83l.63-.06c-.14-.3-.26-.61-.37-.94-.56-1.77-.4-3.45.3-4.47l1.32-.15-.78,1.37.99-1.21.16.7c-.54.7-.7,1.92-.33,3.21.14.49.34.94.59,1.32l.43-.04c-.25-.41-.46-.89-.6-1.39-.27-.94-.22-1.84.06-2.48l.21.92-.12-1.11c.13-.23.3-.42.49-.55.25.19.52.43.76.7.03-.01.07-.02.1-.03.47-.09.98.11,1.4.5h0c-.23-.18-.5-.27-.74-.25-.54.06-.81.74-.61,1.51.2.77.81,1.35,1.35,1.28.4-.05.79-.38.76-1,.05.07.07.16.07.25,0,.35-.07.66-.22.91l-.21.47,1.24-.11c-.06-.49-.19-1.38-.32-1.77-.57-1.75-1.76-3.11-3-3.6l.31-.08c.2.11.39.24.58.39-.17-.15-.34-.28-.51-.41l.47-.11c1.14.92,2.1,2.4,2.55,4.13.07.27.18.94.24,1.41h0s.16-.01.16-.01l.22-.02-.06-.47c-.05-.34-.12-.67-.2-1ZM114.58,14.67c.27-.14.57-.24.9-.27.09-.01.18-.02.27-.02l.05.43c-.14,0-.28.02-.41.05-.11.02-.22.06-.33.1l-.47-.29ZM115.59,15.7l-1.03.25c.21-.27.47-.49.76-.64l.3.26s-.08.04-.12.06c.03.02.06.04.09.06ZM115.5,15.23c.11-.04.22-.08.33-.1,0,0,0,0,0,0l.04.33-.37-.23ZM115.9,14.38c.31,0,.62.07.93.17l-.28.34c-.18-.05-.37-.07-.55-.08l-.1-.43ZM116.14,15.41l-.07-.31c.11-.01.22-.01.33,0l-.26.32ZM116.31,16.61l-.06-.55.46.28c-.15.07-.28.16-.4.27ZM118.36,16.59c-.16-.11-.33-.2-.5-.26-.01,0-.02,0-.03-.01-.04-.01-.08-.03-.12-.04-.03,0-.05-.01-.08-.02-.03,0-.07-.01-.1-.02-.03,0-.07,0-.1-.01-.03,0-.06,0-.09,0-.04,0-.08,0-.12,0-.02,0-.05,0-.07,0-.06,0-.13.02-.19.03-.02,0-.05.01-.07.02l-.38-.33c.61-.11,1.27.15,1.86.65ZM117.13,15.48c-.23-.06-.46-.09-.68-.09l.16-.29c.34.04.68.15,1.01.32l-.49.05ZM117.71,15.41c-.33-.22-.67-.38-1.02-.48l.2-.36c.47.16.93.43,1.37.78l-.55.06Z"/>
      </g>
      <g>
        <g>
          <g>
            <g>
              <g>
                <path class="cls-1" d="M419.06,23.5c0,1.23-.31,2.39-.86,3.41l.05.15c.74-.99,1.18-2.22,1.18-3.56s-.44-2.57-1.18-3.56l-.05.15c.55,1.01.86,2.17.86,3.41Z"/>
                <path class="cls-1" d="M477.23,23.5c0,1.23.31,2.39.86,3.41l-.05.15c-.74-.99-1.18-2.22-1.18-3.56s.44-2.57,1.18-3.56l.05.15c-.55,1.01-.86,2.17-.86,3.41Z"/>
                <path class="cls-1" d="M448.14,16.91c13.59,0,24.83-.26,28.19-.37,0-.04-.07-.06-.12-.07-2.17-.42-6.66-1.02-10.51-1.29-.34-.03-.58.16-.66.45l-.21.59h-.25l.24-.95c.08-.33.35-.58.76-.55,2.95.2,8.15.8,10.84,1.47.23.06.3.2.42.54l.06.17s-13.46.55-28.77.55-28.77-.55-28.77-.55l.06-.17c.12-.34.19-.48.42-.54,2.7-.67,7.9-1.26,10.84-1.47.41-.03.68.22.76.55l.24.95h-.25l-.21-.59c-.08-.28-.31-.47-.66-.45-3.84.28-8.34.87-10.51,1.29-.05,0-.12.03-.12.07,3.36.11,14.59.37,28.19.37Z"/>
                <path class="cls-1" d="M448.14,30.1c13.59,0,24.83.26,28.19.37,0,.04-.07.06-.12.07-2.17.42-6.66,1.02-10.51,1.29-.34.03-.58-.16-.66-.45l-.21-.59h-.25l.24.95c.08.33.35.58.76.55,2.95-.2,8.15-.8,10.84-1.47.23-.06.3-.2.42-.54l.06-.17s-13.46-.55-28.77-.55-28.77.55-28.77.55l.06.17c.12.34.19.48.42.54,2.7.67,7.9,1.26,10.84,1.47.41.03.68-.22.76-.55l.24-.95h-.25l-.21.59c-.08.28-.31.47-.66.45-3.84-.28-8.34-.87-10.51-1.29-.05,0-.12-.03-.12-.07,3.36-.11,14.59-.37,28.19-.37Z"/>
              </g>
              <g>
                <g>
                  <path class="cls-1" d="M473.24,18.31c-.67,0-1.22.54-1.22,1.22s.55,1.22,1.22,1.22,1.22-.54,1.22-1.22-.55-1.22-1.22-1.22ZM473.24,20.5c-.54,0-.97-.44-.97-.97s.44-.97.97-.97.97.43.97.97-.43.97-.97.97Z"/>
                  <path class="cls-1" d="M473.57,19.52c.1-.04.2-.16.2-.33,0-.28-.25-.37-.4-.37h-.63v1.31h.3v-.51h.11c.15,0,.24.04.28.18.03.1.05.19.11.33.13,0,.18,0,.33,0-.04-.08-.1-.18-.12-.32-.02-.14-.07-.22-.18-.29ZM473.28,19.36h-.24v-.3h.21c.09,0,.2.04.2.14,0,.09-.07.16-.17.16Z"/>
                </g>
                <g>
                  <path class="cls-1" d="M435.59,25.52c-.34.35-.79.69-1.23.83-.42.13-1.6.24-1.95-.74-.08-.21-.01-.28.18-.33.29-.08,1.02-.3,1.8-.59.71-.26,1.33-.59,1.53-.72.35-.23.41-.56.25-.91-.5-1.11-1.62-2.28-3.48-1.92-1.48.28-2.54,1.61-2.54,3.14,0,1.89,1.14,2.99,2.58,3.33,1.34.32,2.91-.33,3.58-1.42.27-.42-.48-.92-.73-.66ZM432.24,24.04c-.14-.4-.03-1.62.65-1.86.71-.24,1.15.12,1.36.84.08.26.06.55-.03.65-.13.15-.35.24-.55.31l-.53.18c-.52.18-.77.21-.89-.12Z"/>
                  <path class="cls-1" d="M452.92,25.52c-.34.35-.79.69-1.23.83-.42.13-1.6.24-1.95-.74-.08-.21-.01-.28.18-.33.29-.08,1.02-.3,1.8-.59.71-.26,1.33-.59,1.53-.72.35-.23.41-.56.25-.91-.5-1.11-1.62-2.28-3.48-1.92-1.48.28-2.54,1.61-2.54,3.14,0,1.89,1.14,2.99,2.58,3.33,1.34.32,2.91-.33,3.58-1.42.27-.42-.48-.92-.73-.66ZM449.57,24.04c-.09-.24-.08-.77.08-1.21.11-.3.27-.53.56-.64.32-.13.6-.09.82.03.25.14.43.43.54.81.08.26.06.55-.03.65-.13.15-.32.23-.55.31-.23.08-.43.15-.53.18-.53.16-.77.21-.89-.12Z"/>
                  <path class="cls-1" d="M466.13,25.52c-.34.35-.79.69-1.23.83-.42.13-1.6.24-1.95-.74-.08-.21-.01-.28.18-.33.29-.08,1.02-.3,1.8-.59.71-.26,1.33-.59,1.53-.72.35-.23.41-.56.25-.91-.5-1.11-1.62-2.28-3.48-1.92-1.48.28-2.54,1.61-2.54,3.14,0,1.89,1.14,2.99,2.58,3.33,1.34.32,2.91-.33,3.58-1.42.27-.42-.48-.92-.73-.66ZM462.78,24.04c-.09-.24-.08-.77.08-1.21.11-.3.27-.53.56-.64.32-.13.6-.09.82.03.25.14.43.43.54.81.08.26.06.55-.03.65-.13.15-.32.23-.55.31-.23.08-.43.15-.53.18-.53.16-.77.21-.89-.12Z"/>
                  <path class="cls-1" d="M427.16,25.88c0,.25-.08.53-.27.62l-.42.19c-.08.03-.1.09-.1.17,0,.02,0,.03,0,.06l.05.48c.02.13.11.15.28.15h3.06c.17,0,.26-.02.28-.15l.05-.48s0-.04,0-.06c0-.08-.02-.14-.1-.17l-.42-.19c-.19-.09-.27-.36-.27-.62v-5.3c0-.25.08-.53.27-.62l.42-.19c.08-.03.1-.09.1-.17,0-.02,0-.03,0-.06l-.05-.36c-.02-.13-.11-.15-.28-.15h-2.91c-.17,0-.26.02-.28.15l-.05.36s0,.04,0,.06c0,.08.02.14.1.17l.34.19c.2.11.21.36.21.62v1.48c0,.1-.08.19-.19.19h-1.66c-.1,0-.19-.08-.19-.19v-1.48c0-.25.01-.5.21-.62l.34-.19c.08-.03.1-.09.1-.17,0-.02,0-.03,0-.06l-.05-.36c-.02-.13-.11-.15-.28-.15h-2.91c-.17,0-.26.02-.28.15l-.05.36s0,.04,0,.06c0,.08.02.14.1.17l.42.19c.19.09.27.36.27.62v5.3c0,.25-.08.53-.27.62l-.42.19c-.08.03-.1.09-.1.17,0,.02,0,.03,0,.06l.05.48c.02.13.11.15.28.15h3.06c.17,0,.26-.02.28-.15l.05-.48s0-.04,0-.06c0-.08-.02-.14-.1-.17l-.42-.19c-.19-.09-.27-.36-.27-.62v-2.15c0-.1.08-.19.19-.19h1.66c.1,0,.19.08.19.19v2.15Z"/>
                  <g>
                    <path class="cls-1" d="M439.21,19.92c0,.59-.49,1.06-1.1,1.06s-1.1-.48-1.1-1.06.49-1.06,1.1-1.06,1.1.48,1.1,1.06Z"/>
                    <path class="cls-1" d="M436.9,27.56c-.17,0-.25-.02-.27-.15l-.05-.48s0-.04,0-.06c0-.08.02-.13.09-.17l.33-.18c.18-.09.26-.35.26-.59v-3.02c0-.25-.04-.58-.27-.69l-.21-.12c-.08-.03-.1-.09-.1-.17,0-.02,0-.03,0-.06l.05-.36c.02-.13.11-.15.28-.15h2.06c.1,0,.19.08.19.19v4.39c0,.24.08.5.26.59l.33.18c.07.04.09.09.09.17,0,.02,0,.03,0,.06l-.05.48c-.02.13-.11.15-.27.15h-2.74Z"/>
                  </g>
                  <path class="cls-1" d="M443.15,21.68s.12-.06.33-.16c.41-.19,1.22-.54,1.89-.33.58.19,1.08.61,1.08,1.71v3.35c0,.14,0,.2.07.24.09.05.24-.1.39-.17.15-.08.23.01.32.11.08.09.18.21.1.38-.25.52-.8.82-1.45.82-.61,0-1.39-.35-1.39-1.27v-3.22c0-.49-.36-.66-.63-.63-.42.05-.72.4-.72,1.03v2.41c0,.24.08.5.26.59l.33.18c.07.04.09.09.09.17,0,.02,0,.03,0,.06l-.05.48c-.02.13-.11.15-.27.15h-2.74c-.17,0-.25-.02-.27-.15l-.05-.48s0-.04,0-.06c0-.08.02-.13.09-.17l.33-.18c.18-.09.26-.35.26-.59v-3.02c0-.25-.04-.58-.27-.69l-.21-.12c-.08-.03-.1-.09-.1-.17,0-.02,0-.03,0-.06l.05-.36c.02-.13.11-.15.28-.15h1.95c.15,0,.21.09.26.19l.06.14Z"/>
                  <path class="cls-1" d="M469.84,21.68s.12-.06.33-.16c.41-.19,1.22-.54,1.89-.33.58.19,1.08.61,1.08,1.71v3.35c0,.14,0,.2.07.24.09.05.24-.1.39-.17.15-.08.23.01.32.11.08.09.18.21.1.38-.25.52-.8.82-1.45.82-.61,0-1.39-.35-1.39-1.27v-3.22c0-.49-.36-.66-.63-.63-.42.05-.72.4-.72,1.03v2.41c0,.24.08.5.26.59l.33.18c.07.04.09.09.09.17,0,.02,0,.03,0,.06l-.05.48c-.02.13-.11.15-.27.15h-2.74c-.17,0-.25-.02-.27-.15l-.05-.48s0-.04,0-.06c0-.08.02-.13.09-.17l.33-.18c.18-.09.26-.35.26-.59v-3.02c0-.25-.04-.58-.27-.69l-.21-.12c-.08-.03-.1-.09-.1-.17,0-.02,0-.03,0-.06l.05-.36c.02-.13.11-.15.28-.15h1.95c.15,0,.21.09.26.19l.06.14Z"/>
                  <path class="cls-1" d="M459.94,26.02c.15.23.32.42.5.51l.33.18c.07.04.09.09.09.17,0,.02,0,.03,0,.06l-.05.48c-.02.13-.11.15-.27.15h-1.65c-.28,0-.3-.08-.43-.31l-1.38-2.52-.52.5v.71c0,.24.11.5.3.59l.33.18c.07.04.09.09.09.17,0,.02,0,.03,0,.06l-.05.48c-.02.13-.11.15-.27.15h-2.74c-.17,0-.25-.02-.27-.15l-.05-.48s0-.04,0-.06c0-.08.02-.13.09-.17l.33-.18c.18-.09.26-.35.26-.59v-5.41c0-.24-.08-.5-.26-.59l-.33-.18c-.07-.04-.09-.09-.09-.17,0-.02,0-.03,0-.06l.05-.34c.02-.13.11-.15.27-.15h1.98c.2,0,.35.16.35.35v4.11l.88-.8c.13-.11.33-.29.41-.37.08-.08.1-.2-.02-.25l-.31-.14c-.07-.03-.09-.08-.09-.16,0-.02,0-.03,0-.06l.05-.44c.02-.12.1-.14.26-.14h2.37c.16,0,.24.02.26.14l.05.44s0,.04,0,.06c0,.09-.11.14-.18.17,0,0-.17.05-.32.14-.15.09-.32.22-.52.4l-.92.88,1.46,2.64Z"/>
                </g>
              </g>
              <g>
                <g>
                  <path class="cls-1" d="M457.86,13.88v-.04s-.27,0-.27,0c-.01.24.14.41.38.41.27,0,.43-.16.43-.43,0-.15-.06-.3-.22-.34h0c.14-.06.18-.21.18-.35,0-.23-.13-.38-.37-.38-.27,0-.35.19-.34.43h.25v-.03c0-.06.01-.15.1-.15s.1.08.1.15c0,.16-.07.19-.22.19v.25c.16,0,.22.04.22.2,0,.09,0,.21-.13.21-.08,0-.11-.07-.11-.11"/>
                  <polygon class="cls-1" points="457.39 12.77 456.61 12.77 456.61 13.02 457 13.02 456.55 14.23 456.85 14.23 457.39 12.77"/>
                  <path class="cls-1" d="M456,13.44h0c.13-.05.2-.17.2-.31,0-.21-.14-.38-.36-.38s-.36.17-.36.38c0,.14.07.26.2.31h0c-.18.07-.25.2-.25.39,0,.24.18.42.42.42s.42-.18.42-.42c0-.18-.07-.33-.25-.39M455.83,12.97c.08,0,.09.1.09.16s0,.16-.09.16c-.07,0-.08-.11-.08-.17s.01-.15.08-.15M455.83,14c-.1,0-.12-.13-.12-.21s.02-.21.12-.21.13.14.13.21-.03.21-.13.21"/>
                  <polygon class="cls-1" points="455.02 12.77 454.6 12.77 454.6 13.02 454.74 13.02 454.74 14.23 455.02 14.23 455.02 12.77"/>
                </g>
                <g>
                  <polygon class="cls-1" points="438.73 12.77 438.1 12.77 438.1 14.23 438.74 14.23 438.74 13.96 438.41 13.96 438.41 13.63 438.69 13.63 438.69 13.36 438.41 13.36 438.41 13.04 438.73 13.04 438.73 12.77"/>
                  <path class="cls-1" d="M441.55,13.88c-.1,0-.19.08-.19.18s.08.19.19.19.18-.08.18-.19-.08-.18-.18-.18"/>
                  <polygon class="cls-1" points="441.15 12.77 440.34 12.77 440.34 13.04 440.59 13.04 440.59 14.23 440.9 14.23 440.9 13.04 441.15 13.04 441.15 12.77"/>
                  <path class="cls-1" d="M439.9,13.1v-.28c-.09-.04-.18-.07-.28-.07-.27,0-.42.2-.42.43,0,.21.11.32.29.43.09.06.19.1.19.21,0,.1-.08.16-.18.16-.09,0-.17-.03-.24-.08v.28c.07.05.18.07.27.07.3,0,.46-.2.46-.45,0-.39-.48-.41-.48-.65,0-.09.06-.14.16-.14.09,0,.17.04.23.09"/>
                </g>
                <g>
                  <path class="cls-1" d="M453.53,15.36c.04.13-.03.27-.09.32-.05.05-.11.08-.11.08,0,0-.05.04-.11.07-.07.04-.22.07-.34-.01,0,0-.19-.12-.49-.32-.96-.65-3.09-2.09-4.26-2.92-1.17.83-3.3,2.28-4.26,2.92-.3.2-.49.32-.49.32-.12.08-.26.05-.34.01-.06-.04-.11-.07-.11-.07,0,0-.05-.04-.11-.08-.06-.06-.13-.19-.09-.32,0,0,0-.04.03-.11.02.04.04.07.07.09.05.05.11.08.11.08,0,0,.05.04.11.07.07.04.22.07.34-.01,0,0,.19-.12.49-.32.96-.65,3.09-2.09,4.26-2.92,1.17.83,3.3,2.28,4.26,2.92.3.2.49.32.49.32.12.08.26.05.34.01.06-.04.11-.07.11-.07,0,0,.05-.04.11-.08.02-.02.05-.05.07-.09.02.07.03.11.03.11ZM444.37,9.51c-1.15-.85-3.19-2.44-4.1-3.14-.29-.22-.45-.36-.45-.36-.03-.03-.06-.06-.08-.1,0,.02-.02.07-.04.12-.02.08,0,.23.11.32,0,0,.17.14.45.36.89.69,2.85,2.21,4.01,3.08.03-.1.06-.19.09-.28ZM456.54,5.9s-.04.07-.08.1c0,0-.17.14-.45.36-.91.71-2.95,2.29-4.1,3.14.03.09.06.18.09.28,1.16-.87,3.12-2.39,4.01-3.08.29-.22.45-.36.45-.36.11-.09.13-.23.11-.32-.01-.06-.03-.11-.04-.12Z"/>
                  <path class="cls-1" d="M445.08,9.28l-1.84,5.65s0,.02,0,.03c0,0,.01.01.03.02s.03.02.03.02c0,0,.02,0,.03,0l4.81-3.5,4.81,3.5s.02,0,.03,0c0,0,.02,0,.03-.02.01-.01.03-.02.03-.02,0,0,.01-.02,0-.03l-1.84-5.65,4.81-3.49s.01-.02,0-.03c0,0,0-.02,0-.03,0-.02-.01-.03-.01-.03,0-.01-.01-.02-.02-.02h-5.95s-1.84-5.65-1.84-5.65c0,0-.01-.02-.02-.02,0,0-.02,0-.04,0s-.04,0-.04,0c-.01,0-.02,0-.02.02l-1.84,5.66h-5.95s-.02,0-.02.01c0,0,0,.02-.01.03,0,.02,0,.03,0,.03,0,.01,0,.02,0,.03l4.81,3.49Z"/>
                </g>
              </g>
            </g>
            <g>
              <path class="cls-1" d="M444.28,32.09c-1.12,0-2.16.46-2.71,1.2-.39.52-.54,1.07-.57,1.61,0,.02,0,.04,0,.04-.01,0-.03.01-.03.01v-.05c.03-.6.16-1.23.6-1.82.55-.74,1.6-1.2,2.72-1.2s2.17.45,2.72,1.2c.44.58.57,1.21.6,1.82v.05s-.02,0-.03-.01c0,0,0-.02,0-.04-.04-.54-.18-1.09-.57-1.61-.55-.74-1.59-1.2-2.71-1.2Z"/>
              <path class="cls-1" d="M446.35,33.05c-.55-.5-1.24-.75-2.06-.75s-1.51.25-2.06.75c-.59.53-.88,1.24-.88,2.13v2.04h0v2.04c0,.89.29,1.6.88,2.13.55.5,1.24.75,2.06.75s1.51-.25,2.06-.75c.58-.53.87-1.24.87-2.13v-2.04h0v-2.04c0-.89-.29-1.6-.87-2.13ZM445.28,40.5c-.25.26-.58.39-.99.39s-.75-.13-1-.4c-.25-.26-.38-.62-.38-1.06h.04c.02.37.14.67.37.9.25.25.57.38.98.38s.73-.12.97-.37c.22-.23.34-.53.36-.9h.04c0,.45-.12.8-.37,1.06ZM443.12,39.23v-4.02c0-.4.11-.72.32-.96.21-.24.5-.36.85-.36s.63.12.84.35c.21.24.32.56.32.96v2.01h0v2.01c0,.41-.11.73-.32.96-.21.24-.49.35-.84.35s-.63-.12-.85-.36c-.21-.24-.32-.56-.32-.96ZM445.62,35c-.02-.38-.14-.68-.36-.9-.24-.25-.57-.37-.97-.37s-.73.13-.98.38c-.23.23-.35.53-.37.9h-.04c0-.44.13-.79.38-1.06.25-.26.59-.4,1-.4s.75.13.99.39c.25.26.37.61.37,1.06h-.04Z"/>
              <path class="cls-1" d="M454.06,33.05c-.55-.5-1.24-.75-2.06-.75s-1.51.25-2.06.75c-.59.53-.88,1.24-.88,2.13v2.04h0v2.04c0,.89.29,1.6.88,2.13.55.5,1.24.75,2.06.75s1.51-.25,2.06-.75c.58-.53.87-1.24.87-2.13v-2.04h0v-2.04c0-.89-.29-1.6-.87-2.13ZM452.99,40.5c-.25.26-.58.39-.99.39s-.75-.13-1-.4c-.25-.26-.38-.62-.38-1.06h.04c.02.37.14.67.37.9.25.25.57.38.98.38s.73-.12.97-.37c.22-.23.34-.53.36-.9h.04c0,.45-.12.8-.37,1.06ZM450.83,39.23v-4.02c0-.4.11-.72.32-.96.21-.24.5-.36.85-.36s.63.12.84.35c.21.24.32.56.32.96v2.01h0v2.01c0,.41-.11.73-.32.96-.21.24-.49.35-.84.35s-.63-.12-.85-.36c-.21-.24-.32-.56-.32-.96ZM453.33,35c-.02-.38-.14-.68-.36-.9-.24-.25-.57-.37-.97-.37s-.73.13-.98.38c-.23.23-.35.53-.37.9h-.04c0-.44.13-.79.38-1.06.25-.26.59-.4,1-.4s.75.13.99.39c.25.26.37.61.37,1.06h-.04Z"/>
              <path class="cls-1" d="M444.28,42.35c-1.12,0-2.16-.46-2.71-1.2-.39-.52-.54-1.07-.57-1.61,0-.02,0-.04,0-.04-.01,0-.03-.01-.03-.01v.05c.03.6.16,1.23.6,1.82.55.74,1.6,1.2,2.72,1.2s2.17-.45,2.72-1.2c.44-.58.57-1.21.6-1.82v-.05s-.02,0-.03.01c0,0,0,.02,0,.04-.04.54-.18,1.09-.57,1.61-.55.74-1.59,1.2-2.71,1.2Z"/>
              <path class="cls-1" d="M451.99,32.09c-1.12,0-2.16.46-2.71,1.2-.39.52-.54,1.07-.57,1.61,0,.02,0,.04,0,.04-.01,0-.03.01-.03.01v-.05c.03-.6.16-1.23.6-1.82.55-.74,1.6-1.2,2.72-1.2s2.17.45,2.72,1.2c.44.58.57,1.21.6,1.82v.05s-.02,0-.03-.01c0,0,0-.02,0-.04-.04-.54-.18-1.09-.57-1.61-.55-.74-1.59-1.2-2.71-1.2Z"/>
              <path class="cls-1" d="M451.99,42.35c-1.12,0-2.16-.46-2.71-1.2-.39-.52-.54-1.07-.57-1.61,0-.02,0-.04,0-.04-.01,0-.03-.01-.03-.01v.05c.03.6.16,1.23.6,1.82.55.74,1.6,1.2,2.72,1.2s2.17-.45,2.72-1.2c.44-.58.57-1.21.6-1.82v-.05s-.02,0-.03.01c0,0,0,.02,0,.04-.04.54-.18,1.09-.57,1.61-.55.74-1.59,1.2-2.71,1.2Z"/>
            </g>
          </g>
          <rect class="cls-1" x="447.49" y="41.1" width="1.29" height="1.29" rx=".39" ry=".39"/>
        </g>
        <g>
          <polygon class="cls-1" points="433.72 36.34 433.72 36.57 439.88 37.01 439.88 35.9 433.72 36.34"/>
          <polygon class="cls-1" points="462.54 36.34 462.54 36.57 456.38 37.01 456.38 35.9 462.54 36.34"/>
        </g>
      </g>
      <g>
        <path class="cls-1" d="M14.17,15.97c2.08-4.94,6.96-8.42,12.65-8.42,5.85,0,10.85,3.68,12.82,8.84.47.31.84.76,1.1,1.29.2-.27.42-.51.66-.73-1.86-6.29-7.69-10.9-14.58-10.9-6.52,0-12.1,4.13-14.25,9.91h1.6Z"/>
        <path class="cls-1" d="M40.42,23.07c-.88,6.72-6.64,11.92-13.6,11.92-6.55,0-12.05-4.62-13.4-10.78-.31.13-.67.19-1.1.19-.13,0-.27-.01-.39-.03,1.43,6.9,7.56,12.11,14.89,12.11,7.41,0,13.59-5.33,14.93-12.35-.53-.22-.99-.59-1.34-1.06"/>
        <path class="cls-1" d="M10.1,21.89c-.39,0-.6-.38-.6-1.05,0-1.2.64-2.49,1.46-2.49.36,0,.61.39.61,1.03,0,1.1-.66,2.5-1.47,2.5M13,21.58c0-.06.01-.13.03-.21l1.16-4.45h-1.95s-.17.67-.17.67h-.01c-.18-.39-.65-.79-1.3-.79-1.75,0-3.25,2.05-3.25,4.39,0,1.3.92,2.26,1.89,2.26.86,0,1.38-.48,1.68-.96h.01c.15.67.71.98,1.22.98.55,0,.82-.13,1.02-.29l.36-1.38c-.1.04-.22.06-.38.06-.22,0-.32-.1-.32-.28"/>
        <path class="cls-1" d="M6.43,13.56l-1,3.85h-1.85s1.01-3.85,1.01-3.85h-1.8c-.44.64-.95,1.04-1.91,1.04l-.35,1.32c.11.01.22.02.33.02.37,0,.78-.1,1.14-.27l-2.01,7.69h2.04s1.13-4.33,1.13-4.33h1.85s-1.14,4.33-1.14,4.33h2.04s2.56-9.8,2.56-9.8h-2.04Z"/>
        <path class="cls-1" d="M21.47,21.89c-.39,0-.6-.38-.6-1.05,0-1.2.64-2.49,1.46-2.49.36,0,.61.39.61,1.03,0,1.1-.66,2.5-1.47,2.5M23.42,17.46h-.01c-.2-.36-.68-.66-1.28-.66-1.75,0-3.25,2.05-3.25,4.39,0,1.3.92,2.26,1.89,2.26.78,0,1.32-.45,1.62-.89h.01s-.2.8-.2.8h1.68s2.56-9.8,2.56-9.8h-1.99s-1.02,3.9-1.02,3.9Z"/>
        <path class="cls-1" d="M18.93,16.81c-.61,0-1.21.55-1.5,1.01h-.02s.23-.9.23-.9h-1.95s-1.68,6.44-1.68,6.44h2s.8-3.04.8-3.04c.21-.82.71-1.7,1.49-1.7.22,0,.43.07.58.16l.49-1.88c-.12-.05-.27-.09-.44-.09"/>
        <path class="cls-1" d="M47.78,20.18c.2-1,1.05-1.98,1.76-1.98.3,0,.47.17.47.46,0,.74-.99,1.53-2.23,1.53M50.61,24.02c-.4,0-.55-.21-.55-.6,0-.22.01-.39.01-.64,0-.74-.34-1.49-.81-1.82h0c1.14-.23,2.57-1.16,2.57-2.61,0-.84-.62-1.54-1.71-1.54-.65,0-1.24.29-1.64.74h-.01s1.03-3.98,1.03-3.98h-1.99s-2.56,9.8-2.56,9.8h1.99s.52-1.99.52-1.99c.48.07.93.54.93,1.23,0,.55-.08.89-.08,1.4,0,.97.7,1.59,1.75,1.59.5,0,1.04-.17,1.33-.42l-.28-1.27c-.11.08-.33.15-.52.15"/>
        <path class="cls-1" d="M36.84,21.94c-.35,0-.63-.41-.63-1.14,0-1.29.62-2.58,1.43-2.58.42,0,.64.51.64,1.15,0,1.14-.68,2.56-1.45,2.56M37.79,16.79c-2,0-3.48,1.9-3.48,4.09,0,1.5,1.03,2.56,2.3,2.56,2.05,0,3.57-1.88,3.57-3.96,0-1.67-.99-2.69-2.38-2.69"/>
        <path class="cls-1" d="M42.53,20.72c0-1.49.83-2.51,1.73-2.51.46,0,.84.26,1.06.49l.37-1.43c-.3-.22-.94-.47-1.58-.47-1.92,0-3.48,2.02-3.48,4.01,0,1.56,1.05,2.64,2.4,2.64.53,0,.9-.1,1.12-.2l.39-1.52c-.26.17-.53.24-.99.24-.62,0-1.02-.41-1.02-1.24"/>
        <path class="cls-1" d="M31.16,18.14h-.41s.82-3.15.82-3.15h.27c.86,0,1.18.55,1.18,1.24,0,1-.62,1.91-1.87,1.91M34.06,24.16c-.38,0-.67-.29-.67-.73,0-.54.07-1.16.07-1.81,0-1.17-.62-2.05-1.08-2.34v-.03c1.33-.29,2.71-1.66,2.71-3.09,0-1.5-.95-2.6-3.03-2.6h-1.92c-.44.64-.95,1.04-1.91,1.04l-.35,1.32c.11.01.22.02.33.02.37,0,.78-.1,1.14-.27l-2.01,7.69h2.04s.98-3.75.98-3.75c.65.17,1.25.98,1.25,1.9,0,.97-.25,1.45-.25,2.49,0,1.14.87,1.84,2.11,1.84.69,0,1.18-.24,1.52-.54l-.3-1.28c-.14.1-.34.15-.63.15"/>
      </g>
      <g>
        <polygon class="cls-1" points="329.56 33.02 334.57 9.59 328.51 9.59 323.5 33.02 329.56 33.02"/>
        <path class="cls-1" d="M357.06,33.02l1.26-3.5h7.78l.73,3.5h5.61l-4.89-23.43h-5.17c-1.16,0-2.14.68-2.58,1.72l-9.1,21.71h6.36ZM363.26,15.92l1.84,8.8h-5.03l3.19-8.8Z"/>
        <path class="cls-1" d="M341.05,28.49c-3.05.05-4.81-.82-6.22-1.48l-1.1,5.13c1.42.65,4.03,1.22,6.74,1.24,6.37,0,10.53-3.15,10.55-8.02.03-6.18-8.55-6.52-8.49-9.29.02-.84.82-1.73,2.57-1.96.87-.12,3.26-.2,5.97,1.05l1.06-4.97c-1.46-.53-3.33-1.04-5.67-1.04-5.99,0-10.21,3.19-10.24,7.74-.04,3.37,3.01,5.26,5.31,6.38,2.36,1.15,3.15,1.89,3.14,2.91-.02,1.57-1.89,2.27-3.63,2.29"/>
        <path class="cls-1" d="M304.86,14.32l4.83,18.7h6.41l9.82-23.43h-6.37l-6.31,15.95-2.55-13.56c-.3-1.51-1.48-2.39-2.8-2.39h-10.31l-.14.68c2.12.46,4.52,1.2,5.98,1.99.89.49,1.15.91,1.44,2.06"/>
      </g>
      <path class="cls-1" d="M221.79,24.88h4.67l1.66-3.93c.47-1.15.68-1.73,1.15-2.88h.07c0,1.39-.03,1.86-.03,3.38l-.03,3.42h4.57l5.14-11.88h-4.23l-1.62,4.43c-.34.91-.47,1.46-.81,2.71h-.07c.1-1.62.14-2.1.14-3.01l.07-4.13h-4.3l-1.56,4.09c-.34.91-.68,1.83-1.02,3.01h-.07c.1-1.56.14-2,.17-2.91l.14-4.2h-3.96l-.07,11.88ZM213.49,21.97l1.29-6.13h.81c.85,0,1.32.51,1.32,1.69,0,.88-.24,2.3-.81,3.28-.51.88-1.05,1.15-2.03,1.15h-.58ZM208.52,24.88h5.31c3.11,0,4.7-1.02,5.79-2.44.95-1.25,1.49-3.15,1.49-4.74s-.54-2.91-1.39-3.65c-.91-.81-2.17-1.05-3.82-1.05h-4.87l-2.5,11.88ZM197.08,19.73c-.14,3.59,1.79,5.35,5.04,5.35,1.69,0,3.15-.37,4.37-1.25,1.42-1.08,2.06-2.71,2.2-3.69h-4.26c-.24.98-.85,1.9-1.69,1.9s-1.22-.78-1.18-2.2c.03-.91.2-1.9.68-2.74.47-.85,1.02-1.18,1.56-1.18.74,0,1.18.78,1.12,2.03v.07h4.09c.14-1.46-.17-2.71-.85-3.55-.78-1.08-2.27-1.66-3.99-1.66-2.2,0-3.89.78-5.08,1.96-1.25,1.32-1.96,3.11-2,4.97M214.34,35.84c6.67,0,14.11-1.86,20.58-4.94,8.43-4.03,16.58-10.22,16.58-16.95,0-5.21-5.55-7.24-12.12-7.24-7.45,0-16.11,2.71-19.9,5.18-.17.1-.1.2.03.14,5.11-2.34,11.24-3.76,16.18-3.76s10.46,1.46,10.46,6.84-5.69,10.25-12.76,13.77c-6.4,3.18-13.5,5.08-19.42,5.08-4.26,0-10.83-.85-10.83-5.72,0-.58.03-1.39.24-2,.03-.07,0-.14-.1-.03-.47.61-.78,1.73-.78,2.88,0,5.25,6.8,6.77,11.84,6.77"/>
      <g>
        <polygon class="cls-1" points="977.3 6.1 972.2 15.95 967.25 6.1 963.26 6.1 970.09 19.45 974.18 19.45 981.03 6.1 977.3 6.1"/>
        <polygon class="cls-1" points="932.23 26.18 937.85 26.18 937.85 36.44 941.54 36.44 941.53 36.43 941.53 26.18 947.15 26.18 947.15 23.08 932.23 23.08 932.23 26.18"/>
        <path class="cls-1" d="M961.89,29.45c.37-.56.56-1.38.56-2.36,0-1.06-.24-1.85-.74-2.48-.77-1-2.19-1.52-4.1-1.52h-9.4v13.35h3.59v-5h4.57l3.41,5h4.16s-3.9-5.57-3.9-5.57c.76-.23,1.44-.74,1.85-1.42ZM958.89,27.33c0,.13-.02.48-.18.73-.15.25-.57.38-1.26.38h-5.64v-2.3h5.46c.98,0,1.28.25,1.44.49h.01c.1.14.15.39.15.71Z"/>
        <path class="cls-1" d="M990.93,36.44c2.89,0,4.78-.86,5.77-2.64.59-1.02.82-2.19.82-4.33,0-2.02-.24-3.18-.87-4.13-.98-1.65-2.89-2.45-5.81-2.45h-8.44v13.55h8.54,0ZM986.06,33.33v-7.34h4.32c1.59,0,2.49.35,3.03,1.18.29.39.45,1.19.46,2.38,0,1.32-.15,2.2-.45,2.63-.52.8-1.49,1.15-3.12,1.15h-4.24Z"/>
        <polygon class="cls-1" points="1002.23 33.28 1002.23 31.22 1011.57 31.22 1011.57 28.08 1002.23 28.08 1002.23 26.05 1011.85 26.05 1011.85 22.89 998.6 22.89 998.6 36.44 1011.97 36.44 1011.97 33.28 1002.23 33.28"/>
        <path class="cls-1" d="M960.16,6.1h-3.59l-7.06,13.35h3.87l5.1-10.05.28.64s1.09,2.2,1.63,3.32l1.56,3.11,1.45,2.97h3.96l-6.77-13.35h-.44Z"/>
        <path class="cls-1" d="M987.57,6.1h-3.59l-7.06,13.35h3.88l5.09-10.04.28.64s1.09,2.2,1.63,3.32l1.56,3.11,1.45,2.97h3.96l-6.77-13.35h-.43Z"/>
        <path class="cls-1" d="M974.82,23.08h-3.59l-7.06,13.35h3.88l5.09-10.04.28.64s1.09,2.2,1.63,3.32l1.56,3.11,1.45,2.97h3.96l-6.77-13.35h-.43Z"/>
      </g>
      <g>
        <path class="cls-1" d="M640.98,14.89h4.38l2.57,4.3,2.57-4.3h4.35l-4.96,7.41v5.34s-3.95,0-3.95,0v-5.34s-4.97-7.41-4.97-7.41Z"/>
        <path class="cls-1" d="M655.75,14.89h10.56v3.14h-6.61v1.82h5.77s0,2.87,0,2.87h-5.77v1.82h6.8s0,3.1,0,3.1h-10.75v-12.76Z"/>
        <path class="cls-1" d="M667.82,14.89h11.98v3.14h-4.02v9.61h-3.94v-9.61h-4.02v-3.14Z"/>
        <path class="cls-1" d="M681.22,14.89h3.95v12.76s-3.95,0-3.95,0v-12.76Z"/>
      </g>
      <path class="cls-1" d="M588.17,27.99c-.22,0-.37-.15-.37-.37v-10.79h-3.66c-.22,0-.37-.15-.37-.37v-1.49c0-.22.15-.37.37-.37h9.75c.22,0,.37.15.37.37v1.49c0,.22-.15.37-.37.37h-3.66v10.79c0,.22-.15.37-.37.37h-1.69ZM560.1,22.6l-1.92-5.52-1.94,5.52h3.86ZM564.37,27.55c.08.22-.05.44-.28.44h-1.74c-.25,0-.4-.12-.49-.35l-.99-2.84h-5.4l-.99,2.84c-.08.23-.23.35-.48.35h-1.64c-.22,0-.37-.22-.28-.44l4.53-12.61c.08-.23.23-.33.48-.33h2.24c.25,0,.42.1.5.33l4.53,12.61M577.37,26.18c1.07,0,1.79-.52,2.38-1.4l-2.71-2.91c-1.04.59-1.71,1.17-1.71,2.34s.94,1.97,2.04,1.97M578.12,16.37c-.87,0-1.37.55-1.37,1.29,0,.57.3,1.07.99,1.81,1.19-.69,1.69-1.1,1.69-1.84,0-.69-.43-1.26-1.3-1.26M585.53,27.52c.22.23.08.47-.18.47h-2.12c-.28,0-.44-.07-.62-.28l-1.27-1.4c-.85,1.14-2.04,1.99-4.02,1.99-2.44,0-4.37-1.47-4.37-4,0-1.94,1.04-2.98,2.61-3.85-.77-.89-1.12-1.82-1.12-2.64,0-2.08,1.46-3.5,3.65-3.5s3.61,1.32,3.61,3.28c0,1.67-1.2,2.61-2.48,3.31l1.87,2.02,1.05-1.84c.13-.22.28-.3.55-.3h1.62c.27,0,.42.18.25.47l-1.87,3.21,2.83,3.06M568.83,27.99c.22,0,.37-.15.37-.37v-10.79h3.66c.22,0,.37-.15.37-.37v-1.49c0-.22-.15-.37-.37-.37h-9.75c-.22,0-.37.15-.37.37v1.49c0,.22.15.37.37.37h3.66v10.79c0,.22.15.37.37.37h1.69ZM530.2,30.1c1.89,1.47,4.27,2.35,6.85,2.35,2.82,0,5.4-1.05,7.36-2.77.02-.02.01-.04-.01-.02-.88.59-3.39,1.87-7.35,1.87-3.44,0-5.61-.77-6.84-1.45-.02-.01-.03,0-.01.02M537.81,30.67c2.75,0,5.77-.75,7.58-2.23.49-.4.97-.94,1.39-1.67.24-.42.48-.91.67-1.4,0-.02,0-.03-.02,0-1.68,2.47-6.55,4.02-11.57,4.02-3.55,0-7.37-1.14-8.87-3.31-.01-.02-.03-.01-.02.01,1.39,2.96,5.62,4.58,10.85,4.58M534.8,25.75c-5.72,0-8.41-2.66-8.9-4.48,0-.03-.02-.02-.02,0,0,.61.06,1.4.17,1.93.05.25.26.66.56.98,1.38,1.44,4.84,3.47,10.82,3.47,8.15,0,10.01-2.71,10.39-3.61.27-.64.41-1.79.41-2.76,0-.23,0-.42-.01-.61,0-.03-.02-.03-.02,0-.41,2.18-7.37,5.09-13.38,5.09M526.95,16.48c-.33.65-.69,1.75-.8,2.32-.05.24-.03.36.06.54.69,1.46,4.15,3.78,12.24,3.78,4.93,0,8.77-1.21,9.39-3.43.11-.41.12-.84-.03-1.42-.16-.65-.47-1.4-.73-1.93,0-.02-.02-.01-.02,0,.1,2.9-7.99,4.77-12.07,4.77-4.42,0-8.11-1.76-8.11-3.99,0-.21.04-.43.1-.65,0-.02-.01-.02-.02,0M544.43,12.91c.05.07.07.15.07.26,0,1.24-3.8,3.44-9.84,3.44-4.44,0-5.27-1.65-5.27-2.7,0-.37.14-.76.46-1.15.02-.02,0-.03-.02-.01-.58.49-1.11,1.04-1.57,1.63-.22.28-.36.53-.36.68,0,2.17,5.45,3.75,10.54,3.75,5.43,0,7.85-1.77,7.85-3.33,0-.56-.22-.88-.77-1.51-.36-.41-.7-.74-1.06-1.07-.02-.01-.03,0-.02.01M542.76,11.67c-1.67-1-3.62-1.58-5.71-1.58s-4.11.59-5.79,1.62c-.5.31-.79.56-.79.88,0,.94,2.2,1.96,6.11,1.96s6.86-1.11,6.86-2.18c0-.25-.22-.43-.67-.7"/>
      <g>
        <path class="cls-1" d="M732.65,21.76c-.06.44.06.61.35.68.39.1.58-.09.73-.42,2.09-4.69,4.58-8.14,5.89-9.62-1.85,3.81-4.1,10.26-4.23,13.88-.01.37.14.78.85,1.07.4.16,1.06.11,1.08-.32.09-2.12.32-4.43.99-6.98,1.02-3.87,3.72-9.55,4.15-10.48.24-.52.34-1.32-.39-1.32-.61,0-1.24.64-1.5.88-.49.44-3.4,4.18-4.6,5.84.66-2.23,1.14-3.73,1.72-5.37.11-.31.15-1.03-.38-1.11-.38-.06-.8.22-1.08.48-3.2,2.95-7.94,11.89-9.69,17.43-.14.45-.29,1.21.67,1.48.89.26,1.17-.38,1.31-.9,2.27-8.36,5.93-13.63,7.03-15.02-1.11,3.3-2.68,8.22-2.89,9.79"/>
        <path class="cls-1" d="M743.03,17.36c-.35,1.14-1.76,4.12-2.33,4.87-.3.4-.48.58-.4-.17.21-1.9,1.15-4.19,1.97-5.16.69-.81,1.05-.49.76.45M741.53,16.07c-1.06,1.18-2.74,4.66-2.67,7.56.03,1.15.57,1.29,1.14.98.45-.24.91-.85,1.32-1.48.73.92,2.17-.11,3.17-1.72.23,1.98,1.85,1.09,2.42-.25.7,1.42,1.97.3,2.75-1.22-.1,1.29.66,1.73,1.03,1.8.72.12,2.07-.57,2.45-2.01.09-.33-.15-.45-.38-.08-.22.35-.51.81-.94,1.08-.32.2-.76.27-.8-.35-.04-.49.39-2,1.31-4.06.1-.22-.22-.49-.56-.61-.45-.16-.7.06-.85.42-.37.88-1.06,2.36-1.63,3.47-.58,1.14-1.08,1.25-1.14.7-.06-.57.79-2.36,1.49-3.88.1-.21-.13-.47-.54-.57-.53-.13-.71.08-.74.18-.07.19-1.16,3.4-1.93,4.35-.62.76-.84.68-.66-.12.33-1.48,1.54-3.69,1.73-4.09.1-.2-.08-.33-.43-.42-.52-.13-.86.15-1.01.53-.73,1.9-1.14,3.33-1.91,4.5-.91,1.39-1.9,1.67-1.69.9.25-.9,1.33-3.34,2.49-5.11.13-.2.28-.48-.13-.71-.2-.11-.56-.04-.73.03-.04-.69-1.44-1.1-2.57.17"/>
        <path class="cls-1" d="M751.87,14.8c.44.14,1.07-.21,1.35-.78.29-.58.06-1.14-.42-1.27-.48-.13-1.04.16-1.25.78-.2.59-.09,1.13.31,1.27"/>
        <path class="cls-1" d="M771.19,10.18c.43.17,1.07-.18,1.37-.77.31-.6.11-1.2-.37-1.35-.47-.16-1.03.13-1.27.77-.22.61-.13,1.19.27,1.35"/>
        <path class="cls-1" d="M762.93,20.88l-.45,1.06c-1.39.29-3.26.7-4.63,1.01l.6-1.24c1.39-2.93,3.45-5.94,7.18-8.85-.45,2.59-1.49,5.43-2.69,8.02M756.29,28.85c-.01-1.25.43-2.84.99-4.43,1.28-.25,3.05-.58,4.41-.82-1.08,2.17-1.87,3.37-3.33,5.06-.69.79-2.06,2.18-2.07.18M757.16,16.47c.26-3.91,3.76-7.15,6.08-8.21,1.51-.68,3.06.01,2.45,3.59-2.65,1.92-4.5,3.9-5.47,4.74-1.89,1.62-3.14,1.21-3.06-.12M782.14,12.84c-1.27.43-3.05,1.53-3.81,2.1-.17.13-.24.04-.19-.3.21-1.38,1.21-2.66,1.51-3.04.29-.36-.1-.74-.48-.9-.23-.1-.49-.06-.63.05-.57.48-1.41,1.43-1.94,2.17.1-.33.43-1.36.52-1.55.19-.4-.08-.57-.23-.65-.49-.27-.72,0-.89.19-.45.53-1.4,1.99-2.06,2.86.17-.5.57-1.56.68-1.92.08-.25-.05-.49-.41-.66-.27-.13-.55.04-.8.29-1.52,1.46-2.39,2.64-3.41,3.87-.63.68.98-3.09,1.3-3.69.19-.35.11-.58-.39-.67-.49-.08-.75.17-.84.36-.95,2.02-2.32,3.85-3.76,5l.23-.72c.39-1.35.75-2.78.88-3.88.38-.26.77-.43,1.03-.51.4-.13.78-.38.91-.82.16-.57-.49-.64-1.89.2.5-2.45.14-4.17-.99-4.6-.86-.32-1.97-.2-3.29.49-3.07,1.61-7.96,6.49-7.81,11.37.07,2.13,2.14,2.06,3.55,1.02-.78,1.07-1.43,2.09-1.97,3.07l-.65,1.28s0,.02-.01.03c-11.25,2.65-19.54,5.39-24.38,7.44-.34.14-.43.38-.34.52.11.17.4,0,.63-.08,6.88-2.43,14.3-4.55,23.52-6.43-1,2.78-1.29,5.24-1.07,6.61.29,1.75,1.41,1.73,2.4.94,1.93-1.54,4.28-5,6.29-8.89,4.72-.76,11-1.68,16.6-2.24.61-.06.91-.59.95-.92.09-.74-.56-.93-.82-.9-4.87.42-10.97,1.39-15.86,2.29l.48-1.04c.35-.79.68-1.6.99-2.41,1.2-.93,2.62-2.31,3.09-3.03-.14.72-.29,1.4-.33,1.61-.05.29.22.44.41.48.23.05.52-.02.7-.24.65-.83,2.24-3.03,3.41-4.03.41-.44-.51,1.9-.91,2.98-.19.5-.26.67.23,1.03.2.15.49,0,.6-.22.57-1.07,1.62-2.59,2.4-3.62-.29.86-.71,1.94-.8,2.23-.18.55.14.83.32.92.39.18.57.09.75-.2.06-.1.88-2.28,1.99-3.42-.26,1.01-.44,1.86-.51,2.57-.06.56.02.72.23.81.28.12.54-.07.99-.41,1.3-.97,2.85-1.72,4.02-2.03.29-.08.53-.31.51-.57-.03-.4-.43-.28-.66-.2"/>
        <path class="cls-1" d="M728.83,36.03c0-.18-.07-.33-.2-.43-.13-.1-.31-.15-.55-.15h-.93v1.2h.93c.23,0,.42-.05.55-.16.13-.11.2-.26.2-.45h0ZM729.22,35.13c.26.21.39.5.39.87h0c0,.39-.13.7-.39.91-.26.21-.64.32-1.14.32h-.93v1.08h-.75v-3.5h1.68c.5,0,.88.1,1.14.31"/>
        <path class="cls-1" d="M733.22,37.42c.2-.21.3-.5.3-.87h0c0-.36-.1-.63-.3-.83-.2-.19-.48-.29-.85-.29s-.64.1-.84.29c-.2.19-.3.46-.3.82h0c0,.38.1.67.3.88.2.21.48.32.84.32s.64-.11.84-.32M731.3,38.14c-.3-.14-.53-.35-.68-.62-.16-.27-.24-.59-.24-.97h0c0-.37.08-.68.24-.94.16-.26.39-.46.68-.59.3-.14.66-.21,1.08-.21s.78.07,1.08.21c.3.14.53.33.69.59.16.26.24.57.24.93h0c0,.39-.08.71-.24.98-.16.27-.39.48-.69.62-.3.14-.66.21-1.08.21s-.78-.07-1.08-.21"/>
        <polygon class="cls-1" points="738.42 37.66 738.42 38.32 735.5 38.32 735.5 34.82 736.31 34.82 736.31 37.66 738.42 37.66"/>
        <path class="cls-1" d="M741.81,37.19l-.7-1.54-.7,1.54h1.39ZM742.05,37.73h-1.88l-.27.59h-.91l1.58-3.5h1.07l1.58,3.5h-.91l-.27-.59Z"/>
        <rect class="cls-1" x="748.15" y="34.82" width=".86" height="3.5"/>
        <polygon class="cls-1" points="753.23 35.4 751.17 37.66 753.23 37.66 753.23 38.32 750.06 38.32 750.06 37.77 752.14 35.48 750.08 35.48 750.08 34.82 753.23 34.82 753.23 35.4"/>
        <polygon class="cls-1" points="755.04 35.48 755.04 36.2 757.29 36.2 757.29 36.79 755.04 36.79 755.04 37.66 757.53 37.66 757.53 38.32 754.24 38.32 754.24 34.82 757.53 34.82 757.53 35.48 755.04 35.48"/>
        <path class="cls-1" d="M761.32,36.53c0-.35-.1-.61-.31-.79-.21-.18-.51-.27-.9-.27h-.8v2.22h.79c.39,0,.69-.1.9-.3.21-.2.32-.48.32-.85h0ZM761.61,35.26c.36.29.54.71.54,1.26h0c0,.38-.08.7-.25.97-.17.27-.4.47-.71.61-.31.14-.67.21-1.1.21h-1.6v-3.5h1.6c.64,0,1.15.15,1.51.44"/>
        <path class="cls-1" d="M765.66,36.03c0-.18-.07-.33-.2-.43-.13-.1-.31-.15-.54-.15h-.92v1.2h.92c.23,0,.41-.05.54-.16.13-.11.2-.26.2-.45h0ZM766.05,35.13c.26.21.39.5.39.87h0c0,.39-.13.7-.39.91-.26.21-.63.32-1.13.32h-.92v1.08h-.74v-3.5h1.66c.49,0,.87.1,1.13.31"/>
        <polygon class="cls-1" points="770.4 37.66 770.4 38.32 767.3 38.32 767.3 34.82 768.16 34.82 768.16 37.66 770.4 37.66"/>
        <path class="cls-1" d="M774.52,34.82v1.91c0,.52-.14.92-.42,1.2-.28.28-.67.42-1.17.42s-.89-.14-1.17-.42c-.28-.28-.42-.68-.42-1.2v-1.91h.71v1.85c0,.32.08.58.24.76.16.18.37.27.65.27s.49-.09.65-.27c.16-.18.24-.43.24-.76v-1.85h.71Z"/>
        <path class="cls-1" d="M778.45,38.09c-.3.18-.7.27-1.21.27s-.94-.1-1.23-.29c-.29-.19-.43-.47-.43-.84h0s.71-.01.71-.01h0c0,.19.09.33.26.42.17.09.41.14.71.14.28,0,.51-.04.66-.12.16-.08.24-.19.24-.33h0c0-.13-.04-.22-.13-.28-.09-.06-.2-.1-.33-.13-.13-.02-.31-.04-.55-.06-.32-.02-.58-.06-.79-.1-.2-.04-.38-.13-.52-.27s-.22-.35-.22-.62h0c0-.34.14-.6.43-.78.28-.17.68-.26,1.19-.26s.9.09,1.19.26c.29.17.44.43.44.78v.02h-.71c0-.16-.08-.27-.24-.35-.16-.08-.39-.12-.68-.12s-.49.04-.65.11c-.15.07-.23.18-.23.32h0c0,.13.04.22.13.28.09.06.2.1.33.13.13.02.31.04.55.06.32.02.58.06.79.1.2.04.38.13.52.27.14.14.22.34.22.61h0c0,.36-.15.63-.44.81"/>
        <path class="cls-1" d="M782.52,36.45c-.1.15-.23.26-.38.33-.15.08-.35.15-.6.24-.2.07-.36.12-.48.18-.12.05-.24.12-.35.2-.11.09-.2.19-.27.32h2.23v.6h-2.94v-.07c0-.38.07-.69.21-.92.14-.23.31-.39.51-.5.2-.1.45-.2.75-.3.19-.06.34-.12.45-.16.11-.05.19-.11.26-.18.07-.08.1-.18.1-.3h0c0-.17-.07-.28-.21-.36-.14-.07-.34-.11-.62-.11-.23,0-.42.05-.57.14-.15.1-.24.23-.25.42v.02h-.6v-.02c.03-.38.17-.67.43-.86.26-.19.6-.29,1.02-.29.45,0,.81.09,1.07.26.26.17.38.43.38.77h0c0,.25-.05.45-.15.59"/>
        <path class="cls-1" d="M744.62,36.57v-1.12h.95c.22,0,.4.05.53.14.13.09.19.22.19.39h0c0,.19-.06.34-.19.44-.13.1-.3.15-.53.15h-.95ZM747.07,37.28c0-.12-.02-.25-.08-.36-.06-.13-.13-.17-.19-.21.03-.03.05-.06.07-.1.11-.18.17-.39.17-.64h0c0-.37-.13-.65-.38-.85-.25-.2-.62-.3-1.1-.3h-1.67v3.5h.73v-1.16h1.59c.1,0,.18.08.18.18v.4s0,.58,0,.58h.68v-1.04Z"/>
      </g>
    </g>
  </g>
</svg>