<?xml version="1.0" encoding="UTF-8"?>
<svg id="Layer_2" data-name="Layer 2" xmlns="http://www.w3.org/2000/svg" viewBox="0 0 1021.39 29.7">
  <defs>
    <style>
      .cls-1, .cls-2, .cls-3 {
        fill: #fff;
      }

      .cls-2 {
        fill-rule: evenodd;
      }

      .cls-3 {
        stroke: #fff;
        stroke-miterlimit: 10;
        stroke-width: .1px;
      }
    </style>
  </defs>
  <g id="Website">
    <g>
      <path class="cls-1" d="M1020.05,18.3c-.74,0-1.33.6-1.33,1.33s.6,1.33,1.33,1.33,1.33-.6,1.33-1.33c0-.74-.6-1.33-1.33-1.33Z"/>
      <path class="cls-1" d="M977.95,10.4c-3.36,0-5.38,2.05-5.38,5.49v5.95c1.05,0,1.75-.7,1.75-1.75v-4.21c0-2.44,1.32-3.84,3.63-3.84s3.63,1.4,3.63,3.84v5.95c1.05,0,1.75-.7,1.75-1.75v-4.21c0-3.43-2.01-5.49-5.38-5.49Z"/>
      <path class="cls-1" d="M990.94,10.4c-3.39,0-5.85,2.4-5.85,5.72s2.46,5.72,5.85,5.72c2.44,0,4.48-1.27,5.35-3.33l.06-.16c-.65-.33-1.57-.31-2.25.53-.71.86-1.8,1.32-3.16,1.32-2.18,0-3.78-1.38-4.04-3.45h9.85v-.63c0-3.32-2.44-5.72-5.8-5.72ZM986.96,15.15c.37-1.9,1.92-3.11,3.99-3.11s3.58,1.21,3.96,3.11h-7.95Z"/>
      <path class="cls-1" d="M1015.79,20.26c-1.65,0-2.56-.96-2.56-2.69v-4.66h2.33c1.05,0,1.75-.7,1.75-1.75h-4.08v-3.31l-1.75.7v9.02c0,2.32,1.18,3.85,3.23,4.23.41.07,2.92.18,2.68-1.99-.42.29-.96.44-1.61.44Z"/>
      <path class="cls-1" d="M1003.9,10.4c-3.44,0-5.85,2.38-5.85,5.78s2.37,5.65,5.63,5.65c1.94,0,3.54-.87,4.4-2.36v.72c0,.99.66,1.64,1.64,1.64v-5.65c0-3.4-2.39-5.78-5.82-5.78ZM1003.9,20.2c-2.4,0-4.08-1.68-4.08-4.08s1.68-4.08,4.08-4.08,4.08,1.68,4.08,4.08-1.68,4.08-4.08,4.08Z"/>
    </g>
    <g>
      <path class="cls-1" d="M94.02,15.84h-1.66v1.45h1.66c.4,0,.73-.32.73-.72s-.32-.72-.73-.72ZM89.04,14.55h7.03c1.14,0,2.07.93,2.07,2.07,0,.87-.54,1.62-1.3,1.92l1.45,2.09h-4l-1.03-1.94h-.9v1.94h-3.31v-6.09Z"/>
      <polygon class="cls-1" points="113.1 19.3 116.51 19.3 116.51 20.64 109.66 20.64 109.66 14.55 113.1 14.55 113.1 19.3"/>
      <polygon class="cls-1" points="103.54 19.3 107.74 19.3 107.74 20.64 100.03 20.64 100.03 14.55 107.36 14.55 107.36 15.89 103.54 15.89 103.54 16.93 107.36 16.93 107.36 18.27 103.54 18.27 103.54 19.3"/>
      <polygon class="cls-1" points="120.94 19.3 124.35 19.3 124.35 20.64 117.5 20.64 117.5 14.55 120.94 14.55 120.94 19.3"/>
      <path class="cls-1" d="M121.09,10.46h-39.83v1.42h39.83c.39,0,.71-.32.71-.71s-.32-.71-.71-.71ZM75.46,9.06h52.03c1.17,0,2.13.95,2.13,2.13s-.95,2.13-2.13,2.13h-46.23v7.33h-5.8v-11.58Z"/>
      <rect class="cls-1" x="83.49" y="14.55" width="3.31" height="6.09"/>
      <rect class="cls-1" x="125.3" y="14.55" width="3.31" height="6.09"/>
    </g>
    <g>
      <path class="cls-1" d="M190.14,11.73l-1.19,3.21h-.12l-1.27-3.21c-.12-.31-.26-.41-.67-.41h-3.51v7.06h2.58v-4.28h.13l1.65,3.87c.12.29.25.4.59.4h.94c.34,0,.46-.1.59-.4l1.65-3.87h.13v4.28h2.66v-7.06h-3.5c-.41,0-.55.1-.67.41M202.86,11.72c-.35-.27-.85-.4-1.81-.4h-3.05c-.96,0-1.45.13-1.81.4-.54.4-1,1.18-1,3.13s.46,2.72,1,3.13c.35.27.85.4,1.81.4h3.05c.96,0,1.45-.13,1.81-.4.54-.4,1-1.18,1-3.13s-.46-2.72-1-3.13M200.72,16.66c-.08.06-.21.08-.6.08h-1.17c-.39,0-.52-.02-.6-.08-.09-.07-.25-.25-.25-1.81s.16-1.73.25-1.81c.08-.06.21-.08.6-.08h1.17c.39,0,.52.02.6.08.09.07.25.26.25,1.81s-.16,1.73-.25,1.81M213.88,18.38h2.83v-7.06h-2.83v7.06ZM213,13.33c0-.98-.2-1.33-.6-1.64-.35-.27-.86-.36-1.78-.36h-5.85v7.06h2.81v-2.42h1.38c.58,0,.69.04.82.13.14.1.22.2.25.73.03.61,0,1.05,0,1.56h2.89s0-1.07-.02-1.75c-.04-1.02-.56-1.25-1.48-1.41v-.02c1.06-.16,1.57-.55,1.57-1.87M209.83,14.36c-.08.06-.22.08-.73.08h-1.52v-1.51h1.52c.51,0,.64.02.73.08.13.09.21.25.21.67s-.07.58-.21.69"/>
      <path class="cls-1" d="M158.09,11.92c-.55-.43-1.35-.6-2.8-.6h-4.73v7.06h4.73c1.46,0,2.25-.16,2.8-.58.63-.48.93-1.18.93-2.94s-.3-2.45-.93-2.93M155.88,16.62c-.16.12-.39.17-1.02.17h-1.48v-3.87h1.48c.64,0,.86.04,1.02.16.17.14.25.44.25,1.77s-.09,1.64-.25,1.77M166.75,11.73l-1.19,3.21h-.12l-1.27-3.21c-.12-.31-.26-.41-.67-.41h-3.51v7.06h2.58v-4.27h.13l1.65,3.87c.12.29.25.4.59.4h.94c.34,0,.46-.1.59-.4l1.65-3.87h.13v4.27h2.66v-7.06h-3.5c-.41,0-.55.1-.67.41M175.75,14.42v1.46h1.96v.05c0,.5-.18.7-.28.77-.08.06-.22.08-.59.08h-1.24c-.41,0-.52-.02-.6-.08-.12-.09-.29-.42-.29-1.85s.17-1.73.29-1.83c.08-.06.19-.08.6-.08h1.18c.39,0,.51.03.58.08.09.07.26.15.27.72h2.7c-.04-1.2-.31-1.71-.77-2.06-.35-.26-.9-.36-1.89-.36h-3.05c-.96,0-1.45.13-1.81.4-.54.4-1,1.18-1,3.13s.46,2.72,1,3.13c.35.27.85.4,1.81.4h3.04c.85,0,1.45-.12,1.83-.41.51-.39.92-.99.92-2.69v-.86h-4.66Z"/>
    </g>
    <g>
      <polygon class="cls-1" points="608.59 5.71 604.59 5.71 598.63 20.26 602.62 20.26 608.59 5.71"/>
      <polygon class="cls-1" points="609.5 6.17 607.5 11.06 611.27 20.26 615.5 20.26 609.5 6.17"/>
      <path class="cls-1" d="M622.72,9.9c-.72,0-1.36.15-1.93.43-.57.29-1.04.71-1.39,1.26v-1.44h-3.03v10.13h3.11v-5.67c0-.69.19-1.24.59-1.65.39-.41.91-.62,1.56-.62.54,0,.93.16,1.19.47.25.32.38.82.38,1.5v5.96h3.11v-6.1c0-1.43-.3-2.5-.89-3.21-.59-.71-1.49-1.06-2.7-1.06"/>
      <path class="cls-1" d="M633.76,14.32l-1.71-.39c-.41-.11-.7-.23-.87-.35-.17-.12-.25-.3-.25-.52,0-.3.14-.54.41-.7.27-.16.65-.25,1.13-.25,1.04,0,2.1.37,3.17,1.11l.83-2.06c-.55-.4-1.17-.71-1.86-.93-.69-.22-1.4-.33-2.12-.33-.85,0-1.61.14-2.28.41-.67.27-1.18.65-1.55,1.13-.37.48-.55,1.04-.55,1.67,0,.8.23,1.43.69,1.89.46.46,1.18.8,2.16,1.02l1.65.37c.51.11.86.23,1.04.37.18.14.28.33.28.58,0,.27-.14.49-.4.65-.27.16-.64.24-1.12.24-.67,0-1.34-.1-2-.31-.66-.21-1.26-.5-1.81-.87l-.82,2.14c.56.4,1.23.71,2.01.92.78.21,1.63.32,2.57.32,1.36,0,2.43-.28,3.21-.83.77-.56,1.16-1.32,1.16-2.3,0-.81-.24-1.45-.71-1.93-.47-.47-1.23-.83-2.26-1.06"/>
      <path class="cls-1" d="M656.76,15.38c-.47-.47-1.23-.83-2.26-1.06l-1.71-.39c-.41-.11-.7-.23-.86-.35-.17-.12-.25-.3-.25-.51,0-.3.14-.54.41-.7.28-.16.65-.25,1.14-.25,1.04,0,2.1.37,3.17,1.11l.82-2.06c-.55-.4-1.17-.71-1.86-.93-.69-.22-1.4-.33-2.13-.33-.85,0-1.61.14-2.28.41-.67.28-1.18.65-1.55,1.13-.36.48-.55,1.04-.55,1.67,0,.8.23,1.43.69,1.89.46.46,1.18.8,2.15,1.02l1.65.37c.51.11.86.23,1.04.37.19.14.28.33.28.58,0,.27-.13.49-.4.65-.27.16-.64.24-1.12.24-.68,0-1.34-.1-2-.31-.66-.21-1.27-.5-1.82-.87l-.83,2.14c.56.4,1.23.71,2.01.92.78.21,1.63.32,2.57.32,1.36,0,2.43-.28,3.21-.83.78-.56,1.17-1.32,1.17-2.3,0-.81-.24-1.45-.71-1.93"/>
      <polygon class="cls-1" points="645.32 10.16 642.88 16.11 640.45 10.16 637.44 10.16 641.38 19.78 639.66 23.99 642.66 23.99 648.33 10.16 645.32 10.16"/>
    </g>
    <g>
      <path class="cls-1" d="M487.9,21.31h7.52c-1.88.58-3.87,1.04-5.73,1.41-7.2,1.51-19.76,1.76-25.38,1.42-5.65-.35-12.35-1.57-13.51-2l.33-.9c1.87.49,6.43,1.23,11.21,1.66,4.09.37,8.23.16,10.75.15,1.53,0,8.46-.32,14.82-1.74M503.94,15.04c0,.43-.09.85-.26,1.24h-5.03s0,0,0-.02h-11.08c-.08-.03-.68-.38-1.36-1.1-.23-.25-1.16-1.65-1.18-1.69l-1.87-.03-.95,2.11s0,0,0,0c0,0,0,0,0,.01,0,0,0,.01,0,.02,0,0,0,.01,0,.02,0,0,0,0,0,.01,0,0,0,0,0,.01,0,0,0,0,0,.02,0,0,0,0,0,.01,0,0,0,.01.01.02,0,0,0,0,0,0,0,0,.01.01.02.02,0,0,0,0,0,0,0,0,.01.02.02.03.03.03.07.06.11.09,0,0,0,0,0,0,.01,0,.03.02.04.03,0,0,0,0,.01,0l.04.02s.01,0,.02,0c.02,0,.03.02.05.02,0,0,.01,0,.02,0,.02,0,.04.02.05.02,0,0,.01,0,.02,0,.06.02.13.05.21.06,0,0,.02,0,.03,0,.08.02.17.03.27.04h.13v.18h-5.01s-1.18-.05-.59-1.09c.22-.4.5-1.14.9-1.97.43-.9.91-1.86,1.2-2.43.03-.05.06-.11.08-.15,0,0,0,0,0-.01,0-.01.01-.03.02-.04l.02-.03s.01-.02.02-.03c0-.01.01-.02.02-.03l.02-.03s0,0,0,0c0,0,.01-.02.02-.03l.02-.03s0-.01,0-.02c0,0,0,0,0-.01,0,0,0-.01,0-.02h0s0-.02,0-.02v-.02s.01,0,.01,0c0,0,0-.02,0-.02,0,0-.06-.65-.5-.18-.44.47-6.82,6.28-6.82,6.28h-3.05l-.09-3.76-4.12,3.59h-3.05l.03-2.19.02-1.5.03-2.03s-.2-.26-.7-.48c-.03-.01-.06-.03-.09-.04-.03-.01-.06-.03-.1-.04,0,0,0,0-.01,0-.03-.01-.06-.02-.09-.03,0,0,0,0-.02,0-.03-.01-.07-.02-.11-.03-.23-.07-.51-.12-.83-.14v-.23h5.37l-.02,3.25,3.15-3.26h3.37v3.27l.66-.51,2.37-1.81s.16-.26-.02-.43c0,0-.02-.01-.02-.02,0,0,0,0,0,0,0,0-.01,0-.02-.01,0,0,0,0-.01,0,0,0-.02,0-.02-.01,0,0,0,0,0,0-.01,0-.02-.01-.04-.02-.02,0-.03,0-.05-.02,0,0,0,0-.01,0l-.06-.02s0,0,0,0c-.02,0-.04-.01-.06-.02,0,0,0,0-.01,0-.02,0-.05,0-.07-.02h0s-.05,0-.07-.02c0,0,0,0,0,0-.03,0-.05,0-.08-.02h0c-.06,0-.11-.02-.17-.03-.37-.06-.72-.09-.72-.09v-.25h14.66s1.24.08,2.33.41c.27.08.53.18.76.29.1.05.19.1.27.15.02.01.04.03.06.04,0,0,0,0,0,0,.02.01.03.02.05.04,0,0,0,0,0,0,.02.01.03.03.05.04t0,0c.08.07.15.14.21.21,0,0,0,0,.01.01,0,0,.02.02.02.03,0,0,0,.01.01.02,0,0,.01.02.02.03,0,0,0,.02.02.02,0,0,0,.02.02.03,0,0,0,.02.01.03,0,0,0,.02.01.03v.03s.02.02.02.03c0,.01,0,.02,0,.03,0,0,0,.02,0,.02,0,.01,0,.03,0,.04,0,0,0,.01,0,.02,0,.02,0,.04,0,.06.13,1.36-1.8,2.4-2.94,2.44h0s0,0,0,0c0,0,0,0,.01.01h0s.01.02.02.02c0,0,0,0,0,0,.02.02.05.04.08.07,0,0,0,0,0,0,.02.01.03.02.05.04,0,0,0,0,.01,0,.02.01.04.03.05.04,0,0,0,0,.02.01.02.02.05.03.08.05.04.02.08.05.12.08.12.08.27.17.44.26.7.38,1.47.63,2.22.87,1.48.47,3.04.71,4.59.76.46.01,1.1.03,1.57.02,0,0,.04-.9.04-.94,0-.84-.42-1.64-1.21-2.41-.37-.36-.82-.7-1.34-1.04-1.97-1.26-5-2.36-8.76-3.2-2.33-.52-4.94-.94-7.75-1.24-3.17-.34-6.6-.52-10.19-.52-14.7,0-26.87,3.12-28.94,7.18-.21.4-.31.81-.31,1.23,0,.1.02.21.05.33.11.38.32.75.54,1.08.39.59.82,1.16,1.37,1.6.13.1.3.25.49.41.4.27.86.56,1.26.77.44.24.83.3.94.34.28.08.43-.03.48-.22,0,0,1.55-4.21,2.42-6.61.05-.15.1-.29.15-.44.09-.26.18-.52.27-.77.07-.2.19-.43.13-.65-.04-.13-.12-.24-.22-.34-.13-.12-.29-.2-.45-.27-.16-.07-.33-.12-.5-.15v-.26l10.78.02s1.32.11,2.41.82c.03.02.06.04.1.06,0,0,0,0,0,0,.06.04.13.09.19.14,0,0,0,0,0,0,.03.02.06.05.08.07,0,0,0,0,.01,0l.08.07h0c.06.06.11.11.16.16l.02.02s.04.05.06.07c0,0,0,.01.01.02.05.06.1.12.14.18,0,0,.01.01.02.02.02.02.03.05.05.07,0,0,.01.02.02.03.02.02.03.05.05.08v.02s.05.07.07.1c0,0,0,.01.01.02.02.03.03.06.04.08,0,0,0,.02.01.03.01.03.02.05.04.08,0,0,0,.02.01.03.01.04.03.07.04.11.76,2.08-.92,3.85-4.58,4.21-1.52.15-5.28.1-5.28.1,0,0-.55,1.77-1.2,3.68-.58,1.7-1.2,3.62-2.28,4,0,0-.66.08-1.51-.18-.61-.19-1.35-.53-2.13-1-.03-.02-.06-.03-.08-.05-.18-.11-.35-.22-.53-.33-.31-.2-.63-.42-.94-.65-.28-.21-.55-.42-.8-.65-.39-.35-.76-.72-1.09-1.12-.14-.16-.27-.32-.39-.48,0-.01-.02-.03-.03-.04-.03-.04-.09-.12-.09-.12-.22-.31-.43-.63-.62-.96h0c-.47-.83-.87-1.8-1.04-2.72,0-.04-.01-.07-.02-.11-.04-.2-.06-.39-.06-.59,0-5.24,14.52-9.49,32.43-9.49,9.82,0,18.61,1.28,24.56,3.29,3.87,1.23,5.89,2.57,6.9,3.88.07.08.13.16.19.24.11.15.21.32.28.49.31.59.43,1.17.45,1.72M452.59,14.55s0,0,.03,0h.02s.03,0,.04,0h0s.02,0,.03,0h0c.08,0,.19,0,.33,0h0c.07,0,.15,0,.23,0h0s.06,0,.08,0c.25,0,.54,0,.85,0,1.25,0,2.82-.1,3.33-1.21.3-.66.23-.93.1-1.19-.07-.14-.17-.25-.29-.33h0s0,0,0,0c-.05-.04-.1-.07-.15-.09,0,0,0,0,0,0-.02-.01-.05-.02-.07-.03,0,0,0,0-.01,0-.02,0-.05-.02-.07-.03h0s-.09-.03-.13-.04c0,0,0,0,0,0-.01,0-.03,0-.04-.01,0,0,0,0,0,0-.01,0-.03,0-.04,0-.01,0-.02,0-.03,0,0,0,0,0,0,0h0s0,0,0,0h0s0,0,0,0h-3.2l-.98,3ZM487.74,10.81h0s-.02-.03-.03-.05c-.01-.02-.03-.03-.05-.05-.19-.17-.47-.16-.71-.17,0,0-2.18,0-2.41,0l-.89,1.85h2.75c.25,0,.53-.12.74-.24.2-.11.4-.25.52-.44.07-.11.13-.25.16-.38.04-.18.02-.36-.08-.51"/>
      <path class="cls-1" d="M469.48,17.92h-.29v1.8h.32c.14,0,.23-.03.29-.1.05-.07.08-.19.08-.36v-.9c0-.16-.03-.27-.09-.34-.06-.06-.16-.09-.31-.09"/>
      <path class="cls-1" d="M495.59,17.89c-.12,0-.21.04-.26.11-.05.08-.08.2-.08.37v.85c0,.2.02.33.07.41.05.07.14.11.27.11.12,0,.21-.04.26-.11.05-.07.08-.19.08-.35v-.97c0-.16-.02-.27-.07-.33s-.14-.09-.27-.09"/>
      <polygon class="cls-1" points="461.58 19.19 462.1 19.19 461.84 17.95 461.58 19.19"/>
      <path class="cls-1" d="M474.45,17.89c-.12,0-.21.04-.26.11-.05.08-.08.2-.08.37v.85c0,.2.02.33.07.41.05.07.14.11.27.11.12,0,.21-.04.26-.11.05-.07.08-.19.08-.35v-.97c0-.16-.02-.27-.07-.33-.05-.06-.14-.09-.27-.09"/>
      <path class="cls-1" d="M452.88,16.92l-1.29,3.93h53.97l3.88-4.07-56.57.14ZM456.63,19.98h-.17l-.11-.53h-.62l-.11.53h-.31l.53-2.32h.42l.53,2.32h-.17ZM458.72,19.25c0,.26-.05.44-.14.56-.09.11-.24.17-.45.17h-.74v-2.32h.57c.27,0,.46.05.58.16.12.11.18.28.18.52v.91ZM460.14,19.98h-.39l-.49-2.32h.34l.37,1.98.35-1.98h.31l-.49,2.32ZM462.43,19.98h-.17l-.11-.53h-.62l-.11.53h-.31l.53-2.32h.42l.53,2.32h-.17ZM464.57,19.98h-.5l-.6-1.99v1.99h-.3v-2.32h.5l.6,2v-2h.29v2.32ZM466.14,17.97c-.04-.05-.11-.08-.22-.08-.12,0-.21.03-.26.09-.05.06-.08.16-.08.3v1.03c0,.16.02.27.07.34.05.06.13.09.25.09.11,0,.19-.03.23-.11.05-.07.07-.19.07-.35v-.07h.32v.07c0,.25-.04.43-.13.55-.1.11-.25.17-.48.17s-.38-.05-.48-.15c-.1-.11-.16-.26-.16-.48v-1.03c0-.25.05-.43.15-.54.1-.11.27-.17.5-.17.22,0,.38.05.47.15.08.09.13.22.13.4v.08s0,.07,0,.07h-.32v-.07c0-.14-.01-.24-.05-.29M468.24,19.85v.13h-1.06v-2.32h1.04v.26h-.72v.74h.68v.26h-.68v.8h.74v.13ZM470.19,19.25c0,.26-.05.44-.14.56-.09.11-.24.17-.45.17h-.74v-2.32h.56c.27,0,.46.05.58.16.12.11.18.28.18.52v.91ZM472.75,17.97c-.04-.05-.11-.08-.22-.08-.12,0-.21.03-.26.09-.05.06-.08.16-.08.3v1.03c0,.16.02.27.07.34.04.06.13.09.25.09.11,0,.19-.03.23-.11s.07-.19.07-.35v-.07h.32v.07c0,.25-.04.43-.13.55-.1.11-.25.17-.47.17s-.38-.05-.48-.15c-.11-.11-.16-.26-.16-.48v-1.03c0-.25.05-.43.15-.54.1-.11.27-.17.5-.17s.38.05.47.15c.09.09.13.22.13.4v.08s0,.07,0,.07h-.32v-.07c0-.14-.01-.24-.05-.29M475.11,19.36c0,.23-.05.4-.15.5-.1.1-.27.15-.5.15-.25,0-.42-.06-.52-.17-.09-.11-.14-.32-.14-.61v-.85c0-.26.05-.45.15-.57.1-.12.27-.17.5-.17s.41.06.51.17c.1.12.15.31.15.58v.97ZM477.11,19.36c0,.23-.05.4-.15.5-.1.1-.27.15-.5.15-.25,0-.42-.06-.52-.17-.1-.11-.14-.32-.14-.61v-.85c0-.26.05-.45.15-.57.11-.12.27-.17.51-.17s.41.06.51.17c.1.12.15.31.15.58v.97ZM478.77,19.85v.13h-.99v-2.32h.32v2.06h.68v.13ZM479.65,19.98h-.32v-2.32h.32v2.32ZM481.73,19.98h-.5l-.6-1.99v1.99h-.3v-2.32h.5l.6,2v-2h.29v2.32ZM483.71,18.31h-.32v-.07c0-.12-.02-.21-.07-.27-.05-.05-.14-.08-.25-.08-.13,0-.22.04-.28.11-.06.08-.09.2-.09.37v.85c0,.2.03.33.08.41.05.08.15.11.28.11.12,0,.23-.02.32-.05v-.68h-.36v-.26h.67v1.15c-.15.07-.37.11-.64.11-.26,0-.43-.06-.53-.17-.1-.11-.15-.32-.15-.61v-.85c0-.26.05-.45.16-.57.11-.12.28-.17.52-.17.22,0,.39.05.49.15.1.1.15.25.15.46v.07ZM486.68,17.79v.13h-.53v2.06h-.32v-2.06h-.53v-.26h1.39v.13ZM488.32,19.85v.13h-1.06v-2.32h1.04v.26h-.72v.74h.68v.26h-.68v.8h.74v.13ZM489.84,17.97c-.04-.05-.11-.08-.22-.08-.12,0-.21.03-.26.09-.05.06-.08.16-.08.3v1.03c0,.16.02.27.07.34.04.06.13.09.25.09.11,0,.19-.03.23-.11.05-.07.07-.19.07-.35v-.07h.32v.07c0,.25-.04.43-.13.55-.1.11-.25.17-.47.17s-.38-.05-.48-.15c-.11-.11-.16-.26-.16-.48v-1.03c0-.25.05-.43.15-.54.1-.11.27-.17.5-.17.22,0,.38.05.47.15.08.09.13.22.13.4v.08s0,.07,0,.07h-.32v-.07c0-.14-.01-.24-.05-.29M492.19,19.98h-.32v-1.06h-.67v1.06h-.32v-2.32h.32v1h.67v-1h.32v2.32ZM494.26,19.98h-.5l-.6-1.99v1.99h-.3v-2.32h.5l.6,2v-2h.29v2.32ZM496.25,19.36c0,.23-.05.4-.15.5-.1.1-.27.15-.5.15-.25,0-.42-.06-.52-.17-.09-.11-.14-.32-.14-.61v-.85c0-.26.05-.45.15-.57.1-.12.27-.17.51-.17s.41.06.51.17c.1.12.15.31.15.58v.97ZM497.92,19.85v.13h-.99v-2.32h.32v2.06h.67v.13ZM499.81,19.36c0,.23-.05.4-.15.5-.1.1-.27.15-.5.15-.25,0-.42-.06-.52-.17-.09-.11-.14-.32-.14-.61v-.85c0-.26.05-.45.15-.57.1-.12.27-.17.5-.17s.41.06.51.17c.1.12.15.31.15.58v.97ZM501.8,18.31h-.32v-.07c0-.12-.02-.21-.07-.27-.05-.05-.13-.08-.25-.08-.13,0-.22.04-.28.11-.06.08-.08.2-.08.37v.85c0,.2.03.33.08.41.05.08.15.11.29.11.12,0,.23-.02.32-.05v-.68h-.36v-.26h.67v1.15c-.15.07-.37.11-.64.11-.26,0-.44-.06-.53-.17-.1-.11-.15-.32-.15-.61v-.85c0-.26.05-.45.16-.57.11-.12.28-.17.52-.17.22,0,.39.05.49.15.1.1.15.25.15.46v.07ZM503.21,19v.98h-.32v-.98l-.53-1.34h.36l.35,1.03h0s.35-1.03.35-1.03h.33l-.53,1.34Z"/>
      <path class="cls-1" d="M499.15,17.89c-.12,0-.21.04-.26.11-.05.08-.08.2-.08.37v.85c0,.2.02.33.07.41.05.07.14.11.27.11.12,0,.21-.04.26-.11.05-.07.08-.19.08-.35v-.97c0-.16-.02-.27-.07-.33-.05-.06-.14-.09-.27-.09"/>
      <path class="cls-1" d="M476.45,17.89c-.12,0-.21.04-.26.11-.05.08-.08.2-.08.37v.85c0,.2.02.33.07.41.05.07.14.11.27.11.12,0,.21-.04.26-.11.05-.07.08-.19.08-.35v-.97c0-.16-.02-.27-.07-.33-.05-.06-.14-.09-.27-.09"/>
      <path class="cls-1" d="M458,17.92h-.29v1.8h.32c.14,0,.23-.03.29-.1.05-.07.08-.19.08-.36v-.9c0-.16-.03-.27-.09-.34-.06-.06-.16-.09-.31-.09"/>
      <polygon class="cls-1" points="455.78 19.19 456.3 19.19 456.04 17.95 455.78 19.19"/>
    </g>
    <g>
      <path class="cls-1" d="M680.18,21.78c.06.4.17.71.34.91.31.36.83.55,1.57.55.44,0,.8-.05,1.08-.15.53-.18.79-.52.79-1.02,0-.29-.13-.52-.39-.68-.26-.16-.67-.29-1.23-.41l-.95-.21c-.94-.21-1.59-.43-1.94-.68-.6-.41-.89-1.04-.89-1.91,0-.79.29-1.45.87-1.97.58-.52,1.44-.78,2.56-.78.94,0,1.75.25,2.41.74.66.49,1.01,1.21,1.04,2.15h-1.77c-.03-.53-.27-.91-.71-1.13-.29-.15-.66-.22-1.1-.22-.49,0-.88.1-1.17.29-.29.19-.44.46-.44.8,0,.32.14.55.43.71.18.1.58.23,1.17.37l1.55.37c.68.16,1.19.37,1.53.64.53.42.79,1.02.79,1.8s-.31,1.48-.94,2.01c-.62.53-1.51.8-2.64.8s-2.08-.26-2.74-.79c-.67-.52-1-1.25-1-2.16h1.76Z"/>
      <path class="cls-1" d="M686.01,19.25v-1.22h.91v-1.82h1.69v1.82h1.06v1.22h-1.06v3.45c0,.27.04.43.1.5.07.07.28.1.62.1.05,0,.11,0,.16,0,.06,0,.11,0,.17,0v1.28l-.81.03c-.81.03-1.36-.11-1.65-.42-.19-.2-.29-.5-.29-.9v-4.02h-.91Z"/>
      <path class="cls-1" d="M693.19,20.53c.32-.04.54-.09.68-.15.24-.1.37-.27.37-.48,0-.27-.09-.45-.28-.55-.19-.1-.46-.15-.83-.15-.41,0-.7.1-.87.3-.12.15-.2.35-.24.6h-1.65c.04-.57.2-1.04.48-1.41.45-.58,1.23-.86,2.33-.86.72,0,1.35.14,1.91.43.56.28.84.82.84,1.6v2.99c0,.21,0,.46.01.76.01.22.04.38.1.45.06.08.14.15.25.2v.25h-1.86c-.05-.13-.09-.25-.11-.37-.02-.12-.04-.25-.05-.4-.24.26-.51.47-.82.65-.37.21-.79.32-1.25.32-.59,0-1.09-.17-1.47-.5-.39-.34-.58-.82-.58-1.44,0-.8.31-1.38.94-1.74.34-.2.84-.34,1.51-.42l.59-.07ZM694.24,21.33c-.11.07-.22.12-.33.16-.11.04-.26.08-.46.12l-.39.07c-.36.06-.63.14-.78.23-.27.15-.4.4-.4.72,0,.29.08.5.25.63.16.13.36.19.6.19.37,0,.72-.11,1.03-.32.31-.21.48-.61.49-1.18v-.63Z"/>
      <path class="cls-1" d="M702.21,18.35c.43.35.64.94.64,1.76v4.4h-1.75v-3.97c0-.34-.05-.61-.14-.79-.17-.34-.48-.5-.95-.5-.57,0-.97.25-1.18.74-.11.26-.17.59-.17.99v3.53h-1.71v-6.52h1.65v.95c.22-.33.43-.58.62-.72.35-.26.79-.4,1.33-.4.67,0,1.22.18,1.65.53"/>
      <path class="cls-1" d="M707.42,18.08c.31.17.56.42.75.72v-3.11h1.73v8.82h-1.66v-.91c-.24.39-.52.67-.83.84-.31.18-.7.26-1.16.26-.76,0-1.4-.31-1.93-.93-.52-.62-.78-1.41-.78-2.38,0-1.11.26-1.99.77-2.63s1.2-.96,2.06-.96c.4,0,.75.09,1.05.26M707.84,22.73c.25-.36.38-.82.38-1.4,0-.8-.2-1.37-.61-1.71-.25-.21-.54-.31-.86-.31-.5,0-.87.19-1.1.57-.23.38-.35.85-.35,1.4,0,.6.12,1.09.36,1.45.24.36.6.54,1.08.54s.85-.18,1.1-.54"/>
      <path class="cls-1" d="M713.56,20.53c.32-.04.54-.09.68-.15.25-.1.37-.27.37-.48,0-.27-.09-.45-.28-.55-.19-.1-.46-.15-.83-.15-.41,0-.7.1-.87.3-.12.15-.2.35-.24.6h-1.65c.04-.57.2-1.04.48-1.41.45-.58,1.23-.86,2.33-.86.72,0,1.35.14,1.91.43.56.28.84.82.84,1.6v2.99c0,.21,0,.46.01.76.01.22.05.38.1.45.06.08.14.15.25.2v.25h-1.86c-.05-.13-.09-.25-.11-.37-.02-.12-.04-.25-.05-.4-.24.26-.51.47-.82.65-.37.21-.79.32-1.25.32-.59,0-1.09-.17-1.47-.5-.39-.34-.58-.82-.58-1.44,0-.8.31-1.38.94-1.74.34-.2.84-.34,1.51-.42l.59-.07ZM714.6,21.33c-.11.07-.22.12-.33.16-.11.04-.27.08-.46.12l-.39.07c-.36.06-.63.14-.78.23-.27.15-.4.4-.4.72,0,.29.08.5.25.63.16.13.36.19.6.19.37,0,.72-.11,1.03-.32.32-.21.48-.61.49-1.18v-.63Z"/>
      <path class="cls-1" d="M720.78,17.82s.07,0,.15,0v1.75c-.11-.01-.2-.02-.29-.02-.08,0-.15,0-.2,0-.69,0-1.15.22-1.38.67-.13.25-.2.64-.2,1.16v3.12h-1.72v-6.53h1.63v1.14c.26-.43.49-.73.69-.89.32-.27.73-.4,1.25-.4.03,0,.06,0,.08,0"/>
      <path class="cls-1" d="M724.91,18.08c.31.17.56.42.75.72v-3.11h1.73v8.82h-1.66v-.91c-.24.39-.52.67-.83.84-.31.18-.7.26-1.16.26-.76,0-1.4-.31-1.93-.93-.52-.62-.78-1.41-.78-2.38,0-1.11.26-1.99.77-2.63.51-.64,1.2-.96,2.06-.96.39,0,.75.09,1.05.26M725.33,22.73c.25-.36.38-.82.38-1.4,0-.8-.2-1.37-.61-1.71-.25-.21-.53-.31-.86-.31-.5,0-.87.19-1.1.57-.23.38-.35.85-.35,1.4,0,.6.12,1.09.36,1.45.24.36.6.54,1.08.54s.85-.18,1.1-.54"/>
      <path class="cls-1" d="M693.21,13.23c-.55.68-1.39,1.02-2.51,1.02s-1.96-.34-2.51-1.02c-.55-.68-.83-1.5-.83-2.46s.28-1.76.83-2.45c.55-.69,1.39-1.04,2.51-1.04s1.96.35,2.51,1.04c.55.69.83,1.51.83,2.45s-.27,1.78-.83,2.46M691.85,12.28c.27-.35.4-.86.4-1.51s-.13-1.16-.4-1.51c-.27-.35-.65-.53-1.15-.53s-.88.18-1.15.53c-.27.35-.4.86-.4,1.51s.13,1.16.4,1.51c.27.36.65.53,1.15.53s.88-.18,1.15-.53"/>
      <rect class="cls-1" x="694.76" y="5.2" width="1.71" height="8.83"/>
      <path class="cls-1" d="M701.17,7.6c.31.17.56.41.75.72v-3.11h1.73v8.82h-1.66v-.9c-.24.39-.52.67-.83.84-.31.17-.7.26-1.16.26-.76,0-1.4-.31-1.93-.93-.52-.62-.78-1.41-.78-2.37,0-1.11.26-1.99.77-2.63.51-.64,1.2-.96,2.06-.96.39,0,.75.09,1.05.26M701.59,12.25c.25-.36.38-.82.38-1.39,0-.8-.2-1.37-.61-1.71-.25-.21-.53-.31-.86-.31-.5,0-.86.19-1.1.57-.23.38-.35.85-.35,1.4,0,.6.12,1.09.36,1.45.24.36.6.54,1.08.54s.85-.18,1.1-.54"/>
      <path class="cls-1" d="M683.95,12.39c-.34.2-.74.3-1.21.3-.63,0-1.19-.22-1.69-.68-.5-.45-.74-1.22-.74-2.3s.23-1.88.69-2.42c.46-.54,1.04-.8,1.75-.8.37,0,.71.07,1.01.2.54.24.89.66,1.02,1.26h1.82c-.1-.85-.49-1.56-1.17-2.13-.68-.57-1.58-.85-2.71-.85-1.29,0-2.33.43-3.12,1.29-.79.86-1.18,2.01-1.18,3.44s.39,2.53,1.17,3.34c.75.81,1.71,1.22,2.88,1.22.57,0,1.06-.1,1.48-.29v-1.58Z"/>
      <polygon class="cls-1" points="682.74 9.32 682.74 10.93 685.03 10.93 685.03 13.23 686.65 13.23 686.65 9.32 682.74 9.32"/>
    </g>
    <path class="cls-1" d="M386.91,26.07c.16,1.18,1.27,1.7,2.43,1.29,1.1-.4,10.19-3.98,11.62-4.53,1.94-.75,3.01-.88,3.37.03.57,1.46,2.27,1.53,4.31.37,1.84-1.04,9.54-5.48,9.54-5.48,0,0-3.55-5.6-3.92-6.19-.55-.86-1.25-1.55-2.76-1.82-1.07-.19-9.4-1.68-9.4-1.68-.49-1.09-1.86-2.23-3.85-2.73l-12.31-3.08c-1.22-.31-2.17.56-1.99,1.81,0,0,2.82,20.85,2.97,22M416.63,17.3s-5.5,2.45-6.92,3.08c-1.74.78-3.28.69-3.83-.59-.26-.59-1.38-.56-3.53.08l-10.98,3.2-.77-3.74s8.78-1.62,10.81-1.99c2.03-.38,3.34-.16,3.89,1.1.14.32.21.5.21.5l10.27-3.01.85,1.39ZM414.33,13.54l.77,1.27-7.42,1.36-1-2.07,7.65-.56ZM411.79,10.86c.71.08,1.15.42,1.38.8.07.11.31.51.31.51l-7.85-.23-.9-1.87s6.47.73,7.06.8M392.25,5.58s.39,1.32.43,1.48c.01-.74.68-1.26,1.54-1.09.85.17,2.2.45,2.75.55,2.45.49,3.6.92,4.5,3.02l2.87,6.68c-.62-.4-1.45-.56-3.52-.28l-.51.06s-1.45-3.95-1.89-5.13c-.44-1.18-.95-1.9-2.36-2.08-.39-.04-3-.36-3-.36l2.36,8.18-5.24.67-2.58-12.64,4.64.93Z"/>
    <path class="cls-2" d="M1.74,12h7.16c.03.25.06.49.06.75,0,2.47-2.01,4.49-4.49,4.49-1.91,0-3.52-1.18-4.17-2.86h1.83c.52.74,1.37,1.23,2.34,1.23,1.31,0,2.43-.91,2.75-2.12H.06c-.05-.23-.06-.48-.06-.74,0-2.44,2-4.47,4.47-4.47,1.89,0,3.52,1.18,4.18,2.84h-1.86c-.52-.72-1.37-1.2-2.32-1.2-1.31,0-2.41.89-2.74,2.07h0ZM13.83,8.26c2.51,0,4.53,2.04,4.53,4.53s-2.03,4.53-4.53,4.53c-1.17,0-2.23-.45-3.03-1.17v5.38h-1.54v-13.26h1.54v1.15c.8-.72,1.86-1.17,3.03-1.17h0ZM13.83,9.94c1.58,0,2.87,1.29,2.87,2.86s-1.29,2.87-2.87,2.87-2.87-1.29-2.87-2.87,1.29-2.86,2.87-2.86h0ZM23.06,17.01c-2.34,0-4.24-1.98-4.24-4.43s1.91-4.43,4.24-4.43c1.08,0,1.91.32,2.66,1.03v-.91h1.6v8.73h-1.43v-1.14c-.75.71-1.75,1.14-2.83,1.14h0ZM23.06,15.38c-1.48,0-2.69-1.26-2.69-2.8s1.21-2.8,2.69-2.8,2.67,1.26,2.67,2.8-1.2,2.8-2.67,2.8h0ZM30.07,9.28c2.09-1.71,4.58-1.05,6.01,1.92h-1.72c-.97-1.84-3.77-1.66-4.29.97v5.07h-1.75v-8.96h1.75v1h0ZM50.03,8.28c2.47,0,4.49,2.03,4.49,4.47s-2.01,4.49-4.49,4.49-4.49-2.01-4.49-4.49,2.01-4.47,4.49-4.47h0ZM50.03,9.95c1.55,0,2.83,1.26,2.83,2.8s-1.28,2.83-2.83,2.83-2.83-1.26-2.83-2.83,1.28-2.8,2.83-2.8h0ZM40.79,8.28c2.01,0,3.74,1.34,4.29,3.18h-1.78c-.48-.91-1.41-1.51-2.51-1.51-1.55,0-2.83,1.26-2.83,2.8s1.28,2.83,2.83,2.83c1.14,0,2.11-.66,2.57-1.63h1.77c-.54,1.91-2.27,3.29-4.33,3.29-2.47,0-4.49-2.01-4.49-4.49s2.01-4.47,4.49-4.47h0ZM0,18.48h8.41v1.58H0v-1.58h0ZM11.88,18.48h42.58v1.58H11.88v-1.58h0Z"/>
    <g>
      <g>
        <path class="cls-1" d="M249.48,23.04s0,.01,0,.01h4.53c-.03-.08-.31-.83-.74-1.96l-3.8,1.94Z"/>
        <path class="cls-1" d="M245.78,12.21l1.69,4.61s-3.26,0-3.26,0l1.58-4.6ZM251.74,17.01c-1.74-4.61-3.84-10.21-3.9-10.37h-4.28c-.1.32-5.78,16.06-5.9,16.41h4.48c.07-.22.86-2.46.96-2.74l8.65-3.3Z"/>
        <path class="cls-1" d="M260.12,13.84v-3.11h4.21c.67,0,1.21.4,1.46.96l3.82-1.45c-.85-2.09-2.88-3.6-5.29-3.6h-8.41v8.79l4.21-1.59Z"/>
        <path class="cls-1" d="M255.91,19.75v3.3h4.21v-4.92h4.21c3.2,0,5.64-2.63,5.7-5.61l-14.12,7.22Z"/>
      </g>
      <polygon class="cls-1" points="276.33 7.7 276.33 6.64 272.12 6.64 272.12 9.29 276.33 7.7"/>
      <polygon class="cls-1" points="281.1 19.07 276.33 19.07 276.33 9.3 272.12 11.45 272.12 23.05 285.18 23.05 285.18 14.89 281.1 14.89 281.1 19.07"/>
    </g>
    <g>
      <path class="cls-1" d="M545.35,25.84c-.35,0-.52-.01-.62-.04-.01.11-.05.34-.08.44.12-.04.25-.06.53-.07.25-.01.35,0,.51,0v1.47c0,.49-.02.97-.03,1.12.09-.01.2-.02.34-.02.09,0,.17,0,.22,0-.02-.17-.04-.65-.04-1.12v-1.47c.3,0,.46,0,.59.02.23.02.36.04.43.09,0-.15.02-.32.05-.46-.08.02-.37.03-.62.03h-1.29Z"/>
      <path class="cls-1" d="M548.36,28.41s-.08-.02-.09-.03c-.02-.02-.03-.12-.03-.8v-.21s0-.02.02-.02c.09,0,.49,0,.61.02.16.01.23.03.3.07,0-.1.01-.31.03-.44-.05.02-.12.03-.35.03-.13,0-.52,0-.59,0,0,0-.02,0-.02-.02v-.86s.01-.01.02-.01c.25,0,.49,0,.62.02.21.02.3.04.36.08,0-.19.02-.36.04-.43-.07.02-.25.02-.36.02h-.9c-.11,0-.24,0-.3,0,.03.12.05.48.05,1.12v.68c0,.56-.03.98-.04,1.12.05,0,.17-.01.33-.01.21,0,.51.03,1.03.03.15,0,.2,0,.22-.02.02-.1.05-.28.09-.41-.13.06-.33.09-.66.09-.16,0-.27,0-.37-.02Z"/>
      <path class="cls-1" d="M552.75,28.79l-.51-.28c.4-.3.63-.73.63-1.29,0-.8-.57-1.45-1.51-1.45-1.05,0-1.56.79-1.56,1.53,0,.66.42,1.49,1.51,1.49.15,0,.31-.01.5-.08l.56.34c.78.46,1.26.64,1.81.64.31,0,.71-.05.99-.24,0-.05.03-.19.05-.25-.25.1-.53.13-.78.13-.49,0-.95-.14-1.69-.55ZM551.41,28.5c-.67,0-1.06-.57-1.06-1.3,0-.71.38-1.12.92-1.12.66,0,1.05.57,1.05,1.26,0,.91-.54,1.16-.91,1.16Z"/>
      <path class="cls-1" d="M555.53,25.83c.02.15.05.56.05,1.12v.41c0,.48-.03.72-.23.91-.13.14-.34.17-.48.17s-.35-.02-.52-.16c-.17-.14-.27-.34-.27-.82v-.51c0-.55.02-.99.04-1.12-.07.01-.2.02-.36.02-.08,0-.17,0-.22,0,.03.12.05.56.05,1.12v.61c0,.56.14.81.34.98.22.2.55.26.85.26.26,0,.56-.05.79-.25.35-.29.38-.74.38-1.19v-.42c0-.55.02-.99.05-1.12-.03,0-.14.02-.27.02-.06,0-.16,0-.21,0Z"/>
      <path class="cls-1" d="M557.34,26.95c0-.55.02-.98.03-1.12-.04,0-.16.02-.33.02-.08,0-.19,0-.23,0,.03.12.04.56.04,1.12v.68c0,.49-.02.97-.03,1.12.05,0,.21-.02.32-.02.1,0,.2,0,.24,0-.03-.12-.04-.65-.04-1.12v-.68Z"/>
      <path class="cls-1" d="M559.01,28.42s-.08-.01-.1-.03c-.02-.02-.03-.11-.03-.8v-.66c0-.53.02-.95.04-1.1-.05.01-.19.02-.33.02-.08,0-.2,0-.24,0,.03.12.05.56.05,1.12v.68c0,.56-.02.98-.04,1.12.05,0,.13,0,.27,0,.27,0,.5.02,1.07.02.19,0,.24,0,.26-.01.02-.08.07-.31.12-.41-.11.06-.32.09-.69.09-.16,0-.29,0-.37-.01Z"/>
      <path class="cls-1" d="M561.85,25.96c-.07-.15-.09-.19-.12-.19-.03,0-.05.04-.11.19l-.77,1.8c-.19.44-.35.79-.46.99.04,0,.16-.02.29-.02.12,0,.17,0,.22,0,.05-.18.18-.55.29-.85,0,0,0-.01.02-.01h.96s.01,0,.02.01c.11.25.28.68.35.85.06,0,.22-.02.36-.02.05,0,.15,0,.25,0-.11-.16-.33-.63-.51-1.04-.34-.77-.73-1.63-.78-1.75ZM562.05,27.57h-.73s-.01,0,0-.02l.37-.96.39.96s0,.02-.01.02Z"/>
      <path class="cls-1" d="M547.41,22.74v.12h3.68v-.12s-.93-.11-.93-.59v-7.1h1.3l.49,1.51h.17l1.07-2.06h-7.84l1.07,2.06h.17l.42-1.51h1.35v7.1c0,.53-.93.59-.93.59ZM549.26,15.34c.12,2.23.12,4.5,0,6.73-.12-2.23-.12-4.5,0-6.73Z"/>
      <path class="cls-1" d="M577.69,14.5h-2.59v.12l1.06.59.04,5.21-3.93-5.91h-2.21v.12l.7.94v6.6c0,.56-.92.59-.92.59v.12h2.42v-.12s-.92.05-.92-.59-.04-6.08-.04-6.08l4.42,6.79h.96v-7.65l1.03-.59v-.12ZM571.81,15.34c1.46,1.98,2.84,4.07,4.09,6.19-1.46-1.98-2.84-4.07-4.09-6.19Z"/>
      <path class="cls-1" d="M538.07,16.87c0-1.09-.79-2.28-2.76-2.37h-4.06v.12l.76.59v3.6c-.78-.34-1.21-.97-1.62-1.29v1.34c.37.17.74.41,1.62.55v2.73c0,.58-.82.59-.82.59v.12h3.81v-.12s-1.17,0-1.17-.59v-2.6c2.62-.06,4.24-1.32,4.24-2.68ZM537.25,16.53c.09.49-.07,1-.34,1.39-.18.26-.4.5-.66.69.2-.24.39-.49.54-.76.19-.33.32-.69.31-1.07,0-.54-.25-1.05-.62-1.44.41.26.69.71.77,1.19ZM532.87,22.07c-.12-2.23-.12-4.5,0-6.73.12,2.23.12,4.5,0,6.73ZM533.81,19.13v-4.21h.62c1.09,0,1.82.43,1.82,1.89,0,1.18-.54,2.04-1.57,2.27-.26.03-.55.05-.87.05Z"/>
      <path class="cls-1" d="M565.75,14.38c-2.24,0-4.03,2.17-4.03,4.32s1.79,4.35,4.03,4.35,4.03-2.2,4.03-4.35-1.81-4.32-4.03-4.32ZM563.29,21.17c-.43-.69-.62-1.52-.63-2.33,0-1.05.25-2.22.93-3.05-.42.68-.62,1.47-.71,2.25-.1.91-.03,1.86.32,2.72.12.31.28.6.47.87.04.05.08.11.12.16-.2-.18-.37-.4-.51-.62ZM565.75,22.65c-1.19,0-1.91-1.64-1.91-3.94s.73-3.91,1.91-3.91,1.91,1.61,1.91,3.91-.74,3.94-1.91,3.94ZM568.18,21.17c-.14.23-.31.45-.51.62.04-.05.09-.1.12-.16.19-.27.35-.56.47-.87.35-.86.42-1.8.32-2.72-.08-.79-.29-1.58-.71-2.25.68.82.93,2,.93,3.05,0,.81-.2,1.64-.63,2.33Z"/>
      <path class="cls-1" d="M568.81,11.6h-2.18l-1.36,1.78h1.44l2.09-1.78ZM567.22,12.1c-.14.32-.45.64-.77.79.14-.32.45-.64.77-.79Z"/>
      <path class="cls-1" d="M543.2,22.74v.12h3.37v-.12s-.55-.1-.82-.65c-.1-.2-.55-1.25-1.08-2.49.24-.04.49-.06.75-.06l-.56-1.28c-.18,0-.41.08-.67.22-.48-1.12-.96-2.24-1.26-2.96l.85-.85v-.17h-3.43v.12l.84,1.36c-.35.8-.82,1.89-1.27,2.94-.52-.4-1-.7-1.34-.7l-.55,1.24c.56,0,1.08.12,1.53.29-.55,1.26-1,2.29-1.07,2.42-.19.36-.44.57-.78.57v.12h2.06v-.12c-.51,0-.88-.18-.71-.57.04-.08.46-1.1.94-2.24.7.34,1.24.78,1.62,1.05.31-.23.79-.55,1.37-.84.43.95.8,1.76.9,1.94.26.49-.66.65-.66.65ZM538.74,18.95c.55.04,1.13.38,1.52.75-.51-.24-1-.54-1.52-.75ZM541.63,20.42c-.39-.36-.87-.81-1.35-1.21.56-1.34,1.09-2.63,1.09-2.63,0,0,.66,1.49,1.31,2.93-.38.31-.75.64-1.05.91ZM541.8,15.31c1.09,2.19,2.09,4.47,2.96,6.76-1.1-2.19-2.09-4.47-2.96-6.76Z"/>
      <path class="cls-1" d="M561.66,21.86c-1.49-.06-3.11-1.89-3.85-2.55,1.64-.47,2.61-1.55,2.61-2.59s-.79-2.12-2.76-2.21h-4.06v.12l.76.59v3.6c-.78-.34-1.21-.97-1.62-1.29v1.34c.37.17.74.41,1.62.55v2.73c0,.45-.82.59-.82.59v.12h3.81v-.12s-1.17-.21-1.17-.59v-2.6h-.29c.34,0,.96-.05.96-.05,0,0,.34.53.35.53.79,1.24,2.05,3.09,3.02,3.09s1.44-.68,1.44-1.26ZM555.26,22.07c-.12-2.23-.12-4.5,0-6.73.12,2.23.12,4.5,0,6.73ZM558.83,15.34c.53.33.83.97.79,1.59-.03.47-.3.9-.65,1.21-.12.1-.24.19-.37.26.42-.38.8-.89.84-1.48.03-.58-.21-1.16-.61-1.58ZM556.18,19.13v-4.21h.6c1.09,0,1.82.14,1.82,1.73,0,2.28-2.42,2.48-2.42,2.48ZM560.32,22.31c-.84-.28-1.94-1.53-2.46-2.26.42.42.83.85,1.26,1.26.21.21.43.41.66.59.23.18.46.38.76.43-.07,0-.15,0-.22-.03Z"/>
      <polygon class="cls-1" points="553.99 6.22 553.98 6.23 553.99 6.22 553.99 6.22"/>
      <path class="cls-1" d="M552.55,7.97c.43.23.9.44,1.43.62.53-.18,1.01-.39,1.43-.62-.52-.09-1-.22-1.43-.37-.44.15-.91.28-1.43.37Z"/>
      <path class="cls-1" d="M555.29,5.63c-.48-.11-.92-.24-1.31-.39-.39.14-.83.28-1.31.39.38.21.82.41,1.31.59.49-.18.92-.38,1.31-.59Z"/>
      <path class="cls-1" d="M556.27,4.88c-.63-.43-1.46-.65-2.29-.65-.82,0-1.65.22-2.29.65-.8.5-1.19,1.37-1.14,2.31.13,1.65,1.36,3.11,2.74,3.98.22.14.45.25.68.36.23-.11.46-.22.68-.36,1.39-.87,2.61-2.33,2.74-3.98.05-.94-.34-1.81-1.14-2.31ZM553.99,11.2c-.19-.06-.81-.45-.9-.53.28.11.58.22.9.31.32-.09.62-.19.9-.31-.08.08-.71.47-.9.53ZM556.96,7.96c-.02.06-.04.11-.06.17-.42-.02-.82-.05-1.2-.11-.42.23-.91.47-1.47.67.47.14.99.25,1.54.32.18-.1.34-.2.5-.3.2-.13.39-.27.56-.4-.05.11-.1.22-.15.33-.1.07-.2.14-.31.21-.1.06-.2.13-.31.2.12.01.24.02.37.03-.04.06-.07.11-.11.17-.17-.01-.34-.03-.51-.04-.45.25-.97.49-1.56.69.4.11.83.19,1.29.25-.05.05-.11.1-.17.15-.5-.07-.96-.17-1.39-.3-.43.13-.89.23-1.39.3-.06-.05-.11-.1-.17-.15.46-.05.89-.14,1.29-.25-.59-.2-1.11-.44-1.56-.69-.17.02-.34.03-.51.04-.04-.05-.08-.11-.11-.17.12,0,.25-.01.37-.03-.11-.07-.21-.13-.31-.2-.11-.07-.21-.14-.31-.21-.06-.11-.11-.22-.15-.33.17.13.36.27.56.4.15.1.32.2.5.3.56-.07,1.07-.18,1.54-.32-.56-.2-1.05-.43-1.47-.67-.38.06-.78.1-1.2.11-.02-.06-.04-.11-.06-.17.35-.01.7-.04,1.02-.08-.03-.02-.05-.03-.08-.05-.44-.27-.81-.54-1.11-.79,0-.07,0-.13,0-.2.43-.02.88-.07,1.27-.13-.42-.25-.76-.5-1.04-.72l.08-.17s.06-.09.09-.14c.32-.03.64-.08.93-.14-.18-.11-.34-.21-.5-.31.05-.04.1-.07.15-.11.18.12.38.24.6.37.47-.1.91-.23,1.31-.37-.27-.11-.52-.22-.74-.32-.08-.04-.16-.08-.24-.12.08-.02.17-.05.25-.07.02.01.04.02.07.03.26.13.56.25.89.38.33-.12.63-.25.89-.38.02-.01.05-.02.07-.03.09.02.17.04.25.07-.08.04-.16.08-.24.12-.22.11-.47.22-.74.32.4.14.84.27,1.31.37.22-.12.42-.25.6-.37.05.03.11.07.15.11-.15.1-.32.21-.5.31.3.06.61.1.93.14.03.05.06.09.09.14l.08.17c-.28.22-.63.47-1.04.72.39.06.84.11,1.27.13,0,.06,0,.13,0,.2-.3.25-.67.52-1.11.79-.03.02-.05.03-.08.05.33.04.67.07,1.02.08Z"/>
      <path class="cls-1" d="M552.44,9.15c.45.23.96.46,1.54.64.58-.18,1.09-.4,1.54-.64-.56-.08-1.07-.21-1.54-.36-.47.15-.98.27-1.54.36Z"/>
      <path class="cls-1" d="M555.62,6.85c-.39.22-.86.45-1.4.65.44.14.92.26,1.44.34.49-.28.9-.57,1.23-.83-.45-.03-.87-.08-1.27-.16Z"/>
      <path class="cls-1" d="M552.35,6.85c-.4.07-.82.13-1.27.16.33.27.75.56,1.23.83.52-.08,1-.2,1.44-.34-.54-.2-1.01-.43-1.4-.65Z"/>
      <path class="cls-1" d="M555.59,6.67c.48-.27.88-.55,1.19-.8-.43-.04-.84-.11-1.22-.19-.08.05-.16.09-.25.14-.31.17-.68.33-1.09.49.42.14.88.27,1.37.36Z"/>
      <path class="cls-1" d="M553.99,7.4c.52-.18.98-.39,1.37-.6-.5-.1-.95-.24-1.37-.38-.42.15-.87.28-1.37.38.39.21.85.42,1.37.6Z"/>
      <path class="cls-1" d="M553.75,6.31c-.41-.16-.78-.33-1.09-.49-.09-.04-.17-.09-.25-.14-.38.08-.79.14-1.22.19.31.25.71.53,1.19.8.49-.09.95-.22,1.37-.36Z"/>
      <path class="cls-1" d="M546.2,10.45c.59,0,1.07-.47,1.09-1.05.11.11.26.18.43.18.4,0,.73-.33.73-.73,0-.27-.12-.52-.33-.69-.02-.02-.05-.04-.08-.05.32-.16.54-.5.54-.88,0-.45-.36-.81-.81-.81-.37,0-.67.3-.67.67,0,.31.34.55.55.55.17,0,.31-.12.31-.29s-.12-.27-.27-.27-.27.12-.27.26c-.07-.06-.11-.16-.11-.26,0-.26.21-.46.46-.46.33,0,.6.27.6.6,0,.43-.35.78-.78.78-.55,0-1-.45-1-1,0-.36.19-.74.5-1.01.25-.21.52-.31.76-.27l1.01.2c.31.07.62-.04.82-.29.24-.29.19-.72-.1-.96-.24-.2-.6-.16-.8.09-.16.2-.13.5.07.67.04.04.11.03.14-.02.04-.04.03-.11-.02-.14-.12-.09-.13-.26-.04-.38.13-.16.35-.18.51-.05.21.17.24.47.07.67-.15.19-.39.27-.62.22l-1.01-.21s0,0,0,0c-.06-.01-.13-.01-.2,0,.14-.09.3-.18.47-.28.05-.03.07-.09.04-.14-.03-.05-.09-.07-.14-.04-.45.26-.79.48-1.08.7-.39.3-.69.61-1.06,1.07-.63.8-.9,1.6-.83,2.54,0,.6.49,1.09,1.09,1.09ZM546.1,6.95c.15-.19.29-.35.43-.5-.08.18-.12.37-.12.55,0,.67.54,1.21,1.21,1.21.06,0,.12,0,.17-.02,0,0,.01,0,.02,0,.07.03.14.06.2.11.16.13.25.32.25.53,0,.29-.24.53-.53.53-.22,0-.4-.18-.4-.4,0-.17.13-.3.3-.3.12,0,.22.1.22.22,0,.06.05.1.1.1s.1-.05.1-.1c0-.23-.19-.42-.42-.42-.21,0-.4.14-.47.32-.03-.05-.06-.1-.1-.15-.04-.04-.1-.05-.14-.01-.04.04-.05.1-.01.14.13.15.19.34.19.57,0,.49-.4.89-.89.89s-.89-.4-.89-.89c0,0,0,0,0,0,0,0,0,0,0,0-.06-.89.18-1.63.79-2.4Z"/>
      <path class="cls-1" d="M549.6,6.95s-.54.72-.49,1.44c.02.31.37.65.84.54-.53-1.12-.35-1.99-.35-1.99Z"/>
      <path class="cls-1" d="M548.71,10.27c.19.21.51.31.75.17.25-.13.37-.41.22-.88-.27.48-.59.78-.97.7Z"/>
      <path class="cls-1" d="M546.32,8.97c-.1,0-.2.04-.28.11-.04.04-.04.09,0,.13.04.04.09.04.13,0,.04-.04.09-.06.15-.06s.11.02.15.06c.11.11.11.29,0,.4-.07.07-.17.11-.27.11s-.2-.04-.27-.11c-.19-.19-.19-.5,0-.71.11-.11.25-.18.43-.22.05,0,.08-.06.07-.11,0-.05-.06-.08-.11-.07-.22.04-.4.13-.53.27-.26.27-.26.7,0,.96.11.11.25.16.4.16s.29-.05.4-.16c.18-.18.18-.48,0-.66-.07-.07-.17-.11-.28-.11Z"/>
      <path class="cls-1" d="M549.02,6.15c-.13.11-.18.09-.33.04-.06-.02-.15-.05-.25-.08h-.03c-.34-.09-.77-.19-1.08.01-.04.03-.05.08-.03.13.03.04.08.05.13.03.25-.16.62-.07.95,0h.03c.09.03.16.06.23.08.08.03.15.06.23.06.08,0,.17-.03.28-.12.04-.03.04-.09.01-.13-.03-.04-.09-.04-.13-.01Z"/>
      <path class="cls-1" d="M550.1,4.79s.83-.51,1.18-.66c-.64.09-1.13.15-1.46.27.13.12.25.27.29.4Z"/>
      <path class="cls-1" d="M546.17,7.25c-.35.4-.55.93-.6,1.31.45-.32.59-.37,1.09-.41-.3-.14-.49-.36-.49-.9Z"/>
      <path class="cls-1" d="M546.1,11.19c.67,0,1.12-.27,1.38-.5.22-.19.37-.4.46-.59.11.32.42.9,1.24.9.38,0,.67-.1.85-.31.18-.2.21-.45.22-.57.12-.06.37-.21.47-.46.07-.17.06-.35-.03-.53h0c-.5-.77-.7-1.64-.59-2.58.1-.86.61-1.44,1.13-1.81.12-.08.23-.15.33-.21.45-.26.83-.36.86-.37l.18-.05c.24-.06.75-.17,1.4-.17.65,0,1.16.11,1.4.17l.18.05s.41.11.86.37c.1.06.21.13.33.21.52.37,1.03.95,1.13,1.81.11.94-.09,1.81-.59,2.57h0c-.09.2-.1.38-.03.55.1.25.35.4.47.46,0,.12.03.37.22.57.19.21.47.31.85.31.82,0,1.13-.58,1.24-.9.09.19.24.4.46.59.26.23.71.5,1.38.5s1.2-.34,1.5-.94c.23-.47.29-1.05.17-1.68-.14-.71-.48-1.44-1.03-2.17-1-1.33-2.65-2.03-3.86-2.38-1.22-.35-2.25-.43-2.38-.44-.26-.27-.57-.49-.92-.65.1.04.21.07.32.07.44,0,.8-.36.8-.8s-.36-.8-.8-.8c-.39,0-.71.28-.78.65-.1-.08-.2-.16-.27-.21.25-.84,1.05-1.55,1.92-1.66.37-.04.69.06.92.28.23.23.33.55.28.92-.01.09-.03.19-.07.28-.05-.05-.11-.07-.18-.07-.15,0-.27.12-.27.27s.12.27.27.27c.08,0,.16-.04.21-.1h0s0,0,0,0c.01-.02.03-.04.03-.06.1-.18.17-.37.19-.56.05-.42-.07-.8-.33-1.07-.27-.27-.64-.38-1.07-.33-.92.11-1.78.86-2.06,1.75-.26-.1-.47-.09-.47-.09,0,0-.21,0-.47.09-.28-.89-1.14-1.64-2.06-1.75-.42-.05-.8.07-1.07.33-.27.27-.38.64-.33,1.07.02.19.09.38.19.56,0,.02.02.04.03.06,0,0,0,0,0,0h0c.05.06.12.1.21.1.15,0,.27-.12.27-.27s-.12-.27-.27-.27c-.07,0-.14.03-.18.07-.03-.09-.06-.19-.07-.28-.04-.37.06-.69.28-.92.23-.23.55-.33.92-.28.87.1,1.67.82,1.92,1.66-.08.05-.18.13-.27.21-.07-.37-.39-.65-.78-.65-.44,0-.8.36-.8.8s.36.8.8.8c.12,0,.22-.03.32-.07-.35.16-.66.38-.92.65-.13,0-1.16.09-2.38.44-1.21.35-2.85,1.04-3.86,2.38-.55.73-.9,1.46-1.03,2.17-.12.63-.06,1.21.17,1.68.3.6.84.94,1.5.94ZM549.89,6.53c-.12.99.09,1.9.62,2.7.06.13.07.25.03.36-.1.25-.42.37-.42.38l-.07.03v.08s.03.28-.16.49c-.15.16-.38.24-.7.24-.77,0-1.01-.59-1.08-.83.14.05.26.07.39.07.41,0,.75-.24,1.01-.72l.05-.1-.11-.04c-.32-.13-.53-.33-.61-.6-.15-.52.14-1.3.87-2.31.13-.17.25-.33.38-.48-.1.24-.17.49-.2.75ZM558.79,10.8c-.32,0-.55-.08-.7-.24-.19-.21-.16-.49-.16-.49v-.08s-.06-.03-.06-.03c0,0-.32-.13-.42-.38-.04-.11-.04-.23.03-.36.53-.8.74-1.71.62-2.7-.03-.26-.1-.51-.2-.75.12.15.25.3.38.48.73,1.01,1.02,1.79.87,2.31-.08.27-.28.47-.61.6l-.11.04.05.1c.26.48.6.72,1.01.72.12,0,.25-.02.39-.07-.06.24-.3.83-1.08.83ZM558.59,4.22c1.18.34,2.78,1.02,3.75,2.3.53.71.87,1.41,1,2.08.11.59.06,1.12-.15,1.55-.26.53-.74.83-1.32.83-.6,0-1.01-.24-1.25-.45-.3-.26-.45-.57-.49-.77l-.03-.13-.12.06c-.54.26-.96.14-1.28-.39.32-.16.53-.39.62-.69.17-.59-.13-1.43-.9-2.49-.54-.75-1.09-1.24-1.56-1.57-.04-.03-.07-.05-.11-.08-.09-.06-.18-.11-.26-.16-.3-.17-.54-.27-.7-.32.24-.18.42-.21.45-.22.1,0,1.12.08,2.34.43ZM555.67,1.63c.32,0,.58.26.58.58s-.26.58-.58.58-.58-.26-.58-.58.26-.58.58-.58ZM553.98,2.34h.02c.33,0,.68.06.96.2.08.17.21.31.38.39-.41-.19-.86-.29-1.34-.29-.48,0-.94.11-1.34.29.17-.08.3-.22.38-.39.27-.14.62-.2.96-.2ZM552.3,2.79c-.32,0-.58-.26-.58-.58s.26-.58.58-.58.58.26.58.58-.26.58-.58.58ZM553.99,3.17c.79,0,1.45.16,2.07.44-.12.03-.24.11-.46.29-.49-.25-1.05-.38-1.62-.38h0c-.57,0-1.13.12-1.62.38-.22-.18-.34-.26-.46-.29.62-.28,1.29-.44,2.07-.44ZM544.63,8.61c.13-.67.46-1.38,1-2.08.97-1.29,2.57-1.96,3.75-2.3,1.22-.35,2.24-.43,2.34-.43.03,0,.22.04.45.22-.16.05-.4.15-.7.32-.09.05-.17.1-.26.16-.04.02-.07.05-.11.08-.47.33-1.02.82-1.56,1.57-.77,1.06-1.07,1.9-.9,2.49.09.3.3.53.62.69-.32.52-.74.65-1.28.39l-.12-.06-.03.13c-.04.2-.19.5-.49.77-.23.2-.64.45-1.25.45-.57,0-1.05-.3-1.32-.83-.21-.43-.27-.96-.15-1.55Z"/>
      <polygon class="cls-1" points="553.98 2.64 553.99 2.64 553.99 2.64 553.98 2.64"/>
      <path class="cls-1" d="M558.27,5.64c.2.25.51.36.82.29l1.01-.2c.24-.04.51.06.76.27.31.26.5.65.5,1.01,0,.55-.45,1-1,1-.43,0-.78-.35-.78-.78,0-.33.27-.6.6-.6.26,0,.46.21.46.46,0,.1-.04.19-.11.26,0-.15-.13-.26-.27-.26s-.27.1-.27.27.14.29.31.29c.21,0,.55-.25.55-.55,0-.37-.3-.67-.67-.67-.45,0-.81.36-.81.81,0,.38.22.72.54.88-.03.02-.05.03-.08.05-.21.17-.33.42-.33.69,0,.4.33.73.73.73.17,0,.32-.07.43-.18.02.58.5,1.05,1.09,1.05s1.09-.49,1.09-1.09c.06-.93-.2-1.74-.83-2.54-.37-.46-.67-.77-1.06-1.07-.29-.22-.63-.44-1.08-.7-.05-.03-.11-.01-.14.04-.03.05-.01.11.04.14.17.1.33.19.47.28-.07,0-.13,0-.2,0,0,0,0,0,0,0l-1.01.21c-.23.05-.47-.03-.62-.22-.17-.21-.13-.51.07-.67.16-.13.38-.1.51.05.09.12.08.29-.04.38-.04.04-.05.1-.02.14.04.04.1.05.14.02.2-.16.24-.46.07-.67-.2-.24-.55-.28-.8-.09-.29.24-.34.67-.1.96ZM561.87,6.95c.61.77.85,1.51.79,2.4,0,0,0,0,0,0,0,0,0,0,0,0,0,.49-.4.89-.89.89s-.89-.4-.89-.89c0-.23.07-.42.19-.57.04-.04.03-.11-.01-.14-.04-.04-.11-.03-.14.01-.04.05-.07.09-.1.15-.07-.19-.26-.32-.47-.32-.23,0-.42.19-.42.42,0,.06.05.1.1.1s.1-.05.1-.1c0-.12.1-.22.22-.22.17,0,.3.13.3.3,0,.22-.18.4-.4.4-.29,0-.53-.24-.53-.53,0-.21.09-.4.25-.53.06-.05.13-.09.2-.11,0,0,.01,0,.02,0,.06,0,.11.02.17.02.67,0,1.21-.54,1.21-1.21,0-.19-.04-.37-.12-.55.14.15.28.31.43.5Z"/>
      <path class="cls-1" d="M558.86,8.39c.05-.72-.49-1.44-.49-1.44,0,0,.17.87-.35,1.99.48.1.82-.23.84-.54Z"/>
      <path class="cls-1" d="M558.29,9.57c-.15.47-.03.74.22.88.25.13.57.04.75-.17-.38.08-.7-.22-.97-.7Z"/>
      <path class="cls-1" d="M561.64,8.52s-.1.02-.11.07c0,.05.02.1.07.11.19.04.33.11.43.22.19.2.19.51,0,.71-.07.07-.17.11-.27.11s-.2-.04-.27-.11c-.11-.11-.11-.29,0-.4.04-.04.09-.06.15-.06s.11.02.15.06c.04.04.09.04.13,0,.04-.04.04-.09,0-.13-.07-.07-.17-.11-.28-.11s-.2.04-.28.11c-.18.18-.18.48,0,.66.11.11.25.16.4.16s.29-.05.4-.16c.26-.26.26-.69,0-.96-.13-.14-.31-.23-.53-.27Z"/>
      <path class="cls-1" d="M559.6,6.28c.33-.08.69-.16.95,0,.04.03.1.01.13-.03.03-.04.01-.1-.03-.13-.32-.2-.74-.1-1.08-.02h-.03c-.1.03-.18.06-.25.08-.15.06-.2.07-.33-.04-.04-.03-.1-.03-.13.01-.03.04-.03.1.01.13.11.09.2.12.28.12.08,0,.15-.03.23-.06.06-.02.13-.05.23-.07h.03Z"/>
      <path class="cls-1" d="M558.16,4.39c-.34-.11-.82-.17-1.46-.27.35.15,1.18.66,1.18.66.04-.13.15-.28.29-.4Z"/>
      <path class="cls-1" d="M561.31,8.15c.5.04.64.09,1.09.41-.05-.38-.25-.9-.6-1.31,0,.54-.19.76-.49.9Z"/>
    </g>
    <g>
      <path class="cls-1" d="M329.15,17.87v-2.6h-2.45v2.6h-1.09v-5.97h1.09v2.33h2.45v-2.33h1.09v5.97h-1.09Z"/>
      <path class="cls-1" d="M331.37,17.87v-5.97h4.07v.98h-2.99v1.39h2.61v.98h-2.61v1.63h2.99v.99h-4.07Z"/>
      <path class="cls-1" d="M339.83,17.87l-1.34-2.17-1.34,2.17h-1.17l1.88-3.04-1.86-2.93h1.19l1.34,2.09,1.3-2.09h1.18l-1.84,2.94,1.86,3.03h-1.2Z"/>
      <path class="cls-1" d="M345.33,17.87l-.39-1.14h-2.37l-.39,1.14h-1.09l2.1-5.97h1.19l2.1,5.97h-1.14ZM343.76,13.23l-.85,2.52h1.7l-.85-2.52Z"/>
      <path class="cls-1" d="M351.36,17.87l-.63-.66c-.18.35-.75.76-1.5.77-.69,0-1.3-.17-1.78-.67-.62-.65-.77-1.45-.77-2.42s.13-1.75.77-2.4c.45-.45,1.14-.7,1.78-.7.73,0,1.36.27,1.77.68.29.3.51.68.55,1.2h-1.11c-.02-.24-.13-.4-.26-.55-.21-.24-.54-.36-.95-.36-.35,0-.74.15-.98.4-.41.43-.46,1.17-.46,1.72s.06,1.31.47,1.74c.24.25.62.38.97.38.39,0,.69-.14.89-.35.32-.34.39-.71.39-1.16h-1.42v-.9h2.47v3.27h-.2Z"/>
      <path class="cls-1" d="M356.62,17.31c-.45.45-1.08.67-1.72.67s-1.26-.22-1.72-.67c-.65-.65-.76-1.44-.76-2.42s.11-1.78.76-2.42c.45-.45,1.08-.67,1.72-.67s1.26.22,1.72.67c.65.65.76,1.45.76,2.42s-.11,1.77-.76,2.42ZM355.85,13.17c-.24-.25-.6-.4-.94-.4s-.71.14-.94.4c-.41.43-.43,1.17-.43,1.72s.02,1.28.43,1.71c.23.25.6.4.94.4s.71-.14.94-.4c.41-.43.43-1.16.43-1.71s-.02-1.29-.43-1.72Z"/>
      <path class="cls-1" d="M361.86,17.87l-2.58-4.1v4.1h-1.07v-5.97h1.15l2.55,4.04v-4.04h1.07v5.97h-1.12Z"/>
      <path class="cls-3" d="M313.88,14.65V5.94l-7.65,4.41-.1.06v8.87s4.93,0,4.93,0l2.53,4.48,7.72-4.46v-8.95l-7.44,4.3ZM320.88,19.08h-4.4l4.43-7.59v7.59h-.03ZM320.76,10.91l-4.76,8.16h-2.12v-4.19l6.88-3.97ZM313.88,19.28h2l-2,3.43v-3.43ZM313.47,19.08h-2.05l-1.18-2.09,3.23-1.86v3.95ZM310.13,16.81l-1.19-2.11,4.53-7.84v8.03l-3.33,1.92ZM313.29,6.76l-4.47,7.74-2.2-3.89,6.67-3.85ZM308.58,14.91l-2.24,3.89v-7.85l2.24,3.96ZM308.7,15.12l1.08,1.9-3.26,1.88,2.18-3.78ZM306.62,19.08l3.26-1.88,1.07,1.88h-4.32ZM311.53,19.28h1.93v3.41l-1.93-3.41ZM316.36,19.28h4.16l-6.28,3.62,2.11-3.62Z"/>
    </g>
    <g>
      <g>
        <path class="cls-1" d="M828.66,19.42h.7c.25,0,.47.03.65.08.18.05.32.15.42.28.1.13.15.32.15.55,0,.34-.11.58-.34.71s-.52.2-.89.2h-.26v1.21h-.44v-3.04ZM829.32,20.88c.19,0,.34-.02.46-.05.12-.03.21-.08.27-.16s.09-.19.09-.33-.03-.24-.09-.32c-.06-.08-.15-.14-.27-.17-.12-.03-.27-.05-.46-.05h-.21v1.08h.22Z"/>
        <path class="cls-1" d="M831.34,20.9c0-.28,0-.5-.02-.66h.41c.01.1.02.23.02.37h0c.07-.13.15-.23.26-.31.11-.08.23-.12.36-.12.09,0,.16.01.21.03v.39c-.06-.02-.13-.03-.22-.03-.13,0-.24.03-.33.1-.09.07-.16.17-.21.3-.05.13-.07.29-.07.48v1.01h-.41v-1.56Z"/>
        <path class="cls-1" d="M833.58,22.37c-.17-.1-.31-.24-.41-.41-.1-.17-.15-.37-.15-.59s.05-.43.15-.61c.1-.18.23-.32.41-.42.18-.1.38-.15.6-.15s.41.05.58.15c.17.1.3.24.4.42.1.18.14.38.14.61s-.05.42-.15.6c-.1.17-.23.31-.4.41-.17.1-.37.15-.59.15s-.41-.05-.59-.15ZM834.54,22.07c.11-.07.19-.16.25-.28.06-.12.09-.26.09-.42s-.03-.31-.09-.43c-.06-.13-.15-.22-.25-.29s-.23-.1-.37-.1-.25.03-.36.1c-.11.07-.19.17-.25.29s-.09.27-.09.43.03.3.09.42c.06.12.14.22.25.28.11.07.23.1.37.1s.25-.03.36-.1Z"/>
        <path class="cls-1" d="M836.36,20.58h-.53v-.33h.53v-.21c0-.28.06-.5.17-.66.11-.16.3-.23.55-.23.11,0,.21.01.3.03l-.03.34c-.07-.02-.14-.03-.21-.03-.14,0-.23.04-.29.13s-.09.22-.09.41v.22h.6v.33h-.6v1.88h-.41v-1.88Z"/>
        <path class="cls-1" d="M838.36,22.37c-.17-.09-.31-.23-.4-.41-.09-.18-.14-.39-.14-.63,0-.23.04-.43.13-.61.09-.17.21-.31.37-.4.16-.09.34-.14.55-.14.3,0,.53.09.7.28.17.18.25.46.25.82,0,.04,0,.1,0,.16h-1.58c0,.15.04.28.11.38.07.11.16.19.27.25s.25.09.39.09c.12,0,.23-.01.33-.04.1-.03.21-.07.31-.12v.38c-.18.09-.41.13-.67.13-.24,0-.45-.05-.63-.14ZM839.43,21.13c0-.21-.05-.36-.15-.47-.1-.11-.24-.16-.41-.16-.11,0-.21.03-.3.08s-.16.12-.22.22-.09.21-.1.34h1.18Z"/>
        <path class="cls-1" d="M840.74,22.49c-.1-.02-.19-.04-.29-.08l.03-.37c.17.1.35.14.54.14.12,0,.22-.03.3-.08.08-.06.12-.13.12-.22,0-.06-.01-.11-.04-.15s-.08-.08-.14-.12-.16-.09-.28-.15c-.13-.06-.23-.12-.3-.18-.07-.06-.13-.12-.16-.19-.03-.07-.05-.15-.05-.25,0-.13.03-.24.1-.34s.16-.17.27-.22c.12-.05.25-.08.4-.08.1,0,.19,0,.28.02s.17.04.24.07l-.03.34c-.15-.07-.31-.11-.47-.11-.11,0-.19.02-.26.07s-.1.12-.1.21c0,.06.01.11.04.15.03.04.07.08.13.11s.14.07.24.12c.2.09.35.18.43.29s.13.23.13.38-.03.27-.1.37c-.07.1-.16.18-.28.23-.12.05-.26.08-.42.08-.11,0-.22,0-.32-.03Z"/>
        <path class="cls-1" d="M842.73,22.49c-.1-.02-.19-.04-.29-.08l.03-.37c.17.1.35.14.54.14.12,0,.22-.03.3-.08.08-.06.12-.13.12-.22,0-.06-.01-.11-.04-.15s-.08-.08-.14-.12-.16-.09-.28-.15c-.13-.06-.23-.12-.3-.18-.07-.06-.13-.12-.16-.19-.03-.07-.05-.15-.05-.25,0-.13.03-.24.1-.34s.16-.17.27-.22c.12-.05.25-.08.4-.08.1,0,.19,0,.28.02s.17.04.24.07l-.03.34c-.15-.07-.31-.11-.47-.11-.11,0-.19.02-.26.07s-.1.12-.1.21c0,.06.01.11.04.15.03.04.07.08.13.11s.14.07.24.12c.2.09.35.18.43.29s.13.23.13.38-.03.27-.1.37c-.07.1-.16.18-.28.23-.12.05-.26.08-.42.08-.11,0-.22,0-.32-.03Z"/>
        <path class="cls-1" d="M844.63,19.39h.46v.46h-.46v-.46ZM844.65,20.24h.42v2.22h-.42v-2.22Z"/>
        <path class="cls-1" d="M846.45,22.37c-.17-.1-.31-.24-.41-.41-.1-.17-.15-.37-.15-.59s.05-.43.15-.61c.1-.18.23-.32.41-.42.18-.1.38-.15.6-.15s.41.05.58.15c.17.1.3.24.4.42.1.18.14.38.14.61s-.05.42-.15.6c-.1.17-.23.31-.4.41-.17.1-.37.15-.59.15s-.41-.05-.59-.15ZM847.41,22.07c.11-.07.19-.16.25-.28.06-.12.09-.26.09-.42s-.03-.31-.09-.43c-.06-.13-.15-.22-.25-.29s-.23-.1-.37-.1-.25.03-.36.1c-.11.07-.19.17-.25.29-.06.13-.09.27-.09.43s.03.3.09.42c.06.12.14.22.25.28.11.07.23.1.37.1s.25-.03.36-.1Z"/>
        <path class="cls-1" d="M848.99,20.9c0-.28,0-.5-.02-.66h.4c.01.13.02.25.02.36h0c.08-.13.19-.23.32-.3.13-.07.27-.11.42-.11.3,0,.51.09.64.26s.19.42.19.74v1.27h-.41v-1.1c0-.17-.01-.32-.03-.44-.02-.12-.07-.21-.15-.29s-.19-.11-.33-.11c-.11,0-.21.03-.3.09-.09.06-.17.13-.23.23-.03.06-.06.14-.08.22-.02.09-.03.2-.03.32v1.06h-.41v-1.56Z"/>
        <path class="cls-1" d="M852.13,22.41c-.12-.05-.21-.13-.27-.23-.06-.1-.1-.22-.1-.35,0-.15.04-.28.13-.39.09-.11.22-.19.4-.25s.39-.08.64-.08c.11,0,.21,0,.31.01v-.02c0-.38-.19-.57-.57-.57-.11,0-.22.02-.34.06-.11.04-.22.09-.31.15l-.03-.37c.1-.06.22-.11.35-.14s.26-.05.39-.05c.31,0,.53.08.68.24.14.16.22.37.22.64v.54c0,.06,0,.12,0,.19,0,.28,0,.51.03.67h-.37s0-.11,0-.18c0-.05,0-.11,0-.2h0c-.16.27-.4.41-.74.41-.16,0-.29-.03-.41-.08ZM852.96,22.08c.1-.06.17-.14.22-.24.05-.1.07-.24.07-.44-.06,0-.14,0-.23,0-.28,0-.48.03-.62.1s-.2.18-.2.32c0,.11.04.19.12.25.08.06.18.09.31.09s.24-.03.33-.09Z"/>
        <path class="cls-1" d="M854.61,19.17h.42v3.29h-.42v-3.29Z"/>
        <path class="cls-1" d="M857.35,19.42h.66c.36,0,.68.05.95.15.27.1.49.27.65.5.16.23.24.52.24.88,0,.34-.08.62-.24.85-.16.23-.38.39-.66.5-.28.11-.59.16-.94.16h-.66v-3.04ZM857.96,22.09c.45,0,.8-.09,1.05-.27.25-.18.38-.47.38-.88,0-.29-.06-.52-.18-.69-.12-.17-.28-.29-.49-.35-.21-.07-.46-.1-.76-.1h-.17v2.29h.17Z"/>
        <path class="cls-1" d="M860.69,19.39h.46v.46h-.46v-.46ZM860.71,20.24h.42v2.22h-.42v-2.22Z"/>
        <path class="cls-1" d="M862.21,22.49c-.1-.02-.19-.04-.29-.08l.03-.37c.17.1.35.14.54.14.12,0,.22-.03.3-.08.08-.06.12-.13.12-.22,0-.06-.01-.11-.04-.15s-.08-.08-.14-.12-.16-.09-.28-.15c-.13-.06-.23-.12-.3-.18-.07-.06-.13-.12-.16-.19-.03-.07-.05-.15-.05-.25,0-.13.03-.24.1-.34s.16-.17.27-.22c.12-.05.25-.08.4-.08.1,0,.19,0,.28.02s.17.04.24.07l-.03.34c-.15-.07-.31-.11-.47-.11-.11,0-.19.02-.26.07s-.1.12-.1.21c0,.06.01.11.04.15.03.04.07.08.13.11s.14.07.24.12c.2.09.35.18.43.29s.13.23.13.38-.03.27-.1.37c-.07.1-.16.18-.28.23-.12.05-.26.08-.42.08-.11,0-.22,0-.32-.03Z"/>
        <path class="cls-1" d="M864.12,20.9c0-.28,0-.5-.02-.66h.4c.01.12.02.24.02.36h0c.09-.14.19-.24.32-.31.13-.07.27-.1.44-.1.19,0,.35.05.5.14s.26.23.34.4c.08.17.12.37.12.59s-.04.44-.12.62c-.08.18-.19.32-.34.42-.15.1-.31.15-.5.15-.17,0-.31-.04-.44-.12-.13-.08-.23-.18-.3-.31h0s0,.12,0,.24c0,.12,0,.22,0,.31v.74h-.41v-2.48ZM865.51,22.06c.09-.07.17-.17.22-.29.05-.12.08-.26.08-.41,0-.16-.03-.31-.08-.43-.05-.12-.12-.22-.22-.29s-.2-.1-.33-.1-.23.04-.33.11c-.1.07-.18.17-.24.3-.06.13-.09.26-.09.42s.03.28.09.4c.06.12.14.22.24.3.1.07.21.11.33.11.12,0,.23-.04.33-.11Z"/>
        <path class="cls-1" d="M867.05,19.17h.42v3.29h-.42v-3.29Z"/>
        <path class="cls-1" d="M868.66,22.41c-.12-.05-.21-.13-.27-.23-.06-.1-.1-.22-.1-.35,0-.15.04-.28.13-.39.09-.11.22-.19.4-.25s.39-.08.64-.08c.11,0,.21,0,.31.01v-.02c0-.38-.19-.57-.57-.57-.11,0-.22.02-.34.06-.11.04-.22.09-.31.15l-.03-.37c.1-.06.22-.11.35-.14s.26-.05.39-.05c.31,0,.53.08.68.24.14.16.22.37.22.64v.54c0,.06,0,.12,0,.19,0,.28,0,.51.03.67h-.37s0-.11,0-.18c0-.05,0-.11,0-.2h0c-.16.27-.4.41-.74.41-.16,0-.29-.03-.41-.08ZM869.49,22.08c.1-.06.17-.14.22-.24.05-.1.07-.24.07-.44-.06,0-.14,0-.23,0-.28,0-.48.03-.62.1s-.2.18-.2.32c0,.11.04.19.12.25.08.06.18.09.31.09s.24-.03.33-.09Z"/>
        <path class="cls-1" d="M870.94,23.39l.03-.33c.07.02.13.03.2.03.08,0,.15-.02.2-.05.05-.03.1-.09.14-.16.04-.08.09-.19.14-.33l-.84-2.32h.45l.45,1.34c.03.08.05.17.08.27.03.1.05.19.08.27h0c.06-.2.11-.38.17-.54l.45-1.34h.42l-.79,2.2c-.1.26-.18.46-.27.6-.08.14-.17.24-.27.3-.1.06-.23.09-.38.09-.09,0-.17-.01-.25-.03Z"/>
        <path class="cls-1" d="M873.63,22.49c-.1-.02-.19-.04-.29-.08l.03-.37c.17.1.35.14.54.14.12,0,.22-.03.3-.08.08-.06.12-.13.12-.22,0-.06-.01-.11-.04-.15s-.08-.08-.14-.12-.16-.09-.28-.15c-.13-.06-.23-.12-.3-.18-.07-.06-.13-.12-.16-.19-.03-.07-.05-.15-.05-.25,0-.13.03-.24.1-.34s.16-.17.27-.22c.12-.05.25-.08.4-.08.1,0,.19,0,.28.02s.17.04.24.07l-.03.34c-.15-.07-.31-.11-.47-.11-.11,0-.19.02-.26.07s-.1.12-.1.21c0,.06.01.11.04.15.03.04.07.08.13.11s.14.07.24.12c.2.09.35.18.43.29s.13.23.13.38-.03.27-.1.37c-.07.1-.16.18-.28.23-.12.05-.26.08-.42.08-.11,0-.22,0-.32-.03Z"/>
      </g>
      <path class="cls-1" d="M844.18,7.3h-2.47v3.22h-2.57v-3.22h-2.47v8.1h2.47v-3.19h2.57v3.19h2.47V7.3h0ZM852.78,13.77v-6.47h-2.47v8.1h4.47l.37-1.63h-2.37ZM848.48,7.3h-2.47v8.1h2.47V7.3h0ZM858.5,7.3h-2.47v8.1h2.47V7.3h0ZM870.69,9.37c0-.44.44-.64,1.15-.64.78,0,1.63.17,2.2.41l-.2-1.76c-.64-.14-1.22-.24-2.27-.24-2,0-3.35.79-3.35,2.44,0,2.85,3.86,2.27,3.86,3.59,0,.51-.37.78-1.29.78-.81,0-2.07-.27-2.81-.64l.27,1.86c.75.27,1.76.41,2.57.41,2.07,0,3.76-.68,3.76-2.71,0-2.71-3.89-2.2-3.89-3.49h0ZM863.72,13.47c2.3,0,3.76-1.19,3.76-3.25,0-2.27-1.56-3.08-4.1-3.08-.98,0-2.17.07-3.01.17v8.1h2.47v-1.93h.88ZM865.04,10.25c0,1.05-.51,1.76-1.79,1.76h-.41v-3.35c.14,0,.28,0,.41,0,1.22,0,1.79.58,1.79,1.59h0ZM831.92,13.47c2.3,0,3.76-1.19,3.76-3.25,0-2.27-1.56-3.08-4.1-3.08-.98,0-2.17.07-3.01.17v8.1h2.47v-1.93h.88ZM833.24,10.25c0,1.05-.51,1.76-1.79,1.76h-.41v-3.35c.14,0,.28,0,.41,0,1.22,0,1.79.58,1.79,1.59h0Z"/>
    </g>
    <g>
      <g>
        <path class="cls-1" d="M895.69,14.95c0-2.53,1.47-3.68,3.38-3.68,1.21,0,2.21.51,2.79,1.45.57-.95,1.57-1.45,2.79-1.45,1.91,0,3.38,1.14,3.38,3.68v4.61h-1.94v-4.61c0-1.32-.69-1.86-1.63-1.86s-1.62.56-1.62,1.86v4.61h-1.94v-4.61c0-1.31-.7-1.86-1.63-1.86s-1.63.54-1.63,1.86v4.61h-1.94v-4.61Z"/>
        <path class="cls-1" d="M909.54,15.52c0-2.45,1.8-4.25,4.35-4.25s4.35,1.8,4.35,4.25-1.8,4.25-4.35,4.25-4.35-1.8-4.35-4.25ZM916.26,15.57c.02-1.41-.89-2.43-2.27-2.48-1.33-.04-2.47,1.07-2.48,2.4-.01,1.4.91,2.42,2.29,2.46,1.32.04,2.45-1.07,2.47-2.39Z"/>
        <path class="cls-1" d="M939.35,9.51c0-.66.49-1.15,1.18-1.15s1.18.49,1.18,1.15-.49,1.15-1.18,1.15-1.18-.49-1.18-1.15Z"/>
        <path class="cls-1" d="M919.63,15.59c0-2.73,1.92-4.46,4.64-4.3,2.07.12,3.9,1.94,4.02,4.01.16,2.97-1.98,4.48-4.01,4.48-1.16,0-2.12-.49-2.7-1.39v4.06h-1.94v-6.86ZM926.33,15.55c.01-1.4-.91-2.42-2.29-2.46-1.32-.04-2.45,1.07-2.46,2.39-.02,1.41.89,2.43,2.27,2.48,1.33.04,2.47-1.07,2.48-2.4Z"/>
        <path class="cls-1" d="M929.87,8.4h1.94v4.22c.54-.87,1.37-1.34,2.4-1.34,1.86,0,3.63,1.21,3.63,4.09v4.2h-1.94v-4.2c0-1.54-.82-2.27-2.04-2.27s-2.04.77-2.04,2.27v4.2h-1.94v-11.16Z"/>
        <path class="cls-1" d="M939.56,12.12v7.43h1.94v-7.43c-.3.1-.62.15-.97.15s-.67-.05-.97-.15Z"/>
      </g>
      <path class="cls-1" d="M949.21,17.25c-.41.51-1.04.75-1.9.75-1.14,0-2.04-.62-2.3-1.8h6.62v-.69c0-2.45-1.76-4.25-4.31-4.25s-4.35,1.8-4.35,4.25,1.8,4.25,4.35,4.25c1.33,0,2.44-.48,3.2-1.29l-1.3-1.23ZM947.32,13.04c1.06,0,1.94.54,2.26,1.62h-4.51c.31-1.06,1.16-1.62,2.26-1.62Z"/>
    </g>
    <g>
      <path class="cls-1" d="M747.88,7.13c.16-.17-.18-.69.05-.91.8-.31.64.03.95.07,1.21.17,2.44-.21,3.65.4,1.38.69,2.74,1.8,2.54,3.61-.22,1.98-2.28,2.82-4.16,3.04-.17.02-.44.28-.42.41.15.99.16,1.95-.15,2.8-.46,1.26-1.81,2.13-3.19,1.72-1.81-.54-2.15-2.45-2.13-4.03.04-2.62.93-5.09,2.84-7.1ZM749.49,7.64c-.27.63.19,2.39.39,3.6.07.43.1,1.2.55,1.16,1.46-.13,3.46-2.08,3.21-3.47-.3-1.69-3.71-2.35-4.15-1.29ZM748.28,9.84c-.04-.25-.26-.3-.35-.47-1.28.77-1.36,2.41-1.65,3.78-.32,1.52-.15,3.22,1.1,4.11.67.47,1.54-.56,1.72-1.32.5-2.11-.47-4.02-.83-6.1Z"/>
      <path class="cls-1" d="M755.86,12.69c.94.05,1.52,1.11,1.41,1.85-.14.9-.82,1.44-1.49,2.06-.1.1.02.24.14.28.43.15.92-.04,1.19-.23,1.9-1.35,3.24-4.07,5.76-3.15,1.23.45,2.76,1.78,2.54,3.4-.05.32.5.39.84.27.22-.08.47-.32.29-.58-.77-1.15-.32-2.91.83-3.59.74-.43,1.62-.35,2.28.05,1.31.79,1.32,2.95-.11,3.83.69.9,1.72-.6,2.54-.19.03.01.15.21.14.28-.03.91-1.21,1.43-1.95,1.48-.87.05-2.02-.56-2.59-.4-2.2.61-2.63.63-5.82.39,0,1.68.41,4.38-1.59,4.93-1.15.32-1.62-.79-1.82-1.8-.33-1.62-.11-3.24.2-4.69-1.08.91-2.58,1.79-3.94,1.16-.95-.44-1.48-1.44-2.68-1.3-.24.03-.67-.31-.57-.66.47-.16,1.19.29,1.28.14.35-.68-.24-1.23.06-1.83.31-.62.5-1.34,1.24-1.55.68-.19,1.12-.2,1.81-.16ZM754.34,15.64c-.01.27.26.42.31.41.85-.2,1.34-1.39,1.2-1.95-.08-.3-.41-.81-.85-.61-.83.38-.62,1.36-.66,2.15ZM759.58,18.88c-.23,1.01-.41,1.93,0,2.85.28.63.91.36,1.06-.23.28-1.13.12-2.13-.05-3.34-.03-.2-.31-.47-.42-.42-.44.23-.48.67-.58,1.14ZM761.5,14.91c-.53.48-.24,1.91.55,2.35.6.34,1.39-.09,1.64-.7.39-.92-.67-1.68-1.51-1.99-.33-.12-.52.21-.68.34ZM768.01,14.25c-.31.67-.26,1.98.15,2.08.72.16,1.6-1.38,1.2-2.24-.32-.68-1.08-.42-1.35.16Z"/>
      <path class="cls-1" d="M774.38,10c.08-1.54,1.87-2.44,3.12-1.94,2.61,1.03,2.98,4.39,3.22,6.95.03.28.65.15.65.12.31-2.39,2.65-3.01,3.92-2.3,1.53.86.28,2.9-1.03,3.39-.27.1-.75.16-.67.32.46.98,1.85.69,2.53-.14.59-.72.47-1.76,1.32-2.29.3-.19.73-.57,1.02-.57.83-.02,2.23-.34,2.41.54-.29.9-2.62.11-3.1,1.58-.21.63.02,1.29.6,1.29.44,0,.62-.95,1.04-1.19.54-.31,1.25.42,1.71.1.79-.55.62-2.04,1.69-2.35.98-.27,1.96.04,2.61.88.67-.55,1.19-1.46,2.18-1.06.22.09.52.18.63.44.41.92.73,1.82,1.02,2.8.19.67.96.53,1.31,0,.89-1.34,1.14-3.17,2.57-3.81,1.67-.74,2.52,1.39,2.42,2.89-.09,1.19,1.56.08,1.93,1.09-.49.41-1.24.25-1.7.39-.59.19-.77,1.09-1.45,1.3-1.29.41-2.22-.45-2.5-1.69-.99.27-.98,1.85-2.19,1.4-1.27-.47-1.58-1.82-2.4-2.77-.17-.2-.47.06-.55.28-.23.69-.22,1.53-.85,1.97-.43.3-.62-.3-.68-.58-.21-.99-.71-2.46-1.67-2.41-1.02.05-.86,2.64-1.58,3.66-.38.55-1.1-.78-1.71-.99-.57-.19-.83.59-1.4.87-1.01.5-1.94-.85-2.38-.54-2.04,1.47-3.55.46-4.85-.86-.13-.13-.83,0-.86.11-.89,3.12-1.87,7.63-5.82,7.07-2.15-.3-2.8-2.83-2.17-4.67.59-1.76,2.63-2.36,4.19-3.05.22-.1.48-.39.28-.55-1.82-1.48-2.92-3.38-2.81-5.69ZM775.63,10.32c-.08,2.06.99,3.95,2.72,4.96.18.1.66.2.69-.11.2-2.15.06-4.96-1.88-6.17-.75-.47-1.5.41-1.53,1.31ZM777.94,20.46c.6-.99.96-2.09.97-3.25,0-.1-.18-.29-.27-.27-1.95.24-3.58,1.59-4.82,3.12-.54.66-.39,1.48.14,2.14.53.66,1.44.78,1.99.59,1.04-.36,1.45-1.43,1.99-2.33ZM783.49,15.02c.68-.21,1.31-.62,1.22-1.4-.03-.27-.39-.39-.6-.42-.74-.1-1,.78-1.24,1.36-.16.4.3.56.62.46ZM803.28,16.05c.3.01.75.26.82-.11.16-.8.09-1.63-.45-2.24-.18-.2-.51.4-.7.71-.28.46-.22,1-.64,1.41-.1.1.04.28.13.26.38-.06.44-.05.83-.03Z"/>
    </g>
  </g>
</svg>