<?xml version="1.0" encoding="UTF-8"?>
<svg id="Layer_2" data-name="Layer 2" xmlns="http://www.w3.org/2000/svg" viewBox="0 0 967.53 37.49">
  <defs>
    <style>
      .cls-1, .cls-2 {
        fill: #fff;
      }

      .cls-2 {
        fill-rule: evenodd;
      }
    </style>
  </defs>
  <g id="Website">
    <g>
      <g>
        <path class="cls-1" d="M917.64,17.08c0-.5-.22-.99-.62-1.29-.5-.37-1-.4-1.59-.39h-1.18v3.4h1.17c.56,0,1.28-.08,1.7-.48.34-.33.53-.76.53-1.25"/>
        <polygon class="cls-1" points="922.46 19.78 924.92 19.78 923.69 16.31 922.46 19.78"/>
        <path class="cls-1" d="M929.24,3.8c-21.15,0-38.29,6.85-38.29,15.3s17.15,15.3,38.29,15.3,38.29-6.85,38.29-15.3-17.15-15.3-38.29-15.3M929.23,32.48c-20.08,0-36.36-5.99-36.36-13.38s16.28-13.38,36.36-13.38,36.36,5.99,36.36,13.38-16.28,13.38-36.36,13.38"/>
        <path class="cls-1" d="M908.6,15.15c-.37.1-.95.79-1.97,1.11.47.15.9.36,1.3.64.85-.67.67-1.75.67-1.75"/>
        <path class="cls-1" d="M929.23,6.59c-19.24,0-35.5,5.73-35.5,12.51s16.25,12.51,35.5,12.51,35.5-5.73,35.5-12.51-16.26-12.51-35.5-12.51M905.2,25.54c-2.63,0-4.76-2.13-4.76-4.75,0-2.24,1.55-4.11,3.64-4.62-2.34-.58-2.99.28-3.09.46-.03-.59.06-1.11.06-1.13.35-1.65,1.81-2.88,3.56-2.88.75,0,1.79.46,2.27.79.45.35.77.69.9.83.29.3.23.27.49.27s.33-.24.33-.24l.12-.25c.06-.11.13-.11.25-.11.24,0,.22.19.22.19v1.04c0,1.09-.45,1.73-.83,2.09.98.87,1.61,2.14,1.61,3.56,0,2.62-2.13,4.75-4.76,4.75M927.01,24.82l-1.25-2.97h-4.07l-1.28,2.97h-3.15l-3.02-4.4v4.4h-2.13v-11.47h3.33c1.09.01,2.12.08,2.99.81.82.68,1.34,1.76,1.34,2.82,0,.84-.39,1.88-.95,2.5-.56.61-1.26.93-2.04,1.1l1.94,2.65,4.13-9.88h1.66l4.84,11.47h-2.35ZM937.17,20.5c0,1.13-.1,2.2-.93,3.1-.83.89-2.09,1.49-3.38,1.49-1.21,0-2.47-.59-3.26-1.4-.93-.95-1.03-2-1.03-3.2v-7.16h2.14v7.16c0,.53-.03,1.07.24,1.55.35.59,1.17.98,1.91.98.62,0,1.48-.31,1.83-.81.36-.53.35-1.11.35-1.72v-7.16h2.13v7.16ZM943.25,22.95c1.06,0,2.02-.49,2.68-1.27l2.15.47c-.98,1.76-2.77,2.95-4.83,2.95-3.1,0-5.61-2.68-5.61-6s2.51-5.99,5.61-5.99c2.07,0,3.87,1.19,4.85,2.97l-2.14.47c-.67-.8-1.63-1.3-2.71-1.3-1.99,0-3.61,1.73-3.61,3.85s1.61,3.86,3.61,3.86M956.99,24.82h-2.13v-4.81h-4.11v4.81h-2.13v-11.47h2.13v4.59h4.11v-4.59h2.13v11.47Z"/>
      </g>
      <g>
        <path class="cls-1" d="M24.44,31.97v-14.13s-.03-.08-.07-.08h-1.42s-.08.03-.08.08v13.27l-1.64.91-1.65-.91v-13.27s-.03-.08-.08-.08h-1.42s-.04,0-.05.02c-.01.01-.02.03-.02.05v14.13s.01.05.04.07l3.15,1.83s.05.01.07,0l3.14-1.83s.04-.04.04-.07"/>
        <path class="cls-1" d="M15.71,30.68s.05.01.07,0c.02-.01.04-.04.04-.07v-1.53s-.01-.06-.04-.07l-3.01-1.67v-3.7l2.7.7s.05-.03.05-.08v-1.51s-.03-.06-.07-.07l-2.69-.6v-2.93h2.98s.07-.03.07-.08v-1.24s-.03-.07-.07-.07h-4.43s-.07.03-.07.07v10.19s.01.05.04.06l4.43,2.59Z"/>
        <path class="cls-1" d="M31.52,27.85v-1.38s-.01-.05-.04-.06c-.02-.01-.05-.01-.07,0l-2.96,1.64v-4.07l2.76-.71s.06-.04.06-.07v-1.36s0-.04-.03-.06c-.01,0-.03-.01-.05-.01l-2.74.61v-3.22h2.99s.07-.03.07-.08v-1.24s-.03-.08-.07-.08h-4.42s-.07.03-.07.08v12.59s.01.05.03.06c.02.01.05.01.08,0l4.42-2.58s.04-.04.04-.06"/>
        <path class="cls-1" d="M7.51,25.91l1.22.72s.05.01.07,0c.02-.01.04-.04.04-.06v-8.72s-.03-.07-.07-.07h-1.22s-.08.03-.08.07v3.07l-2.94-.66v-2.42s-.03-.07-.07-.07h-1.21s-.04,0-.05.02c-.01.01-.02.03-.02.05v5.51s.01.05.04.06l1.2.7s.05,0,.08,0c.02-.01.04-.04.04-.07v-2.53l2.94.76v3.56s.01.05.04.06"/>
        <path class="cls-1" d="M33.83,26.51s.05,0,.07,0l1.26-.73s0,0,0-.01v-3.53l.74-.2,2.17,1.97s.06.04.1.02l1.11-.65s.03-.03.03-.05c0-.02,0-.03,0-.05l-1.9-1.63,1.34-.35c.45-.11.52-.33.51-.79v-2.24c-.06-.33-.29-.51-.63-.51-.02,0-.04,0-.05,0h-4.73s-.08.04-.08.09v8.58s.01.05.04.07M35.18,19.16h2.56c.11,0,.21.09.21.21v.66c0,.15-.03.23-.22.28l-2.55.57v-1.71Z"/>
        <polygon class="cls-1" points="8.01 13.31 10.91 13.31 10.91 5.73 15 5.73 15 3.72 3.92 3.72 3.92 5.73 8.01 5.73 8.01 13.31"/>
        <path class="cls-1" d="M17.09,13.3l.98-1.88h5.09l1.02,1.88h2.97l-4.9-9.59h-3.32l-4.81,9.59h2.96ZM20.62,6.1l1.65,3.38h-3.41l1.76-3.38Z"/>
        <path class="cls-1" d="M30.84,12.87c2.07.8,4.94.68,7.16.25v-4.96h-3.7v1.87h1.13s0,1.55,0,1.55c-.85.09-1.79.02-2.56-.18-1.08-.31-2.05-1.17-2.28-2.12-.29-1.21.07-2.41,1.25-3.18,1.64-1.05,4.21-.48,5.91.19v-2.09c-2.26-.87-5.54-.91-7.61.34-1.78,1.1-2.61,2.73-2.38,4.6.23,1.52,1.31,3.07,3.08,3.73"/>
        <path class="cls-1" d="M0,.71v24.42s21.21,12.36,21.21,12.36h0s.03,0,.03,0l21.17-12.35h.02V.73H0ZM40.93,24.37l-19.7,11.47L1.51,24.36v-8.06h39.42v8.07ZM40.93,14.92H1.51V2.15h39.42s0,12.76,0,12.76Z"/>
      </g>
      <g>
        <path class="cls-1" d="M597.8,15.21l1.42.17c.64.07.71.6.71.95v1.69h-6.55v-1.69c0-.34.07-.87.71-.95l1.42-.17v-1.44h-8.5v1.44l1.42.17c.64.07.71.6.71.95v5.53c0,.34-.07.88-.71.95l-1.42.17v1.44h8.5v-1.44l-1.42-.17c-.64-.07-.71-.61-.71-.95v-1.69h6.55v1.69c0,.34-.07.88-.71.95l-1.42.17v1.44h8.51v-1.44l-1.42-.17c-.64-.07-.71-.61-.71-.95v-5.53c0-.34.07-.87.71-.95l1.42-.17v-1.44h-8.51v1.44Z"/>
        <path class="cls-1" d="M654.53,13.77h-10.5v1.44l1.26.14c.45.05.74.24.74.87v5.65c0,.34-.06.88-.7.95l-1.42.17v1.44h10.63c3.8,0,6.93-1.54,6.93-5.33s-3.13-5.32-6.93-5.32M653.76,22.38h-3.57v-6.57h3.57c2.1,0,2.82,1,2.82,3.28s-.72,3.29-2.82,3.29"/>
        <path class="cls-1" d="M679.35,22.83c-.67-.08-.88-.51-1.09-.83l-4.9-7.51c-.35-.54-.61-.71-1.13-.71h-8.06v1.44l1.92.22c.26.03.64.4.34.9l-3.62,5.91c-.15.24-.33.52-.75.58l-1.44.17v1.44h6.8v-1.45l-1.17-.12c-.5-.06-.77-.41-.52-.82l.54-.89h6.53l.48.74c.43.65-.11.91-.57.96l-1.2.12v1.45h9.2v-1.44l-1.35-.15ZM667.43,19.27l2.01-3.28,2.14,3.28h-4.14Z"/>
        <path class="cls-1" d="M636.44,15.21l1.42.17c.63.07.71.6.71.95v5.33l-5.62-7.44c-.25-.34-.47-.45-1.07-.45h-7.3v1.44l1.42.17c.64.07.7.6.7.95v5.53c0,.34-.07.88-.7.95l-1.42.17v1.44h6.79v-1.44l-1.42-.17c-.64-.07-.71-.61-.71-.95v-5.33l5.61,7.44c.25.34.47.45,1.08.45h5.17v-8.1c0-.34.07-.87.71-.95l1.42-.17v-1.44h-6.8v1.44Z"/>
        <path class="cls-1" d="M615.43,13.41c-6.91,0-8.7,3.02-8.7,5.68s1.79,5.7,8.7,5.7,8.69-3.04,8.69-5.7-1.78-5.68-8.69-5.68M615.43,22.76c-2.68,0-3.8-1.13-3.8-3.67s1.12-3.66,3.8-3.66,3.79,1.12,3.79,3.66-1.12,3.67-3.79,3.67"/>
      </g>
      <g>
        <path class="cls-1" d="M736.03,25c-.5-.44-1.14-1.02-1.78-1.59-.15.24-.43.43-.87.59-.38.14-.84.25-1.29.31l-.49.06s-.05.08-.08.12c2.1,1.08,5.02.96,4.5.51"/>
        <path class="cls-1" d="M740.85,22.75c-.67-.32-2.11-1.01-3.59-1.71-.13.39-.6.77-1.39,1.12-.32.14-.89.36-1.55.46.08.18.1.38.04.57-.01.05-.03.09-.06.14,3.44,2.19,7.31-.22,6.55-.59"/>
        <path class="cls-1" d="M750.04,2.12c-.78.43-1.69.57-2.3.65-1.3.15-2.56.66-3.76,1.42l-.14.7c-.06.31-.26,1.03-.76,1.87.02,0,.05,0,.07,0,.28,0,.52.15.64.4,4.6-2.11,6.52-4.25,7.06-5.65-.22.24-.49.44-.81.61"/>
        <path class="cls-1" d="M750.18,4.4c-.42.18-3.02,1.31-6.39,2.77.04.07.06.16.08.25.08.55-.36,1.73-1.03,2.74-.17.26-.37.53-.61.81.04,0,.08,0,.12,0,.34,0,.62.21.72.51,8-2.01,7.93-7.43,7.12-7.07"/>
        <path class="cls-1" d="M744.8,19.46c-.88-.19-2.83-.6-5.18-1.1v.02c-.04.41-.38.68-.64.85-.25.17-.59.34-.97.49-.27.11-.67.25-1.17.36.33.16.5.51.43.87,4.07,1.17,8.43-1.31,7.52-1.5"/>
        <path class="cls-1" d="M749.73,10.08c-1.1.23-3.63.76-6.66,1.4.02.07.04.15.04.23.03.74-.94,1.81-1.52,2.33-.13.12-.28.24-.43.36.1.03.18.08.26.15.13.12.21.27.24.44,6.95-.61,9-5.11,8.07-4.91"/>
        <path class="cls-1" d="M747.97,14.95c-1.2.02-3.72.05-6.31.09,0,.02,0,.05,0,.07,0,.2-.06.51-.57,1.03-.3.31-.7.64-1.11.93-.22.15-.5.32-.85.5.35.15.49.46.49.74,6.84.9,9.29-3.38,8.34-3.36"/>
        <path class="cls-1" d="M727.84,19.6c-2.74-.81-5.55-6.68-8.5-9.97-3.6-4.02-7.33-8.17-11.25-8.52-1.6-.14-2.77-.51-3.48-1.11.23,1.29,1.35,2.03,3.39,2.27,1.37.16,2.75.7,4.12,1.58,1.22.8,2.43,1.88,3.6,3.23,1.96,2.25,3.82,5.26,5.24,8.47.64,1.45,1.17,2.87,1.63,4.12.72,1.95,1.35,3.64,2.16,4.82.43.63.89,1.09,1.42,1.39.47.29,1.01.44,1.58.44.03,0,.06,0,.1,0s.06,0,.1,0c.58,0,1.11-.15,1.58-.44.52-.3.98-.75,1.42-1.39.81-1.18,1.43-2.87,2.15-4.82.46-1.25.99-2.67,1.63-4.12"/>
        <path class="cls-1" d="M734.72,15.56c1.42-3.21,3.28-6.22,5.24-8.47,1.17-1.34,2.38-2.43,3.6-3.22,1.36-.89,2.75-1.42,4.12-1.59,2.05-.24,3.16-.99,3.39-2.27-.72.59-1.88.96-3.48,1.11-3.93.35-7.65,4.5-11.25,8.52-2.95,3.29-5.75,9.16-8.5,9.97"/>
        <path class="cls-1" d="M732.02,23.63c1-.12,1.9-.53,1.65-.75-.32-.28-.63-.56-.94-.83-.23.57-.46,1.1-.71,1.58"/>
        <path class="cls-1" d="M736.55,20.71c-.54-.26-1.08-.51-1.6-.75-.12.41-.56.72-1.35.93l-.48.13c-.11.3-.23.59-.34.88,1.69.52,4.26-.95,3.77-1.19"/>
        <path class="cls-1" d="M741.35,6.33l-.32,1.22c-.07.28-.2.55-.39.82,1.69-1.18,2.35-2.77,2.52-3.62-.63.46-1.23,1-1.81,1.58"/>
        <path class="cls-1" d="M743.13,7.45c-.29.12-1.3.56-2.66,1.15-.09.11-.19.22-.3.33.05.22,0,.48-.14.84-.12.3-.3.63-.51.96-.19.29-.46.65-.81,1.02.25.05.45.24.54.49,3.22-1.14,4.23-4.94,3.89-4.79"/>
        <path class="cls-1" d="M740.91,15.05c-.8.01-1.85.03-2.77.04,0,0,0,0,0,0,.04.62-.73,1.32-.96,1.52-.2.16-.44.35-.75.51.1.12.17.28.17.46,2.58-.11,4.83-2.54,4.31-2.54"/>
        <path class="cls-1" d="M742.31,11.65c-.52.11-1.67.34-3.06.63.01.04.02.08.02.12.06.53-.41,1.23-.87,1.71-.14.15-.32.31-.53.47.14.11.23.27.26.46,2.98-.48,4.79-3.52,4.18-3.39"/>
        <path class="cls-1" d="M738.8,18.18c-.67-.14-1.48-.31-2.21-.47-.05.34-.33.7-.84,1.06-.28.2-.59.37-.91.5.07.1.11.21.13.32,2.26.1,4.58-1.25,3.83-1.41"/>
        <path class="cls-1" d="M733.56,19.85c-.04.1-.08.2-.11.31,0,.02-.02.04-.02.07.68-.19,1.08-.48.77-.63-.15-.07-.3-.14-.46-.22-.06.16-.12.32-.18.47"/>
        <path class="cls-1" d="M734.54,17.28c-.11.26-.21.52-.31.78h0c-.1.26-.19.51-.29.76,0,0,0,0,0,0,1.3-.24,2.18-1.21,1.93-1.26-.41-.09-.86-.18-1.33-.28Z"/>
        <path class="cls-1" d="M735.32,15.44s0,0,0,.01c-.05.1-.09.21-.14.31-.04.1-.09.2-.13.3-.01.03-.02.05-.03.08-.03.08-.07.15-.1.23-.01.02-.02.05-.03.07-.03.08-.07.17-.1.25,0,.01-.01.03-.02.04-.04.1-.08.2-.12.29,2.02-.29,3.06-1.93,2.76-1.92-.57,0-1.23.02-1.94.03-.05.1-.1.21-.14.31"/>
        <path class="cls-1" d="M736.62,12.83c-.05.09-.09.17-.14.26,0,0,0,0,0,.01-.05.08-.09.17-.13.25,0,0,0,.01,0,.02-.04.08-.09.17-.13.25,0,0,0,.01,0,.02-.04.08-.09.17-.13.25,0,0,0,.01,0,.02-.04.08-.08.17-.13.25,0,0,0,.01,0,.01-.04.08-.08.17-.13.25,0,0,0,0,0,.01-.04.09-.08.17-.13.26,0,0,0,0,0,0-.04.09-.08.18-.12.26,2.48-.63,3.29-2.6,2.98-2.53-.51.11-1.17.25-1.9.41h0Z"/>
        <path class="cls-1" d="M737.11,11.97h0c-.08.13-.15.26-.23.39,2.11-1.33,2.82-3.42,2.56-3.31-.16.07-.36.16-.61.26-.61.85-1.19,1.74-1.72,2.66"/>
        <path class="cls-1" d="M740.37,7.37c-.43.49-.84,1-1.24,1.54.78-.58,1.13-1.11,1.24-1.54"/>
        <path class="cls-1" d="M723.58,24.31c-.46-.06-.92-.16-1.29-.31-.43-.16-.71-.36-.87-.59-.64.57-1.28,1.15-1.78,1.59-.52.46,2.4.58,4.5-.51-.03-.04-.05-.08-.08-.12l-.49-.06Z"/>
        <path class="cls-1" d="M721.33,23.2c-.06-.19-.04-.39.04-.57-.66-.1-1.22-.32-1.55-.46-.79-.35-1.26-.73-1.39-1.13-1.49.71-2.92,1.39-3.59,1.71-.75.36,3.11,2.78,6.55.59-.02-.05-.04-.09-.06-.14"/>
        <path class="cls-1" d="M711.7,4.19c-1.2-.76-2.46-1.26-3.76-1.42-.61-.07-1.52-.22-2.3-.65-.32-.17-.59-.38-.81-.61.53,1.39,2.46,3.54,7.06,5.65.12-.24.36-.4.64-.4.02,0,.05,0,.07,0-.5-.84-.7-1.56-.76-1.87l-.14-.7Z"/>
        <path class="cls-1" d="M712.62,11.47c.1-.31.38-.52.72-.52.04,0,.08,0,.12,0-.24-.28-.44-.56-.61-.81-.66-1.01-1.1-2.18-1.03-2.74.01-.09.04-.17.08-.25-3.37-1.46-5.97-2.58-6.39-2.77-.82-.35-.89,5.06,7.11,7.07"/>
        <path class="cls-1" d="M718.4,20.96c-.08-.36.09-.71.43-.87-.5-.12-.9-.26-1.17-.36-.38-.15-.71-.32-.97-.49-.25-.17-.59-.44-.64-.85,0,0,0-.01,0-.02-2.34.5-4.29.91-5.18,1.1-.9.19,3.45,2.67,7.53,1.5"/>
        <path class="cls-1" d="M714.26,14.55c.08-.07.16-.12.26-.15-.16-.12-.3-.24-.43-.36-.58-.52-1.54-1.59-1.52-2.33,0-.08.02-.15.04-.23-3.04-.64-5.56-1.17-6.66-1.4-.93-.2,1.12,4.31,8.07,4.91.03-.17.11-.33.24-.44"/>
        <path class="cls-1" d="M716.05,18.31c0-.28.15-.59.49-.74-.34-.17-.63-.35-.85-.5-.42-.29-.82-.61-1.11-.93-.5-.52-.57-.83-.57-1.03,0-.03,0-.05,0-.08-2.59-.04-5.1-.07-6.3-.09-.95-.01,1.5,4.27,8.34,3.36"/>
        <path class="cls-1" d="M723.67,23.63c-.24-.48-.48-1.01-.71-1.58-.31.27-.62.55-.94.83-.26.22.64.63,1.65.75"/>
        <path class="cls-1" d="M722.08,20.89c-.78-.22-1.23-.52-1.35-.93-.52.25-1.05.5-1.6.75-.49.23,2.08,1.71,3.77,1.19-.11-.28-.23-.58-.34-.88l-.48-.13Z"/>
        <path class="cls-1" d="M714.33,6.33c-.58-.58-1.19-1.11-1.81-1.58.18.85.83,2.44,2.52,3.62-.19-.27-.32-.55-.39-.82l-.32-1.22Z"/>
        <path class="cls-1" d="M712.55,7.45c-.34-.15.67,3.66,3.89,4.79.08-.25.28-.44.54-.49-.35-.37-.62-.73-.81-1.02-.21-.33-.39-.66-.51-.96-.15-.36-.19-.62-.14-.84-.11-.11-.21-.22-.3-.33-1.36-.59-2.38-1.03-2.66-1.15"/>
        <path class="cls-1" d="M719.08,17.59c0-.17.07-.33.17-.46-.3-.17-.55-.35-.75-.51-.24-.2-1.01-.9-.96-1.52,0,0,0,0,0-.01-.92-.01-1.97-.03-2.77-.04-.52,0,1.73,2.43,4.31,2.54"/>
        <path class="cls-1" d="M716.44,12.28c-1.39-.29-2.54-.52-3.06-.63-.61-.13,1.2,2.91,4.18,3.39.03-.19.12-.35.26-.46-.21-.16-.38-.33-.53-.48-.46-.48-.94-1.18-.87-1.71,0-.04.01-.08.02-.12"/>
        <path class="cls-1" d="M720.71,19.59c.02-.11.06-.22.13-.32-.32-.13-.63-.3-.91-.5-.51-.36-.79-.72-.84-1.06-.74.16-1.54.33-2.21.47-.74.16,1.57,1.51,3.83,1.41"/>
        <path class="cls-1" d="M722.12,19.85c-.06-.16-.12-.31-.18-.47-.16.07-.31.15-.46.22-.31.15.09.44.77.63,0-.02-.02-.04-.02-.07-.04-.1-.08-.2-.11-.31"/>
        <path class="cls-1" d="M721.45,18.06s0,0,0,0c-.1-.26-.2-.52-.31-.78-.47.1-.92.19-1.34.28-.25.05.64,1.02,1.93,1.26,0,0,0,0,0,0-.09-.25-.19-.5-.29-.75"/>
        <path class="cls-1" d="M720.9,16.68c-.03-.08-.07-.16-.1-.25-.01-.02-.02-.05-.03-.07-.03-.08-.06-.15-.1-.23-.01-.02-.02-.05-.03-.08-.04-.1-.09-.2-.13-.3-.05-.1-.09-.21-.14-.31,0,0,0,0,0-.01-.05-.1-.09-.21-.14-.31-.71,0-1.37-.02-1.94-.03-.3,0,.74,1.63,2.76,1.92-.04-.1-.08-.2-.12-.29l-.02-.04"/>
        <path class="cls-1" d="M720.01,14.69c-.04-.09-.08-.17-.13-.26,0,0,0,0,0-.01-.04-.08-.08-.17-.13-.25,0,0,0,0,0-.01-.04-.08-.08-.17-.13-.25,0,0,0-.01,0-.02-.04-.08-.08-.17-.13-.25,0,0,0-.01,0-.02-.04-.08-.09-.17-.13-.25,0,0,0-.01,0-.02-.04-.08-.09-.17-.13-.25,0,0,0,0,0-.01-.05-.09-.09-.17-.14-.26-.74-.16-1.39-.3-1.9-.41-.3-.07.5,1.9,2.98,2.53-.04-.09-.08-.18-.13-.26,0,0,0,0,0,0"/>
        <path class="cls-1" d="M716.84,9.31c-.24-.1-.45-.19-.61-.26-.26-.11.45,1.98,2.56,3.31-.07-.13-.15-.26-.23-.39-.53-.91-1.11-1.81-1.72-2.66"/>
        <path class="cls-1" d="M716.55,8.91c-.4-.53-.81-1.05-1.24-1.54.11.43.46.96,1.24,1.54"/>
        <path class="cls-1" d="M709.73,34.83h-1.1c-.41,0-.73-.11-.95-.33-.22-.22-.34-.54-.34-.95v-2.73c0-.41.11-.73.34-.95.22-.22.54-.33.95-.33h1.1c.41,0,.72.11.95.33.23.22.34.54.34.94v.63c0,.11-.06.17-.17.17h-.92c-.11,0-.16-.06-.16-.17v-.33c0-.17-.03-.29-.11-.36-.07-.07-.19-.11-.36-.11h-.27c-.16,0-.28.03-.35.11-.07.07-.1.19-.1.36v2.14c0,.17.03.29.1.36.07.07.19.11.35.11h.28c.17,0,.29-.03.36-.11.07-.07.1-.19.1-.36v-.31c0-.11.06-.17.16-.17h.91c.11,0,.17.06.17.17v.61c0,.41-.11.72-.34.95-.23.22-.67.33-1.07.33"/>
        <path class="cls-1" d="M714.54,34.83h-1.01c-.09,0-.13-.06-.09-.16l1.3-4.96c.04-.11.12-.16.23-.16h1.24c.13,0,.21.05.23.16l1.29,4.96c.03.11,0,.16-.09.16h-1.01c-.06,0-.09-.01-.12-.04-.02-.02-.04-.07-.05-.13l-.12-.5h-1.51s-.13.5-.13.5c-.01.06-.03.1-.05.13-.02.02-.06.04-.11.04M715.58,31.06l-.51,2.04h1.04s-.51-2.04-.51-2.04h-.02Z"/>
        <path class="cls-1" d="M728.55,34.82h-.91c-.11,0-.17-.06-.17-.16v-3.93c0-.06-.03-.09-.09-.09h-.89c-.11,0-.16-.06-.16-.16v-.78c0-.11.06-.16.16-.16h3.21c.11,0,.16.05.16.16v.78c0,.11-.05.16-.16.16h-.89c-.06,0-.09.03-.09.09v3.93c0,.11-.06.16-.16.16"/>
        <path class="cls-1" d="M734.78,34.84h-1.1c-.41,0-.73-.11-.95-.33-.22-.22-.34-.54-.34-.95v-2.75c0-.41.11-.73.34-.95.22-.22.54-.33.95-.33h1.1c.41,0,.73.11.95.33.22.22.34.54.34.95v2.75c0,.41-.11.73-.34.95-.22.22-.54.33-.95.33M734.09,33.72h.28c.17,0,.29-.03.36-.11.07-.07.1-.19.1-.36v-2.14c0-.17-.03-.29-.1-.36-.07-.07-.19-.11-.36-.11h-.28c-.17,0-.28.03-.35.11-.07.07-.1.19-.1.36v2.14c0,.17.03.29.1.36.07.07.19.11.35.11"/>
        <path class="cls-1" d="M748.23,34.83h-2.8c-.11,0-.16-.06-.16-.16v-4.97c0-.11.05-.16.16-.16h2.8c.1,0,.16.05.16.16v.79c0,.11-.05.16-.16.16h-1.64c-.06,0-.09.03-.09.09v.77c0,.06.03.09.09.09h1.34c.11,0,.16.05.16.16v.79c0,.11-.06.17-.16.17h-1.34c-.06,0-.09.03-.09.08v.84c0,.06.03.09.09.09h1.64c.1,0,.16.06.16.16v.79c0,.11-.05.16-.16.16"/>
        <path class="cls-1" d="M742.72,34.64l-.81-1.68c.42-.21.6-.64.6-1.21v-.94c0-.41-.12-.72-.34-.95-.23-.23-.67-.34-1.08-.34h-2.07c-.11,0-.17.05-.17.16v4.97c0,.11.06.16.17.16h.92c.11,0,.16-.05.16-.16v-1.42c0-.06.03-.09.09-.09h.48l.1.21h0l.6,1.29c.03.07.06.11.1.13.04.02.11.03.2.03h.92c.14,0,.18-.06.13-.19M741.26,31.66c0,.16-.04.27-.12.34-.08.07-.2.11-.37.11h-.59c-.06,0-.09-.03-.09-.09v-1.29c0-.06.03-.08.09-.08h.59c.17,0,.29.03.37.11.08.07.12.19.12.35v.56Z"/>
        <path class="cls-1" d="M720.17,33.43c0,.41.12.84.34,1.07.23.22.67.34,1.08.34h.98c.41,0,.72-.11.95-.34.23-.23.34-.54.34-.95v-.47c0-1.2-1.33-1.36-1.82-1.46-.5-.1-.64-.18-.64-.42v-.07c0-.24.04-.28.11-.36.08-.08.16-.12.37-.12h.32c.21,0,.34.1.34.25,0,.11.06.16.16.16h.92c.11,0,.16-.06.16-.16v-.07c0-.41-.12-.73-.34-.95-.23-.22-.55-.34-.96-.34h-1.03c-.41,0-.73.11-.95.34-.23.22-.34.54-.34.95v.45c0,.67.2,1.32,1.82,1.47.56.05.64.26.64.41v.09c0,.21-.04.28-.12.36-.08.08-.22.12-.43.12h-.24c-.34,0-.43-.13-.43-.33,0-.11-.06-.17-.16-.17h-.91c-.11,0-.16.06-.16.17v.05Z"/>
      </g>
      <g>
        <path class="cls-1" d="M83.51,15.36c0-3.83-2.49-6.47-7.98-6.47h-9.18v20.31h5.61v-7.46h3.02l3.6,7.46h6.3l-4.5-8.99c2.04-1.17,3.13-2.67,3.13-4.85ZM74.65,18.03h-2.69v-5.43h2.69c2.1,0,2.98.93,2.98,2.7s-.88,2.73-2.98,2.73Z"/>
        <polygon class="cls-1" points="125.23 8.94 123.04 13.23 130.2 13.23 130.2 29.25 135.84 29.25 135.84 13.23 142.01 13.23 142.01 8.94 125.23 8.94"/>
        <polygon class="cls-1" points="123.49 8.92 120.28 8.92 120.27 8.95 111.41 15.29 111.41 8.93 105.8 8.93 105.8 29.21 111.41 29.21 111.41 18.72 117.53 13.72 113.74 20.29 113.74 20.29 113.74 20.29 113.74 20.29 113.74 20.29 118.03 29.19 124.36 29.19 118.83 17.99 123.49 8.92"/>
        <path class="cls-1" d="M94.5,8.51c-2.89,0-5.23.96-6.99,2.84-1.75,1.89-2.63,4.44-2.63,7.72v.06c0,3.28.88,5.86,2.63,7.75,1.75,1.89,4.09,2.81,6.99,2.81s5.23-.93,6.96-2.81c1.75-1.89,2.63-4.47,2.63-7.75v-.06c0-3.28-.88-5.83-2.63-7.72-1.73-1.89-4.06-2.84-6.96-2.84ZM98.39,19.28c0,2.05-.36,3.66-1.07,4.84-.7,1.18-1.66,1.76-2.84,1.76s-2.13-.58-2.85-1.76c-.72-1.18-1.07-2.79-1.07-4.84v-.04c0-2.05.36-3.64,1.07-4.82.72-1.18,1.67-1.78,2.85-1.78s2.13.6,2.84,1.78c.72,1.18,1.07,2.77,1.07,4.82v.04Z"/>
      </g>
      <g>
        <g>
          <path class="cls-1" d="M218.95,23.32h15.31v-14.19h-15.31v14.19ZM233.79,22.85h-14.38v-13.26h14.38v13.26Z"/>
          <path class="cls-1" d="M225.67,10.4l-.02.04c-.46.73-1.08.87-1.86.85h-.2v1.75h1.74v9.01h2.79v-11.65h-2.45Z"/>
          <path class="cls-1" d="M193.94,23.41v-14.4h3v4.46c.87-.55,1.85-.85,2.88-.85,3.02,0,5.31,2.54,5.31,5.51s-2.29,5.52-5.31,5.52c-1.7,0-2.52-.79-2.88-1.2v.95h-3ZM199.55,15.51c-1.44,0-2.6,1.2-2.6,2.64s1.16,2.64,2.6,2.64,2.6-1.2,2.6-2.64-1.15-2.64-2.6-2.64"/>
          <path class="cls-1" d="M206.36,9.02h3v2.88h-3v-2.88ZM206.36,12.87h3v10.54h-3v-10.54Z"/>
          <rect class="cls-1" x="211.21" y="9.02" width="3" height="14.4"/>
          <polygon class="cls-1" points="165.91 9.01 170.58 9.01 173.21 17.85 173.26 17.85 175.95 9.01 180.47 9.01 180.47 23.41 177.47 23.41 177.47 13.23 177.43 13.23 174.53 23.41 171.8 23.41 168.95 13.23 168.91 13.23 168.91 23.41 165.91 23.41 165.91 9.01"/>
          <path class="cls-1" d="M187.11,12.62c-3.06,0-5.62,2.37-5.62,5.51s2.56,5.52,5.62,5.52,5.57-2.37,5.57-5.52-2.52-5.51-5.57-5.51M187.07,22.48c-2.66,0-4.28-2.19-4.32-4.34,0-2.5,1.97-4.34,4.3-4.34s4.3,1.85,4.3,4.34c0,2.35-1.91,4.34-4.28,4.34"/>
          <path class="cls-1" d="M187.07,14.45c-1.99,0-3.55,1.68-3.55,3.69,0,1.76,1.34,3.61,3.57,3.61,1.99,0,3.57-1.6,3.57-3.61s-1.66-3.69-3.59-3.69M187.11,20.65c-1.5,0-2.62-1.01-2.62-2.51s1.12-2.6,2.62-2.6,2.57,1.1,2.57,2.6-1.08,2.51-2.57,2.51"/>
        </g>
        <g>
          <path class="cls-1" d="M256.38,31.14l1.71,2.42h-1.38l-1.43-2.21h-1.02v2.21h-1.09v-6.18h2.2c1.61,0,2.41.64,2.41,1.91,0,.46-.12.84-.37,1.16s-.59.55-1.03.69M254.26,30.34h1.16c.4,0,.7-.09.9-.28.2-.19.3-.43.3-.72,0-.66-.41-1-1.24-1h-1.11v2Z"/>
          <path class="cls-1" d="M262.11,33.36c-.6.2-1.23.3-1.87.3-1.19,0-1.79-.45-1.79-1.35,0-.43.16-.77.47-1.01.31-.24.79-.36,1.43-.36.28,0,.52.01.71.04v-.19c0-.28-.08-.48-.25-.59-.17-.11-.4-.16-.69-.16-.24,0-.48.03-.72.08s-.45.12-.64.19v-.87c.18-.08.41-.15.69-.21.28-.06.57-.09.87-.09.62,0,1.07.14,1.35.43.28.28.42.71.42,1.27v2.52ZM261.07,32.76v-1.07c-.23-.03-.46-.04-.71-.04-.29,0-.51.05-.66.16s-.22.25-.22.44.06.33.19.44c.13.1.34.15.64.15.27,0,.53-.03.76-.08"/>
          <path class="cls-1" d="M266.4,30.3c-.14-.06-.3-.11-.49-.15-.19-.04-.38-.06-.57-.06-.44,0-.77.12-1,.35-.23.23-.35.55-.35.97,0,.39.12.71.36.95.24.24.58.36,1.03.36.21,0,.41-.02.6-.07.19-.04.36-.1.5-.16v.95c-.14.07-.32.12-.54.17-.22.05-.44.07-.68.07-.71,0-1.28-.21-1.7-.62-.42-.41-.63-.97-.63-1.67,0-.65.21-1.19.64-1.61.43-.42,1-.64,1.71-.64.4,0,.78.06,1.12.18v.98Z"/>
          <path class="cls-1" d="M267.25,27.2h1.11v1.11h-1.11v-1.11ZM267.29,29.26h1.04v4.29h-1.04v-4.29Z"/>
          <path class="cls-1" d="M273.3,33.56h-1.04v-2.67c0-.28-.07-.49-.2-.6-.13-.12-.37-.18-.7-.18-.28,0-.58.04-.9.11v3.34h-1.04v-4.13c.73-.18,1.39-.28,1.96-.28.69,0,1.19.13,1.48.39.29.26.44.66.44,1.2v2.82Z"/>
          <path class="cls-1" d="M278.32,33.48c0,.67-.18,1.21-.54,1.62-.36.41-.93.61-1.72.61-.33,0-.62-.02-.85-.06-.24-.04-.48-.1-.73-.18v-1c.21.08.44.15.67.2.23.05.5.08.8.08.43,0,.75-.08.98-.25.23-.17.34-.46.34-.87v-.19c-.33.15-.7.23-1.11.23-.59,0-1.08-.2-1.46-.61-.38-.41-.57-.93-.57-1.57,0-.69.21-1.25.64-1.69.43-.44,1.02-.66,1.78-.66.34,0,.66.03.95.09.29.06.56.14.82.24v4ZM277.27,32.52v-2.3c-.27-.08-.52-.12-.76-.12-.43,0-.75.12-.98.37-.23.25-.34.57-.34.95s.11.71.33.94c.22.23.51.34.88.34.3,0,.59-.06.86-.19"/>
          <polygon class="cls-1" points="282.71 28.39 282.71 30.1 285.45 30.1 285.45 31.11 282.71 31.11 282.71 33.56 281.6 33.56 281.6 27.38 285.59 27.38 285.59 28.39 282.71 28.39"/>
          <path class="cls-1" d="M286.2,32.04v-2.77h1.04v2.62c0,.28.07.49.22.63.15.13.4.2.76.2.24,0,.51-.03.82-.1v-3.35h1.04v4.14c-.71.18-1.35.27-1.92.27-.71,0-1.21-.14-1.51-.41-.3-.28-.44-.68-.44-1.22"/>
          <path class="cls-1" d="M295.08,31.7h-3.09c.02.32.13.58.35.79.22.2.55.31,1.01.31.49,0,.97-.12,1.46-.36v.88c-.27.12-.52.21-.77.27-.25.06-.54.09-.88.09-.71,0-1.25-.2-1.64-.59-.39-.39-.59-.94-.59-1.64s.2-1.26.59-1.67c.39-.41.93-.62,1.62-.62s1.15.19,1.48.58c.33.39.49.88.49,1.49,0,.1,0,.26-.03.47M294.07,31.01c0-.31-.08-.56-.25-.75-.17-.19-.41-.29-.73-.29-.3,0-.55.09-.75.28-.2.19-.31.44-.33.76h2.07Z"/>
          <rect class="cls-1" x="295.95" y="27" width="1.04" height="6.56"/>
          <path class="cls-1" d="M300.95,30.19c-.44-.14-.86-.21-1.26-.21-.25,0-.44.04-.56.12-.12.08-.19.19-.19.34,0,.19.12.32.37.4.25.08.54.17.89.28.35.11.6.25.76.44s.24.44.24.76c0,.4-.14.72-.43.98-.28.26-.72.39-1.32.39-.3,0-.57-.02-.83-.06-.26-.04-.48-.09-.65-.15v-.89c.15.07.36.13.62.18.26.05.51.08.76.08.55,0,.82-.15.82-.44,0-.19-.12-.32-.35-.4-.23-.07-.52-.17-.86-.28-.34-.12-.6-.27-.79-.46-.18-.19-.28-.44-.28-.76,0-.4.15-.73.46-.98.31-.25.75-.38,1.32-.38.45,0,.87.05,1.26.15v.92Z"/>
          <path class="cls-1" d="M298.22,23.36h2.99v-14.35h-2.99v14.35ZM293.57,11.84h2.99v-2.83h-2.99v2.83ZM293.57,23.36h2.99v-10.51h-2.99v10.51ZM286.74,20.66c-1.41,0-2.55-1.14-2.55-2.55s1.14-2.55,2.55-2.55,2.55,1.14,2.55,2.55-1.14,2.55-2.55,2.55M284.15,23.36v-.93c.77.85,1.74,1.17,2.87,1.17,3.01,0,5.3-2.53,5.3-5.48s-2.26-5.52-5.3-5.52c-1.09,0-2.04.34-2.87,1.05v-4.65h-2.99v14.35h2.99ZM279.98,18.11c0,3.07-2.49,5.56-5.56,5.56s-5.56-2.49-5.56-5.56,2.49-5.56,5.56-5.56,5.56,2.49,5.56,5.56M278.74,18.11c0-2.39-1.93-4.32-4.32-4.32s-4.32,1.93-4.32,4.32,1.93,4.32,4.32,4.32,4.32-1.93,4.32-4.32M277.97,18.11c0,1.96-1.59,3.56-3.56,3.56s-3.56-1.59-3.56-3.56,1.59-3.56,3.56-3.56,3.56,1.59,3.56,3.56M276.8,18.11c0-1.31-1.06-2.38-2.38-2.38s-2.38,1.06-2.38,2.38,1.06,2.38,2.38,2.38,2.38-1.06,2.38-2.38M253.16,9.01h4.65l2.63,8.81h.04l2.67-8.81h4.53v14.35h-2.99v-10.15h-.04l-2.87,10.15h-2.75l-2.83-10.15h-.04v10.15h-2.99v-14.35Z"/>
        </g>
      </g>
      <g>
        <path class="cls-2" d="M792.62,18.73c.02-4.87-3.92-8.83-8.79-8.85-4.87-.02-8.83,3.92-8.85,8.79-.02,4.87,3.92,8.83,8.79,8.85,4.87.02,8.83-3.92,8.85-8.79M782.21,13.8c-.07.14-.07.31-.07.67,0,.81,0,1.21,0,2.02,0,.09,0,.13.01.17,0,.04.03.07.05.1.02.03.06.06.13.12.2.17.31.25.51.42.08.07.12.1.14.14.01.04.01.07,0,.11-.02.04-.06.07-.14.14-.21.17-.31.25-.51.41-.07.06-.1.08-.13.12-.02.03-.04.07-.05.1-.01.04-.01.09-.01.17,0,1.77,0,2.65-.02,4.42,0,.36,0,.53.07.67.06.12.16.22.28.28.14.07.31.07.67.07.53,0,.79,0,1.31,0,.36,0,.53,0,.67-.07.12-.06.22-.16.28-.28.07-.14.07-.31.07-.67,0-.81,0-1.21,0-2.02,0-.09,0-.13-.01-.17,0-.04-.03-.07-.05-.1-.02-.04-.06-.06-.13-.12-.2-.17-.31-.25-.51-.42-.08-.07-.12-.1-.14-.14-.01-.04-.01-.08,0-.11.02-.04.06-.07.14-.14.2-.17.31-.25.51-.41.07-.06.1-.08.13-.12.02-.03.04-.06.05-.1.01-.04.01-.09.01-.17,0-1.77,0-2.65.02-4.42,0-.36,0-.53-.07-.67-.06-.12-.16-.22-.28-.28-.14-.07-.31-.07-.67-.07-.53,0-.79,0-1.31,0-.36,0-.53,0-.67.07-.12.06-.22.16-.28.28"/>
        <path class="cls-1" d="M799.68,24.03c.09,0,.16-.07.16-.16.01-4.14.02-6.21.04-10.36,0-.09-.07-.16-.16-.16-.61,0-.92,0-1.53,0-.06,0-.11.03-.14.08-.35.53-1,.8-1.9.82-.09,0-.16.07-.16.16,0,.62,0,.93,0,1.55,0,.09.07.16.16.16.49,0,.74,0,1.23,0,.09,0,.16.07.16.16-.01,3.03-.02,4.55-.03,7.58,0,.09.07.16.16.16.8,0,1.21,0,2.01,0Z"/>
        <path class="cls-1" d="M805.81,15.52c.82,0,1.48.44,1.48,1.55,0,1.07-.67,1.54-1.49,1.54-.72,0-1.08,0-1.79,0,0-1.23,0-1.85.01-3.08.72,0,1.08,0,1.79,0ZM805.79,20.6c2.42,0,3.83-1.46,3.84-3.59,0-2.01-1.39-3.49-3.82-3.5-1.58,0-2.37,0-3.94-.01-.09,0-.16.07-.16.16-.01,4.09-.02,6.14-.04,10.23,0,.09.07.16.16.16.8,0,1.2,0,1.99,0,.09,0,.16-.07.16-.16,0-1.26,0-1.88.01-3.14,0-.09.07-.16.16-.16.65,0,.98,0,1.63,0Z"/>
        <path class="cls-1" d="M813.2,22.58c-.68,0-1.1-.31-1.1-.86,0-.49.29-.81.99-.81.76,0,1.13,0,1.89,0,0,.06,0,.1,0,.16,0,.94-.81,1.51-1.78,1.5M815.15,23.93c0,.09.07.16.16.16.69,0,1.04,0,1.73,0,.09,0,.16-.07.16-.16,0-1.83,0-2.75.02-4.58,0-2.21-1.23-3.49-3.48-3.5-1.67,0-2.95.88-3.47,2.31-.03.09.02.18.11.2.7.17,1.05.26,1.75.43.08.02.16-.02.19-.1.27-.65.71-1.03,1.42-1.03.74,0,1.26.49,1.26,1.37,0,.05,0,.07,0,.11,0,.24-.08.34-.37.34-.81,0-1.21,0-2.02,0-1.68,0-2.7.88-2.71,2.29,0,1.51,1.15,2.49,2.77,2.49.81,0,1.59-.26,2.15-.85.11-.12.34-.04.34.12,0,.16,0,.24,0,.4Z"/>
        <path class="cls-1" d="M821.5,22.68c-.78,0-1.36-.33-1.64-.93-.03-.07-.11-.12-.19-.1-.65.16-.98.24-1.63.41-.08.02-.14.11-.11.19.41,1.37,1.79,2.04,3.49,2.05,2.18,0,3.43-1.11,3.43-2.63.01-2.95-4.66-1.96-4.66-3.42,0-.49.41-.79,1.13-.79.72,0,1.21.4,1.44,1.01.03.08.11.12.18.11.67-.12,1-.19,1.67-.31.09-.02.15-.11.12-.19-.38-1.29-1.45-2.18-3.39-2.19-2.13,0-3.27,1.12-3.27,2.55-.01,3.05,4.68,2.16,4.67,3.42,0,.5-.42.83-1.25.82"/>
        <path class="cls-1" d="M828.76,22.7c-.78,0-1.36-.33-1.64-.93-.03-.07-.11-.12-.19-.1-.65.16-.98.24-1.64.41-.08.02-.14.11-.11.19.41,1.38,1.79,2.05,3.49,2.05,2.18,0,3.43-1.11,3.43-2.63.01-2.95-4.66-1.96-4.66-3.42,0-.49.41-.79,1.13-.79.72,0,1.21.4,1.44,1.01.03.08.11.12.18.11.67-.12,1-.19,1.67-.31.09-.02.15-.1.12-.19-.38-1.29-1.45-2.18-3.39-2.19-2.13,0-3.27,1.12-3.27,2.55-.01,3.05,4.68,2.16,4.67,3.42,0,.5-.42.83-1.25.82"/>
        <path class="cls-1" d="M834.14,24.03c.02.07.08.12.15.12,1,0,1.51,0,2.51,0,.07,0,.14-.05.15-.12.52-2.17.78-3.26,1.3-5.44.5,2.18.76,3.27,1.26,5.45.02.07.08.12.15.12,1.04,0,1.56,0,2.59,0,.07,0,.14-.05.15-.12.77-3.08,1.15-4.62,1.92-7.71.02-.1-.05-.2-.15-.2-.71,0-1.07,0-1.79,0-.08,0-.14.05-.16.13-.51,2.45-.77,3.67-1.29,6.11-.62-2.45-.93-3.68-1.55-6.13-.02-.07-.08-.12-.15-.12-.8,0-1.2,0-2,0-.07,0-.14.05-.15.12-.59,2.45-.89,3.67-1.48,6.12-.49-2.45-.74-3.67-1.23-6.12-.01-.07-.08-.13-.15-.13-.72,0-1.08,0-1.8,0-.1,0-.18.1-.15.19.74,3.09,1.11,4.63,1.85,7.72Z"/>
        <path class="cls-1" d="M848.58,24.39c2.42,0,4.09-1.87,4.1-4.19,0-2.34-1.65-4.22-4.07-4.23-2.41,0-4.09,1.87-4.1,4.2,0,2.32,1.67,4.21,4.07,4.21M848.58,22.46c-1,0-1.77-.85-1.77-2.28,0-1.43.78-2.28,1.78-2.28,1,0,1.79.87,1.78,2.29,0,1.43-.8,2.27-1.8,2.26"/>
        <path class="cls-1" d="M855.86,19.97c0-1.38.7-1.7,1.77-1.7.2,0,.43.02.64.06.09.02.18-.04.2-.13.14-.76.21-1.15.34-1.91.01-.07-.02-.14-.08-.16-.19-.08-.43-.13-.72-.13-1.08,0-1.92.63-2.33,1.91,0-.62,0-.94,0-1.56,0-.09-.07-.16-.16-.16-.7,0-1.05,0-1.75,0-.09,0-.16.07-.16.16-.01,3.08-.02,4.63-.03,7.71,0,.09.07.16.16.16.78,0,1.17,0,1.95,0,.09,0,.16-.07.16-.16,0-1.64,0-2.45.01-4.09Z"/>
        <path class="cls-1" d="M862.97,22.56c-1.16,0-1.77-.96-1.77-2.33,0-1.36.62-2.33,1.78-2.33,1.16,0,1.77.98,1.77,2.34,0,1.36-.62,2.32-1.78,2.31M864.87,24.1c0,.09.07.16.16.16.73,0,1.09,0,1.82,0,.09,0,.16-.07.16-.16.01-4.08.02-6.12.04-10.2,0-.09-.07-.16-.16-.16-.75,0-1.13,0-1.88,0-.09,0-.16.07-.16.16,0,1.38,0,2.07-.01,3.45-.5-.94-1.34-1.32-2.4-1.32-2.08,0-3.51,1.8-3.52,4.21,0,2.4,1.41,4.21,3.49,4.21,1.13,0,2-.45,2.48-1.61,0,.51,0,.76,0,1.27Z"/>
      </g>
      <g>
        <g>
          <path class="cls-1" d="M339.06,23.97c-4.23,0-7.67-3.43-7.67-7.67s3.43-7.67,7.67-7.67V2.36c-7.7,0-13.94,6.24-13.94,13.94s6.24,13.94,13.94,13.94,13.94-6.24,13.94-13.94h-6.27c0,4.23-3.43,7.67-7.67,7.67Z"/>
          <rect class="cls-1" x="339.06" y="8.64" width="7.67" height="7.67"/>
        </g>
        <g>
          <path class="cls-1" d="M367.98,14.17v4.27h6.73c-.3,1.22-.91,2.31-1.77,3.19-1.3,1.32-3.1,2.04-5.08,2.04-4.1,0-7.43-3.3-7.43-7.36s3.33-7.36,7.43-7.36c2.19,0,4.21.93,5.61,2.54l3.33-2.7c-2.21-2.57-5.49-4.1-8.94-4.1-6.47,0-11.74,5.22-11.74,11.63s5.26,11.63,11.74,11.63c3.14,0,6.04-1.12,8.16-3.27,1.78-1.8,2.95-4.31,3.18-6.83.11-1.23.12-2.45.06-3.67h-11.28Z"/>
          <path class="cls-1" d="M408.68,21.66v-8.59h4.39v-3.76h-4.39v-3.42h-3.89v3.42h-2.34v3.76h2.34v9.15c0,2.76,2.24,5,5,5h3.28v-3.78h-2.61c-.98,0-1.78-.8-1.78-1.78Z"/>
          <path class="cls-1" d="M396.04,9.39v1.47c-1.82-1.45-4.2-2.23-6.76-1.95-4.21.47-7.61,3.87-8.07,8.07-.61,5.53,3.71,10.21,9.11,10.21,2.16,0,4.15-.75,5.72-2.01v1.53h3.76V9.39h-3.76ZM395.66,18.94c-.37,2.24-2.17,4.05-4.42,4.42-3.71.61-6.87-2.55-6.26-6.26.37-2.24,2.18-4.05,4.42-4.42,3.7-.6,6.86,2.55,6.25,6.25Z"/>
          <path class="cls-1" d="M423.39,8.87c-5.01,0-9.13,4.1-9.18,9.14-.02,2.46.91,4.77,2.63,6.5,1.71,1.72,3.98,2.67,6.41,2.67,3.32,0,6.38-1.79,8.04-4.67l-3.19-1.84c-1,1.74-2.85,2.82-4.85,2.82-1.43,0-2.78-.56-3.78-1.58-.66-.67-1.07-1.49-1.31-2.39l-.02-.09h14.24c.15-1.41-.03-2.77-.12-3.3-.85-4.2-4.57-7.26-8.85-7.26ZM418.43,15.73l.05-.1c.94-1.89,2.82-3.07,4.91-3.07s3.95,1.21,4.83,3.07l.05.1h-9.84Z"/>
        </g>
      </g>
      <path class="cls-2" d="M563.1,23.62l-.33,3.29h-9.34v-.51c.31-.15.6-.33.87-.55.05-.43.09-.86.1-1.29.08-1.09.08-1.88.08-2.37v-6.11c.02-.44-.03-.88-.13-1.3-.03-.06-.08-.11-.14-.14-.44-.12-.9-.18-1.35-.18v-.8h9.91l-.36,2.94h-.73c.01-.46-.02-.92-.09-1.37-.01-.07-.05-.14-.1-.18-.09-.06-3.69-.19-4.26-.19-.1.9-.14,1.81-.13,2.72v1.98h1.32c.44,0,.87-.04,1.31-.1.06-.05.11-.12.13-.19.05-.17.08-.34.09-.51h.79l-.04.88v1.68h-.79c-.01-.17-.05-.34-.1-.51-.02-.08-.06-.15-.13-.2-.34-.05-.68-.08-1.03-.09-.63,0-1.1.05-1.49.05v5.21c.5.03,4.57-.12,4.7-.2.06-.04.1-.1.12-.17.17-.58.29-1.17.36-1.76l.76-.02ZM477.15,26.91h-4.25v-.78c.28-.01.57-.05.85-.1.09-.03.17-.07.24-.13.08-.09.16-.18.21-.29.07-.12.27-.6.62-1.44.16-.39.47-1.16.92-2.31l2.38-6.07.81-2.13h1.29l4.11,9.83.57,1.29.37.88c.04.09.1.17.17.25.06.05.12.09.19.11.18.04.36.06.54.06l.4.05v.78h-5.75v-.78c.42,0,.83-.04,1.24-.13.1-.05.16-.15.15-.26-.03-.27-.1-.53-.21-.77l-.78-2.08h-4.7l-.41,1.13c-.22.52-.38,1.07-.48,1.62-.01.13.05.25.15.32.42.13.87.19,1.31.17l.06.78ZM476.9,21.8h3.82l-1.95-4.86-1.86,4.86ZM510.08,25.73s-.03.07-.05.11c-.07.08-.15.14-.25.18-.22.14-.44.26-.67.37v.48s9.07.05,9.25,0l.37-3.45h-.77c-.11.62-.23,1.16-.36,1.64-.02.13-.07.25-.15.35-.05,0-4.61.23-4.61.23v-9.62c0-.39.03-.78.08-1.17.02-.08.08-.15.15-.18.41-.13.85-.19,1.28-.18v-.84h-5.86v.88c.47-.03.95.04,1.4.18.07.03.12.1.14.18.1.66.14,1.32.12,1.99v7.21c0,1-.07,1.49-.07,1.64M546.8,25.06c-.03.12-.08.24-.15.35-.05,0-3.75.27-4.59.23v-9.61c0-.39.03-.78.09-1.17.02-.08.08-.14.15-.18.41-.12.83-.18,1.26-.17v-.85h-5.79v.88c.47-.04.95,0,1.4.14.07.04.12.1.14.18.1.67.15,1.35.15,2.03v7.19c.01.56-.02,1.13-.09,1.69,0,.03,0,.07,0,.11-.07.08-.15.14-.25.18-.22.14-.44.26-.67.37v.48h9.18l.36-3.44h-.75c-.18.57-.3,1.12-.43,1.6M533.85,13.65h-2.23l-3.25,6.18-3.69-6.18h-3.51v.8h.63c.29,0,.56.16.71.41l3.63,5.92c.17.27.29.57.35.88v1.77c0,.5,0,1.12-.05,1.84.01.2-.02.39-.1.57-.07.07-.15.12-.25.14-.41.05-.82.08-1.23.08v.84h6.03v-.84c-.41,0-.82-.01-1.22-.07-.11-.03-.2-.08-.27-.17-.09-.21-.13-.44-.14-.67-.05-.59-.07-1.18-.06-1.77v-1.54c0-.24,0-.47.05-.71.04-.24.1-.47.2-.69.21-.4.74-1.29,1.6-2.65.77-1.24,1.64-3.02,2.13-3.21.21-.07.44-.1.66-.1v-.85ZM503.52,26.04c.19.06.39.09.59.08v.78h-3.54c-.05-.19-.12-.37-.22-.54l-1.97-3.34c-.42-.71-1.12-1.74-1.46-2.24-.12-.18-.32-.28-.53-.28h-.71v2.36c.06,1.34.06,2.04.06,2.22,0,.23.03.46.09.69.03.05.07.1.12.14.09.05.18.08.28.1.35.04.71.06,1.07.05v.84h-5.86v-.84c.42,0,.84-.02,1.25-.1.06-.01.12-.05.16-.1.05-.08.07-.17.08-.26.05-.37.09-.74.09-1.12l.07-2.76v-5.52c.02-.48-.02-.95-.11-1.42-.03-.06-.08-.12-.14-.15-.44-.13-.91-.19-1.37-.19v-.78h6.8c.74-.03,1.49.05,2.21.22.5.15.93.46,1.23.88.34.47.52,1.05.51,1.63,0,.76-.27,1.49-.74,2.08-.55.69-1.29,1.21-2.13,1.48.16.3.33.6.52.88.2.3.35.48.35.55l.1.18,1.42,2.2c.38.59.58.91.62.95.47.62.75,1,.86,1.11.08.09.18.17.29.22h0ZM498.15,19.6c.4-.21.73-.53.95-.93.26-.49.38-1.03.37-1.58.02-.51-.12-1.02-.4-1.44-.24-.37-.59-.65-1.01-.81-.45-.12-.92-.17-1.39-.14-.29,0-.58.03-.86.08-.02.22-.06.73-.06,1.53-.05,1.76-.05,2.92-.05,3.52h1.35c.37,0,.74-.05,1.09-.18v-.04ZM458.27,25c.58.55,1.26.99,2.01,1.29,1.1.42,2.27.63,3.44.61.77.02,1.55-.06,2.3-.23.83-.24,1.62-.64,2.31-1.17v-.76c-.58.31-1.2.55-1.83.72-.58.14-1.18.21-1.78.2-.82.02-1.64-.13-2.41-.43-.55-.26-1.04-.61-1.46-1.04-.51-.51-.91-1.13-1.17-1.8-.31-.81-.46-1.66-.45-2.53-.1-1.38.35-2.74,1.26-3.78.91-.91,2.16-1.4,3.44-1.35.67-.02,1.34.08,1.97.31.53.21,1,.54,1.4.95.05.41.08.94.09,1.6h.72l.41-3.06s-1.72-.55-2.37-.67c-.73-.13-1.46-.19-2.2-.19-2.04-.13-4.05.52-5.63,1.82-1.32,1.19-2.04,2.89-1.99,4.66,0,1.07.22,2.13.67,3.1.32.65.75,1.24,1.26,1.75"/>
    </g>
  </g>
</svg>