<?xml version="1.0" encoding="utf-8"?>
<!-- Generator: Adobe Illustrator 28.1.0, SVG Export Plug-In . SVG Version: 6.00 Build 0)  -->
<svg version="1.1" id="Layer_1" xmlns="http://www.w3.org/2000/svg" xmlns:xlink="http://www.w3.org/1999/xlink" x="0px" y="0px"
	 viewBox="0 0 1518.7 1326" style="enable-background:new 0 0 1518.7 1326;" xml:space="preserve">
<style type="text/css">
	.st0{fill:#B48C52;}
	.st1{fill-rule:evenodd;clip-rule:evenodd;fill:#B48C52;}
</style>
<path class="st0" d="M887.5,842.3c2.9,12-4.9,22.8-18.3,26.1c-13.7,3.3-24.4-2.8-28.2-16.3l10.3-2.5c2.1,7.3,8.1,11.1,15.2,9.3
	c7.6-1.9,11.7-7.8,10.1-14.5c-1.7-6.9-7.5-9.8-15.6-7.8l-6.8,1.7l-2.2-8.8l6.6-1.6c7.1-1.7,10.3-6.2,8.7-12.7
	c-1.5-6.1-6.4-8.8-13.2-7.1c-6.7,1.7-10.3,6.9-9.1,13.1l-10.2,2.5c-2.4-11.8,4.8-22,17.6-25.2c12.5-3.1,22.7,2.2,25.4,13.3
	c1.7,6.8,0,12.7-4.5,16.9C880.5,829.9,885.6,834.7,887.5,842.3"/>
<g>
	<path class="st0" d="M646.3,855.7c1.8-2.9,4.3-5.1,7.5-6.7c3.1-1.5,7.2-3,12-4.4c3.2-0.9,6.1-1.8,8.7-2.7c2.7-0.9,5-2,7.1-3.3
		s3.9-2.9,5.3-4.7c1.5-1.9,2.7-4.2,3.5-7.1c0.9-3.2,1.2-6.1,0.9-8.9s-1.2-5.3-2.5-7.5c-1.3-2.3-3.2-4.2-5.5-5.9
		c-2.3-1.7-5-2.9-8.2-3.8c-3.4-1-6.5-1.3-9.5-1c-3,0.3-5.7,1.1-8.2,2.5c-2.5,1.4-4.6,3.3-6.4,5.7c-1.8,2.4-3.2,5.3-4.2,8.7l10.4,3
		c1.1-3.8,3-6.5,5.7-8.1c2.8-1.6,5.8-2,9.3-1c3,0.8,5.2,2.5,6.8,4.9c1.6,2.4,1.8,5.5,0.7,9.3c-0.5,1.8-1.2,3.2-2.1,4.3
		c-0.9,1.1-2.1,2.1-3.7,2.9c-1.6,0.8-3.5,1.6-5.8,2.3s-5.1,1.5-8.3,2.4c-2.5,0.7-5,1.6-7.7,2.6c-2.6,1-5.1,2.4-7.4,4
		c-2.3,1.6-4.4,3.5-6.3,5.9c-1.9,2.3-3.3,5.1-4.2,8.3l-1.3,4.7l44.9,12.7l2.6-9.2L646.3,855.7L646.3,855.7z M743.2,880.5
		c4.4-1.5,8.4-3.8,11.8-6.8c3.4-3,6.2-6.6,8.2-10.8c2.1-4.2,3.3-8.9,3.7-14s-0.2-9.9-1.7-14.4c-1.5-4.5-3.7-8.4-6.6-11.8
		c-2.9-3.4-6.5-6.2-10.7-8.3c-4.2-2.1-8.8-3.3-13.9-3.7c-5.1-0.3-9.8,0.2-14.2,1.7s-8.3,3.8-11.7,6.7s-6.1,6.5-8.2,10.8
		c-2.1,4.2-3.3,8.9-3.7,14s0.2,9.9,1.7,14.4c1.5,4.5,3.7,8.4,6.6,11.8c3,3.4,6.5,6.2,10.7,8.3c4.1,2.1,8.8,3.3,13.8,3.7
		S738.8,882,743.2,880.5L743.2,880.5z M720.2,869.7c-2.9-1.5-5.3-3.5-7.3-5.9s-3.5-5.3-4.5-8.6c-1-3.3-1.4-6.8-1.1-10.5
		c0.3-3.7,1.1-7.1,2.6-10.1c1.5-3.1,3.3-5.6,5.7-7.8s5-3.7,8.1-4.8c3.1-1.1,6.3-1.5,9.8-1.3s6.7,1.1,9.5,2.6s5.3,3.5,7.3,5.9
		s3.5,5.2,4.6,8.5c1,3.2,1.4,6.7,1.1,10.4c-0.3,3.8-1.1,7.2-2.6,10.3c-1.5,3.1-3.3,5.7-5.7,7.8c-2.3,2.1-5,3.8-8.1,4.8
		c-3.1,1.1-6.3,1.5-9.8,1.3S723.1,871.2,720.2,869.7L720.2,869.7z M791.1,870.6c0.5-3.4,1.9-6.4,4.2-9.1c2.3-2.7,5.3-5.6,9.3-8.8
		c2.5-2.1,4.8-4.1,6.9-6c2.1-1.9,3.8-3.9,5.2-5.9c1.4-2,2.4-4.2,3-6.5s0.7-4.9,0.3-7.9c-0.5-3.3-1.4-6.1-2.8-8.5
		c-1.4-2.4-3.2-4.4-5.3-5.9s-4.6-2.6-7.4-3.2s-5.8-0.7-9.1-0.2c-3.5,0.5-6.5,1.4-9.2,2.9c-2.6,1.4-4.8,3.3-6.5,5.6s-2.9,4.9-3.6,7.8
		c-0.7,2.9-0.8,6.1-0.3,9.6l10.7-1.5c-0.5-3.9,0.1-7.1,2-9.7c1.9-2.6,4.5-4.2,8.1-4.6c3.1-0.4,5.8,0.2,8.2,1.7
		c2.4,1.6,3.9,4.3,4.4,8.3c0.2,1.8,0.2,3.4-0.2,4.8c-0.4,1.4-1.1,2.7-2.2,4.1c-1.1,1.4-2.5,2.9-4.4,4.4c-1.8,1.6-4,3.4-6.7,5.6
		c-2,1.7-4,3.5-5.9,5.5c-2,2-3.7,4.2-5.2,6.6s-2.6,5-3.4,7.9s-0.9,6-0.5,9.3l0.7,4.8l46.2-6.3l-1.3-9.5L791.1,870.6L791.1,870.6z"/>
	<g>
		<path class="st0" d="M929.3,1026.8c-9.6,77.6-69.7,179.9-126.2,213.6C767.1,1125.8,863.3,1061.1,929.3,1026.8z"/>
		<path class="st0" d="M589.4,1026.8c9.6,77.6,69.7,179.9,126.2,213.6C751.6,1125.8,655.4,1061.1,589.4,1026.8L589.4,1026.8z"/>
		<path class="st0" d="M819.8,1273c39.2,45.4,197.1,93.8,303.7-3.4C1056.5,1244.5,950.4,1197.6,819.8,1273z"/>
		<path class="st0" d="M698.9,1273c-39.2,45.4-197.1,93.8-303.7-3.4C462.2,1244.5,568.3,1197.6,698.9,1273z"/>
		<path class="st0" d="M1075.1,978.2c0,145.6-76.4,202.5-155.4,233.2C929.3,1114.2,958.5,1046.2,1075.1,978.2z"/>
		<path class="st0" d="M443.6,978.2c0,145.6,76.4,202.5,155.4,233.2C589.4,1114.2,560.2,1046.2,443.6,978.2L443.6,978.2z"/>
		<path class="st0" d="M1303.4,1155.2c-45.1,39.5-80,60.1-140.9,65.8c-45.8,5.3-92.2-3.2-133.1-24.3c59.6-29.4,94.8-48.3,181.2-48.3
			C1241.6,1148.7,1272.6,1150.9,1303.4,1155.2L1303.4,1155.2z"/>
		<path class="st0" d="M215.3,1155.2c45,39.5,80,60.1,140.9,65.8c45.8,5.3,92.1-3.2,133.1-24.3c-59.1-28.7-94.3-48.3-180.7-48.3
			C277.4,1148.6,246.2,1150.9,215.3,1155.2L215.3,1155.2z"/>
		<path class="st0" d="M1211.1,842.2c38.8,116.6,14.2,230.7-126.4,301.2C1124.5,1090.9,1094.5,987.8,1211.1,842.2L1211.1,842.2z"/>
		<path class="st0" d="M307.6,842.2c-38.8,116.6-14.2,230.7,126.4,301.2C394.2,1090.9,424.2,987.8,307.6,842.2L307.6,842.2z"/>
		<path class="st0" d="M1420.8,1009.9c-54,104.3-180.6,113.9-248.6,104.3C1201.3,1085,1308.3,987.8,1420.8,1009.9L1420.8,1009.9z"/>
		<path class="st0" d="M97.9,1009.9c54.3,104.3,180.6,113.9,248.6,104.3C317.4,1085,210.4,987.8,97.9,1009.9L97.9,1009.9z"/>
		<path class="st0" d="M1491.4,821.8c-18.1,118.1-115.1,166-217.3,176.3C1311,906.3,1393.3,834.1,1491.4,821.8z"/>
		<path class="st0" d="M27.3,821.8c18.1,118.1,115.1,166,217.3,176.3C207.7,906.3,125.4,834.1,27.3,821.8z"/>
		<path class="st0" d="M1308.3,677c38.8,67.5,3,193.9-30.2,240.6C1255.6,812.5,1261.2,722.5,1308.3,677z"/>
		<path class="st0" d="M210.4,677c-38.8,67.5-3,193.9,30.2,240.6C263.1,812.5,257.5,722.5,210.4,677L210.4,677z"/>
		<path class="st0" d="M1507.1,713.6c-22.6,75.8-119.8,120.2-176.2,140.4C1361.3,779.8,1428,726.7,1507.1,713.6z"/>
		<path class="st0" d="M11.6,713.6C34.2,789.4,131.4,833.8,187.8,854C157.4,779.8,90.7,726.7,11.6,713.6z"/>
		<path class="st0" d="M1518.7,589.7c-16.9,67.5-77.3,106-138.2,136.7C1407,664.6,1456.6,615.6,1518.7,589.7z"/>
		<path class="st0" d="M0,589.7c16.9,67.5,77.3,106,138.2,136.7C111.6,664.6,62.1,615.6,0,589.7z"/>
		<path class="st0" d="M1415.1,414.8c19.2,58.2,24.8,103.3,19.2,136c-9.8,58.2-33.8,92.1-77.6,130.8c-11.3-19.1-18-40.6-19.6-62.8
			C1337.3,531.4,1385.6,457.6,1415.1,414.8L1415.1,414.8z"/>
		<path class="st0" d="M103.6,414.8C84.4,473,78.8,518,84.4,550.8c9.8,58.2,32.9,92.1,77.6,130.8c11.3-19.1,18-40.6,19.6-62.8
			C181.4,531.4,133.1,457.6,103.6,414.8L103.6,414.8z"/>
	</g>
	<path class="st0" d="M759.3,766c-161.2,0-292.4-131.2-292.4-292.4s131.2-292.4,292.4-292.4s292.4,131.2,292.4,292.4
		S920.6,766,759.3,766z M759.3,192.6c-155,0-281,126.1-281,281s126.1,281,281,281s281-126.1,281-281S914.3,192.6,759.3,192.6z"/>
	<path class="st0" d="M759.3,947.2c-126.5,0-245.4-49.3-334.9-138.7C335,719.1,285.7,600.1,285.7,473.6S335,228.2,424.5,138.7
		C513.9,49.3,632.8,0,759.3,0s245.4,49.3,334.9,138.7c89.4,89.4,138.7,208.4,138.7,334.9s-49.3,245.4-138.7,334.9
		C1004.8,898,885.8,947.2,759.3,947.2L759.3,947.2z M759.3,19c-250.7,0-454.6,203.9-454.6,454.6s203.9,454.6,454.6,454.6
		S1214,724.3,1214,473.6S1010,19,759.3,19L759.3,19z"/>
	<path class="st0" d="M731.8,373.3h27.3L744.8,350l-26.5,42.1h-12.1l32.3-50.5c1.4-2,3.7-3.3,6.3-3.3s4.8,1.2,6.2,3.2l32.4,50.6
		h-12.1l-5.7-9.4h-27.7L731.8,373.3 M857.3,382.7v-43.9H847V387c0,1.3,0.5,2.6,1.5,3.5c1,1,2.3,1.6,3.7,1.6H899l6.1-9.4H857.3
		 M687.8,374.9c10,0,18-8.1,18-18s-8-18-18-18h-44.8v53.3h10.2v-43.9h33.9c4.8,0,8.6,3.8,8.6,8.6s-3.9,8.6-8.6,8.6l-28.9,0
		l30.6,26.6h14.9l-20.6-17.3L687.8,374.9 M579.9,392.1h31c14.7,0,26.6-11.9,26.6-26.6s-11.9-26.7-26.6-26.7h-31
		c-14.7,0-26.7,11.9-26.7,26.7S565.1,392.1,579.9,392.1 M610.1,382.7h-29.6c-9.5,0-17.2-7.7-17.2-17.2s7.7-17.2,17.2-17.2h29.6
		c9.6,0,17.3,7.7,17.3,17.2S619.7,382.7,610.1,382.7 M804.7,392.1h31.6l6-9.4h-36.9c-9.6,0-17.3-7.7-17.3-17.2s7.7-17.2,17.3-17.2
		h30l6.1-9.4h-36.8c-14.7,0-26.7,11.9-26.7,26.7S790,392.1,804.7,392.1 M930.1,382.7c-7.9,0-14.5-5.3-16.6-12.5h43.8l6-9.4h-49.8
		c2-7.3,8.7-12.5,16.6-12.5h30.1l6-9.4h-36.8c-14.7,0-26.6,11.9-26.6,26.7s11.9,26.6,26.6,26.6H961l6-9.4L930.1,382.7 M657.6,487.6
		h-4.2c-46.8,0-102.9,1-102.9,1.7s46.3,2.5,102.9,2.5l9.4,0l198.3,0l4.2,0c46.8,0,102.9-1,102.9-1.7s-46.3-2.5-102.9-2.5h-9.4
		L657.6,487.6L657.6,487.6z M586.7,514.1c0-5.4-3.8-8.6-10.1-8.7h-24.2v28.4h4.1v-10.3h19.6c3.5,0,5.7,1.8,5.7,4.7v5.6h4.2v-5.6
		c0-3-1.5-5.4-4.3-6.6C584.9,520.4,586.7,517.6,586.7,514.1L586.7,514.1z M576.7,519.7h-20.1v-10.6h20.1c5.5,0,5.9,4,5.9,5.3
		S582.2,519.7,576.7,519.7z M658.8,511c-2.1-4.2-4.5-6-8.2-6s-6.3,1.8-8.3,6l-10.8,22.1l-0.3,0.7h4.4l0.1-0.3l3.8-7.9h22l3.8,7.9
		l0.1,0.3h4.5l-0.3-0.7L658.8,511L658.8,511z M641.4,521.9l4.8-9.8c1.1-2.3,2.4-3.3,4.4-3.3s3.2,1,4.3,3.3l4.8,9.8H641.4
		L641.4,521.9z M713,519.6c0,9.6,4.2,14.1,13.1,14.2h22.2v-4h-22c-6.7,0-9.2-2.8-9.2-10.2s2.5-10.2,9.2-10.2h22v-4h-22.2
		C717,505.5,713,509.9,713,519.6z M794.8,533.8h4.1v-28.4h-4.1V533.8z M879.5,529.7c-3.9,0-4.8-1.3-12-10.8l-0.3-0.4
		c-7.7-10.2-9.7-13-16.4-13.1h-3.4v28.4h4v-24.3c3.7,0,4.6,1.2,11.6,10.3l0.9,1.1c7.7,10.1,9.8,12.8,16.2,12.8h3.4v-28.4h-4.1
		L879.5,529.7L879.5,529.7z M962.2,519.1v10.6h-18c-6.7,0-9.2-2.8-9.2-10.2s2.5-10.1,9.2-10.1H966v-4h-22.1
		c-9,0.1-13.1,4.6-13.1,14.1s4.2,14.1,13.1,14.2h22.4v-14.6L962.2,519.1L962.2,519.1z M959.4,458.8c-0.7-0.9-2.2-1.4-2.2-2.6
		c-0.3-0.5-0.3-1.3-0.6-1.9c-0.2-0.5-0.4-1.3-1.1-1.4c-1.3-0.2-2.8,0.1-3.6-1c-0.8-0.9,0.1-1.9,0.2-2.8c0.3-1.1,0.4-2.5,0.2-3.6
		c0-0.6-0.5-1.2-0.4-1.8c0.3-0.5,1-0.1,1.5-0.1c1.7,0.5,3.6,0.2,5.1-0.4c2.1-1,3.7-3.1,3.6-5.5c-0.3-3.1-2.5-5.6-4.9-7.6
		c-0.4-0.4-1-0.8-1.2-1.4c0-1.2,1.3-0.6,2-0.9c0.8-0.2,1.7-0.4,2.3-0.9c1.8-1.2,2.2-3.3,1.8-5.4c-0.1-0.2-0.1-0.4-0.3-0.4
		c-0.3,0.3-0.6,0.6-1.1,0.9c-1.2,0.7-2.7,0.6-3.9,1.1c-1.5,0.6-3.3,1.6-4,3.3c-0.2,0.9,0,1.7,0.4,2.4c1.8,2.9,5.7,4.8,6.3,8.2
		c0.2,1.4-0.5,2.4-1.6,3.2c-1.7,1-4.1,0.6-5.8-0.2c-3.2-1.6-5.9-4.2-9.4-5.3c-2.2-1-4.8-0.7-6.7-2.2c-1.4-0.9-2.8-2.2-4.4-2.6
		c-1.1-0.4-2.4-0.3-3.4-0.9c-1.1-0.9-2.2-1.8-3.4-2.4c-1.7-0.9-3.6-1.3-5.5-1.7c-1.1-0.3-1.5-1.5-2.4-2.1c-1.6-1.2-3.3-2.1-5.4-2
		c-0.7,0-1.3,0.5-1.9,1c-6.1-9.3-16.6-15.5-28.6-15.5s-22.3,6-28.4,15.2c-1.4-0.3-3-0.2-4.3,0.3c-1.5,0.8-2.9,1.9-4.4,2.5
		c-2.3,1-4.9,1.2-6.9,3c-1.2,1-2.1,2.6-3.8,2.3c-1.9-0.1-3.6,0.6-5.1,1.8c-1.3,1.2-2.5,2.6-4.2,2.9c-1.5,0.6-3.3,0.3-4.8,0.9
		c-2.4,0.6-4.3,2.5-6.3,3.9c-2,1.2-4,2.4-6.5,2.4c-1.7-0.1-3.2-1.3-3.8-2.9c-0.5-1.8,0.1-3.7,1.5-4.9c1.5-1.8,3.9-2.9,5.1-4.9
		c0.6-1.1,0.5-2.9-0.3-3.9c-1.6-1.6-3.8-1.7-5.8-2.2c-1.3-0.4-2.3-1.4-3.4-2c-0.4,0.7-0.6,1.4-0.5,2.2c0.2,1.9,1.7,3.5,3.4,4.2
		c1,0.4,2.2,0.1,3.3,0.4c0.3,0.1,0.6,0.4,0.6,0.7c-0.1,0.3-0.1,0.6-0.4,0.8c-1.7,1.4-3.4,2.7-4.8,4.4c-1.5,1.6-1.7,4.4-0.9,6.4
		c0.8,2.3,3.2,3.8,5.5,4.1c1.7,0.3,3.2-0.2,4.7-0.5c0.2,0,0.3,0.2,0.4,0.3c0.2,1.4-0.1,2.6,0.2,3.8c0.3,1.1,0.7,1.9,1.1,3.1
		c0.1,0.4,0,0.8-0.3,1.1c-0.9,0.6-1.7,1.1-2.7,1.5l-2.3,0.1l-0.4,0.2c-0.8,1-0.9,2-1.4,3.1c-0.7,1.2-2,1.7-3.1,2.4
		c-0.3,0.6-0.7,1.1-1.2,1.6c-0.4,0.4-0.9,0.4-1.4,0.5c-0.8,0.9-1,2.2-1.2,3.4l0.1,0.1c1.3,0.1,2.7,0.8,3.9,0.1
		c1.1-0.5,1.3-1.8,2.2-2.6c0.7-0.7,1.6-0.2,2.4,0c1.2,0.1,2-0.8,2.9-1.1c0.7-0.4,1.2-1.2,2-1.6c1.3-0.6,3.2-0.3,4.7,0
		c1.1,0.3,2.3,0.1,3.3-0.3c0.9-0.6,1.8-1.3,2.8-1.5c0.9-0.5,1.3-1.5,1.7-2.4c0.3-0.8,1.1-1.4,1-2.3c-0.2-0.2-0.5-0.6-0.8-0.6
		c-0.4,0.6-0.8,1.3-1.3,1.9c-2,2.6-5,3.2-8.1,3.2c-3.2-0.1-6.1,0.9-8.3,3.4c-0.1,0.1-0.4,0-0.5-0.1c-0.1-0.4,0.2-0.6,0.4-0.8
		c2-2.8,5-3.4,8.3-3.5c1.8-0.1,3.4-0.4,4.9-1.2c1.7-0.9,2.8-2.6,3.5-4.2c0.4-1.9,0.5-3.9,1-5.6c0.1-0.2,0.3-0.3,0.4-0.2
		c0.2,0,0.4,0.1,0.4,0.4c-0.3,1.8-0.5,4,0.2,5.7c1.4,1.9,4,0.6,5.9,0.5c2-0.2,3.7,0.6,5.7,0.7c0.9,0,2,0.2,2.8-0.3
		c0.2-0.3,0-0.7-0.1-1.1c-0.1-0.5-0.4-1.3,0.1-1.7c0.2-0.1,0.4,0,0.5,0.1c0.3,0.7,0.4,1.5,0.9,2.2c0.9,1.2,2.3,2.1,3.6,2.8
		c1.2,0.9,2.3,2.1,2.4,3.6c0,0.8-0.7,1.3-1.3,1.6c-1,0.5-2.1,0.9-3.3,0.8c-1.6-0.8-2-2.4-3-3.6c-0.5-0.6-1.3-0.7-2.1-0.6
		c-0.8,0.1-1.7,0.1-2.5,0.4c-0.2,0.2-0.3,0.4-0.2,0.7c0.5,1,1.1,1.9,1.7,2.9c0.7,0.4,1.6-0.2,2.2,0.5c0.5,0.8,0.8,1.7,1.6,2.3
		c0.7,0.6,1.9,1,2.8,0.5c2.2-0.7,4.3-1.4,6.4-2.5h0.7c0.8-0.1,1.7,0,2.3-0.6c0.2-0.3,0.3-0.5,0.5-0.8c6.1,9.2,16.5,15.3,28.4,15.3
		s22.2-6,28.4-15.2c0.1,0.3,0.2,0.5,0.3,0.8c0.6,0.6,1.3,0,2,0.2c0.7,0.2,1,1,1.7,1.2c1.6,0.5,3.3,0.8,4.9,1.4
		c0.8,0.3,2,0.6,2.7-0.1c1-0.6,1.3-1.7,1.5-2.7c0.3-0.4,1-0.3,1.4-0.4c0.9-0.6,1.2-1.6,1.8-2.5l0.1-0.4c-0.1-0.3-0.3-0.4-0.5-0.5h-3
		c-1.4,0.2-1.5,1.7-2.1,2.6c-0.3,0.6-1,0.8-1.7,0.8c-1.4-0.4-3.2-0.6-3.8-2.1c-0.1-0.4-0.1-0.9,0.2-1.1c0.7-0.9,1.6-1.8,2.5-2.5
		c1.3-0.3,2.6-1.2,3.2-2.4c0.4-0.5,0.3-1.2,0.9-1.6c0.2,0,0.4,0,0.5,0.2c0.3,0.9-0.2,1.6-0.5,2.4c3.2,0.3,5.9-0.9,9-0.8
		c1.3,0,2.5,0.3,3.8,0.2c1.3-0.1,2.7-0.6,3.1-2c0.6-1.7,0.2-3.7-0.2-5.4l0.2-0.3c0.2-0.1,0.4,0,0.5,0.1c0.5,1.6,0.9,3.5,1.2,5.1
		c0.2,1.5,0.9,2.9,1.7,4.1c1.5,2.2,4.2,3.1,6.8,2.6c3.2-0.2,5.9,1.1,7.9,3.5v0.1c-0.1,0.1-0.2,0.3-0.3,0.2c-1.7-1.3-3.4-2.7-5.5-3
		c-2.3-0.4-4.3,0.7-6.4-0.2c-2.3-0.8-4.1-3.1-5-5.3h-0.2c-0.2,0-0.3,0.2-0.3,0.4l0.3,1.8c0.3,1.5,0.8,3.2,2.4,3.9
		c1.2,0.7,2.4,1.8,4,1.4c2.7-0.6,5.4,0.2,7.4,1.7c0.7,0.4,1.2,1.1,2,1.3c0.8,0.3,1.8,0.1,2.4-0.4c1.5-0.5,1.8,1.4,2.9,2.1
		c0.9,0.9,2.5,0.5,3.7,0.5l0.2-0.1c-0.2-1.2-0.5-2.1-0.9-3.2C961,461.4,960.3,459.7,959.4,458.8L959.4,458.8z M912.4,428.2
		c0.2,0.4,0,0.7-0.2,1c-1.2,1.1-2.7,2.3-3.6,3.7c-0.3,0.4-0.6,0.9-0.8,1.4l-0.2,0.1c-0.2-0.7,0.1-1.4,0.2-2.1c0.6-1.6,2-3.2,3.4-4.2
		C911.6,427.8,912.2,427.7,912.4,428.2L912.4,428.2z M852.2,430.5c0.2-0.2,0.5-0.2,0.7-0.1c0.5,0.3,0.8,0.8,1,1.3
		c0.6,1.3,0.6,3,0.2,4.4l-0.2,0c-0.2-1.2-0.5-2.5-1-3.6C852.7,431.8,851.8,431.3,852.2,430.5L852.2,430.5z M914.6,451.6l-1.8,2.6
		c-0.4,0.6-0.8,1.2-1,1.9c-0.1,0.7-0.1,1.5,0,2.1l-0.3-0.2c-0.5-1-1-2.2-0.5-3.4l2.3-3.5l0.1-0.3c-0.5-0.3-1.1-0.5-1.6-0.6
		c-0.3,0.1-0.4,0.4-0.6,0.6l-2.2,4c-0.1,0.5-0.3,0.8-0.2,1.3c0.1,0.4,0.2,0.8,0.3,1.2c-5.8,9.3-16.1,15.5-27.8,15.5
		s-21.8-6.1-27.6-15.2c0.1-0.2,0.2-0.4,0.4-0.7c0.5-0.7,0.3-1.7,0.1-2.4c-1-1.2-1.6-2.6-2.1-4c-0.5-0.1-0.9-0.4-1.5-0.4
		c-0.3,0.1-0.7,0.1-0.8,0.4l2.3,4.6c0.2,0.4,0.3,0.9,0.2,1.3c-0.3,1-0.8,1.9-1.6,2.6c-0.1,0.1-0.3,0.2-0.4,0c0.3-1,0.7-2.1,0.7-3.2
		l-2.3-4.1c-0.3-0.6-0.7-1.1-0.7-1.7c0-0.3,0.3-0.5,0.5-0.6c1-0.3,2.2-0.3,3-1.1c1-1.6,1.6-3.1,1.9-4.9c0-0.1,0.1-0.3,0.3-0.3
		c0.2-0.1,0.2,0.1,0.3,0.2c0.3,2-0.1,4.1-1.3,5.7c-0.1,0.2-0.1,0.5,0.1,0.6c1.1,0.4,2.3,0,3.2-0.5c1.2,0,2.3-0.3,3.4-0.5l0.2,0.3
		c-0.7,0.8-1.2,1.7-1.3,2.8c-0.9,0.9-2.2,1.7-2.2,3c0.2,0.6,0.7,0,1.1,0.1c0.2,0,0.3,0.2,0.3,0.4l-0.9,1.3c-0.5,0.8,0.1,1.6,0.1,2.4
		c0.2,0.6,0.9,0.9,1.5,0.9c1.3,0,2.5-0.6,3.7-1c1.3-0.5,2.9-0.5,4.3-0.3c1.4-0.1,2.4-1,3.5-1.9c0.6,0,1.1,0.4,1.4,0.8
		c1.6,1.7,3.7,2.5,6,2.4l0.2-0.1c0.2-0.1,0.1-0.4-0.1-0.5l-1.4-0.7c-1-0.6-2.2-1.4-2.5-2.5c-0.3-1-0.8-2-1.4-3
		c-0.2-0.5-0.7-0.9-0.9-1.3l0.2-0.1c1.5,0.5,2.4,2,3.2,3.4c1.1,1.6,2.7,2.9,4.9,2.5l0.2-0.1V457l-1.1-0.5c-1.8-1-2.5-3-3.6-4.5
		c-0.4-0.6-1-0.9-1.4-1.5c-1.3-3.4-2.4-6.9-2.7-10.8c-0.3-1-0.5-2-1-2.9c-1.6-2.6-3.7-4.9-5.7-7.3c-0.2-0.2-0.5-0.3-0.6-0.6l-7-5.8
		c-0.6-0.5-1.3-0.8-2-1.1c5.9-8.6,15.8-14.3,27-14.3s21.7,6,27.5,15c-4.3,3.6-9.1,6.3-13,10.5c-2.8,2.9-3.5,6.5-4.5,10
		c-1.5,5.3-2.1,11.1-7.4,14.4c-0.1,0.1-0.1,0.4,0.1,0.5c1.4,0.3,2.8-0.2,3.7-1.2c0.9-1.4,1.9-2.8,3.1-4.2l0.3-0.1
		c0.2,0,0.3,0.1,0.3,0.3c-0.4,1.2-1.4,2-1.8,3.2c-0.5,1.4-1.8,2.5-3,3.5l0,0.2c0,0.1,0.2,0.3,0.3,0.3c2.6,0.1,4.5-1.7,6.2-3.5
		c0.2-0.2,0.4-0.1,0.7-0.1c0.8,0.6,1.5,1.5,2.5,1.7c1.1-0.1,2.2-0.3,3.3-0.2c1.6,0.5,3.1,1.1,4.6,1.6c0.8,0,1.4-0.8,1.8-1.4
		c0.3-0.8-0.2-1.5-0.1-2.3c0.4-0.2,0.8,0.1,1.2-0.1c0.2-0.1,0.3-0.3,0.3-0.5c-0.3-1.4-1.5-2.4-1.9-3.6c-0.6-1.6-2.5-2.6-2.9-4.3
		c0.1-0.1,0.2-0.3,0.4-0.2c1.3,0.9,2.4,2.1,3.9,2.4c1.2,0.1,2.4,0.2,3.6,0.1c0.2-0.1,0.3-0.3,0.3-0.5c-0.5-1.1-1-2.1-1.3-3.3
		c-0.4-1.4-0.7-3.4-0.2-5c0.1-0.1,0.2-0.3,0.4-0.3c0.2,0.1,0.4,0.3,0.4,0.5c0.2,2.5,0.3,4.8,1.8,6.8c0.7,1,1.8,1.2,2.6,2
		C914.8,450.4,914.9,451.1,914.6,451.6L914.6,451.6z M865.3,453.5c0.2,0,0.6,0,0.6,0.3c0,0.6,0,1.2-0.4,1.6
		c-0.6,0.2-1.2,0.2-1.8,0.2c-0.1-0.1-0.3-0.1-0.3-0.3C863.7,454.5,864.5,453.7,865.3,453.5L865.3,453.5z M864.8,443.4
		c0.5-0.5,0.4-2,1.5-1.5c0.8,0.4,0.9,1.2,1.5,1.8c1,1.1,1.6,2.3,1.3,3.8c-0.1,0.3-0.1,0.7-0.5,0.8c-0.2,0.1-0.3-0.1-0.3-0.2
		c-0.1-0.8-0.1-1.6-0.5-2.3c-0.5-0.6-1.1-1.5-1.9-1.5c-0.6,0.2-1,0.9-1.4,1.3l-0.2,0C863.9,444.8,864.5,444.1,864.8,443.4
		L864.8,443.4z M898.6,444.8c-0.6,0-0.9,0.4-1.3,0.7c-0.8,0.7-1.8,1.4-2,2.4c-0.1,0.4-0.1,0.9-0.4,1.1c-0.2,0.1-0.4-0.1-0.4-0.3
		c-0.1-1.4,0.3-2.6,1.3-3.6c1-0.8,1.7-1.9,2.4-2.8c0.4-0.1,0.8,0.2,0.9,0.6c0.5,0.7,0.9,1.4,1.2,2.2c0.1,0.2,0,0.4-0.1,0.5
		c-0.1,0.1-0.3,0.4-0.5,0.2C899.2,445.7,899.3,444.8,898.6,444.8L898.6,444.8z M899.7,455.6c-0.4,0.3-1,0.1-1.4,0.1
		c-0.5-0.3-0.7-0.9-0.7-1.5c0-0.1,0-0.3,0.2-0.4c0.6,0,1.2,0.1,1.7,0.6C899.6,454.8,899.9,455.2,899.7,455.6L899.7,455.6z
		 M840.8,455.6l0.3-0.2c0.9,0,1.9,0,2.8-0.2c0.9,0,0.7,1.1,1.1,1.7c0,0.4,0.6,0.8,0.2,1.1c-0.7,0.5-1.5,0.9-2.3,0.7
		c-0.7-0.5-0.7-1.5-1.2-2.1C841.5,456.1,840.7,456.1,840.8,455.6L840.8,455.6z M919.9,455.8c0.2,0,0.5,0,0.5,0.3
		c-0.1,0.8-0.4,1.6-0.7,2.4c-0.3,0.5-1,0.4-1.5,0.3c-0.5-0.2-1.3-0.3-1.4-1c-0.1-0.7,0.2-1.4,0.6-1.9
		C918.2,455.7,919.2,455.9,919.9,455.8L919.9,455.8z M798.4,458.9c0.1-0.3-0.1-0.8,0.2-1c0.7-0.4,1.4-0.9,2-1.4c0.2,0,0.5-0.2,0.7,0
		c0.3,0.2,0.6,0.5,0.7,0.8c-0.5,0.9-1.1,1.9-2,2.4c-0.3,0.1-0.8,0.1-1.1-0.1C798.8,459.4,798.5,459.2,798.4,458.9L798.4,458.9z
		 M963.9,458.5c0.1,0.4-0.1,0.7-0.3,1c-0.3,0.2-0.6,0.4-1,0.4c-0.4,0-0.8-0.3-1-0.6c-0.5-0.6-1-1.2-1.2-2c0.3-0.4,0.9-1.2,1.5-0.7
		C962.5,457.3,963.3,457.7,963.9,458.5L963.9,458.5z M798.3,460.9v0.3c-0.4,1-0.7,2.3-1,3.4l-0.1,0.1c-0.7-0.1-1.3-0.4-1.9-0.6
		c-0.2-0.2,0-0.4,0-0.6c0.7-0.7,0.5-1.6,0.7-2.5c0.1-0.5,0.6-1,1.1-1.2C797.6,459.9,797.9,460.4,798.3,460.9L798.3,460.9z
		 M966.9,464.2l-1.9,0.6c-0.3,0-0.2-0.4-0.3-0.6c-0.2-1.1-0.4-1.9-0.8-2.9c-0.1-0.6,0.5-1,0.9-1.4c0.5-0.1,0.9,0.3,1.2,0.6
		c0.5,0.6,0.3,1.6,0.4,2.2C966.7,463.3,967.3,463.7,966.9,464.2L966.9,464.2z M575.3,445.5l14.2,20.3h-12.2l-10.3-15.9v-11.6l2.4,0
		c3.8,0,6.9-2.9,6.9-6.4s-2.9-6.4-6.7-6.4l-6.2,0v40.2h-10.3v-48.5h17c0.2,0,1.4,0,1.6,0c8.1,0,14.6,6.4,14.6,14.3
		C586.4,438.3,581.7,444,575.3,445.5L575.3,445.5z M648.6,414.5h9.7v51.4h-9.6V462c-2.6,2.6-6,4.2-9.8,4.2c-8,0-14.5-7.1-14.5-15.9
		s6.5-15.9,14.5-15.9c3.7,0,7.2,1.5,9.7,4.1L648.6,414.5L648.6,414.5z M648.7,450.6c0-4.3-3.2-7.8-7.1-7.8s-7.1,3.5-7.1,7.8
		s3.2,7.8,7.1,7.8S648.7,454.9,648.7,450.6z M619.8,450.7c0,0.7,0,1.4-0.1,2h-21.4c0,0.2,0.1,0.1,0.1,0.3c0,3.3,3,6,6.6,6
		c2.7,0,5.1-1.5,6.1-3.7l7.9,3.6c-2.7,4.8-8,7.8-14.7,7.8c-8.8,0-16-7.3-16-16.2s7.2-16.2,16-16.2S619.9,440.2,619.8,450.7z
		 M610.1,447.1c0-3.3-2.7-5.9-5.9-5.9s-5.9,2.6-5.9,5.9H610.1L610.1,447.1z M746.7,465.9h9.7v-51h-9.7V465.9z M731.8,453.6
		c0,2.9-2.5,5.3-5.5,5.3s-5.5-2.4-5.5-5.3v-17.5h-9.6v19.3c0,6.5,6.8,11.9,15.1,11.9s15.1-5.3,15.1-11.9v-19.3h-9.6L731.8,453.6
		L731.8,453.6z M763.1,414.8v51h9.7v-51H763.1z M707.7,451.9c0,7.6-6.6,13.8-14.8,14h-21.4v-48.3h16.6c5.5,0,9.6,1.1,11.9,3.7
		c2.2,2.4,3.5,5.4,3.5,8.7c0,3.6-1.6,7-4.3,9.4C705.8,442.4,707.7,446.3,707.7,451.9L707.7,451.9z M697.2,451.1c0-3.4-2.6-6.2-6-6.2
		H685v-8.7h3.4c2.8,0,5.1-2.3,5.1-5.1s-2.3-5.1-5.1-5.1h-6.5v31.5h9.3C694.9,457.1,697.1,454.7,697.2,451.1L697.2,451.1z"/>
	<g>
		<path class="st0" d="M504.5,743c-18,15.2-42.1,12.6-57.9-6.1c-14.7-17.4-15-39.5-0.4-53.8l15.1,17.8c-5.2,7-4.9,15.8,1,22.8
			c7,8.3,18.1,9,27,1.5c9-7.6,10.2-18.7,3.2-26.9c-5.9-7-14.5-8.8-22.3-4.8l-15.1-17.9c16.6-11.9,38.3-8,53,9.4
			C524,703.8,522.4,727.9,504.5,743L504.5,743z"/>
		<path class="st0" d="M444.2,669.6c-21.2,10.1-43.9,1.2-54.5-21.2c-10.6-22.3-3-45.6,18.1-55.6c21.2-10.1,44-1.3,54.6,21.1
			C473,636.4,465.4,659.6,444.2,669.6L444.2,669.6z M417.8,613.9c-10.3,4.9-14.4,15.6-9.6,25.7c4.8,10.2,15.7,13.8,26,8.9
			c10.4-4.9,14.5-15.7,9.6-25.8C439.1,612.6,428.2,609,417.8,613.9L417.8,613.9z"/>
		<path class="st0" d="M353.1,519.8l76-15l4.5,22.6l-37,29.5l41.2-8.1l4.1,20.9l-76,15l-4.5-22.7l36.9-29.3l-41.1,8.1L353.1,519.8
			L353.1,519.8z"/>
		<path class="st0" d="M403.5,498.8l0.3-21.3c6.2,0,9.4-3.1,9.5-8.7c0.1-4.7-2.2-8-5.7-8c-3.1,0-4.7,1.6-6.7,6.7l-3.2,8.7
			c-4.9,13.5-13,19.9-24.6,19.8c-13.9-0.2-23.1-11.9-22.8-28.7s9.3-26.7,25.3-27.6l-0.3,20.8c-4.8,0.1-7.5,2.6-7.6,7
			c-0.1,3.9,2.1,6.6,5.2,6.6c3.1,0,5.1-1.8,6.9-6.6l3.6-9.1c5.5-14.4,11.8-20,23.2-19.8c15.3,0.2,24.6,11.7,24.3,29.7
			C430.6,487.1,420.4,498.6,403.5,498.8L403.5,498.8z"/>
		<path class="st0" d="M377,408.6l-3.6,18.4l-19.8-3.9l12-60.2l19.8,3.9l-3.9,19.9l56.2,11.2l-4.4,21.9L377,408.6L377,408.6z"/>
		<path class="st0" d="M372.1,342l11.2-26.9c7.1-17,20.7-23.5,36-17.1c9,3.8,14.3,10.3,15.4,18.7l33.7-4.2l-9.9,23.7l-28.3,2.6
			l-1.2,2.8l23.1,9.7l-8.7,20.7L372.1,342L372.1,342z M415.5,329.1c2-4.7,0.2-9-4.6-11c-4.7-2-8.9-0.1-10.9,4.5l-2.5,5.8l15.5,6.5
			L415.5,329.1L415.5,329.1z"/>
		<path class="st0" d="M445.1,291.4l-37.9-26.7l12.9-18.4l37.8,26.7c5.9,4.2,11.8,3.5,15.5-1.9c4-5.6,2.8-11.3-3.3-15.5l-37.8-26.7
			l12.9-18.3l37.9,26.7c16.2,11.4,19.1,29.5,7.5,46C479.3,299.5,461.1,302.7,445.1,291.4L445.1,291.4z"/>
		<path class="st0" d="M486.2,221.3c-15.4-17.7-13.2-41.9,5.3-57.9c17.2-14.9,39.2-15.5,53.7-1.2l-17.6,15.3
			c-7.1-5.1-15.9-4.6-22.8,1.4c-8.2,7.1-8.7,18.2-1.1,27c7.7,8.9,18.8,9.9,27,2.8c6.9-6,8.6-14.6,4.5-22.4l17.6-15.3
			c12.2,16.4,8.6,38.1-8.6,53.1C525.7,240.1,501.6,238.9,486.2,221.3z"/>
		<path class="st0" d="M564.3,137.3l-16.5,9l-9.6-17.7l53.9-29.3l9.6,17.7l-17.8,9.7l27.4,50.4l-19.6,10.7L564.3,137.3L564.3,137.3z
			"/>
		<path class="st0" d="M617.5,129c-6.4-22.6,6-43.5,29.9-50.3c23.8-6.8,45.4,4.5,51.9,26.9c6.5,22.6-6,43.6-29.8,50.4
			C645.6,162.9,623.9,151.6,617.5,129L617.5,129z M676.8,112.1c-3.1-10.9-13-16.7-23.8-13.7c-10.8,3.1-16.2,13.2-13.1,24.2
			c3.2,11.1,13.1,16.9,23.9,13.8C674.6,133.3,680,123.1,676.8,112.1L676.8,112.1z"/>
		<path class="st0" d="M713.1,66.1l29.1-1.3c18.4-0.8,30.1,8.7,30.8,25.3c0.4,9.8-3.3,17.3-10.3,21.9l18.2,28.7l-25.6,1.1
			l-14.4-24.5l-3,0.1l1.1,25.1l-22.4,1L713.1,66.1L713.1,66.1z M743.3,99.9c5.1-0.2,8.2-3.7,8-8.9c-0.2-5.1-3.7-8.1-8.8-7.9
			l-6.3,0.3l0.7,16.8C736.9,100.2,743.3,99.9,743.3,99.9z"/>
		<path class="st0" d="M784.1,116.2l21.1,3.2c-0.8,6.2,1.8,9.7,7.4,10.5c4.7,0.7,8.2-1.1,8.7-4.6c0.5-3.1-1-4.9-5.7-7.5l-8.2-4.4
			c-12.7-6.7-18-15.6-16.3-27c2.1-13.8,14.9-21.3,31.5-18.7c16.6,2.5,25.2,12.8,23.9,28.8l-20.6-3.1c0.5-4.8-1.6-7.8-5.9-8.5
			c-3.9-0.6-6.8,1.2-7.3,4.2c-0.5,3.1,1.1,5.3,5.6,7.7l8.6,4.8c13.5,7.4,18.2,14.4,16.5,25.7c-2.3,15.1-14.9,22.8-32.7,20
			C792.1,144.5,782.1,132.9,784.1,116.2L784.1,116.2z"/>
		<path class="st0" d="M868.2,78.9l23,7l-17.2,31.7l-16.4-5L868.2,78.9L868.2,78.9z"/>
		<path class="st0" d="M921.1,137.4c12.5-19.9,36.2-24.8,57-11.8c19.3,12.1,26.3,33,16.7,51.1L975,164.3c2.9-8.2-0.2-16.6-7.9-21.4
			c-9.2-5.7-20-3-26.2,6.8c-6.2,9.9-4,20.9,5.2,26.6c7.7,4.8,16.5,4,22.7-2.2l19.8,12.4c-12.2,16.4-34,19.3-53.3,7.2
			C914.5,180.6,908.7,157.2,921.1,137.4L921.1,137.4z"/>
		<path class="st0" d="M1031,165.4l15.5,16.1l-19.9,19.2l14.8,15.3l19.9-19.2l15.5,16.1l-55.7,53.8l-15.5-16.1l21.4-20.6l-14.8-15.3
			l-21.4,20.6l-15.5-16.1L1031,165.4L1031,165.4z"/>
		<path class="st0" d="M1062,306.3l-12.4-20.7l-13.7,3.3l-12.1-20.1l80.7-16l12.3,20.4l-52.1,63.7l-12.1-20.1L1062,306.3L1062,306.3
			z M1091.6,274.5l-25.6,6.9l7.5,12.5L1091.6,274.5L1091.6,274.5z"/>
		<path class="st0" d="M1164.6,400.7l-74.4,21.5l-5.8-20.1l44.3-12.8l-48.1-0.4l-4.8-16.5l40.6-25.9l-44.3,12.8l-5.8-20.1l74.4-21.5
			l8.1,27.9l-43.1,27.2l50.8-0.2L1164.6,400.7L1164.6,400.7z"/>
		<path class="st0" d="M1167.2,429.9l1.1,29.1c0.7,18.4-8.8,30.1-25.4,30.7c-16.1,0.6-26.2-10-26.9-28.7l-0.3-6.7l-25.1,1l-0.9-22.4
			L1167.2,429.9L1167.2,429.9z M1133.3,459.9c0.2,5.1,3.7,8.3,8.8,8.1c5.1-0.2,8.2-3.7,7.9-8.7l-0.2-6.3l-16.8,0.7L1133.3,459.9
			L1133.3,459.9z"/>
		<path class="st0" d="M1167.4,506.6l-2.4,22.3l-77-8.4l2.4-22.3L1167.4,506.6L1167.4,506.6z"/>
		<path class="st0" d="M1126.5,539.3c22.5,6.8,33.3,28.6,26.1,52.4c-7.2,23.7-28.4,35.8-50.8,29c-22.5-6.8-33.4-28.6-26.2-52.3
			C1082.8,544.6,1104,532.5,1126.5,539.3L1126.5,539.3z M1108.6,598.3c10.9,3.3,21.1-1.9,24.4-12.6c3.3-10.8-2.3-20.8-13.3-24.1
			c-11-3.3-21.2,1.9-24.5,12.7C1091.9,585,1097.6,595,1108.6,598.3L1108.6,598.3z"/>
		<path class="st0" d="M1093.4,711.4l-66.4-39.9l11.9-19.7l47.2,3l-36-21.6l11-18.2l66.4,39.9l-11.9,19.8l-47-3l35.9,21.6
			L1093.4,711.4L1093.4,711.4z"/>
		<path class="st0" d="M1041.8,693.1l-14.5,15.6c-4.6-4.2-9-4-12.9,0.1c-3.2,3.5-3.7,7.4-1.1,9.8c2.3,2.1,4.6,2,9.4-0.5l8.2-4.3
			c12.7-6.7,23-6.1,31.5,1.8c10.2,9.5,9.2,24.3-2.2,36.6c-11.4,12.3-24.8,13.6-37.2,3.6l14.2-15.3c3.7,3.1,7.4,3.1,10.3-0.1
			c2.7-2.9,2.9-6.3,0.6-8.4c-2.3-2.1-5-2.1-9.5,0.3l-8.8,4.4c-13.8,7-22.1,6.9-30.5-0.8c-11.2-10.4-10.5-25.1,1.9-38.3
			C1013.9,683.7,1029.1,682,1041.8,693.1L1041.8,693.1z"/>
	</g>
</g>
<g>
	<path class="st1" d="M723.2,654.9c-0.6,0-1.1,0.4-1.3,1l-7,21.1h-22.5c-0.8,0-1.4,0.6-1.4,1.4c0,0.4,0.2,0.9,0.6,1.1l18.3,13.4
		l-7,21.8c-0.2,0.7,0.2,1.5,0.9,1.8c0.4,0.1,0.9,0.1,1.3-0.2l18.3-13.4l18.3,13.4c0.6,0.5,1.5,0.3,2-0.3c0.3-0.4,0.3-0.8,0.2-1.3
		l-7-21.8l18.3-13.4c0.6-0.5,0.8-1.3,0.3-2c-0.3-0.4-0.7-0.6-1.1-0.6h-22.5l-7-21.1C724.5,655.2,723.9,654.8,723.2,654.9
		L723.2,654.9z"/>
	<path class="st1" d="M795.3,654.9c-0.6,0-1.1,0.4-1.3,1l-7,21.1h-22.5c-0.8,0-1.4,0.6-1.4,1.4c0,0.4,0.2,0.9,0.6,1.1l18.3,13.4
		l-7,21.8c-0.2,0.7,0.2,1.5,0.9,1.8c0.4,0.1,0.9,0.1,1.3-0.2l18.3-13.4l18.3,13.4c0.6,0.5,1.5,0.3,2-0.3c0.3-0.4,0.3-0.8,0.2-1.3
		l-7-21.8l18.3-13.4c0.6-0.5,0.8-1.3,0.3-2c-0.3-0.4-0.7-0.6-1.1-0.6h-22.5l-7-21.1C796.5,655.2,796,654.8,795.3,654.9L795.3,654.9z
		"/>
	<g>
		<path class="st1" d="M723.2,584.9c-0.6,0-1.1,0.4-1.3,1l-7,21.1h-22.5c-0.8,0-1.4,0.6-1.4,1.4c0,0.4,0.2,0.9,0.6,1.1l18.3,13.4
			l-7,21.8c-0.2,0.7,0.2,1.5,0.9,1.8c0.4,0.1,0.9,0.1,1.3-0.2l18.3-13.4l18.3,13.4c0.6,0.5,1.5,0.3,2-0.3c0.3-0.4,0.3-0.8,0.2-1.3
			l-7-21.8l18.3-13.4c0.6-0.5,0.8-1.3,0.3-2c-0.3-0.4-0.7-0.6-1.1-0.6h-22.5l-7-21.1C724.5,585.2,723.9,584.8,723.2,584.9
			L723.2,584.9z"/>
		<path class="st1" d="M867.4,584.9c-0.6,0-1.1,0.4-1.3,1l-7,21.1h-22.5c-0.8,0-1.4,0.6-1.4,1.4c0,0.4,0.2,0.9,0.6,1.1l18.3,13.4
			l-7,21.8c-0.2,0.7,0.2,1.5,0.9,1.8c0.4,0.1,0.9,0.1,1.3-0.2l18.3-13.4l18.3,13.4c0.6,0.5,1.5,0.3,2-0.3c0.3-0.4,0.3-0.8,0.2-1.3
			l-7-21.8l18.3-13.4c0.6-0.5,0.8-1.3,0.3-2c-0.3-0.4-0.7-0.6-1.1-0.6h-22.5l-7-21.1C868.6,585.2,868,584.8,867.4,584.9L867.4,584.9
			z"/>
		<path class="st1" d="M795.3,584.9c-0.6,0-1.1,0.4-1.3,1l-7,21.1h-22.5c-0.8,0-1.4,0.6-1.4,1.4c0,0.4,0.2,0.9,0.6,1.1l18.3,13.4
			l-7,21.8c-0.2,0.7,0.2,1.5,0.9,1.8c0.4,0.1,0.9,0.1,1.3-0.2l18.3-13.4l18.3,13.4c0.6,0.5,1.5,0.3,2-0.3c0.3-0.4,0.3-0.8,0.2-1.3
			l-7-21.8l18.3-13.4c0.6-0.5,0.8-1.3,0.3-2c-0.3-0.4-0.7-0.6-1.1-0.6h-22.5l-7-21.1C796.5,585.2,796,584.8,795.3,584.9L795.3,584.9
			z"/>
		<path class="st1" d="M651.2,584.9c-0.6,0-1.1,0.4-1.3,1l-7,21.1h-22.5c-0.8,0-1.4,0.6-1.4,1.4c0,0.4,0.2,0.9,0.6,1.1l18.3,13.4
			l-7,21.8c-0.2,0.7,0.2,1.5,0.9,1.8c0.4,0.1,0.9,0.1,1.3-0.2l18.3-13.4l18.3,13.4c0.6,0.5,1.5,0.3,2-0.3c0.3-0.4,0.3-0.8,0.2-1.3
			l-7-21.8l18.3-13.4c0.6-0.5,0.8-1.3,0.3-2c-0.3-0.4-0.7-0.6-1.1-0.6h-22.5l-7-21.1C652.4,585.2,651.8,584.8,651.2,584.9
			L651.2,584.9z"/>
	</g>
</g>
</svg>
