<?xml version="1.0" encoding="UTF-8"?>
<svg id="Layer_2" data-name="Layer 2" xmlns="http://www.w3.org/2000/svg" viewBox="0 0 853.57 745.29">
  <defs>
    <style>
      .cls-1 {
        fill-rule: evenodd;
      }

      .cls-1, .cls-2 {
        fill: #b48c52;
      }
    </style>
  </defs>
  <g id="Layer_1-2" data-name="Layer 1">
    <g>
      <path class="cls-2" d="M363.27,480.92c1.02-1.63,2.42-2.88,4.19-3.74,1.77-.86,4.02-1.68,6.77-2.47,1.78-.49,3.42-1,4.91-1.52,1.49-.52,2.82-1.14,3.99-1.87,1.17-.73,2.17-1.62,3.01-2.66,.84-1.04,1.49-2.38,1.95-4.01,.51-1.78,.67-3.44,.49-5-.18-1.55-.65-2.97-1.41-4.24-.76-1.28-1.79-2.38-3.08-3.31-1.3-.93-2.84-1.65-4.62-2.15-1.89-.54-3.68-.73-5.36-.59-1.68,.14-3.22,.61-4.6,1.4-1.39,.79-2.59,1.86-3.62,3.21-1.03,1.35-1.81,2.97-2.34,4.86l5.84,1.66c.6-2.11,1.67-3.63,3.22-4.55,1.54-.92,3.28-1.11,5.21-.57,1.67,.47,2.94,1.38,3.82,2.74,.88,1.35,1.01,3.1,.4,5.25-.28,1-.68,1.81-1.17,2.43-.5,.62-1.18,1.17-2.06,1.64-.87,.47-1.96,.91-3.25,1.3-1.29,.4-2.86,.85-4.69,1.37-1.4,.41-2.83,.9-4.3,1.48-1.47,.59-2.85,1.32-4.14,2.22-1.3,.89-2.47,1.99-3.52,3.3-1.05,1.3-1.83,2.86-2.35,4.68l-.74,2.61,25.24,7.16,1.47-5.17-19.23-5.46Zm54.42,13.94c2.49-.85,4.7-2.12,6.61-3.8,1.92-1.68,3.46-3.71,4.63-6.08,1.17-2.37,1.86-5,2.06-7.88,.2-2.88-.11-5.58-.94-8.09-.83-2.51-2.06-4.72-3.71-6.63-1.64-1.91-3.65-3.46-6.02-4.65-2.37-1.19-4.98-1.88-7.82-2.08-2.84-.2-5.51,.13-8.01,.98-2.49,.85-4.69,2.11-6.58,3.77-1.89,1.66-3.43,3.68-4.6,6.05-1.17,2.37-1.86,5-2.06,7.88-.2,2.88,.11,5.58,.94,8.09,.83,2.51,2.07,4.73,3.73,6.66,1.66,1.93,3.66,3.49,5.99,4.67,2.33,1.18,4.92,1.87,7.76,2.07,2.84,.2,5.51-.13,8.01-.98Zm-12.92-6.08c-1.62-.85-2.99-1.96-4.11-3.33-1.12-1.37-1.96-2.97-2.53-4.81-.57-1.83-.78-3.81-.63-5.92,.15-2.08,.63-3.97,1.44-5.69,.82-1.72,1.87-3.17,3.17-4.36,1.3-1.19,2.81-2.08,4.53-2.7,1.72-.61,3.57-.85,5.52-.72,1.96,.14,3.74,.63,5.34,1.47,1.6,.84,2.97,1.95,4.11,3.3,1.14,1.35,1.99,2.94,2.56,4.75,.57,1.81,.78,3.76,.63,5.84-.15,2.11-.63,4.04-1.45,5.78-.82,1.74-1.88,3.21-3.18,4.41-1.3,1.2-2.81,2.11-4.54,2.73-1.72,.61-3.56,.85-5.52,.72-1.96-.14-3.75-.63-5.37-1.47Zm39.88,.56c.28-1.91,1.06-3.6,2.33-5.1,1.27-1.49,3.01-3.15,5.21-4.97,1.43-1.17,2.73-2.29,3.88-3.36,1.16-1.07,2.12-2.18,2.9-3.31,.78-1.14,1.34-2.35,1.69-3.64,.35-1.29,.41-2.78,.17-4.46-.25-1.83-.77-3.42-1.56-4.77-.79-1.35-1.79-2.46-3-3.32-1.21-.86-2.59-1.46-4.15-1.8-1.56-.33-3.26-.37-5.09-.12-1.95,.26-3.66,.8-5.15,1.6-1.48,.81-2.7,1.85-3.65,3.12-.95,1.28-1.63,2.74-2.02,4.39-.4,1.65-.46,3.45-.19,5.39l6.01-.82c-.3-2.18,.07-3.99,1.11-5.46,1.04-1.46,2.56-2.33,4.54-2.6,1.72-.23,3.25,.09,4.6,.98,1.35,.89,2.17,2.44,2.48,4.65,.14,1.03,.11,1.93-.1,2.7-.21,.77-.61,1.54-1.23,2.32-.61,.78-1.43,1.62-2.46,2.49-1.03,.88-2.27,1.92-3.74,3.13-1.12,.93-2.23,1.96-3.34,3.08-1.11,1.12-2.08,2.35-2.9,3.69-.83,1.34-1.46,2.81-1.9,4.43-.44,1.62-.53,3.36-.27,5.23l.37,2.69,26-3.54-.73-5.32-19.81,2.7Zm33-5.96c-.04-1.88,.47-3.62,1.45-5.26,.98-1.63,2.39-3.52,4.2-5.58,1.2-1.34,2.29-2.65,3.23-3.84,.94-1.2,1.7-2.43,2.25-3.62,.58-1.2,.94-2.46,1.05-3.77,.14-1.3-.04-2.72-.51-4.31-.54-1.7-1.31-3.15-2.25-4.31-.98-1.2-2.1-2.1-3.41-2.75-1.31-.62-2.72-.98-4.28-1.05-1.52-.07-3.19,.15-4.89,.69-1.85,.54-3.41,1.34-4.67,2.32-1.31,1.01-2.32,2.21-3.05,3.59-.72,1.38-1.12,2.86-1.23,4.53-.14,1.63,.07,3.37,.65,5.18l5.62-1.7c-.62-2.07-.54-3.84,.25-5.44,.76-1.56,2.07-2.65,3.95-3.19,1.6-.51,3.12-.44,4.57,.22,1.41,.62,2.46,1.99,3.08,4.06,.29,.98,.4,1.85,.33,2.61-.07,.76-.33,1.59-.8,2.43-.47,.83-1.12,1.78-1.99,2.79-.83,.98-1.85,2.17-3.08,3.59-.94,1.05-1.85,2.21-2.76,3.48-.87,1.23-1.6,2.57-2.21,3.99-.58,1.41-.94,2.94-1.12,4.57-.15,1.59,.04,3.3,.58,5.04l.76,2.54,24.4-7.47-1.52-5-18.59,5.69Z"/>
      <g>
        <g>
          <path class="cls-1" d="M402.64,367.27c-.39,.02-.73,.28-.85,.65l-4.74,14.23h-15.19c-.52,0-.94,.43-.94,.95,0,.3,.14,.58,.38,.76l12.33,9.02-4.74,14.72c-.16,.5,.11,1.03,.61,1.19,.29,.09,.61,.04,.85-.14l12.33-9.02,12.33,9.02c.42,.31,1.01,.22,1.32-.2,.18-.24,.23-.56,.14-.85l-4.74-14.72,12.33-9.02c.42-.31,.51-.9,.2-1.32-.18-.24-.46-.38-.76-.38h-15.19l-4.74-14.23c-.13-.41-.52-.67-.95-.65Z"/>
          <path class="cls-1" d="M450.83,367.27c-.39,.02-.73,.28-.85,.65l-4.74,14.23h-15.19c-.52,0-.94,.43-.94,.95,0,.3,.14,.58,.38,.76l12.33,9.02-4.74,14.72c-.16,.5,.11,1.03,.61,1.19,.29,.09,.61,.04,.85-.14l12.33-9.02,12.33,9.02c.42,.31,1.01,.22,1.32-.2,.18-.24,.23-.56,.14-.85l-4.74-14.72,12.33-9.02c.42-.31,.51-.9,.2-1.32-.18-.24-.46-.38-.76-.38h-15.19l-4.74-14.23c-.13-.41-.52-.67-.95-.65Z"/>
        </g>
        <g>
          <path class="cls-1" d="M426.66,326.81c-.39,.02-.73,.28-.85,.65l-4.74,14.23h-15.19c-.52,0-.94,.43-.94,.95,0,.3,.14,.58,.38,.76l12.33,9.02-4.74,14.72c-.16,.5,.11,1.03,.61,1.19,.29,.09,.61,.04,.85-.14l12.33-9.02,12.33,9.02c.42,.31,1.01,.22,1.32-.2,.18-.24,.23-.56,.14-.85l-4.74-14.72,12.33-9.02c.42-.31,.51-.9,.2-1.32-.18-.24-.46-.38-.76-.38h-15.19l-4.74-14.23c-.13-.41-.52-.67-.95-.65Z"/>
          <path class="cls-1" d="M475.25,326.81c-.39,.02-.73,.28-.85,.65l-4.74,14.23h-15.19c-.52,0-.94,.43-.94,.95,0,.3,.14,.58,.38,.76l12.33,9.02-4.74,14.72c-.16,.5,.11,1.03,.61,1.19,.29,.09,.61,.04,.85-.14l12.33-9.02,12.33,9.02c.42,.31,1.01,.22,1.32-.2,.18-.24,.23-.56,.14-.85l-4.74-14.72,12.33-9.02c.42-.31,.51-.9,.2-1.32-.18-.24-.46-.38-.76-.38h-15.19l-4.74-14.23c-.13-.41-.52-.67-.95-.65Z"/>
          <path class="cls-1" d="M378.23,326.81c-.39,.02-.73,.28-.85,.65l-4.74,14.23h-15.19c-.52,0-.94,.43-.94,.95,0,.3,.14,.58,.38,.76l12.33,9.02-4.74,14.72c-.16,.5,.11,1.03,.61,1.19,.29,.09,.61,.04,.85-.14l12.33-9.02,12.33,9.02c.42,.31,1.01,.22,1.32-.2,.18-.24,.23-.56,.14-.85l-4.74-14.72,12.33-9.02c.42-.31,.51-.9,.2-1.32-.18-.24-.46-.38-.76-.38h-15.19l-4.74-14.23c-.13-.41-.52-.67-.95-.65Z"/>
        </g>
      </g>
      <g>
        <path class="cls-2" d="M522.29,577.1c-5.41,43.63-39.17,101.1-70.94,120.07-20.2-64.4,33.86-100.82,70.94-120.07Z"/>
        <path class="cls-2" d="M331.28,577.1c5.41,43.63,39.17,101.1,70.94,120.07,20.2-64.4-33.86-100.82-70.94-120.07Z"/>
        <path class="cls-2" d="M460.74,715.47c22,25.51,110.77,52.73,170.71-1.9-37.65-14.13-97.31-40.5-170.71,1.9Z"/>
        <path class="cls-2" d="M392.83,715.47c-22,25.51-110.77,52.73-170.71-1.9,37.65-14.13,97.31-40.5,170.71,1.9Z"/>
        <path class="cls-2" d="M604.23,549.78c0,81.85-42.96,113.81-87.35,131.07,5.41-54.63,21.81-92.85,87.35-131.07Z"/>
        <path class="cls-2" d="M249.34,549.78c0,81.85,42.96,113.81,87.35,131.07-5.41-54.63-21.81-92.85-87.35-131.07Z"/>
        <path class="cls-2" d="M732.55,649.27c-25.32,22.19-44.95,33.76-79.19,36.99-25.75,2.96-51.79-1.79-74.83-13.66,33.48-16.5,53.3-27.12,101.86-27.12,17.45,.12,34.88,1.39,52.16,3.79Z"/>
        <path class="cls-2" d="M121.02,649.27c25.32,22.19,44.95,33.76,79.19,36.99,25.75,2.96,51.79-1.79,74.83-13.66-33.19-16.12-53.02-27.12-101.57-27.12-17.55,.11-35.07,1.38-52.45,3.79Z"/>
        <path class="cls-2" d="M680.67,473.34c21.81,65.54,7.97,129.65-71.04,169.29,22.38-29.5,5.5-87.44,71.04-169.29Z"/>
        <path class="cls-2" d="M172.9,473.34c-21.81,65.54-7.97,129.65,71.04,169.29-22.38-29.5-5.5-87.44-71.04-169.29Z"/>
        <path class="cls-2" d="M798.56,567.61c-30.35,58.61-101.48,64.02-139.7,58.61,16.31-16.41,76.44-71.04,139.7-58.61Z"/>
        <path class="cls-2" d="M55.01,567.61c30.54,58.61,101.48,64.02,139.7,58.61-16.31-16.41-76.44-71.04-139.7-58.61Z"/>
        <path class="cls-2" d="M838.2,461.87c-10.15,66.39-64.68,93.32-122.16,99.11,20.77-51.59,67.05-92.19,122.16-99.11Z"/>
        <path class="cls-2" d="M15.36,461.87c10.15,66.39,64.68,93.32,122.16,99.11-20.77-51.59-67.05-92.19-122.16-99.11Z"/>
        <path class="cls-2" d="M735.3,380.49c21.81,37.94,1.71,108.97-16.98,135.24-12.61-59.09-9.48-109.64,16.98-135.24Z"/>
        <path class="cls-2" d="M118.27,380.49c-21.81,37.94-1.71,108.97,16.98,135.24,12.61-59.09,9.48-109.64-16.98-135.24Z"/>
        <path class="cls-2" d="M847.02,401.07c-12.71,42.58-67.34,67.53-99.01,78.91,17.11-41.68,54.57-71.54,99.01-78.91Z"/>
        <path class="cls-2" d="M6.54,401.07c12.71,42.58,67.34,67.53,99.01,78.91-17.11-41.68-54.57-71.54-99.01-78.91Z"/>
        <path class="cls-2" d="M853.57,331.46c-9.48,37.94-43.44,59.56-77.67,76.82,14.92-34.73,42.78-62.29,77.67-76.82Z"/>
        <path class="cls-2" d="M0,331.46c9.48,37.94,43.44,59.56,77.67,76.82-14.92-34.73-42.78-62.29-77.67-76.82Z"/>
        <path class="cls-2" d="M795.34,233.11c10.81,32.72,13.94,58.04,10.81,76.44-5.5,32.72-18.97,51.78-43.63,73.5-6.37-10.74-10.14-22.82-11-35.28,.09-49.13,27.22-90.57,43.82-114.66Z"/>
        <path class="cls-2" d="M58.23,233.11c-10.81,32.72-13.94,58.04-10.81,76.44,5.5,32.72,18.49,51.78,43.63,73.5,6.37-10.74,10.14-22.82,11-35.28-.09-49.13-27.22-90.57-43.82-114.66Z"/>
      </g>
      <path class="cls-2" d="M426.78,430.53c-90.62,0-164.34-73.72-164.34-164.34s73.72-164.34,164.34-164.34,164.34,73.72,164.34,164.34-73.72,164.34-164.34,164.34Zm0-322.3c-87.1,0-157.96,70.86-157.96,157.96s70.86,157.96,157.96,157.96,157.96-70.86,157.96-157.96-70.86-157.96-157.96-157.96Z"/>
      <path class="cls-2" d="M426.78,532.38c-71.1,0-137.95-27.69-188.22-77.97-50.28-50.28-77.97-117.12-77.97-188.22s27.69-137.95,77.97-188.22C288.84,27.69,355.68,0,426.78,0s137.95,27.69,188.22,77.97c50.28,50.28,77.97,117.12,77.97,188.22s-27.69,137.95-77.97,188.22c-50.28,50.28-117.12,77.97-188.22,77.97Zm0-521.71c-140.89,0-255.52,114.62-255.52,255.52s114.62,255.52,255.52,255.52,255.52-114.62,255.52-255.52S567.68,10.67,426.78,10.67Z"/>
      <path class="cls-2" d="M411.33,209.82h15.37l-8.12-13.1-14.9,23.66h-6.81l18.14-28.4c.77-1.15,2.1-1.85,3.56-1.85s2.73,.67,3.5,1.8l18.2,28.45h-6.79l-3.2-5.29h-15.56l-3.39-5.27m70.5,5.27v-24.67h-5.77v27.09c0,.74,.31,1.46,.85,1.98,.55,.57,1.31,.88,2.1,.88h26.24l3.42-5.29h-26.84m-95.29-4.41c5.61,0,10.12-4.54,10.12-10.13s-4.51-10.13-10.12-10.13h-25.2v29.96h5.76v-24.66h19.06c2.67,0,4.84,2.16,4.84,4.83s-2.17,4.86-4.84,4.86h-16.24s17.2,14.97,17.2,14.97h8.36l-11.56-9.7h2.62m-60.64,9.7h17.41c8.28,0,14.95-6.69,14.95-14.97s-6.67-14.99-14.95-14.99h-17.41c-8.27,0-14.99,6.71-14.99,14.99s6.71,14.97,14.99,14.97m17.01-5.27h-16.63c-5.35,0-9.69-4.35-9.69-9.7s4.34-9.7,9.69-9.7h16.63c5.37,0,9.7,4.33,9.7,9.7s-4.33,9.7-9.7,9.7m109.38,5.27h17.78l3.36-5.27h-20.75c-5.38,0-9.71-4.35-9.71-9.7s4.33-9.7,9.71-9.7h16.89l3.41-5.29h-20.69c-8.28,0-15,6.71-15,14.99s6.73,14.97,15,14.97m70.44-5.27c-4.44,0-8.18-2.98-9.33-7.05h24.62l3.39-5.28h-28.01c1.15-4.08,4.9-7.06,9.33-7.06h16.9l3.38-5.29h-20.67c-8.27,0-14.97,6.71-14.97,14.99s6.71,14.97,14.97,14.97h17.78l3.38-5.27h-20.77m-153.14,58.94h-2.38c-26.3,0-57.81,.55-57.81,.97s26.02,1.42,57.82,1.42h5.29s111.45,0,111.45,0h2.39c26.3,0,57.81-.55,57.81-.97s-26.02-1.42-57.82-1.42h-5.29s-111.45,0-111.45,0Zm-39.84,14.89c0-3.02-2.12-4.85-5.67-4.89h-13.59v15.95h2.3v-5.81h11.03c1.99,0,3.17,.99,3.17,2.65v3.15h2.35v-3.13c0-1.71-.87-3.02-2.41-3.7,1.78-.7,2.81-2.23,2.81-4.23Zm-5.65,3.15h-11.3v-5.94h11.3c3.09,0,3.33,2.28,3.33,2.97s-.24,2.97-3.33,2.97Zm46.16-4.89c-1.18-2.38-2.52-3.35-4.64-3.35s-3.52,1-4.66,3.35l-6.06,12.4-.19,.39h2.48l.07-.15,2.15-4.42h12.38l2.16,4.42,.07,.15h2.5l-.19-.39-6.08-12.41Zm-9.78,6.13l2.69-5.51c.63-1.31,1.34-1.85,2.45-1.85s1.8,.54,2.44,1.85l2.69,5.51h-10.27Zm40.23-1.3c0,5.39,2.34,7.93,7.38,7.97h12.48v-2.26h-12.34c-3.79,0-5.2-1.55-5.2-5.72s1.41-5.72,5.2-5.72h12.34v-2.26h-12.48c-5.1,.05-7.38,2.51-7.38,7.97Zm46.01,7.97h2.3v-15.94h-2.3v15.94Zm47.6-2.3c-2.19,0-2.72-.72-6.72-6.07l-.18-.24c-4.3-5.76-5.46-7.3-9.22-7.34h-1.9v15.95h2.28v-13.64c2.08,0,2.59,.68,6.5,5.79l.48,.63c4.34,5.67,5.5,7.19,9.13,7.22h1.9v-15.95h-2.28v13.65Zm46.45-5.93v5.97h-10.13c-3.79,0-5.2-1.56-5.2-5.74s1.41-5.7,5.2-5.7h12.27v-2.26h-12.42c-5.03,.05-7.38,2.57-7.38,7.95s2.35,7.95,7.38,7.99h12.58v-8.22h-2.3Zm-1.54-33.91c-.41-.48-1.22-.76-1.21-1.47-.15-.28-.18-.73-.32-1.09-.12-.3-.23-.73-.63-.79-.71-.12-1.57,.08-2.02-.58-.46-.49,.05-1.07,.13-1.55,.2-.61,.22-1.42,.12-2.05-.02-.36-.27-.66-.2-1.03,.17-.31,.57-.08,.81-.05,.93,.27,2.02,.13,2.86-.23,1.16-.56,2.09-1.74,2.04-3.08-.16-1.74-1.41-3.16-2.75-4.28-.25-.21-.56-.45-.65-.76-.03-.68,.73-.35,1.11-.51,.46-.12,.93-.23,1.3-.49,1.01-.68,1.23-1.87,1.03-3.03-.04-.1-.04-.25-.18-.25-.18,.15-.36,.36-.6,.5-.64,.38-1.5,.31-2.18,.64-.84,.36-1.89,.88-2.25,1.84-.1,.48,.02,.98,.23,1.37,1.03,1.63,3.19,2.68,3.54,4.63,.13,.79-.27,1.37-.88,1.82-.93,.56-2.31,.36-3.24-.14-1.79-.89-3.34-2.39-5.26-2.99-1.21-.55-2.7-.41-3.77-1.26-.81-.53-1.55-1.22-2.47-1.45-.63-.21-1.34-.19-1.92-.5-.6-.53-1.22-1.02-1.92-1.37-.96-.48-2.02-.73-3.07-.96-.63-.15-.86-.85-1.37-1.19-.88-.69-1.86-1.19-3.05-1.09-.41,.03-.75,.27-1.07,.54-3.42-5.24-9.33-8.71-16.07-8.71s-12.52,3.4-15.96,8.55c-.78-.19-1.71-.11-2.41,.19-.85,.45-1.61,1.09-2.5,1.39-1.29,.58-2.75,.69-3.86,1.69-.65,.56-1.19,1.44-2.15,1.29-1.08-.05-2.04,.35-2.85,1.01-.72,.66-1.42,1.44-2.36,1.62-.83,.35-1.83,.18-2.68,.5-1.34,.33-2.4,1.39-3.54,2.2-1.14,.66-2.23,1.37-3.66,1.34-.93-.07-1.82-.71-2.12-1.61-.28-1.02,.03-2.09,.84-2.78,.84-1.01,2.18-1.61,2.84-2.76,.35-.61,.3-1.6-.16-2.18-.88-.91-2.14-.94-3.28-1.22-.73-.19-1.29-.76-1.93-1.11-.25,.38-.33,.8-.3,1.26,.13,1.04,.93,1.99,1.92,2.35,.58,.25,1.24,.06,1.84,.2,.16,.06,.33,.23,.35,.42-.03,.16-.05,.33-.2,.45-.93,.77-1.9,1.52-2.68,2.48-.83,.9-.93,2.47-.5,3.59,.48,1.29,1.82,2.13,3.11,2.3,.94,.15,1.78-.1,2.65-.28,.12,0,.17,.12,.22,.18,.08,.76-.03,1.44,.13,2.14,.15,.64,.36,1.09,.6,1.72,.03,.21,0,.44-.15,.61-.48,.36-.97,.61-1.5,.84l-1.29,.08-.25,.12c-.48,.56-.5,1.14-.79,1.77-.39,.66-1.13,.98-1.74,1.36-.2,.31-.41,.64-.69,.89-.22,.2-.48,.25-.76,.28-.44,.51-.54,1.22-.69,1.88l.03,.03c.73,.06,1.49,.46,2.2,.06,.61-.28,.74-1.02,1.21-1.47,.36-.4,.91-.1,1.34-.02,.64,.03,1.1-.43,1.65-.65,.38-.25,.7-.68,1.09-.93,.76-.37,1.82-.17,2.61-.02,.63,.17,1.29,.06,1.84-.18,.51-.32,.99-.71,1.57-.85,.51-.26,.76-.84,.98-1.32,.17-.45,.6-.8,.56-1.31-.14-.11-.28-.37-.48-.35-.25,.35-.43,.71-.71,1.04-1.09,1.49-2.81,1.79-4.57,1.79-1.8-.07-3.42,.48-4.66,1.89-.08,.05-.2,.02-.27-.05-.05-.2,.12-.32,.2-.46,1.11-1.57,2.83-1.93,4.65-1.97,.99-.07,1.93-.23,2.77-.66,.95-.48,1.6-1.44,1.99-2.36,.21-1.04,.3-2.17,.56-3.16,.03-.1,.15-.15,.23-.12,.1,.02,.22,.08,.22,.2-.18,1.03-.3,2.23,.1,3.22,.8,1.05,2.22,.33,3.29,.28,1.12-.1,2.1,.31,3.18,.39,.53-.02,1.14,.14,1.55-.18,.12-.19-.01-.39-.05-.6-.04-.3-.25-.71,.03-.96,.08-.06,.23-.03,.3,.05,.15,.41,.22,.86,.48,1.23,.53,.68,1.31,1.2,2.03,1.59,.69,.48,1.27,1.16,1.32,2,0,.43-.4,.73-.73,.93-.56,.28-1.18,.51-1.84,.45-.88-.43-1.11-1.36-1.69-2.04-.3-.33-.75-.39-1.19-.36-.48,.05-.96,.07-1.39,.22-.11,.1-.15,.25-.13,.4,.3,.54,.63,1.08,.96,1.62,.38,.23,.91-.13,1.24,.28,.28,.43,.46,.94,.89,1.27,.41,.37,1.04,.54,1.59,.3,1.22-.38,2.45-.77,3.59-1.39h.38c.47-.05,.98-.02,1.31-.36,.1-.15,.19-.29,.28-.43,3.43,5.16,9.3,8.58,15.97,8.58s12.51-3.39,15.94-8.54c.05,.15,.11,.3,.2,.46,.31,.34,.74,.03,1.14,.13,.4,.1,.55,.58,.94,.69,.9,.3,1.85,.46,2.75,.81,.47,.15,1.13,.33,1.54-.04,.58-.32,.73-.93,.83-1.51,.18-.24,.55-.15,.81-.23,.5-.33,.66-.93,1.02-1.38l.06-.23c-.05-.15-.18-.23-.31-.28h-1.69c-.78,.1-.84,.96-1.17,1.49-.18,.33-.55,.46-.93,.43-.79-.21-1.77-.33-2.13-1.19-.05-.22-.05-.48,.12-.63,.41-.48,.91-1.02,1.42-1.42,.73-.15,1.44-.69,1.82-1.34,.2-.28,.17-.7,.5-.91,.1-.02,.21,0,.28,.1,.15,.48-.14,.93-.28,1.34,1.8,.19,3.31-.53,5.06-.47,.75,0,1.43,.15,2.15,.1,.73-.04,1.52-.33,1.76-1.1,.33-.98,.08-2.09-.09-3.01l.09-.14c.11-.07,.22,.02,.3,.08,.31,.88,.52,1.94,.66,2.9,.13,.85,.49,1.6,.96,2.31,.84,1.26,2.33,1.76,3.8,1.44,1.79-.13,3.33,.6,4.42,1.99v.08c-.04,.06-.1,.15-.18,.13-.94-.73-1.89-1.51-3.1-1.66-1.27-.23-2.4,.38-3.59-.1-1.31-.43-2.31-1.77-2.83-2.96h-.13c-.1,.02-.17,.12-.18,.22l.17,1.03c.19,.83,.46,1.81,1.35,2.19,.69,.41,1.37,1.01,2.23,.77,1.51-.33,3.03,.1,4.18,.95,.39,.21,.68,.61,1.1,.76,.44,.19,.99,.09,1.35-.21,.84-.28,1.04,.78,1.62,1.16,.51,.49,1.41,.3,2.09,.3l.11-.08c-.08-.68-.26-1.21-.53-1.8-.84,.05-1.26-.86-1.75-1.39Zm-26.45-17.22c.13,.22-.02,.38-.12,.55-.68,.65-1.5,1.31-2,2.09-.18,.24-.31,.53-.45,.81l-.12,.03c-.13-.4,.04-.81,.14-1.19,.35-.93,1.13-1.79,1.92-2.38,.18-.11,.53-.15,.63,.1Zm-33.79,1.31c.1-.1,.28-.12,.41-.07,.27,.18,.43,.47,.58,.73,.32,.73,.32,1.7,.1,2.48l-.13,.02c-.13-.68-.28-1.38-.54-2.02-.15-.38-.65-.7-.41-1.14Zm35.07,11.85l-1.01,1.48c-.23,.33-.47,.7-.55,1.06-.08,.42-.03,.81,0,1.21l-.17-.1c-.26-.54-.56-1.24-.28-1.88l1.27-1.97,.05-.15c-.28-.15-.6-.3-.89-.36-.15,.06-.25,.21-.34,.35l-1.24,2.25c-.08,.27-.16,.47-.1,.74,.04,.23,.11,.46,.19,.67-3.24,5.24-9.03,8.73-15.64,8.73s-12.25-3.41-15.51-8.54c.07-.13,.14-.25,.21-.38,.28-.38,.15-.96,.03-1.37-.56-.7-.88-1.47-1.17-2.27-.28-.08-.53-.25-.84-.23-.15,.06-.37,.03-.45,.2l1.31,2.58c.09,.2,.19,.48,.13,.75-.18,.54-.46,1.07-.91,1.47-.08,.05-.18,.1-.25-.02,.15-.56,.41-1.17,.38-1.82l-1.27-2.3c-.15-.31-.42-.6-.4-.96,0-.16,.15-.28,.28-.35,.56-.18,1.24-.15,1.67-.6,.56-.88,.89-1.74,1.04-2.78,.03-.07,.05-.17,.15-.17,.1-.03,.12,.08,.16,.13,.17,1.14-.06,2.3-.73,3.19-.04,.12-.08,.26,.05,.35,.63,.2,1.29,0,1.82-.28,.68,.02,1.3-.15,1.92-.25l.13,.17c-.42,.46-.65,.98-.76,1.57-.5,.52-1.21,.96-1.26,1.71,.08,.37,.4,.02,.61,.05,.1,.02,.17,.1,.17,.2l-.5,.73c-.26,.43,.05,.93,.05,1.34,.11,.33,.52,.5,.86,.5,.74-.03,1.4-.31,2.07-.55,.72-.31,1.64-.29,2.43-.16,.78-.05,1.36-.56,1.94-1.07,.32,0,.59,.21,.81,.44,.89,.96,2.05,1.37,3.36,1.34l.12-.07c.09-.09,.05-.23-.05-.3l-.78-.4c-.54-.35-1.22-.81-1.4-1.42-.17-.54-.46-1.14-.79-1.67-.11-.26-.38-.48-.5-.74l.12-.06c.86,.3,1.37,1.14,1.77,1.9,.63,.88,1.54,1.62,2.73,1.42l.1-.08v-.2l-.6-.3c-.99-.58-1.39-1.67-2-2.53-.22-.31-.59-.5-.79-.83-.71-1.93-1.32-3.87-1.51-6.09-.15-.54-.26-1.11-.56-1.62-.89-1.45-2.05-2.78-3.18-4.12-.1-.1-.26-.18-.31-.31l-3.92-3.26c-.35-.27-.74-.47-1.14-.65,3.31-4.84,8.86-8.03,15.17-8.03s12.17,3.36,15.44,8.42c-2.42,2.03-5.12,3.52-7.31,5.91-1.55,1.6-1.97,3.64-2.55,5.61-.83,2.98-1.18,6.25-4.17,8.08-.05,.08-.05,.23,.05,.3,.79,.19,1.57-.12,2.1-.66,.52-.81,1.06-1.59,1.75-2.34l.16-.08c.08,.02,.18,.06,.15,.18-.2,.66-.8,1.14-.99,1.8-.26,.79-1.02,1.41-1.67,1.97l-.02,.1c0,.08,.09,.17,.17,.18,1.46,.06,2.5-.97,3.47-1.95,.1-.1,.23-.08,.37-.05,.43,.33,.83,.83,1.39,.94,.6-.08,1.22-.17,1.85-.11,.88,.27,1.72,.63,2.6,.93,.45-.02,.78-.44,1.01-.81,.18-.42-.08-.86-.05-1.27,.22-.13,.46,.03,.7-.03,.1-.06,.18-.18,.18-.3-.17-.76-.85-1.33-1.06-2.03-.33-.91-1.41-1.46-1.61-2.44,.05-.06,.13-.17,.22-.09,.71,.51,1.34,1.19,2.22,1.32,.66,.07,1.34,.14,2,.08,.1-.03,.18-.15,.15-.26-.29-.6-.55-1.19-.71-1.84-.23-.81-.4-1.93-.13-2.83,.05-.07,.13-.18,.23-.15,.14,.04,.22,.18,.24,.3,.09,1.41,.16,2.69,1.01,3.8,.36,.58,.99,.69,1.44,1.14,.17,.23,.2,.61,.08,.88Zm-27.72,1.12c.13,0,.31-.02,.35,.17,.03,.31,.03,.7-.23,.89-.31,.1-.66,.13-1.01,.12-.08-.03-.2-.09-.16-.18,.15-.45,.58-.89,1.06-.99Zm-.28-5.71c.28-.28,.21-1.11,.84-.84,.43,.23,.52,.69,.83,1.01,.55,.61,.91,1.29,.73,2.13-.08,.17-.07,.42-.28,.46-.1,.03-.18-.03-.18-.13-.04-.45-.04-.91-.3-1.27-.3-.31-.61-.86-1.09-.86-.33,.1-.58,.48-.78,.75l-.1,.02c-.18-.46,.18-.86,.33-1.26Zm18.99,.81c-.31-.02-.49,.25-.74,.38-.43,.38-1.01,.78-1.11,1.35-.08,.22-.05,.52-.23,.63-.12,.03-.25-.07-.25-.17-.07-.76,.18-1.49,.74-2,.55-.44,.93-1.06,1.37-1.57,.25-.05,.43,.14,.53,.32,.3,.38,.52,.79,.7,1.24,.03,.1,0,.2-.03,.3-.07,.08-.17,.2-.28,.11-.33-.11-.28-.63-.69-.59Zm.65,6.04c-.2,.15-.55,.07-.8,.03-.3-.17-.36-.51-.4-.84,0-.08,.02-.17,.1-.23,.35,0,.69,.08,.93,.36,.1,.22,.28,.45,.17,.68Zm-33.1,0l.15-.1c.53,0,1.06-.01,1.59-.1,.53,.02,.38,.64,.6,.96,.03,.22,.34,.45,.13,.63-.38,.29-.83,.49-1.32,.41-.38-.28-.36-.84-.7-1.2-.08-.28-.55-.28-.44-.6Zm44.46,.1c.13-.03,.26,.02,.3,.15-.06,.46-.21,.92-.38,1.35-.15,.3-.56,.2-.84,.17-.3-.12-.76-.15-.81-.56-.05-.39,.13-.76,.33-1.06,.45-.06,.96,.03,1.41-.05Zm-68.29,1.79c.03-.18-.03-.43,.13-.54,.4-.25,.78-.5,1.14-.81,.11-.03,.26-.1,.36-.02,.15,.13,.33,.27,.38,.44-.26,.48-.6,1.05-1.11,1.34-.2,.06-.43,.05-.61-.03-.1-.1-.3-.22-.3-.38Zm93-.25c.05,.21-.08,.4-.2,.55-.17,.13-.35,.25-.58,.25-.23-.02-.45-.15-.58-.35-.25-.37-.58-.7-.7-1.1,.16-.25,.52-.66,.85-.38,.4,.33,.89,.59,1.2,1.02Zm-93.1,1.34v.16c-.23,.56-.38,1.28-.58,1.92l-.07,.03c-.38-.08-.73-.23-1.09-.35-.1-.1,0-.22,.02-.31,.42-.38,.3-.88,.38-1.41,.06-.3,.34-.54,.61-.67,.33,.06,.53,.38,.73,.63Zm94.81,1.88l-1.06,.35c-.18,0-.12-.23-.18-.35-.12-.61-.25-1.04-.45-1.64-.05-.35,.3-.58,.53-.78,.28-.06,.48,.19,.7,.35,.25,.35,.15,.88,.23,1.26,.07,.28,.41,.51,.23,.81Zm-220.13-10.51l8.01,11.4h-6.83l-5.79-8.93v-6.5l1.35-.03c2.14,0,3.88-1.6,3.88-3.57s-1.63-3.57-3.77-3.57l-3.46,.03v22.57h-5.8v-27.27h9.55c.14,0,.77-.01,.91-.01,4.53,0,8.21,3.61,8.21,8.06,0,3.79-2.67,6.97-6.25,7.83Zm41.2-17.47h5.44v28.89h-5.41v-2.19c-1.45,1.46-3.37,2.36-5.5,2.36-4.5,0-8.15-3.99-8.15-8.91s3.65-8.91,8.15-8.91c2.1,0,4.03,.87,5.47,2.3v-13.53Zm.07,20.31c0-2.42-1.79-4.38-4-4.38s-4,1.96-4,4.38,1.79,4.38,4,4.38,4-1.96,4-4.38Zm-16.27,.06c0,.39-.02,.77-.05,1.15h-12.03c-.01,.11,.03,.06,.03,.18,0,1.88,1.66,3.4,3.71,3.4,1.53,0,2.85-.85,3.41-2.07l4.42,2.04c-1.53,2.69-4.49,4.41-8.28,4.41-4.97,0-9-4.09-9-9.12s4.03-9.11,9-9.11,8.87,3.23,8.79,9.13Zm-5.42-1.99c0-1.84-1.49-3.33-3.33-3.33s-3.33,1.49-3.33,3.33h6.66Zm76.74,10.52h5.45v-28.69h-5.45v28.69Zm-8.36-6.9c0,1.64-1.39,2.97-3.11,2.97s-3.11-1.33-3.11-2.97v-9.82h-5.41v10.87c0,3.68,3.81,6.66,8.5,6.66s8.5-2.98,8.5-6.66v-10.87h-5.37v9.82Zm17.57-21.79v28.69h5.45v-28.69h-5.45Zm-31.11,20.83c0,4.27-3.71,7.77-8.32,7.84h-12.03v-27.14h9.31c3.11,0,5.41,.64,6.71,2.07,1.25,1.34,1.96,3.04,1.96,4.9,0,2.05-.91,3.91-2.4,5.3,3.67,1.7,4.77,3.92,4.77,7.03Zm-5.93-.42c0-1.93-1.46-3.5-3.4-3.5h-3.47v-4.91h1.89c1.6,0,2.89-1.29,2.89-2.89s-1.3-2.89-2.89-2.89h-3.64v17.69h5.21c2.1-.13,3.33-1.51,3.4-3.51Z"/>
      <g>
        <path class="cls-2" d="M283.55,417.61c-10.09,8.51-23.65,7.09-32.54-3.44-8.26-9.79-8.41-22.2-.2-30.23l8.47,10.04c-2.95,3.93-2.73,8.91,.57,12.81,3.92,4.65,10.18,5.04,15.17,.82,5.04-4.26,5.71-10.49,1.79-15.14-3.3-3.91-8.17-4.96-12.53-2.71l-8.47-10.04c9.34-6.7,21.51-4.52,29.77,5.27,8.93,10.58,8.01,24.14-2.02,32.61Z"/>
        <path class="cls-2" d="M249.67,376.36c-11.92,5.66-24.66,.68-30.65-11.94-5.97-12.56-1.71-25.61,10.16-31.24,11.92-5.66,24.72-.71,30.68,11.85,5.99,12.62,1.73,25.67-10.19,31.32Zm-14.87-31.31c-5.78,2.74-8.08,8.77-5.38,14.44,2.72,5.73,8.84,7.76,14.62,5.01,5.84-2.77,8.14-8.8,5.42-14.53-2.69-5.67-8.81-7.7-14.65-4.93Z"/>
        <path class="cls-2" d="M198.48,292.18l42.7-8.41,2.5,12.69-20.8,16.56,23.16-4.56,2.31,11.74-42.7,8.41-2.51-12.75,20.75-16.48-23.1,4.55-2.31-11.74Z"/>
        <path class="cls-2" d="M226.81,280.33l.19-11.97c3.49,0,5.27-1.73,5.32-4.89,.04-2.65-1.22-4.49-3.23-4.52-1.74-.03-2.67,.93-3.75,3.75l-1.82,4.89c-2.77,7.59-7.29,11.21-13.83,11.1-7.82-.12-12.96-6.68-12.81-16.12,.15-9.44,5.22-14.99,14.22-15.49l-.19,11.71c-2.72,.08-4.23,1.49-4.27,3.94-.04,2.2,1.17,3.71,2.92,3.73,1.74,.03,2.86-.99,3.87-3.69l2.02-5.14c3.1-8.1,6.65-11.22,13.05-11.11,8.6,.14,13.8,6.56,13.64,16.72-.17,10.54-5.9,16.98-15.35,17.09Z"/>
        <path class="cls-2" d="M211.9,229.63l-2.05,10.34-11.11-2.2,6.71-33.82,11.11,2.2-2.22,11.17,31.6,6.27-2.44,12.31-31.6-6.27Z"/>
        <path class="cls-2" d="M209.13,192.22l6.32-15.1c3.99-9.55,11.63-13.23,20.23-9.64,5.07,2.12,8.02,5.81,8.66,10.49l18.95-2.39-5.57,13.31-15.91,1.48-.65,1.55,13.01,5.44-4.87,11.64-40.17-16.8Zm24.42-7.25c1.1-2.63,.09-5.08-2.6-6.21-2.63-1.1-5.02-.07-6.12,2.56l-1.37,3.28,8.71,3.64,1.37-3.28Z"/>
        <path class="cls-2" d="M250.16,163.78l-21.31-15.02,7.27-10.31,21.26,14.98c3.33,2.35,6.61,1.97,8.73-1.05,2.24-3.17,1.55-6.35-1.83-8.74l-21.26-14.98,7.27-10.31,21.31,15.02c9.09,6.41,10.71,16.57,4.19,25.83-6.41,9.09-16.63,10.91-25.62,4.57Z"/>
        <path class="cls-2" d="M273.28,124.36c-8.66-9.95-7.44-23.53,2.95-32.57,9.66-8.4,22.06-8.73,30.2-.65l-9.9,8.62c-3.97-2.89-8.94-2.59-12.8,.76-4.58,3.99-4.88,10.25-.6,15.18,4.33,4.98,10.57,5.55,15.15,1.56,3.85-3.35,4.83-8.24,2.52-12.57l9.9-8.62c6.83,9.23,4.84,21.42-4.83,29.83-10.44,9.08-24,8.37-32.62-1.54Z"/>
        <path class="cls-2" d="M317.19,77.16l-9.27,5.04-5.41-9.94,30.29-16.48,5.41,9.94-10,5.44,15.4,28.3-11.02,6-15.4-28.3Z"/>
        <path class="cls-2" d="M347.05,72.5c-3.62-12.69,3.38-24.44,16.81-28.28,13.37-3.82,25.54,2.52,29.15,15.15,3.62,12.69-3.36,24.5-16.73,28.32-13.43,3.84-25.6-2.51-29.23-15.19Zm33.33-9.52c-1.76-6.15-7.33-9.41-13.36-7.68-6.09,1.74-9.11,7.45-7.35,13.6,1.77,6.22,7.35,9.47,13.44,7.73,6.03-1.72,9.04-7.42,7.27-13.64Z"/>
        <path class="cls-2" d="M400.79,37.15l16.35-.71c10.34-.45,16.92,4.89,17.33,14.2,.24,5.49-1.84,9.73-5.81,12.3l10.22,16.13-14.41,.63-8.11-13.76-1.68,.08,.61,14.09-12.6,.55-1.9-43.49Zm16.95,19.01c2.84-.12,4.64-2.08,4.51-4.99-.12-2.84-2.08-4.57-4.92-4.45l-3.55,.15,.41,9.44,3.56-.16Z"/>
        <path class="cls-2" d="M440.72,65.3l11.83,1.8c-.46,3.46,1,5.45,4.14,5.93,2.62,.4,4.61-.61,4.91-2.59,.26-1.73-.56-2.77-3.22-4.22l-4.6-2.47c-7.15-3.77-10.12-8.74-9.14-15.2,1.18-7.74,8.36-11.95,17.7-10.53,9.34,1.42,14.16,7.19,13.44,16.18l-11.58-1.76c.28-2.71-.9-4.39-3.33-4.76-2.17-.33-3.83,.66-4.09,2.39-.26,1.73,.6,2.97,3.13,4.34l4.83,2.7c7.61,4.17,10.22,8.1,9.26,14.43-1.29,8.51-8.36,12.8-18.4,11.27-10.43-1.59-16.04-8.13-14.88-17.51Z"/>
        <path class="cls-2" d="M487.99,44.33l12.94,3.92-9.66,17.82-9.22-2.79,5.94-18.95Z"/>
        <path class="cls-2" d="M517.69,77.22c7.01-11.18,20.36-13.96,32.03-6.64,10.85,6.8,14.77,18.57,9.4,28.72l-11.13-6.98c1.61-4.64-.12-9.31-4.45-12.03-5.15-3.23-11.23-1.69-14.7,3.84-3.5,5.59-2.24,11.73,2.91,14.96,4.33,2.72,9.29,2.24,12.76-1.24l11.12,6.98c-6.85,9.22-19.1,10.85-29.95,4.05-11.73-7.35-14.99-20.54-8.01-31.67Z"/>
        <path class="cls-2" d="M579.47,92.95l8.72,9.02-11.17,10.78,8.31,8.61,11.17-10.78,8.72,9.03-31.32,30.24-8.72-9.03,12.01-11.59-8.31-8.61-12.01,11.59-8.72-9.03,31.31-30.24Z"/>
        <path class="cls-2" d="M596.88,172.16l-6.99-11.65-7.72,1.84-6.79-11.31,45.38-8.97,6.89,11.48-29.28,35.82-6.79-11.31,5.29-5.89Zm16.64-17.9l-14.41,3.9,4.22,7.04,10.19-10.94Z"/>
        <path class="cls-2" d="M654.53,225.23l-41.82,12.08-3.27-11.31,24.92-7.2-27.05-.2-2.67-9.26,22.8-14.53-24.92,7.2-3.27-11.31,41.82-12.08,4.52,15.66-24.2,15.28,28.58-.11,4.56,15.78Z"/>
        <path class="cls-2" d="M656.02,241.63l.64,16.35c.41,10.34-4.97,16.9-14.27,17.26-9.05,.35-14.72-5.63-15.13-16.11l-.15-3.75-14.09,.55-.49-12.6,43.49-1.71Zm-19.08,16.87c.11,2.84,2.06,4.64,4.97,4.53,2.84-.11,4.58-2.06,4.47-4.9l-.14-3.55-9.44,.37,.14,3.56Z"/>
        <path class="cls-2" d="M656.12,284.72l-1.37,12.54-43.27-4.74,1.37-12.54,43.27,4.75Z"/>
        <path class="cls-2" d="M633.12,303.12c12.63,3.83,18.72,16.08,14.66,29.45-4.03,13.31-15.96,20.1-28.52,16.29-12.63-3.82-18.78-16.1-14.75-29.4,4.05-13.37,15.98-20.17,28.6-16.34Zm-10.05,33.18c6.13,1.86,11.88-1.06,13.7-7.07,1.84-6.07-1.32-11.69-7.45-13.54-6.19-1.88-11.94,1.04-13.78,7.11-1.82,6,1.34,11.63,7.54,13.5Z"/>
        <path class="cls-2" d="M614.51,399.82l-37.29-22.43,6.67-11.08,26.52,1.69-20.23-12.16,6.17-10.25,37.29,22.43-6.7,11.14-26.44-1.71,20.17,12.13-6.16,10.25Z"/>
        <path class="cls-2" d="M585.51,389.54l-8.15,8.77c-2.6-2.33-5.07-2.24-7.23,.08-1.8,1.94-2.09,4.15-.62,5.51,1.28,1.19,2.6,1.09,5.3-.28l4.63-2.41c7.14-3.78,12.92-3.45,17.71,1,5.73,5.33,5.16,13.63-1.26,20.55-6.43,6.92-13.91,7.65-20.94,2l7.97-8.58c2.08,1.75,4.14,1.72,5.81-.08,1.5-1.61,1.61-3.54,.33-4.73-1.28-1.19-2.79-1.18-5.35,.15l-4.95,2.47c-7.73,3.94-12.44,3.89-17.13-.47-6.3-5.86-5.87-14.11,1.04-21.55,7.18-7.72,15.75-8.68,22.84-2.44Z"/>
      </g>
    </g>
  </g>
</svg>