<?xml version="1.0" encoding="UTF-8"?>
<svg id="Layer_2" data-name="Layer 2" xmlns="http://www.w3.org/2000/svg" viewBox="0 0 160 139.7">
  <defs>
    <style>
      .cls-1, .cls-2 {
        fill: #b48c52;
      }

      .cls-2 {
        fill-rule: evenodd;
      }
    </style>
  </defs>
  <g id="Layer_1-2" data-name="Layer 1">
    <g>
      <path class="cls-1" d="M97.9,108.18c-1.01,8.18-7.34,18.95-13.3,22.51-3.79-12.07,6.35-18.9,13.3-22.51"/>
      <path class="cls-1" d="M62.1,108.18c1.01,8.18,7.34,18.95,13.3,22.51,3.79-12.07-6.35-18.9-13.3-22.51"/>
      <path class="cls-1" d="M86.36,134.11c4.12,4.78,20.76,9.89,32-.36-7.06-2.65-18.24-7.59-32,.36"/>
      <path class="cls-1" d="M73.64,134.11c-4.13,4.78-20.77,9.89-32-.36,7.06-2.65,18.24-7.59,32,.36"/>
      <path class="cls-1" d="M113.26,103.06c0,15.34-8.05,21.33-16.37,24.57,1.01-10.24,4.09-17.4,16.37-24.57"/>
      <path class="cls-1" d="M46.74,103.06c0,15.34,8.05,21.33,16.37,24.57-1.01-10.24-4.09-17.4-16.37-24.57"/>
      <path class="cls-1" d="M137.32,121.71c-4.75,4.16-8.43,6.33-14.85,6.93-4.83,.55-9.71-.34-14.03-2.56,6.28-3.09,9.99-5.08,19.1-5.08,3.27,.02,6.54,.26,9.78,.71"/>
      <path class="cls-1" d="M22.68,121.71c4.75,4.16,8.43,6.33,14.84,6.93,4.83,.55,9.71-.34,14.03-2.56-6.22-3.02-9.94-5.08-19.04-5.08-3.29,.02-6.57,.26-9.83,.71"/>
      <path class="cls-1" d="M127.59,88.73c4.09,12.28,1.49,24.3-13.31,31.73,4.19-5.53,1.03-16.39,13.31-31.73"/>
      <path class="cls-1" d="M32.41,88.73c-4.09,12.28-1.49,24.3,13.32,31.73-4.2-5.53-1.03-16.39-13.32-31.73"/>
      <path class="cls-1" d="M149.69,106.4c-5.69,10.99-19.02,12-26.19,10.99,3.06-3.08,14.33-13.32,26.19-10.99"/>
      <path class="cls-1" d="M10.31,106.4c5.72,10.99,19.02,12,26.19,10.99-3.06-3.08-14.33-13.32-26.19-10.99"/>
      <path class="cls-1" d="M157.12,86.58c-1.9,12.44-12.12,17.49-22.9,18.58,3.89-9.67,12.57-17.28,22.9-18.58"/>
      <path class="cls-1" d="M2.88,86.58c1.9,12.44,12.12,17.49,22.9,18.58-3.89-9.67-12.57-17.28-22.9-18.58"/>
      <path class="cls-1" d="M137.83,71.32c4.09,7.11,.32,20.43-3.18,25.35-2.36-11.07-1.78-20.55,3.18-25.35"/>
      <path class="cls-1" d="M22.17,71.32c-4.09,7.11-.32,20.43,3.18,25.35,2.36-11.07,1.78-20.55-3.18-25.35"/>
      <path class="cls-1" d="M158.77,75.18c-2.38,7.98-12.62,12.66-18.56,14.79,3.21-7.81,10.23-13.41,18.56-14.79"/>
      <path class="cls-1" d="M1.23,75.18c2.38,7.98,12.62,12.66,18.56,14.79-3.21-7.81-10.23-13.41-18.56-14.79"/>
      <path class="cls-1" d="M160,62.13c-1.78,7.11-8.14,11.16-14.56,14.4,2.79-6.51,8.02-11.68,14.56-14.4"/>
      <path class="cls-1" d="M0,62.13c1.78,7.11,8.14,11.16,14.56,14.4-2.79-6.51-8.02-11.68-14.56-14.4"/>
      <path class="cls-1" d="M149.08,43.7c2.03,6.13,2.61,10.88,2.03,14.33-1.03,6.13-3.55,9.71-8.18,13.78-1.19-2.01-1.9-4.28-2.06-6.61,.02-9.21,5.1-16.98,8.21-21.49"/>
      <path class="cls-1" d="M10.92,43.7c-2.03,6.13-2.61,10.88-2.03,14.33,1.03,6.13,3.47,9.71,8.18,13.78,1.19-2.01,1.9-4.28,2.06-6.61-.02-9.21-5.1-16.98-8.21-21.49"/>
      <path class="cls-1" d="M72.17,91.22l-.28,.97-4.75-1.35,.14-.49c.1-.34,.25-.64,.44-.88,.2-.24,.42-.45,.66-.62,.24-.17,.5-.31,.78-.42,.28-.11,.55-.2,.81-.28,.34-.1,.64-.18,.88-.26,.24-.07,.45-.16,.61-.25,.17-.09,.29-.19,.39-.31,.09-.12,.17-.27,.22-.46,.11-.41,.09-.73-.07-.99s-.41-.43-.72-.51c-.36-.1-.69-.07-.98,.11-.29,.17-.49,.46-.61,.86l-1.1-.31c.1-.35,.25-.66,.44-.91,.19-.25,.42-.46,.68-.61s.55-.23,.86-.26c.32-.03,.65,.01,1.01,.11,.34,.09,.63,.23,.87,.41,.24,.17,.44,.38,.58,.62,.14,.24,.23,.51,.26,.8,.03,.29,0,.61-.09,.94-.09,.31-.21,.56-.37,.76-.16,.2-.35,.36-.57,.5-.22,.14-.47,.25-.75,.35-.28,.1-.59,.19-.92,.29-.52,.15-.94,.3-1.27,.46-.33,.16-.6,.4-.79,.71l3.62,1.02Z"/>
      <path class="cls-1" d="M77.28,93c-.53-.04-1.02-.17-1.46-.39-.44-.23-.81-.52-1.13-.88-.31-.36-.55-.78-.7-1.25-.16-.47-.22-.98-.18-1.52,.04-.54,.17-1.04,.39-1.48,.22-.45,.51-.83,.86-1.14,.35-.31,.77-.55,1.24-.71s.97-.22,1.5-.18c.54,.04,1.03,.17,1.47,.39,.45,.22,.82,.51,1.13,.87,.31,.36,.54,.77,.7,1.24,.16,.47,.21,.98,.18,1.52-.04,.54-.17,1.04-.39,1.48-.22,.45-.51,.82-.87,1.14-.36,.32-.77,.56-1.24,.72-.47,.16-.97,.22-1.51,.18m.09-1.05c.37,.03,.71-.02,1.04-.13,.33-.12,.61-.29,.85-.51s.45-.5,.6-.83c.15-.33,.25-.69,.27-1.09,.03-.39-.01-.76-.12-1.1-.11-.34-.27-.64-.48-.89-.22-.26-.47-.46-.78-.62-.3-.16-.63-.25-1-.28-.37-.03-.72,.02-1.04,.14-.32,.11-.61,.28-.85,.51-.25,.22-.45,.5-.6,.82-.15,.33-.24,.68-.27,1.07-.03,.4,.01,.77,.12,1.11,.11,.35,.26,.65,.47,.9,.21,.26,.47,.47,.77,.63,.31,.16,.64,.25,1.01,.28"/>
      <path class="cls-1" d="M87.59,91.27l.14,1-4.89,.67-.07-.51c-.05-.35-.03-.68,.05-.99,.08-.3,.2-.58,.36-.83,.16-.25,.34-.48,.55-.69s.42-.41,.63-.58c.28-.23,.51-.43,.7-.59,.19-.17,.35-.32,.46-.47,.11-.15,.19-.29,.23-.44,.04-.15,.05-.31,.02-.51-.06-.42-.21-.71-.46-.87-.25-.17-.54-.23-.87-.19-.37,.05-.66,.21-.86,.49-.19,.27-.27,.62-.21,1.03l-1.13,.15c-.05-.37-.04-.7,.03-1.02,.08-.31,.2-.59,.38-.82,.18-.24,.41-.43,.69-.59,.28-.15,.6-.25,.97-.3,.35-.05,.67-.04,.96,.02,.29,.06,.55,.17,.78,.34,.23,.16,.41,.37,.56,.63s.25,.55,.29,.9c.04,.31,.03,.59-.03,.84-.07,.24-.17,.47-.32,.69-.15,.21-.33,.42-.54,.62-.22,.2-.46,.41-.73,.63-.41,.34-.74,.65-.98,.93s-.39,.6-.44,.96l3.73-.51Z"/>
      <polygon class="cls-1" points="89.51 84.19 91.52 91.22 90.43 91.53 88.73 85.59 87.55 86.36 87.03 85.49 88.6 84.45 89.51 84.19"/>
      <path class="cls-1" d="M80.05,80.7c-16.99,0-30.81-13.82-30.81-30.81s13.82-30.81,30.81-30.81,30.8,13.82,30.8,30.81-13.82,30.81-30.8,30.81m0-60.41c-16.33,0-29.61,13.28-29.61,29.61s13.28,29.61,29.61,29.61,29.61-13.28,29.61-29.61-13.28-29.61-29.61-29.61"/>
      <path class="cls-1" d="M80.05,99.79c-13.33,0-25.86-5.19-35.28-14.62-9.43-9.42-14.62-21.95-14.62-35.28s5.19-25.86,14.62-35.28C54.2,5.19,66.73,0,80.05,0s25.86,5.19,35.28,14.62c9.43,9.42,14.62,21.95,14.62,35.28s-5.19,25.86-14.62,35.28c-9.42,9.43-21.95,14.62-35.28,14.62m0-97.79c-26.41,0-47.9,21.48-47.9,47.9s21.49,47.9,47.9,47.9,47.9-21.49,47.9-47.9S106.46,2,80.05,2"/>
      <path class="cls-1" d="M77.63,60.47c-1.11,.66-2.59,1-4.45,1h-7.9c-1.38,0-2.53-.07-3.47-.22-.94-.15-1.67-.5-2.21-1.05-.52-.53-.84-1.26-.94-2.21-.11-.94-.04-2.14,.21-3.61,.04-.25,.09-.51,.14-.76s.03-.17,.09-.45h5.23s-.06,.34-.07,.45c-.09,.53-.12,.96-.09,1.29,.03,.33,.13,.59,.3,.78,.17,.19,.42,.32,.74,.38,.32,.06,.73,.09,1.22,.09h6.68c.61,0,1.08-.14,1.41-.43,.33-.29,.55-.75,.65-1.38,.13-.76,.05-1.3-.24-1.62-.29-.32-.81-.48-1.58-.48h-5.56l.88-5.27h5.76c.98,0,1.58-.61,1.78-1.84,.13-.78,.04-1.32-.27-1.6-.31-.29-.87-.43-1.69-.43h-5.97c-.78,0-1.35,.17-1.72,.51-.36,.34-.63,1.01-.79,2l-.05,.29h-5.22c.03-.25,.05-.51,.09-.76s.07-.5,.11-.73c.2-1.2,.51-2.23,.92-3.08,.41-.85,.94-1.53,1.59-2.05,.65-.52,1.43-.89,2.34-1.13,.91-.23,1.98-.35,3.18-.35h7.67c1.16,0,2.12,.09,2.9,.25,.78,.17,1.39,.45,1.84,.83,.02,.02,.04,.03,.05,.05-.54,.54-1,1.19-1.37,1.95-.45,.93-.79,2.06-1.01,3.36-.04,.25-.08,.51-.11,.77-.04,.26-.07,.53-.09,.79l-.11,1.12h2.65c-.02,.05-.03,.11-.05,.16-.17,.47-.38,.86-.66,1.19-.27,.33-.62,.59-1.03,.79-.41,.2-.91,.37-1.51,.49,.59,.11,1.09,.25,1.49,.45,.4,.19,.71,.43,.92,.73,.21,.3,.35,.66,.4,1.1,.01,.11,.02,.21,.03,.33h-3.39l-.16,.82c-.03,.14-.04,.19-.05,.24s-.01,.08-.04,.2c-.05,.25-.1,.52-.15,.79-.26,1.57-.33,2.84-.21,3.89,.11,.94,.4,1.73,.86,2.37"/>
      <path class="cls-1" d="M78.38,53.18c-.05,.27-.03,.19-.09,.45-.05,.25-.1,.51-.14,.76-.25,1.46-.31,2.66-.21,3.61,.11,.94,.42,1.68,.95,2.21,.54,.55,1.27,.9,2.21,1.05,.93,.15,2.09,.22,3.47,.22h7.9c2.09,0,3.71-.42,4.85-1.25,1.14-.84,1.86-2.15,2.17-3.95l.48-2.89c.1-.59,.12-1.11,.07-1.54-.05-.43-.19-.8-.4-1.1s-.52-.54-.92-.73c-.4-.19-.9-.34-1.49-.45,.6-.13,1.1-.29,1.51-.49,.41-.2,.75-.47,1.02-.79s.49-.73,.66-1.19c.16-.47,.3-1.04,.41-1.72l.45-2.7c.15-.91,.16-1.67,.04-2.29-.13-.61-.41-1.11-.86-1.49-.45-.38-1.06-.66-1.84-.83-.78-.17-1.74-.25-2.9-.25h-7.67c-1.21,0-2.27,.12-3.18,.35-.92,.23-1.7,.61-2.34,1.13-.65,.52-1.18,1.2-1.59,2.05-.41,.85-.72,1.87-.92,3.08-.04,.23-.07,.48-.11,.73s-.06,.51-.09,.76h5.22l.05-.29c.17-.99,.43-1.66,.79-2,.36-.34,.93-.51,1.72-.51h5.97c.82,0,1.38,.15,1.69,.43,.31,.29,.4,.82,.27,1.6-.21,1.23-.8,1.84-1.79,1.84h-5.76l-.88,5.27h5.56c.76,0,1.29,.16,1.58,.48,.29,.32,.37,.86,.24,1.62-.11,.63-.32,1.1-.65,1.38s-.8,.43-1.41,.43h-6.68c-.49,0-.9-.03-1.22-.09-.32-.07-.57-.19-.74-.38-.17-.19-.27-.45-.31-.78-.03-.33,0-.76,.09-1.29,.02-.11,.07-.45,.07-.45h-5.23Z"/>
      <path class="cls-2" d="M80.09,65.52c-.07,0-.14,.05-.16,.12l-.9,2.69h-2.87c-.1,0-.18,.08-.18,.18,0,.05,.03,.11,.07,.14l2.33,1.7-.9,2.78c-.03,.09,.02,.19,.11,.23,.05,.02,.11,0,.16-.03l2.33-1.7,2.33,1.7c.08,.06,.19,.04,.25-.04,.03-.05,.05-.11,.03-.16l-.89-2.78,2.33-1.7c.08-.06,.1-.17,.04-.25-.03-.05-.09-.07-.14-.07h-2.87l-.89-2.69c-.03-.08-.1-.13-.18-.12"/>
      <polygon class="cls-1" points="65.64 32.99 65.64 36.08 64.81 36.08 64.81 34.24 64.26 36.08 63.58 36.08 63.04 34.24 63.04 36.08 62.2 36.08 62.2 32.99 63.36 32.99 63.93 34.94 64.48 32.99 65.64 32.99"/>
      <path class="cls-1" d="M68.01,35.54h-.96l-.17,.54h-.94l1.11-3.09h.95l1.11,3.09h-.94l-.17-.54Zm-.48-1.66l-.29,1.02h.58l-.29-1.02Z"/>
      <polygon class="cls-1" points="71.18 36.08 70.68 35.15 70.17 36.08 69.16 36.08 70.11 34.49 69.22 32.99 70.22 32.99 70.68 33.84 71.11 32.99 72.12 32.99 71.24 34.49 72.19 36.08 71.18 36.08"/>
      <polygon class="cls-1" points="76.44 32.99 75.41 36.08 74.46 36.08 73.44 32.99 74.4 32.99 74.94 34.92 75.47 32.99 76.44 32.99"/>
      <polygon class="cls-1" points="76.74 32.99 78.67 32.99 78.67 33.74 77.63 33.74 77.63 34.17 78.63 34.17 78.63 34.86 77.63 34.86 77.63 35.33 78.72 35.33 78.72 36.08 76.74 36.08 76.74 32.99"/>
      <path class="cls-1" d="M79.2,32.99h1.16c.73,0,1.18,.4,1.18,1.06,0,.39-.16,.68-.45,.85l.68,1.17h-1.03l-.53-1h-.12v1h-.89v-3.09Zm1.14,1.4c.2,0,.33-.13,.33-.34s-.13-.33-.33-.33h-.25v.67h.25Z"/>
      <path class="cls-1" d="M81.89,35.07h.85c0,.25,.13,.37,.35,.37,.19,0,.32-.09,.32-.23,0-.12-.07-.19-.27-.26l-.35-.13c-.54-.19-.8-.5-.8-.97,0-.55,.46-.93,1.13-.93s1.07,.35,1.11,.99h-.83c-.01-.19-.11-.3-.29-.3-.16,0-.26,.09-.26,.21s.07,.2,.27,.27l.37,.14c.58,.21,.8,.46,.8,.91,0,.61-.45,.98-1.17,.98s-1.21-.4-1.23-1.07"/>
      <polygon class="cls-1" points="85.2 33.8 84.45 33.8 84.45 32.99 86.9 32.99 86.9 33.8 86.09 33.8 86.09 36.08 85.2 36.08 85.2 33.8"/>
      <path class="cls-1" d="M88.73,35.54h-.97l-.17,.54h-.94l1.11-3.09h.95l1.11,3.09h-.93l-.17-.54Zm-.48-1.66l-.29,1.02h.58l-.29-1.02Z"/>
      <path class="cls-1" d="M90.12,32.99h1.16c.73,0,1.18,.4,1.18,1.06s-.44,1.03-1.18,1.03h-.27v1h-.89v-3.09Zm1.14,1.4c.2,0,.33-.13,.33-.34s-.13-.33-.33-.33h-.25v.67h.25Z"/>
      <path class="cls-1" d="M92.84,32.99h1.16c.73,0,1.18,.4,1.18,1.06s-.44,1.03-1.18,1.03h-.27v1h-.89v-3.09Zm1.14,1.4c.2,0,.33-.13,.33-.34s-.13-.33-.33-.33h-.25v.67h.25Z"/>
      <polygon class="cls-1" points="95.55 32.99 97.49 32.99 97.49 33.74 96.45 33.74 96.45 34.17 97.44 34.17 97.44 34.86 96.45 34.86 96.45 35.33 97.54 35.33 97.54 36.08 95.55 36.08 95.55 32.99"/>
      <polygon class="cls-1" points="100.64 32.99 100.64 36.08 99.73 36.08 98.86 34.41 98.86 36.08 98.01 36.08 98.01 32.99 98.93 32.99 99.8 34.66 99.8 32.99 100.64 32.99"/>
      <path class="cls-1" d="M36.63,53.07l.06-3.42c.05-2.69,1.78-4.53,4.19-4.49,2.41,.05,4.13,2,4.08,4.64l-.06,3.42-8.28-.15Zm6.19-3.31c.02-1.27-.75-2.08-1.98-2.1-1.21-.02-1.97,.75-2,2.03l-.02,1.02,3.97,.07,.02-1.02Z"/>
      <path class="cls-1" d="M37.25,42.55l.75-3.02c.48-1.91,1.81-2.82,3.53-2.39,1.02,.25,1.68,.86,1.93,1.72l3.49-.99-.66,2.66-2.95,.73-.08,.31,2.6,.65-.58,2.33-8.03-2.01Zm4.38-2.06c.13-.53-.13-.96-.67-1.09s-.95,.13-1.08,.66l-.16,.66,1.74,.43,.17-.66Z"/>
      <rect class="cls-1" x="42.79" y="30.53" width="2.4" height="8.28" transform="translate(-5.16 61.52) rotate(-66.89)"/>
      <polygon class="cls-1" points="45.63 23.42 51.13 30.19 49.76 32.35 41.3 30.22 42.69 28.04 47.84 29.59 44.23 25.61 45.63 23.42"/>
      <polygon class="cls-1" points="47.01 21.91 50.6 18.16 52.04 19.55 50.11 21.56 50.94 22.35 52.79 20.43 54.14 21.72 52.29 23.65 53.19 24.52 55.22 22.4 56.67 23.79 52.98 27.64 47.01 21.91"/>
      <path class="cls-1" d="M52.54,16.44l2.54-1.8c1.61-1.14,3.21-.96,4.23,.49,.6,.85,.71,1.74,.34,2.56l3.29,1.53-2.24,1.58-2.71-1.37-.26,.19,1.55,2.19-1.96,1.38-4.78-6.76Zm4.67,1.3c.44-.31,.53-.81,.21-1.26-.31-.44-.8-.52-1.24-.21l-.55,.39,1.04,1.47,.55-.39Z"/>
      <path class="cls-1" d="M61.84,16.82l2.08-.92c.28,.6,.72,.77,1.27,.53,.46-.2,.68-.57,.52-.92-.13-.31-.37-.39-.95-.35l-.99,.07c-1.53,.13-2.52-.37-3.02-1.5-.6-1.36,.12-2.77,1.76-3.5,1.64-.73,3.01-.29,3.81,1.22l-2.04,.9c-.23-.46-.59-.61-1.02-.43-.38,.17-.55,.5-.41,.8,.14,.31,.4,.42,.95,.38l1.05-.06c1.65-.11,2.47,.25,2.96,1.37,.66,1.5-.03,2.91-1.8,3.69-1.83,.81-3.4,.33-4.17-1.29"/>
      <polygon class="cls-1" points="67.27 8.64 69.74 7.95 70.01 11.8 68.25 12.29 67.27 8.64"/>
      <path class="cls-1" d="M75.41,10.89c-.01-2.51,1.85-4.32,4.47-4.33,2.44-.01,4.26,1.48,4.44,3.65h-2.5c-.21-.9-.97-1.47-1.94-1.46-1.16,0-1.98,.87-1.97,2.11,0,1.26,.83,2.11,1.99,2.11,.97,0,1.72-.59,1.92-1.5h2.5c-.16,2.16-1.96,3.67-4.4,3.69-2.63,.01-4.5-1.77-4.51-4.27"/>
      <polygon class="cls-1" points="86.96 7.12 89.27 7.69 88.58 10.55 90.79 11.09 91.49 8.22 93.81 8.79 91.84 16.83 89.53 16.27 90.28 13.18 88.07 12.64 87.32 15.73 85 15.16 86.96 7.12"/>
      <path class="cls-1" d="M97.8,18.1l-2.3-1.17-1.06,1.08-2.24-1.14,6.4-6.03,2.27,1.15-1.09,8.73-2.24-1.14,.26-1.48Zm.87-4.57l-1.93,2.08,1.39,.71,.53-2.79Z"/>
      <polygon class="cls-1" points="112.46 20.85 106.93 27.01 105.26 25.52 108.56 21.85 104.17 24.55 102.81 23.32 105.02 18.68 101.73 22.35 100.06 20.86 105.59 14.7 107.9 16.76 105.53 21.67 110.13 18.77 112.46 20.85"/>
      <path class="cls-1" d="M114.35,23.34l1.75,2.57c1.11,1.63,.9,3.23-.56,4.22-1.42,.97-2.94,.58-4.07-1.07l-.4-.59-2.22,1.51-1.35-1.98,6.84-4.66Zm-1.37,4.64c.31,.45,.8,.54,1.26,.23,.45-.31,.53-.79,.23-1.24l-.38-.56-1.48,1.01,.38,.56Z"/>
      <rect class="cls-1" x="111.36" y="31.97" width="8.28" height="2.4" transform="translate(-3 53.11) rotate(-25.57)"/>
      <path class="cls-1" d="M116.85,35.59c2.43-.65,4.64,.73,5.32,3.29,.68,2.56-.57,4.85-2.98,5.49-2.43,.65-4.65-.72-5.33-3.28-.68-2.57,.57-4.86,2.99-5.5m1.7,6.37c1.18-.31,1.81-1.36,1.51-2.51-.31-1.16-1.38-1.76-2.56-1.44-1.19,.31-1.83,1.36-1.52,2.53,.31,1.15,1.38,1.75,2.57,1.43"/>
      <polygon class="cls-1" points="123.51 53.08 115.23 53.19 115.2 50.73 119.66 48.35 115.17 48.4 115.15 46.13 123.42 46.03 123.45 48.5 119 50.86 123.48 50.81 123.51 53.08"/>
    </g>
  </g>
</svg>