<?xml version="1.0" encoding="UTF-8"?>
<svg id="Layer_2" data-name="Layer 2" xmlns="http://www.w3.org/2000/svg" viewBox="0 0 160 139.7">
  <defs>
    <style>
      .cls-1 {
        fill: #b48c52;
      }
    </style>
  </defs>
  <g id="Layer_1-2" data-name="Layer 1">
    <path class="cls-1" d="M97.9,108.17c-1.01,8.18-7.34,18.95-13.3,22.51-3.79-12.07,6.35-18.9,13.3-22.51Zm-35.8,0c1.01,8.18,7.34,18.95,13.3,22.51,3.79-12.07-6.35-18.9-13.3-22.51Zm24.27,25.94c4.12,4.78,20.76,9.88,32-.36-7.06-2.65-18.24-7.59-32,.36Zm-44.73-.36c11.24,10.24,27.88,5.14,32,.36-13.76-7.95-24.94-3-32-.36Zm55.25-6.13c8.32-3.24,16.37-9.23,16.37-24.57-12.28,7.16-15.36,14.33-16.37,24.57Zm-50.15-24.57c0,15.34,8.05,21.33,16.37,24.57-1.01-10.24-4.09-17.4-16.37-24.57Zm80.8,17.94c-9.1,0-12.82,1.99-19.09,5.08,4.32,2.22,9.2,3.12,14.03,2.56,6.42-.6,10.1-2.77,14.84-6.93-3.24-.45-6.51-.69-9.78-.71Zm-104.85,.71c4.75,4.16,8.43,6.33,14.84,6.93,4.83,.56,9.71-.34,14.03-2.56-6.22-3.02-9.94-5.08-19.04-5.08-3.29,.02-6.57,.26-9.83,.71Zm91.59-1.24c14.81-7.43,17.4-19.45,13.32-31.73-12.28,15.34-9.12,26.2-13.32,31.73Zm-81.87-31.73c-4.09,12.28-1.49,24.3,13.32,31.73-4.2-5.53-1.03-16.39-13.32-31.73Zm91.09,28.66c7.16,1.01,20.5,0,26.19-10.99-11.86-2.33-23.13,7.91-26.19,10.99ZM10.31,106.4c5.72,10.99,19.02,12,26.19,10.99-3.06-3.08-14.33-13.32-26.19-10.99Zm123.91-1.24c10.77-1.08,21-6.13,22.9-18.58-10.33,1.3-19,8.91-22.9,18.58ZM2.88,86.57c1.9,12.44,12.12,17.49,22.9,18.58-3.89-9.67-12.57-17.28-22.9-18.58Zm131.77,10.1c3.5-4.92,7.27-18.24,3.18-25.35-4.96,4.8-5.55,14.28-3.18,25.35ZM22.17,71.32c-4.09,7.11-.32,20.43,3.18,25.35,2.36-11.08,1.78-20.55-3.18-25.35Zm118.04,18.65c5.94-2.13,16.18-6.81,18.56-14.79-8.33,1.38-15.35,6.98-18.56,14.79ZM1.23,75.18c2.38,7.98,12.62,12.66,18.56,14.79-3.21-7.81-10.23-13.41-18.56-14.79Zm144.21,1.35c6.42-3.24,12.78-7.29,14.56-14.4-6.54,2.72-11.76,7.89-14.56,14.4ZM0,62.13c1.78,7.11,8.14,11.16,14.56,14.4-2.8-6.51-8.02-11.68-14.56-14.4Zm140.87,3.06c.16,2.34,.87,4.6,2.06,6.61,4.62-4.07,7.15-7.64,8.18-13.78,.59-3.45,0-8.2-2.03-14.33-3.11,4.52-8.2,12.28-8.21,21.49ZM10.92,43.69c-2.03,6.13-2.61,10.88-2.03,14.33,1.03,6.13,3.47,9.71,8.18,13.78,1.19-2.01,1.9-4.28,2.06-6.61-.02-9.21-5.1-16.98-8.21-21.49Zm57.64,46.5c.19-.31,.46-.54,.79-.7,.33-.16,.76-.32,1.27-.46,.34-.09,.64-.19,.92-.29s.53-.21,.75-.35c.22-.14,.41-.3,.57-.5,.16-.2,.28-.45,.37-.75,.1-.33,.13-.65,.09-.94-.03-.29-.12-.56-.26-.8-.14-.24-.34-.45-.58-.62s-.53-.31-.87-.4c-.36-.1-.69-.14-1.01-.11-.32,.03-.61,.11-.87,.26-.26,.15-.49,.35-.68,.6-.19,.25-.34,.56-.44,.91l1.1,.31c.11-.4,.31-.68,.61-.86,.29-.17,.62-.21,.98-.11,.31,.09,.55,.26,.72,.51,.17,.25,.19,.58,.08,.99-.05,.19-.13,.34-.22,.46-.09,.12-.22,.22-.39,.31s-.37,.17-.61,.24c-.24,.07-.54,.16-.88,.26-.26,.08-.53,.17-.81,.28-.28,.11-.54,.25-.78,.42-.24,.17-.46,.37-.66,.62-.2,.25-.34,.54-.44,.88l-.14,.49,4.75,1.35,.28-.97-3.62-1.03Zm10.24,2.62c.47-.16,.88-.4,1.24-.71,.36-.32,.65-.7,.87-1.14,.22-.45,.35-.94,.39-1.48,.04-.54-.02-1.05-.18-1.52-.16-.47-.39-.89-.7-1.25-.31-.36-.69-.65-1.13-.87-.45-.22-.94-.35-1.47-.39-.54-.04-1.04,.02-1.51,.18-.47,.16-.88,.4-1.24,.71-.36,.31-.64,.69-.86,1.14-.22,.45-.35,.94-.39,1.48-.04,.54,.02,1.05,.18,1.52s.39,.89,.7,1.25c.31,.36,.69,.66,1.13,.88,.44,.22,.92,.35,1.46,.39s1.04-.02,1.51-.18Zm-2.43-1.14c-.3-.16-.56-.37-.77-.63-.21-.26-.37-.56-.48-.9-.11-.34-.15-.72-.12-1.11,.03-.39,.12-.75,.27-1.07s.35-.6,.6-.82c.24-.22,.53-.39,.85-.51,.32-.12,.67-.16,1.04-.14,.37,.03,.7,.12,1,.28,.3,.16,.56,.37,.77,.62,.21,.25,.38,.55,.48,.89,.11,.34,.15,.71,.12,1.1-.03,.4-.12,.76-.27,1.09-.15,.33-.35,.6-.6,.83-.24,.23-.53,.4-.85,.51s-.67,.16-1.04,.14c-.37-.03-.71-.12-1.01-.28Zm7.5,.1c.05-.36,.2-.68,.44-.96,.24-.28,.57-.59,.98-.93,.27-.22,.51-.43,.73-.63,.22-.2,.4-.41,.55-.62,.15-.21,.25-.44,.32-.69,.07-.24,.08-.52,.03-.84-.05-.34-.15-.64-.29-.9-.15-.25-.34-.46-.56-.63-.23-.16-.49-.28-.78-.34-.29-.06-.61-.07-.96-.02-.37,.05-.69,.15-.97,.3-.28,.15-.51,.35-.69,.59s-.31,.52-.38,.82c-.07,.31-.09,.65-.04,1.01l1.13-.15c-.06-.41,.01-.75,.21-1.03,.2-.28,.48-.44,.85-.49,.32-.04,.61,.02,.86,.18,.25,.17,.41,.46,.47,.87,.03,.19,.02,.36-.02,.51-.04,.14-.12,.29-.23,.44s-.27,.3-.46,.47c-.19,.17-.43,.36-.7,.59-.21,.17-.42,.37-.63,.58-.21,.21-.39,.44-.55,.69-.16,.25-.27,.53-.36,.83-.08,.3-.1,.63-.05,.98l.07,.51,4.89-.67-.14-1-3.73,.51Zm27-41.88c0-16.98-13.82-30.81-30.81-30.81s-30.81,13.82-30.81,30.81,13.82,30.81,30.81,30.81,30.81-13.82,30.81-30.81Zm-1.2,0c0,16.33-13.28,29.61-29.61,29.61s-29.61-13.28-29.61-29.61,13.28-29.61,29.61-29.61,29.61,13.28,29.61,29.61Zm20.29,0C129.95,22.38,107.57,0,80.06,0S30.16,22.38,30.16,49.89s22.38,49.9,49.9,49.9,49.89-22.38,49.89-49.9Zm-2,0c0,26.41-21.49,47.9-47.9,47.9s-47.9-21.49-47.9-47.9S53.64,2,80.06,2s47.9,21.49,47.9,47.9Zm-43.13,15.62c-.07,0-.14,.05-.16,.12l-.9,2.69h-2.87c-.1,0-.18,.08-.18,.18,0,.06,.03,.11,.07,.14l2.33,1.7-.9,2.78c-.03,.09,.02,.19,.11,.22,.05,.02,.11,0,.16-.03l2.33-1.7,2.33,1.7c.08,.06,.19,.04,.25-.04,.03-.05,.04-.11,.03-.16l-.9-2.78,2.33-1.7c.08-.06,.1-.17,.04-.25-.03-.05-.09-.07-.14-.07h-2.87l-.9-2.69c-.02-.08-.1-.13-.18-.12Zm-9.24,0c-.07,0-.14,.05-.16,.12l-.9,2.69h-2.87c-.1,0-.18,.08-.18,.18,0,.06,.03,.11,.07,.14l2.33,1.7-.9,2.78c-.03,.09,.02,.19,.11,.22,.05,.02,.11,0,.16-.03l2.33-1.7,2.33,1.7c.08,.06,.19,.04,.25-.04,.03-.05,.04-.11,.03-.16l-.9-2.78,2.33-1.7c.08-.06,.1-.17,.04-.25-.03-.05-.09-.07-.14-.07h-2.87l-.9-2.69c-.02-.08-.1-.13-.18-.12Zm-11.1-32.54l-.56,1.95-.57-1.95h-1.16v3.1h.84v-1.84l.54,1.84h.69l.55-1.84v1.84h.84v-3.1h-1.17Zm3.69,3.1h.94l-1.11-3.1h-.95l-1.11,3.1h.94l.17-.54h.97l.17,.54Zm-.35-1.19h-.58l.29-1.02,.29,1.02Zm4.37,1.19l-.95-1.59,.89-1.5h-1.01l-.44,.85-.46-.85h-1.01l.9,1.5-.95,1.59h1.01l.51-.93,.5,.93h1.02Zm3.28-3.1l-.53,1.94-.54-1.94h-.97l1.03,3.1h.96l1.03-3.1h-.97Zm1.26,3.1h1.99v-.75h-1.09v-.47h1v-.7h-1v-.43h1.04v-.75h-1.94v3.1Zm2.46,0h.9v-1h.12l.53,1h1.03l-.68-1.18c.29-.17,.45-.46,.45-.86,0-.66-.45-1.06-1.19-1.06h-1.16v3.1Zm.89-1.69v-.67h.25c.2,0,.34,.13,.34,.33s-.13,.34-.34,.34h-.25Zm3.04,1.76c.72,0,1.17-.38,1.17-.99,0-.46-.23-.7-.81-.92l-.37-.14c-.19-.07-.27-.15-.27-.27s.11-.21,.26-.21c.17,0,.28,.11,.29,.3h.83c-.05-.64-.45-.99-1.12-.99s-1.13,.37-1.13,.93c0,.46,.26,.78,.8,.97l.35,.12c.2,.07,.27,.14,.27,.26,0,.14-.13,.23-.32,.23-.23,0-.35-.12-.35-.37h-.85c.02,.67,.48,1.07,1.23,1.07Zm2.08-.06h.89v-2.29h.81v-.8h-2.45v.8h.75v2.29Zm3.69,0h.94l-1.11-3.1h-.95l-1.11,3.1h.94l.17-.54h.97l.17,.54Zm-.35-1.19h-.58l.29-1.02,.29,1.02Zm1.58,1.19h.9v-1h.27c.75,0,1.19-.39,1.19-1.03s-.45-1.06-1.19-1.06h-1.16v3.1Zm.89-1.69v-.67h.25c.2,0,.34,.13,.34,.33s-.13,.34-.34,.34h-.25Zm1.82,1.69h.9v-1h.27c.75,0,1.19-.39,1.19-1.03s-.45-1.06-1.19-1.06h-1.16v3.1Zm.89-1.69v-.67h.25c.2,0,.34,.13,.34,.33s-.13,.34-.34,.34h-.25Zm1.82,1.69h1.99v-.75h-1.09v-.47h1v-.7h-1v-.43h1.04v-.75h-1.94v3.1Zm4.25-3.1v1.67l-.86-1.67h-.93v3.1h.85v-1.68l.87,1.68h.92v-3.1h-.85Zm-54.89,20.22l.07-3.42c.05-2.64-1.67-4.59-4.07-4.64-2.41-.05-4.14,1.79-4.2,4.48l-.07,3.42,8.27,.17Zm-2.1-2.44l-3.97-.08,.02-1.02c.02-1.28,.79-2.05,1.99-2.03,1.23,.02,2,.84,1.97,2.11l-.02,1.02Zm2.48-6.24l.59-2.33-2.6-.66,.08-.31,2.95-.73,.67-2.66-3.5,.99c-.25-.87-.91-1.48-1.92-1.73-1.72-.43-3.05,.47-3.53,2.38l-.76,3.02,8.04,2.03Zm-3.81-3.43l-1.74-.44,.16-.66c.13-.52,.55-.79,1.08-.65,.54,.14,.8,.57,.66,1.09l-.16,.66Zm5.85-3.69l.94-2.2-7.61-3.24-.94,2.21,7.61,3.24Zm-3.11-11.79l3.61,3.99-5.16-1.55-1.39,2.18,8.47,2.13,1.37-2.16-5.52-6.77-1.39,2.19Zm8.76,2.04l3.69-3.84-1.45-1.39-2.03,2.11-.91-.87,1.85-1.92-1.35-1.29-1.85,1.93-.83-.79,1.93-2.01-1.45-1.39-3.6,3.74,5.97,5.73Zm4.35-4.45l1.96-1.38-1.55-2.19,.26-.18,2.71,1.37,2.24-1.58-3.29-1.53c.37-.82,.27-1.71-.33-2.56-1.02-1.45-2.62-1.63-4.23-.49l-2.54,1.79,4.77,6.76Zm-.66-5.07l-1.04-1.47,.55-.39c.44-.31,.93-.24,1.25,.21,.32,.45,.23,.95-.21,1.26l-.55,.39Zm9.33,0c1.76-.78,2.46-2.19,1.8-3.68-.49-1.11-1.31-1.48-2.95-1.37l-1.05,.06c-.55,.04-.81-.07-.94-.37-.13-.31,.03-.63,.41-.8,.43-.19,.79-.04,1.02,.42l2.04-.9c-.8-1.51-2.16-1.95-3.8-1.22-1.64,.72-2.36,2.13-1.76,3.49,.5,1.14,1.48,1.63,3.01,1.5l.99-.07c.58-.04,.81,.05,.95,.35,.16,.35-.06,.71-.52,.92-.55,.24-.99,.07-1.27-.53l-2.08,.92c.77,1.62,2.34,2.1,4.17,1.29Zm2.26-5.84l1.76-.49-.27-3.84-2.47,.69,.98,3.65Zm11.69,2.87c2.44-.01,4.24-1.53,4.4-3.7h-2.5c-.2,.93-.95,1.51-1.92,1.51-1.16,0-1.99-.85-1.99-2.11,0-1.24,.81-2.11,1.97-2.12,.97,0,1.73,.57,1.94,1.48h2.5c-.17-2.19-2-3.68-4.44-3.67-2.62,.02-4.48,1.82-4.47,4.33,.01,2.5,1.88,4.29,4.52,4.27Zm5.04,.01l2.32,.57,.75-3.08,2.21,.54-.75,3.08,2.32,.57,1.96-8.04-2.32-.57-.7,2.87-2.21-.54,.7-2.87-2.32-.57-1.96,8.04Zm12.54,4.42l2.24,1.14,1.09-8.74-2.27-1.15-6.41,6.05,2.24,1.14,1.06-1.08,2.31,1.17-.26,1.49Zm.59-3.26l-1.4-.71,1.93-2.09-.53,2.8Zm11.96,2.39l-4.6,2.91,2.35-4.91-2.31-2.06-5.52,6.18,1.67,1.49,3.29-3.68-2.2,4.65,1.37,1.22,4.38-2.71-3.29,3.68,1.67,1.49,5.52-6.18-2.33-2.08Zm-2.59,9.28l1.35,1.98,2.21-1.51,.4,.59c1.12,1.64,2.64,2.04,4.06,1.07,1.46-1,1.67-2.59,.56-4.22l-1.75-2.57-6.83,4.66Zm5.08-.58l1.48-1.01,.38,.56c.31,.45,.22,.93-.23,1.24-.46,.31-.95,.22-1.26-.23l-.38-.56Zm-1.35,6.43l1.04,2.16,7.46-3.59-1.04-2.16-7.46,3.59Zm2.63,7.25c.68,2.55,2.91,3.92,5.33,3.28,2.41-.64,3.66-2.94,2.98-5.49-.69-2.57-2.9-3.94-5.32-3.29-2.42,.65-3.67,2.94-2.99,5.51Zm2.12-.56c-.31-1.16,.33-2.21,1.51-2.53,1.18-.31,2.25,.28,2.56,1.44,.31,1.15-.33,2.2-1.51,2.51-1.19,.32-2.26-.27-2.57-1.43Zm7.52,10.25l-4.48,.06,4.45-2.37-.03-2.48-8.29,.11,.03,2.28,4.5-.06-4.47,2.38,.03,2.46,8.29-.11-.03-2.28Zm-33.42,39.89c0-.35,.09-.68,.27-.99s.45-.66,.79-1.05c.23-.25,.43-.5,.61-.72,.18-.23,.32-.46,.42-.68,.11-.23,.18-.46,.2-.71,.03-.25,0-.51-.1-.81-.1-.32-.25-.59-.42-.81-.18-.23-.4-.4-.64-.52-.25-.12-.51-.18-.8-.2-.29-.01-.6,.03-.92,.13-.35,.1-.64,.25-.88,.44-.25,.19-.44,.42-.57,.67-.14,.26-.21,.54-.23,.85-.03,.31,.01,.63,.12,.98l1.06-.32c-.12-.39-.1-.72,.05-1.02,.14-.29,.39-.5,.74-.6,.3-.1,.59-.08,.86,.04,.27,.12,.46,.38,.58,.76,.05,.18,.07,.35,.06,.49-.01,.14-.06,.3-.15,.46-.09,.16-.21,.33-.37,.52-.16,.18-.35,.41-.58,.67-.18,.2-.35,.42-.52,.65-.16,.23-.3,.48-.42,.75-.11,.27-.18,.55-.21,.86-.03,.3,0,.62,.11,.95l.14,.48,4.59-1.4-.29-.94-3.5,1.07Zm-1.54-52.84h-11.09l-6.71,3.12,3.19,6.13,1.76-.9-3.25,15.3h11.08l5.03-23.66Z"/>
  </g>
</svg>