<?xml version="1.0" encoding="utf-8"?>
<!-- Generator: Adobe Illustrator 28.1.0, SVG Export Plug-In . SVG Version: 6.00 Build 0)  -->
<svg version="1.1" id="Layer_1" xmlns="http://www.w3.org/2000/svg" xmlns:xlink="http://www.w3.org/1999/xlink" x="0px" y="0px"
	 viewBox="0 0 676.9 591" style="enable-background:new 0 0 676.9 591;" xml:space="preserve">
<style type="text/css">
	.st0{fill:#B48C52;}
</style>
<path class="st0" d="M414.2,457.6c-4.3,34.6-31.1,80.2-56.3,95.2C341.9,501.8,384.8,472.9,414.2,457.6L414.2,457.6z M262.7,457.6
	c4.3,34.6,31.1,80.2,56.3,95.2C335,501.8,292.1,472.9,262.7,457.6L262.7,457.6z M365.4,567.4c17.5,20.2,87.8,41.8,135.4-1.5
	C470.9,554.6,423.6,533.8,365.4,567.4z M176.1,565.9c47.5,43.3,117.9,21.7,135.4,1.5C253.3,533.7,206,554.6,176.1,565.9z
	 M409.9,539.9c35.2-13.7,69.3-39,69.3-103.9C427.2,466.3,414.2,496.6,409.9,539.9z M197.7,436c0,64.9,34.1,90.2,69.3,103.9
	C262.7,496.6,249.7,466.3,197.7,436z M539.6,511.9c-38.5,0-54.2,8.4-80.8,21.5c18.3,9.4,38.9,13.2,59.3,10.8
	c27.2-2.6,42.7-11.7,62.8-29.3C567.2,513,553.4,512,539.6,511.9L539.6,511.9z M96,514.9c20.1,17.6,35.6,26.8,62.8,29.3
	c20.4,2.3,41.1-1.4,59.3-10.8c-26.3-12.8-42-21.5-80.6-21.5C123.7,511.9,109.8,513,96,514.9z M483.4,509.6
	c62.7-31.4,73.6-82.3,56.3-134.2C487.8,440.3,501.2,486.2,483.4,509.6z M137.1,375.4c-17.3,52-6.3,102.8,56.3,134.2
	C175.7,486.2,189.1,440.3,137.1,375.4z M522.5,496.6c30.3,4.3,86.7,0,110.8-46.5C583.1,440.3,535.4,483.6,522.5,496.6z M43.6,450.1
	c24.2,46.5,80.5,50.8,110.8,46.5C141.5,483.6,93.8,440.3,43.6,450.1z M567.8,444.9c45.6-4.6,88.8-26,96.9-78.6
	C621,371.8,584.3,403.9,567.8,444.9z M12.2,366.2c8,52.6,51.3,74,96.9,78.6C92.6,403.9,55.9,371.7,12.2,366.2z M569.6,409
	c14.8-20.8,30.8-77.2,13.5-107.2C562.1,322,559.6,362.1,569.6,409z M93.8,301.7c-17.3,30.1-1.3,86.4,13.5,107.2
	C117.3,362.1,114.8,322,93.8,301.7z M593.2,380.6c25.1-9,68.4-28.8,78.5-62.6C636.4,323.9,606.7,347.6,593.2,380.6z M5.2,318
	c10.1,33.8,53.4,53.5,78.5,62.6C70.2,347.6,40.4,323.9,5.2,318z M615.3,323.8c27.2-13.7,54.1-30.8,61.6-60.9
	C649.2,274.4,627.1,296.2,615.3,323.8z M0,262.8c7.5,30.1,34.5,47.2,61.6,60.9C49.8,296.2,27.7,274.4,0,262.8L0,262.8z M596,275.8
	c0.7,9.9,3.7,19.5,8.7,28c19.5-17.2,30.2-32.3,34.6-58.3c2.5-14.6,0-34.7-8.6-60.6C617.5,204,596,236.8,596,275.8L596,275.8z
	 M46.2,184.8c-8.6,25.9-11.1,46-8.6,60.6c4.4,26,14.7,41.1,34.6,58.3c5.1-8.5,8-18.1,8.7-28C80.8,236.8,59.3,203.9,46.2,184.8z
	 M469,211.1c0-71.8-58.5-130.3-130.3-130.3s-130.3,58.5-130.3,130.3s58.5,130.3,130.3,130.3S469,282.9,469,211.1L469,211.1z
	 M463.9,211.1c0,69.1-56.2,125.3-125.2,125.3s-125.2-56.2-125.2-125.2S269.6,85.8,338.7,85.8S463.9,142,463.9,211.1L463.9,211.1z
	 M549.8,211.1C549.8,94.7,455.1,0,338.7,0S127.6,94.7,127.6,211.1s94.7,211.1,211.1,211.1S549.7,327.5,549.8,211.1L549.8,211.1z
	 M541.3,211.1c0,111.7-90.9,202.6-202.6,202.6S136,322.8,136,211.1S226.9,8.4,338.7,8.4S541.3,99.4,541.3,211.1z M338,277.2
	c-0.3,0-0.6,0.2-0.7,0.5l-3.8,11.4h-12.1c-0.4,0-0.8,0.3-0.8,0.8c0,0.2,0.1,0.5,0.3,0.6l9.9,7.2l-3.8,11.8c-0.1,0.4,0.1,0.8,0.5,1
	c0.2,0.1,0.5,0,0.7-0.1l9.9-7.2l9.9,7.2c0.3,0.2,0.8,0.2,1-0.2c0.1-0.2,0.2-0.5,0.1-0.7l-3.8-11.8l9.9-7.2c0.3-0.2,0.4-0.7,0.2-1.1
	c-0.1-0.2-0.4-0.3-0.6-0.3h-12.1l-3.8-11.4C338.6,277.4,338.3,277.1,338,277.2L338,277.2z M377.2,277.2c-0.3,0-0.6,0.2-0.7,0.5
	l-3.8,11.4h-12.1c-0.4,0-0.8,0.3-0.8,0.8c0,0.2,0.1,0.5,0.3,0.6l9.9,7.2l-3.8,11.8c-0.1,0.4,0.1,0.8,0.5,1c0.2,0.1,0.5,0,0.7-0.1
	l9.9-7.2l9.9,7.2c0.3,0.2,0.8,0.2,1-0.2c0.1-0.2,0.2-0.5,0.1-0.7l-3.8-11.8l9.9-7.2c0.3-0.2,0.4-0.7,0.2-1.1
	c-0.1-0.2-0.4-0.3-0.6-0.3h-12.1l-3.8-11.4C377.8,277.4,377.5,277.1,377.2,277.2L377.2,277.2z M298.9,277.2c-0.3,0-0.6,0.2-0.7,0.5
	l-3.8,11.4h-12.1c-0.4,0-0.8,0.3-0.8,0.8c0,0.2,0.1,0.5,0.3,0.6l9.9,7.2l-3.8,11.8c-0.1,0.4,0.1,0.8,0.5,1c0.2,0.1,0.5,0,0.7-0.1
	l9.9-7.2l9.9,7.2c0.3,0.2,0.8,0.2,1-0.2c0.1-0.2,0.2-0.5,0.1-0.7l-3.8-11.8l9.9-7.2c0.3-0.2,0.4-0.7,0.2-1.1
	c-0.1-0.2-0.4-0.3-0.6-0.3h-12.1l-3.8-11.4C299.6,277.4,299.3,277.1,298.9,277.2L298.9,277.2z M272.8,139.5l-2.4,8.3l-2.4-8.3h-4.9
	v13.1h3.5v-7.8l2.3,7.8h2.9l2.3-7.8v7.8h3.5v-13.1H272.8L272.8,139.5z M288.5,152.6h4l-4.7-13.1h-4l-4.7,13.1h4l0.7-2.3h4.1
	L288.5,152.6L288.5,152.6z M287,147.6h-2.5l1.2-4.3L287,147.6z M305.4,152.6l-4-6.7l3.8-6.4h-4.3l-1.9,3.6l-2-3.6h-4.3l3.8,6.4
	l-4,6.7h4.3l2.1-3.9l2.1,3.9H305.4L305.4,152.6z M319.3,139.5l-2.3,8.2l-2.3-8.2h-4.1l4.3,13.1h4l4.4-13.1H319.3z M324.6,152.6h8.4
	v-3.2h-4.6v-2h4.2v-3h-4.2v-1.8h4.4v-3.2h-8.2L324.6,152.6L324.6,152.6z M335,152.6h3.8v-4.2h0.5l2.3,4.2h4.3l-2.9-5
	c1.2-0.7,1.9-2,1.9-3.6c0-2.8-1.9-4.5-5-4.5H335L335,152.6L335,152.6z M338.8,145.4v-2.8h1.1c0.9,0,1.4,0.5,1.4,1.4
	s-0.6,1.4-1.4,1.4H338.8z M351.7,152.9c3.1,0,5-1.6,5-4.2c0-1.9-1-3-3.4-3.9l-1.5-0.6c-0.8-0.3-1.1-0.6-1.1-1.1s0.5-0.9,1.1-0.9
	c0.7,0,1.2,0.4,1.2,1.3h3.5c-0.2-2.7-1.9-4.2-4.7-4.2s-4.8,1.6-4.8,3.9c0,2,1.1,3.3,3.4,4.1l1.5,0.5c0.9,0.3,1.1,0.6,1.1,1.1
	c0,0.6-0.5,1-1.4,1c-1,0-1.5-0.5-1.5-1.6h-3.6C346.5,151.2,348.5,152.9,351.7,152.9L351.7,152.9z M360.5,152.6h3.8v-9.7h3.4v-3.4
	h-10.4v3.4h3.2L360.5,152.6L360.5,152.6z M376.1,152.6h4l-4.7-13.1h-4l-4.7,13.1h4l0.7-2.3h4.1L376.1,152.6L376.1,152.6z
	 M374.6,147.6h-2.5l1.2-4.3L374.6,147.6z M381.3,152.6h3.8v-4.2h1.1c3.1,0,5-1.6,5-4.4s-1.9-4.5-5-4.5h-4.9V152.6L381.3,152.6z
	 M385,145.5v-2.8h1.1c0.9,0,1.4,0.5,1.4,1.4s-0.6,1.4-1.4,1.4H385z M392.8,152.6h3.8v-4.2h1.1c3.1,0,5-1.6,5-4.4s-1.9-4.5-5-4.5
	h-4.9V152.6L392.8,152.6z M396.5,145.5v-2.8h1.1c0.9,0,1.4,0.5,1.4,1.4s-0.6,1.4-1.4,1.4H396.5z M404.2,152.6h8.4v-3.2H408v-2h4.2
	v-3H408v-1.8h4.4v-3.2h-8.2L404.2,152.6L404.2,152.6z M422.2,139.5v7.1l-3.7-7.1h-3.9v13.1h3.6v-7.1l3.7,7.1h3.9v-13.1H422.2z
	 M190,225l0.3-14.5c0.2-11.2-7.1-19.4-17.2-19.6s-17.5,7.6-17.8,18.9l-0.3,14.5L190,225z M181.1,214.7l-16.8-0.3l0.1-4.3
	c0.1-5.4,3.3-8.7,8.4-8.6c5.2,0.1,8.5,3.6,8.4,8.9L181.1,214.7L181.1,214.7z M191.6,188.3l2.5-9.9l-11-2.8l0.3-1.3l12.5-3.1
	l2.8-11.3l-14.8,4.2c-1.1-3.7-3.9-6.2-8.1-7.3c-7.3-1.8-12.9,2-14.9,10.1l-3.2,12.8L191.6,188.3L191.6,188.3z M175.5,173.8l-7.4-1.9
	l0.7-2.8c0.6-2.2,2.3-3.3,4.6-2.8c2.3,0.6,3.4,2.4,2.8,4.6L175.5,173.8L175.5,173.8z M200.2,158.2l4-9.3L172,135.2l-4,9.3
	L200.2,158.2L200.2,158.2z M187.1,108.3l15.3,16.9l-21.8-6.6l-5.9,9.2l35.8,9l5.8-9.2L192.9,99L187.1,108.3L187.1,108.3z
	 M224.1,116.9l15.6-16.3l-6.1-5.9l-8.6,8.9l-3.8-3.7l7.8-8.1l-5.7-5.5l-7.8,8.2l-3.5-3.4l8.2-8.5l-6.1-5.9l-15.2,15.8L224.1,116.9
	L224.1,116.9z M242.5,98.1l8.3-5.8l-6.5-9.3l1.1-0.8l11.5,5.8l9.5-6.7l-13.9-6.5c1.6-3.5,1.1-7.2-1.4-10.8
	c-4.3-6.1-11.1-6.9-17.9-2.1l-10.8,7.6L242.5,98.1L242.5,98.1z M239.7,76.7l-4.4-6.2l2.3-1.7c1.9-1.3,3.9-1,5.3,0.9
	c1.4,1.9,1,4-0.9,5.3C242.1,75,239.7,76.7,239.7,76.7z M279.2,76.7c7.5-3.3,10.4-9.3,7.6-15.6c-2.1-4.7-5.5-6.2-12.5-5.8l-4.4,0.2
	c-2.3,0.2-3.4-0.3-4-1.6c-0.6-1.3,0.1-2.7,1.7-3.4c1.8-0.8,3.3-0.2,4.3,1.8l8.6-3.8c-3.4-6.4-9.1-8.2-16.1-5.2
	c-6.9,3.1-10,9-7.5,14.8c2.1,4.8,6.3,6.9,12.8,6.4l4.2-0.3c2.4-0.2,3.4,0.2,4,1.5c0.7,1.5-0.3,3-2.2,3.9c-2.3,1-4.2,0.3-5.4-2.2
	l-8.8,3.9C264.8,78.1,271.5,80.1,279.2,76.7L279.2,76.7z M288.8,52l7.5-2.1l-1.1-16.3l-10.5,2.9L288.8,52L288.8,52z M338.2,64.1
	c10.3-0.1,17.9-6.5,18.6-15.7l-10.6,0c-0.9,3.9-4,6.3-8.1,6.3c-4.9,0-8.4-3.6-8.4-8.9c0-5.3,3.4-8.9,8.3-9c4.1,0,7.3,2.4,8.2,6.3
	l10.6,0c-0.7-9.2-8.5-15.5-18.8-15.5c-11.1,0.1-19,7.7-18.9,18.3C319.2,56.6,327.1,64.2,338.2,64.1L338.2,64.1z M359.6,64.1l9.8,2.4
	l3.2-13l9.4,2.3l-3.2,13l9.8,2.4l8.3-34l-9.8-2.4L384,47l-9.4-2.3l3-12.1l-9.8-2.4L359.6,64.1L359.6,64.1z M412.6,82.8l9.5,4.8
	l4.6-37l-9.6-4.9L390,71.3l9.5,4.8l4.5-4.6l9.8,4.9L412.6,82.8L412.6,82.8z M415.1,69l-5.9-3l8.2-8.8L415.1,69L415.1,69z
	 M465.7,79.1l-19.4,12.3l10-20.8l-9.8-8.7l-23.3,26.1l7.1,6.3l13.9-15.6l-9.3,19.7l5.8,5.2l18.5-11.5l-13.9,15.6l7.1,6.3L475.6,88
	L465.7,79.1L465.7,79.1z M454.8,118.4l5.7,8.4l9.4-6.4l1.7,2.5c4.7,6.9,11.2,8.6,17.2,4.5c6.2-4.2,7-11,2.4-17.8l-7.4-10.9
	L454.8,118.4L454.8,118.4z M476.2,116l6.3-4.3l1.6,2.4c1.3,1.9,0.9,3.9-1,5.2c-1.9,1.3-4,0.9-5.3-1L476.2,116L476.2,116z
	 M470.5,143.2l4.4,9.1l31.6-15.2l-4.4-9.2L470.5,143.2z M481.7,173.8c2.9,10.8,12.3,16.6,22.5,13.9c10.2-2.7,15.5-12.4,12.6-23.2
	c-2.9-10.9-12.2-16.7-22.5-13.9C484,153.3,478.8,163,481.7,173.8z M490.6,171.4c-1.3-4.9,1.4-9.4,6.4-10.7c5-1.3,9.5,1.2,10.8,6.1
	c1.3,4.9-1.4,9.3-6.4,10.6C496.5,178.8,491.9,176.3,490.6,171.4L490.6,171.4z M522.4,214.8l-19,0.2l18.8-10l-0.1-10.5l-35.1,0.4
	l0.1,9.6l19-0.2l-18.9,10.1l0.1,10.4l35.1-0.4L522.4,214.8L522.4,214.8z M374.5,160h-46.9l-28.4,13.2l13.5,25.9l7.4-3.8L306.4,260
	h46.9L374.5,160L374.5,160z"/>
<g>
	<path class="st0" d="M304.6,385.1l-1.2,4.5l-22-5.8l0.6-2.3c0.4-1.6,1.1-3,2-4.1c0.9-1.1,1.9-2.1,3-2.9s2.3-1.5,3.5-2
		c1.3-0.5,2.5-1,3.7-1.4c1.6-0.5,2.9-0.9,4-1.3c1.1-0.4,2-0.8,2.8-1.2c0.8-0.4,1.3-0.9,1.8-1.5c0.4-0.5,0.7-1.3,1-2.1
		c0.5-1.9,0.4-3.4-0.4-4.5c-0.8-1.1-1.9-1.9-3.4-2.3c-1.7-0.4-3.2-0.2-4.5,0.6c-1.3,0.8-2.2,2.2-2.7,4l-5.1-1.3
		c0.4-1.6,1.1-3.1,2-4.2c0.9-1.2,1.9-2.1,3.1-2.8c1.2-0.7,2.5-1.1,4-1.3c1.5-0.1,3,0,4.6,0.4c1.5,0.4,2.9,1,4,1.8
		c1.1,0.8,2,1.7,2.7,2.8c0.7,1.1,1.1,2.3,1.3,3.7c0.2,1.3,0.1,2.8-0.3,4.3c-0.4,1.4-0.9,2.6-1.6,3.5c-0.7,0.9-1.6,1.7-2.6,2.4
		s-2.1,1.2-3.4,1.7s-2.7,0.9-4.2,1.4c-2.4,0.7-4.3,1.5-5.8,2.2c-1.5,0.8-2.7,1.9-3.6,3.3L304.6,385.1L304.6,385.1z"/>
	<path class="st0" d="M329.3,393c-2.5-0.1-4.7-0.7-6.8-1.7c-2-1-3.8-2.3-5.3-4s-2.6-3.5-3.4-5.7s-1.1-4.5-1-7
		c0.1-2.5,0.7-4.8,1.6-6.9c1-2.1,2.3-3.8,3.9-5.3c1.6-1.5,3.5-2.6,5.6-3.4c2.1-0.8,4.5-1.1,6.9-1c2.5,0.1,4.7,0.7,6.8,1.7
		c2.1,1,3.8,2.3,5.3,3.9c1.5,1.6,2.6,3.5,3.3,5.7s1.1,4.5,1,7c-0.1,2.5-0.7,4.8-1.6,6.9c-1,2.1-2.3,3.9-3.9,5.3
		c-1.6,1.5-3.5,2.6-5.7,3.4S331.8,393.1,329.3,393L329.3,393z M329.6,388.1c1.7,0.1,3.3-0.1,4.8-0.7c1.5-0.6,2.8-1.4,3.9-2.4
		c1.1-1.1,2-2.4,2.7-3.9s1.1-3.2,1.2-5c0.1-1.8-0.1-3.5-0.6-5c-0.5-1.6-1.3-2.9-2.3-4.1c-1-1.2-2.2-2.1-3.6-2.8s-3-1.1-4.6-1.2
		c-1.7-0.1-3.3,0.1-4.8,0.7c-1.5,0.6-2.8,1.4-3.9,2.4c-1.1,1-2,2.3-2.7,3.8s-1.1,3.2-1.1,5c-0.1,1.8,0.1,3.5,0.6,5.1
		c0.5,1.6,1.3,3,2.3,4.1c1,1.2,2.2,2.1,3.6,2.8C326.3,387.7,327.9,388.1,329.6,388.1L329.6,388.1z"/>
	<path class="st0" d="M377.5,384.1l0.7,4.6l-22.5,3.5l-0.4-2.3c-0.2-1.6-0.2-3.1,0.1-4.5c0.4-1.4,0.9-2.7,1.6-3.9
		c0.7-1.2,1.5-2.2,2.5-3.2s1.9-1.9,2.8-2.7c1.2-1.1,2.3-2,3.2-2.8s1.6-1.5,2.1-2.2s0.9-1.4,1-2c0.2-0.7,0.2-1.5,0-2.3
		c-0.3-1.9-1-3.2-2.2-4s-2.5-1-4-0.8c-1.7,0.3-3,1-3.9,2.3c-0.9,1.3-1.2,2.9-0.9,4.8l-5.2,0.8c-0.3-1.7-0.2-3.2,0.1-4.7
		c0.3-1.4,0.9-2.7,1.7-3.8c0.8-1.1,1.8-2,3.1-2.8c1.3-0.7,2.8-1.2,4.4-1.5c1.6-0.2,3-0.2,4.4,0c1.4,0.3,2.6,0.8,3.6,1.5
		c1.1,0.7,1.9,1.7,2.6,2.8c0.7,1.2,1.2,2.5,1.4,4.1c0.2,1.5,0.2,2.7-0.1,3.9s-0.8,2.2-1.4,3.2c-0.6,1-1.5,2-2.5,2.9
		c-1,1-2.1,1.9-3.3,3c-1.9,1.6-3.4,3.1-4.4,4.4c-1.1,1.3-1.7,2.8-1.9,4.5L377.5,384.1L377.5,384.1z"/>
	<path class="st0" d="M397.2,364.3c1.8,0.2,3.4,0.7,4.6,1.8c1.3,1,2.2,2.4,2.8,4.2c0.5,1.4,0.6,2.8,0.5,4.2
		c-0.2,1.4-0.6,2.6-1.3,3.8c-0.7,1.2-1.6,2.2-2.8,3.2c-1.2,0.9-2.6,1.7-4.1,2.2c-3.2,1.1-6.1,1.1-8.7-0.1c-2.5-1.2-4.4-3.4-5.6-6.6
		l4.9-1.7c0.7,1.8,1.7,3,3.1,3.7c1.4,0.7,3,0.8,4.7,0.2c1.8-0.6,3.1-1.6,3.9-3c0.8-1.4,0.9-2.9,0.4-4.5c-0.6-1.6-1.5-2.7-2.9-3.3
		c-1.4-0.5-3-0.5-5,0.2l-3.2,1.1l-1.4-4.2l3.1-1.1c1.7-0.6,2.9-1.4,3.5-2.5c0.6-1.1,0.7-2.4,0.2-3.9c-0.5-1.5-1.3-2.4-2.5-2.9
		s-2.6-0.5-4.2,0.1c-1.6,0.5-2.8,1.4-3.5,2.7s-0.8,2.6-0.4,4l-4.8,1.6c-0.4-1.4-0.5-2.7-0.4-4.1c0.1-1.3,0.5-2.6,1.2-3.7
		s1.5-2.1,2.6-3c1.1-0.9,2.4-1.6,3.9-2.1c1.5-0.5,2.9-0.8,4.3-0.8c1.4,0,2.6,0.2,3.7,0.7c1.1,0.5,2.1,1.2,2.9,2.1
		c0.8,0.9,1.5,2,1.9,3.3c0.5,1.6,0.7,3.1,0.4,4.5S398.2,363.2,397.2,364.3L397.2,364.3z"/>
</g>
</svg>
