<?xml version="1.0" encoding="UTF-8"?>
<svg id="Layer_2" data-name="Layer 2" xmlns="http://www.w3.org/2000/svg" viewBox="0 0 859.7 750.73">
  <defs>
    <style>
      .cls-1 {
        fill: #a18158;
      }
    </style>
  </defs>
  <g id="Layer_1-2" data-name="Layer 1">
    <path class="cls-1" d="M526.1,581.3c-5.4,43.9-39.5,101.8-71.5,120.9-20.3-64.9,34.1-101.6,71.5-120.9ZM333.7,581.3c5.4,43.9,39.5,101.8,71.5,120.9,20.3-64.9-34.1-101.6-71.5-120.9ZM464.1,720.7c22.2,25.7,111.6,53.1,172-1.9-37.9-14.2-98-40.8-172,1.9ZM223.7,718.8c60.4,55,149.8,27.6,172,1.9-73.9-42.7-134-16.1-172-1.9ZM520.6,685.8c44.7-17.4,88-49.6,88-132-66,38.5-82.5,77-88,132ZM251.1,553.8c0,82.4,43.3,114.6,88,132-5.4-55-22-93.5-88-132ZM685.3,650.2c-48.9,0-68.9,10.7-102.6,27.3,23.2,12,49.4,16.7,75.4,13.8,34.5-3.2,54.3-14.9,79.8-37.3-17.4-2.4-35-3.7-52.5-3.8h-.1ZM121.9,654c25.5,22.4,45.3,34,79.8,37.3,25.9,3,52.2-1.8,75.4-13.8-33.4-16.2-53.4-27.3-102.3-27.3-17.7,0-35.3,1.4-52.8,3.8h-.1ZM614.1,647.3c79.6-39.9,93.5-104.5,71.6-170.5-66,82.4-49,140.8-71.6,170.5ZM174.1,476.8c-22,66-8,130.6,71.6,170.5-22.5-29.7-5.5-88.1-71.6-170.5ZM663.6,630.8c38.5,5.4,110.1,0,140.7-59-63.7-12.5-124.3,42.5-140.7,59ZM55.4,571.7c30.8,59,102.2,64.5,140.7,59-16.4-16.5-77-71.6-140.7-59h0ZM721.2,565.1c57.9-5.8,112.8-33,123-99.8-55.5,7-102.1,47.9-123,99.8ZM15.5,465.2c10.2,66.9,65.2,94,123,99.8-20.9-52-67.5-92.9-123-99.8ZM723.5,519.5c18.8-26.5,39.1-98,17.1-136.2-26.7,25.8-29.8,76.7-17.1,136.2ZM119.1,383.3c-22,38.2-1.7,109.8,17.1,136.2,12.7-59.5,9.6-110.4-17.1-136.2h0ZM753.4,483.5c31.9-11.5,86.9-36.6,99.7-79.5-44.8,7.4-82.5,37.5-99.7,79.5ZM6.6,404c12.8,42.9,67.8,68,99.7,79.5-17.2-42-55-72.1-99.7-79.5ZM781.5,411.3c34.5-17.4,68.7-39.2,78.2-77.4-35.1,14.6-63.2,42.4-78.2,77.4ZM0,333.9c9.6,38.2,43.8,60,78.2,77.4-15-35-43.1-62.7-78.2-77.4h0ZM757,350.3c.9,12.5,4.7,24.7,11.1,35.5,24.8-21.9,38.4-41.1,43.9-74,3.2-18.5,0-44-10.9-77-16.7,24.3-44,66-44.1,115.5h0ZM58.6,234.8c-10.9,33-14,58.5-10.9,77,5.5,33,18.6,52.2,43.9,74,6.4-10.8,10.2-23,11.1-35.5,0-49.5-27.4-91.2-44.1-115.5h0ZM595.7,268.1c0-91.3-74.3-165.5-165.5-165.5s-165.5,74.3-165.5,165.5,74.3,165.5,165.5,165.5,165.5-74.3,165.5-165.5h0ZM589.3,268.1c0,87.7-71.4,159.1-159.1,159.1s-159.1-71.4-159.1-159.1,71.4-159.1,159.1-159.1,159.1,71.4,159.1,159.1h0ZM698.3,268.1C698.3,120.3,578,0,430.2,0S162.1,120.3,162.1,268.1s120.3,268.1,268.1,268.1,268.1-120.3,268.1-268.1h0ZM687.5,268.1c0,141.9-115.5,257.4-257.4,257.4s-257.4-115.5-257.4-257.4S288.2,10.7,430.1,10.7s257.4,115.5,257.4,257.4h0ZM346.5,177.2l-3,10.5-3-10.5h-6.2v16.6h4.5v-9.9l2.9,9.9h3.7l2.9-9.9v9.9h4.5v-16.6h-6.3ZM366.4,193.9h5l-6-16.6h-5.1l-6,16.6h5l.9-2.9h5.2l.9,2.9h.1ZM364.5,187.5h-3.1l1.6-5.5,1.6,5.5h-.1ZM388,193.9l-5.1-8.6,4.8-8.1h-5.4l-2.4,4.5-2.5-4.5h-5.4l4.8,8.1-5.1,8.6h5.4l2.7-5,2.7,5h5.5ZM405.6,177.2l-2.9,10.4-2.9-10.4h-5.2l5.5,16.6h5.1l5.5-16.6h-5.2.1ZM412.3,193.9h10.7v-4h-5.9v-2.5h5.4v-3.8h-5.4v-2.3h5.6v-4h-10.4v16.6h0ZM425.6,193.9h4.8v-5.4h.6l2.9,5.4h5.5l-3.6-6.3c1.6-.9,2.4-2.5,2.4-4.6,0-3.6-2.4-5.7-6.4-5.7h-6.3v16.6h.1ZM430.3,184.8v-3.6h1.4c1.1,0,1.8.7,1.8,1.8s-.7,1.8-1.8,1.8h-1.4ZM446.7,194.2c3.9,0,6.3-2,6.3-5.3s-1.2-3.8-4.3-4.9l-2-.7c-1-.4-1.4-.8-1.4-1.5s.6-1.1,1.4-1.1,1.5.6,1.5,1.6h4.5c-.2-3.4-2.4-5.3-6-5.3s-6.1,2-6.1,5,1.4,4.2,4.3,5.2l1.9.7c1.1.4,1.5.7,1.5,1.4s-.7,1.3-1.7,1.3-1.9-.7-1.9-2h-4.6c0,3.6,2.6,5.8,6.6,5.8v-.2ZM457.8,193.9h4.8v-12.3h4.4v-4.3h-13.2v4.3h4v12.3ZM477.7,193.9h5l-6-16.6h-5.1l-6,16.6h5l.9-2.9h5.2l.9,2.9h.1ZM475.8,187.5h-3.1l1.6-5.5,1.6,5.5h-.1ZM484.3,193.9h4.8v-5.4h1.4c4,0,6.4-2.1,6.4-5.5s-2.4-5.7-6.4-5.7h-6.3v16.6h.1ZM489.1,184.8v-3.6h1.4c1.1,0,1.8.7,1.8,1.8s-.7,1.8-1.8,1.8h-1.4ZM498.9,193.9h4.8v-5.4h1.4c4,0,6.4-2.1,6.4-5.5s-2.4-5.7-6.4-5.7h-6.3v16.6h.1ZM503.7,184.8v-3.6h1.4c1.1,0,1.8.7,1.8,1.8s-.7,1.8-1.8,1.8h-1.4ZM513.5,193.9h10.7v-4h-5.9v-2.5h5.4v-3.8h-5.4v-2.3h5.6v-4h-10.4v16.6h0ZM536.3,177.2v9l-4.6-9h-5v16.6h4.6v-9l4.7,9h4.9v-16.6h-4.6ZM241.3,285.9l.4-18.4c.3-14.2-9-24.7-21.9-25s-22.3,9.6-22.6,24.1l-.4,18.4,44.5.9ZM230,272.8l-21.3-.4v-5.5c.2-6.9,4.4-11,10.8-10.9,6.6.1,10.7,4.5,10.6,11.3v5.5h-.1ZM243.3,239.2l3.1-12.5-14-3.5.4-1.7,15.9-3.9,3.6-14.3-18.8,5.3c-1.4-4.7-4.9-7.9-10.3-9.3-9.2-2.3-16.4,2.6-19,12.8l-4.1,16.2,43.2,10.9h0ZM222.9,220.8l-9.4-2.4.9-3.5c.7-2.8,3-4.2,5.8-3.5,2.9.7,4.3,3.1,3.6,5.9l-.9,3.5ZM254.3,201l5.1-11.8-40.9-17.4-5,11.9,40.9,17.4h-.1v-.1ZM237.6,137.6l19.4,21.4-27.7-8.4-7.5,11.7,45.5,11.4,7.4-11.6-29.7-36.4-7.5,11.8h.1v.1ZM284.7,148.5l19.8-20.6-7.8-7.5-10.9,11.4-4.9-4.7,9.9-10.3-7.2-7-9.9,10.4-4.4-4.3,10.4-10.8-7.8-7.5-19.3,20.1,32.1,30.8h0ZM308,124.6l10.5-7.4-8.3-11.8,1.4-1,14.6,7.4,12-8.5-17.7-8.2c2-4.4,1.4-9.2-1.8-13.8-5.5-7.8-14.1-8.7-22.7-2.6l-13.7,9.6,25.6,36.3h.1ZM304.5,97.4l-5.6-7.9,3-2.1c2.4-1.7,5-1.3,6.7,1.1,1.7,2.4,1.3,5.1-1.1,6.8l-3,2.1h0ZM354.6,97.4c9.5-4.2,13.2-11.8,9.7-19.8-2.6-6-7-7.9-15.9-7.4l-5.6.3c-2.9.2-4.4-.4-5.1-2s.2-3.4,2.2-4.3c2.3-1,4.2-.2,5.5,2.3l10.9-4.8c-4.3-8.1-11.6-10.5-20.4-6.6s-12.7,11.4-9.5,18.8c2.7,6.1,8,8.8,16.2,8.1l5.3-.4c3.1-.2,4.4.2,5.1,1.9.8,1.9-.3,3.8-2.8,4.9-3,1.3-5.3.4-6.8-2.8l-11.2,4.9c4.1,8.7,12.6,11.3,22.4,6.9h0ZM366.8,66l9.5-2.6-1.4-20.7-13.3,3.7,5.3,19.6h-.1ZM429.6,81.4c13.1,0,22.8-8.2,23.6-19.9h-13.4c-1.1,5-5.1,8.1-10.3,8.1s-10.7-4.6-10.7-11.3,4.4-11.3,10.6-11.4c5.2,0,9.3,3.1,10.4,7.9h13.4c-.9-11.8-10.8-19.8-23.9-19.7-14.1,0-24.1,9.8-24,23.3,0,13.4,10.1,23,24.3,23h0ZM456.7,81.5l12.5,3,4-16.6,11.9,2.9-4.1,16.6,12.5,3,10.6-43.2-12.5-3-3.8,15.4-11.9-2.9,3.8-15.4-12.5-3-10.5,43.2ZM524.1,105.2l12,6.1,5.9-47-12.2-6.2-34.4,32.5,12,6.1,5.7-5.8,12.4,6.3-1.4,8ZM527.3,87.7l-7.5-3.8,10.4-11.2-2.9,15ZM591.5,100.5l-24.7,15.6,12.6-26.4-12.4-11.1-29.6,33.2,9,8,17.7-19.8-11.8,25,7.4,6.6,23.5-14.6-17.7,19.8,9,8,29.6-33.2-12.5-11.2h0l-.1.1ZM577.6,150.4l7.3,10.6,11.9-8.1,2.2,3.2c6,8.8,14.2,10.9,21.8,5.7,7.9-5.4,9-13.9,3-22.7l-9.4-13.8-36.7,25h0l-.1.1ZM604.9,147.3l8-5.4,2,3c1.6,2.4,1.2,5-1.2,6.7-2.5,1.7-5.1,1.2-6.8-1.2l-2-3h0v-.1ZM597.7,181.8l5.6,11.6,40.1-19.3-5.6-11.6-40.1,19.3ZM611.8,220.8c3.7,13.7,15.6,21.1,28.6,17.6s19.7-15.8,16-29.5c-3.7-13.8-15.6-21.2-28.6-17.7s-19.7,15.8-16,29.6ZM623.2,217.7c-1.7-6.3,1.7-11.9,8.1-13.6,6.3-1.7,12.1,1.5,13.8,7.7s-1.8,11.8-8.1,13.5c-6.4,1.7-12.2-1.5-13.8-7.7h0v.1ZM663.6,272.8l-24.1.3,23.9-12.8-.2-13.3-44.5.6.2,12.2,24.2-.3-24,12.8.2,13.2,44.5-.6-.2-12.2h0v.1ZM475.7,203.2h-59.6l-36.1,16.8,17.1,33,9.4-4.8-17.5,82.2h59.6l27-127.1h0l.1-.1Z"/>
    <g>
      <path class="cls-1" d="M405.2,347.2c-.4,0-.7.3-.9.7l-4.8,14.4h-15.4c-.5,0-1,.4-1,1s.1.6.4.8l12.5,9.2-4.8,14.9c-.2.5.1,1,.6,1.2h.9l12.5-9.2,12.5,9.2c.4.3,1,.2,1.3-.2.2-.2.2-.6,0-.9l-4.8-14.9,12.5-9.2c.4-.3.5-.9.2-1.3-.2-.2-.5-.4-.8-.4h-15.4l-4.8-14.4c0-.4-.5-.7-1-.7h.2l.1-.2Z"/>
      <path class="cls-1" d="M455,347.2c-.4,0-.7.3-.9.7l-4.8,14.4h-15.4c-.5,0-1,.4-1,1s0,.6.4.8l12.5,9.2-4.8,14.9c-.2.5,0,1,.6,1.2h.9l12.5-9.2,12.5,9.2c.4.3,1,.2,1.3-.2.2-.2.2-.6,0-.9l-4.8-14.9,12.5-9.2c.4-.3.5-.9.2-1.3-.2-.2-.5-.4-.8-.4h-15.4l-4.8-14.4c0-.4-.5-.7-1-.7h.2l.1-.2Z"/>
      <path class="cls-1" d="M504.9,347.2c-.4,0-.7.3-.9.7l-4.8,14.4h-15.4c-.5,0-1,.4-1,1s0,.6.4.8l12.5,9.2-4.8,14.9c-.2.5,0,1,.6,1.2h.9l12.5-9.2,12.5,9.2c.4.3,1,.2,1.3-.2.2-.2.2-.6,0-.9l-4.8-14.9,12.5-9.2c.4-.3.5-.9.2-1.3-.2-.2-.5-.4-.8-.4h-15.4l-4.8-14.4c0-.4-.5-.7-1-.7h.2l.1-.2Z"/>
      <path class="cls-1" d="M355.3,347.2c-.4,0-.7.3-.9.7l-4.8,14.4h-15.4c-.5,0-1,.4-1,1s.1.6.4.8l12.5,9.2-4.8,14.9c-.2.5.1,1,.6,1.2h.9l12.5-9.2,12.5,9.2c.4.3,1,.2,1.3-.2.2-.2.2-.6.1-.9l-4.8-14.9,12.5-9.2c.4-.3.5-.9.2-1.3-.2-.2-.5-.4-.8-.4h-15.4l-4.8-14.4c-.1-.4-.5-.7-1-.7h.2v-.2Z"/>
    </g>
    <g>
      <path class="cls-1" d="M382.7,489.8l-1.5,5.2-25.4-7.3.8-2.6c.5-1.8,1.3-3.4,2.4-4.7s2.2-2.4,3.6-3.3c1.3-.9,2.7-1.6,4.2-2.2,1.5-.6,2.9-1.1,4.3-1.5,1.8-.5,3.4-1,4.7-1.4,1.3-.4,2.4-.8,3.3-1.3s1.6-1,2.1-1.6.9-1.4,1.2-2.4c.6-2.2.5-3.9-.4-5.3s-2.2-2.3-3.8-2.8c-1.9-.6-3.7-.4-5.2.5-1.6.9-2.6,2.4-3.3,4.6l-5.9-1.7c.5-1.9,1.3-3.5,2.4-4.9,1-1.4,2.3-2.4,3.7-3.2,1.4-.8,2.9-1.2,4.6-1.4,1.7,0,3.5,0,5.4.6,1.8.5,3.3,1.2,4.6,2.2,1.3.9,2.3,2.1,3.1,3.3.8,1.3,1.2,2.7,1.4,4.3.2,1.6,0,3.2-.5,5-.5,1.6-1.1,3-2,4-.8,1-1.9,1.9-3,2.7-1.2.7-2.5,1.4-4,1.9s-3.2,1-4.9,1.5c-2.8.8-5,1.6-6.8,2.5s-3.2,2.1-4.2,3.7l19.3,5.6h-.2Z"/>
      <path class="cls-1" d="M410.8,499.9c-2.9-.3-5.5-1-7.8-2.2s-4.3-2.8-5.9-4.8c-1.6-2-2.8-4.2-3.6-6.8-.8-2.5-1.1-5.3-.8-8.2s1-5.5,2.2-7.9,2.8-4.4,4.7-6,4.2-2.9,6.7-3.7,5.2-1.1,8.1-.8c2.9.3,5.5,1,7.8,2.2,2.4,1.2,4.4,2.8,6,4.8s2.8,4.2,3.6,6.7,1.1,5.3.8,8.2-1,5.5-2.2,7.9-2.8,4.4-4.8,6c-2,1.7-4.2,2.9-6.7,3.7s-5.2,1.1-8.1.8h0v.1ZM411.4,494.3c2,.2,3.8,0,5.6-.6,1.7-.6,3.3-1.5,4.6-2.7s2.4-2.6,3.3-4.4c.9-1.7,1.4-3.7,1.6-5.8.2-2.1,0-4-.5-5.9-.5-1.8-1.4-3.4-2.5-4.8-1.1-1.4-2.5-2.5-4.1-3.4s-3.4-1.4-5.3-1.6c-2-.2-3.8,0-5.6.6-1.7.6-3.3,1.5-4.6,2.6-1.3,1.2-2.4,2.6-3.3,4.3-.9,1.7-1.4,3.6-1.6,5.7-.2,2.1,0,4.1.5,6s1.4,3.5,2.5,4.9,2.5,2.5,4.1,3.4,3.4,1.4,5.4,1.6h-.1v.1Z"/>
      <path class="cls-1" d="M466.9,492.3l.5,5.4-26.3,2.6-.3-2.7c-.2-1.9,0-3.6.5-5.2.5-1.6,1.2-3.1,2.1-4.4.9-1.3,1.9-2.5,3.1-3.6,1.2-1.1,2.3-2.1,3.5-3,1.5-1.2,2.8-2.2,3.9-3,1.1-.8,1.9-1.7,2.6-2.4.6-.8,1.1-1.5,1.3-2.3s.3-1.7.2-2.7c-.2-2.2-1-3.8-2.3-4.8-1.3-.9-2.9-1.3-4.6-1.1-2,.2-3.6,1-4.7,2.5-1.1,1.4-1.5,3.3-1.3,5.5l-6.1.6c-.2-2,0-3.8.4-5.4.5-1.6,1.2-3.1,2.2-4.3,1-1.3,2.3-2.3,3.8-3,1.5-.8,3.3-1.2,5.2-1.4s3.6,0,5.1.3c1.6.4,2.9,1,4.1,2,1.2.9,2.1,2.1,2.9,3.5.7,1.4,1.2,3,1.4,4.9.2,1.7,0,3.2-.3,4.5-.4,1.3-1,2.5-1.8,3.6s-1.8,2.2-3,3.2-2.5,2.1-4,3.2c-2.3,1.7-4.1,3.4-5.4,4.8-1.3,1.5-2.2,3.1-2.5,5l20-2-.2-.3h0Z"/>
      <path class="cls-1" d="M502.4,481.9l-5.2,1.4,1.8,6.7-5.8,1.6-1.8-6.7-17.6,4.7-1.3-4.8,9.9-30.8,6.6-1.8,6.9,26,5.2-1.4,1.4,5.2h-.1v-.1ZM478.4,482.8l11.8-3.2-5-18.8-6.8,22Z"/>
    </g>
  </g>
</svg>